<?xml version="1.0" encoding="iso-8859-1"?>
<!-- Generator: Adobe Illustrator 19.0.0, SVG Export Plug-In . SVG Version: 6.00 Build 0)  -->
<svg version="1.1" id="Layer_1" xmlns="http://www.w3.org/2000/svg" xmlns:xlink="http://www.w3.org/1999/xlink" x="0px" y="0px"
	 viewBox="0 0 512 512" style="enable-background:new 0 0 512 512;" xml:space="preserve">
<g>
	<g>
		<path d="M504.533,379.733h-9.6v-282.7c0-18.8-14.242-33.033-33.067-33.033h-409.6c-18.825,0-35.2,14.233-35.2,33.033v282.7H9.6
			c-4.717,0-9.6,2.75-9.6,7.467v25.6C0,431.625,16.367,448,35.167,448h443.8c18.8,0,33.033-16.375,33.033-35.2v-25.6
			C512,382.483,509.25,379.733,504.533,379.733z M34.133,97.033c0-9.392,8.725-15.967,18.133-15.967h409.6
			c9.408,0,16,6.575,16,15.967v282.7h-144c-4.717,0-9.6,2.75-9.6,7.467v9.6h-128v-9.6c0-4.717-2.75-7.467-7.467-7.467H34.133V97.033
			z M494.933,412.8c0,9.408-6.575,18.133-15.967,18.133h-443.8c-9.392,0-18.1-8.725-18.1-18.133v-16H179.2v7.467
			c0,4.717,4.883,9.6,9.6,9.6h145.067c4.717,0,7.467-4.883,7.467-9.6V396.8h153.6V412.8z"/>
	</g>
</g>
<g>
	<g>
		<path d="M452.267,98.133H59.733c-4.713,0-8.533,3.821-8.533,8.533v247.467c0,4.713,3.821,8.533,8.533,8.533h392.533
			c4.713,0,8.533-3.821,8.533-8.533V106.667C460.8,101.954,456.979,98.133,452.267,98.133z M443.733,345.6H68.267V115.2h375.467
			V345.6z"/>
	</g>
</g>
<g>
	<g>
		<path d="M393.6,285.867h-240V139.733c0-4.717-3.817-8.533-8.533-8.533c-4.717,0-8.533,3.817-8.533,8.533v146.133h-16
			c-4.717,0-8.533,3.817-8.533,8.533c0,4.717,3.817,8.533,8.533,8.533h16v16.2c0,4.717,3.817,8.533,8.533,8.533
			c4.717,0,8.533-3.817,8.533-8.533v-16.2h240c4.717,0,8.533-3.817,8.533-8.533C402.133,289.683,398.317,285.867,393.6,285.867z"/>
	</g>
</g>
<g>
	<g>
		<path d="M221.867,140.8H179.2c-4.713,0-8.533,3.821-8.533,8.533V268.8c0,4.713,3.821,8.533,8.533,8.533h42.667
			c4.713,0,8.533-3.821,8.533-8.533V149.333C230.4,144.621,226.579,140.8,221.867,140.8z M213.333,260.267h-25.6v-102.4h25.6
			V260.267z"/>
	</g>
</g>
<g>
	<g>
		<path d="M298.667,174.933H256c-4.713,0-8.533,3.821-8.533,8.533V268.8c0,4.713,3.821,8.533,8.533,8.533h42.667
			c4.713,0,8.533-3.821,8.533-8.533v-85.333C307.2,178.754,303.379,174.933,298.667,174.933z M290.133,260.267h-25.6V192h25.6
			V260.267z"/>
	</g>
</g>
<g>
	<g>
		<path d="M375.467,209.067H332.8c-4.713,0-8.533,3.821-8.533,8.533v51.2c0,4.713,3.821,8.533,8.533,8.533h42.667
			c4.713,0,8.533-3.821,8.533-8.533v-51.2C384,212.887,380.179,209.067,375.467,209.067z M366.933,260.267h-25.6v-34.133h25.6
			V260.267z"/>
	</g>
</g>
<g>
</g>
<g>
</g>
<g>
</g>
<g>
</g>
<g>
</g>
<g>
</g>
<g>
</g>
<g>
</g>
<g>
</g>
<g>
</g>
<g>
</g>
<g>
</g>
<g>
</g>
<g>
</g>
<g>
</g>
</svg>
