<?xml version="1.0" ?><svg width="50px" height="50px" viewBox="0 0 50 50" xmlns="http://www.w3.org/2000/svg"><g id="Solid"><path d="M8,8H5A3,3,0,0,1,5,2H8a2.9938,2.9938,0,0,1,2.84111,2.08154A4.48267,4.48267,0,0,1,14.44332,7.833L15.30464,14h6.69529v6H14.12361L12.46285,8.11035a2.46006,2.46006,0,0,0-1.6878-1.97967A3.00169,3.00169,0,0,1,8,8ZM47.99984,40a.99943.99943,0,0,1-1,1H45.23807a4.48671,4.48671,0,0,1-7.2382,5.29352A4.48728,4.48728,0,0,1,30.76168,41H26.23813a4.4867,4.4867,0,0,1-7.23819,5.29352,4.48037,4.48037,0,0,1-7.09952-5.46643A3.98929,3.98929,0,0,1,13,33h2.93957l-.55872-4h6.61912v4h2V29h6v4h2V29h6v4h2V29h5.50761l-.77228,3.62109A3.03255,3.03255,0,0,1,41.77525,35H13a2,2,0,0,0,0,4H46.99984A.99943.99943,0,0,1,47.99984,40Zm-12,3.5a1.5,1.5,0,1,0-1.5,1.5A1.50164,1.50164,0,0,0,35.99988,43.5Zm7,0a1.5,1.5,0,1,0-1.5,1.5A1.50164,1.50164,0,0,0,42.99986,43.5Zm-25.99991,0A1.5,1.5,0,1,0,15.5,45,1.50164,1.50164,0,0,0,16.99995,43.5Zm7,0a1.5,1.5,0,1,0-1.5,1.5A1.50164,1.50164,0,0,0,23.99992,43.5Zm6.98045-33.30371A1.00025,1.00025,0,0,0,30.287,9.042l-10-3a.99986.99986,0,0,0-1.25683.71582L17.71967,12h12.9Zm1.96093.39355L32.65919,12h5.34068V3a.99942.99942,0,0,0-1-1h-12a.99943.99943,0,0,0-1,1V5.06757L30.86123,7.126A2.98711,2.98711,0,0,1,32.9413,10.58984Zm12.05855,1.41162V6a.99943.99943,0,0,0-1-1h-4v7h4.97361ZM23.99992,27h6V22h-6Zm6-13h-6v6h6Zm-8,13V22H14.403l.69843,5ZM37.99987,14h-6v6h6Zm9.93454,3.62012a2.97173,2.97173,0,0,0-.60156-2.498A3.02179,3.02179,0,0,0,44.97348,14H39.99987v6h7.427ZM47.00033,22H39.99987v5H45.934ZM31.99989,27h6V22h-6Z"/></g></svg>