<?xml version="1.0" encoding="UTF-8" standalone="no"?>
<!DOCTYPE svg PUBLIC "-//W3C//DTD SVG 1.1//EN"
 "http://www.w3.org/Graphics/SVG/1.1/DTD/svg11.dtd">
<!-- Generated by graphviz version 7.1.0 (20230121.1956)
 -->
<!-- Title: G Pages: 1 -->
<svg width="2716pt" height="1359pt"
 viewBox="0.00 0.00 2716.20 1359.13" xmlns="http://www.w3.org/2000/svg" xmlns:xlink="http://www.w3.org/1999/xlink">
<g id="graph0" class="graph" transform="scale(1 1) rotate(0) translate(21.6 1337.53)">
<title>G</title>
<polygon fill="#111111" stroke="none" points="-21.6,21.6 -21.6,-1337.53 2694.6,-1337.53 2694.6,21.6 -21.6,21.6"/>
<!-- App.js -->
<g id="node1" class="node">
<title>App.js</title>
<path fill="none" stroke="#c6c5fe" d="M160.33,-572C160.33,-572 118.67,-572 118.67,-572 114.83,-572 111,-568.17 111,-564.33 111,-564.33 111,-556.67 111,-556.67 111,-552.83 114.83,-549 118.67,-549 118.67,-549 160.33,-549 160.33,-549 164.17,-549 168,-552.83 168,-556.67 168,-556.67 168,-564.33 168,-564.33 168,-568.17 164.17,-572 160.33,-572"/>
<text text-anchor="middle" x="139.5" y="-556.8" font-family="Arial" font-size="14.00" fill="#c6c5fe">App.js</text>
</g>
<!-- components/loader/index.js -->
<g id="node2" class="node">
<title>components/loader/index.js</title>
<path fill="none" stroke="#c6c5fe" d="M584.83,-572C584.83,-572 409.17,-572 409.17,-572 405.33,-572 401.5,-568.17 401.5,-564.33 401.5,-564.33 401.5,-556.67 401.5,-556.67 401.5,-552.83 405.33,-549 409.17,-549 409.17,-549 584.83,-549 584.83,-549 588.67,-549 592.5,-552.83 592.5,-556.67 592.5,-556.67 592.5,-564.33 592.5,-564.33 592.5,-568.17 588.67,-572 584.83,-572"/>
<text text-anchor="middle" x="497" y="-556.8" font-family="Arial" font-size="14.00" fill="#c6c5fe">components/loader/index.js</text>
</g>
<!-- App.js&#45;&gt;components/loader/index.js -->
<g id="edge1" class="edge">
<title>App.js&#45;&gt;components/loader/index.js</title>
<path fill="none" stroke="#757575" d="M168.4,-560.5C215.59,-560.5 313.52,-560.5 390.08,-560.5"/>
<polygon fill="#757575" stroke="#757575" points="389.69,-564 399.69,-560.5 389.69,-557 389.69,-564"/>
</g>
<!-- data/menuItems.js -->
<g id="node3" class="node">
<title>data/menuItems.js</title>
<path fill="none" stroke="#c6c5fe" d="M785.33,-772C785.33,-772 667.67,-772 667.67,-772 663.83,-772 660,-768.17 660,-764.33 660,-764.33 660,-756.67 660,-756.67 660,-752.83 663.83,-749 667.67,-749 667.67,-749 785.33,-749 785.33,-749 789.17,-749 793,-752.83 793,-756.67 793,-756.67 793,-764.33 793,-764.33 793,-768.17 789.17,-772 785.33,-772"/>
<text text-anchor="middle" x="726.5" y="-756.8" font-family="Arial" font-size="14.00" fill="#c6c5fe">data/menuItems.js</text>
</g>
<!-- App.js&#45;&gt;data/menuItems.js -->
<g id="edge2" class="edge">
<title>App.js&#45;&gt;data/menuItems.js</title>
<path fill="none" stroke="#757575" d="M168.32,-570.01C261.7,-601.94 564.52,-705.46 680.1,-744.98"/>
<polygon fill="#757575" stroke="#757575" points="678.66,-748.19 689.26,-748.11 680.93,-741.56 678.66,-748.19"/>
</g>
<!-- layout/header/index.js -->
<g id="node4" class="node">
<title>layout/header/index.js</title>
<path fill="none" stroke="#c6c5fe" d="M1018.83,-973C1018.83,-973 881.17,-973 881.17,-973 877.33,-973 873.5,-969.17 873.5,-965.33 873.5,-965.33 873.5,-957.67 873.5,-957.67 873.5,-953.83 877.33,-950 881.17,-950 881.17,-950 1018.83,-950 1018.83,-950 1022.67,-950 1026.5,-953.83 1026.5,-957.67 1026.5,-957.67 1026.5,-965.33 1026.5,-965.33 1026.5,-969.17 1022.67,-973 1018.83,-973"/>
<text text-anchor="middle" x="950" y="-957.8" font-family="Arial" font-size="14.00" fill="#c6c5fe">layout/header/index.js</text>
</g>
<!-- App.js&#45;&gt;layout/header/index.js -->
<g id="edge3" class="edge">
<title>App.js&#45;&gt;layout/header/index.js</title>
<path fill="none" stroke="#757575" d="M152.16,-572.32C166,-585.9 190.23,-608.27 214,-623.5 457.73,-779.66 785.41,-903.46 903.89,-945.78"/>
<polygon fill="#757575" stroke="#757575" points="902.67,-949.06 913.27,-949.11 905.02,-942.47 902.67,-949.06"/>
</g>
<!-- layout/menu/index.js -->
<g id="node5" class="node">
<title>layout/menu/index.js</title>
<path fill="none" stroke="#c6c5fe" d="M350.33,-1137C350.33,-1137 221.67,-1137 221.67,-1137 217.83,-1137 214,-1133.17 214,-1129.33 214,-1129.33 214,-1121.67 214,-1121.67 214,-1117.83 217.83,-1114 221.67,-1114 221.67,-1114 350.33,-1114 350.33,-1114 354.17,-1114 358,-1117.83 358,-1121.67 358,-1121.67 358,-1129.33 358,-1129.33 358,-1133.17 354.17,-1137 350.33,-1137"/>
<text text-anchor="middle" x="286" y="-1121.8" font-family="Arial" font-size="14.00" fill="#c6c5fe">layout/menu/index.js</text>
</g>
<!-- App.js&#45;&gt;layout/menu/index.js -->
<g id="edge4" class="edge">
<title>App.js&#45;&gt;layout/menu/index.js</title>
<path fill="none" stroke="#757575" d="M142.5,-572.4C150.12,-617.15 178.73,-779.5 214,-910.5 233.17,-981.71 262.37,-1064 276.61,-1102.9"/>
<polygon fill="#757575" stroke="#757575" points="273.25,-1103.93 279.99,-1112.1 279.82,-1101.51 273.25,-1103.93"/>
</g>
<!-- pages/login&#45;register/index.js -->
<g id="node6" class="node">
<title>pages/login&#45;register/index.js</title>
<path fill="none" stroke="#c6c5fe" d="M1039.33,-388C1039.33,-388 860.67,-388 860.67,-388 856.83,-388 853,-384.17 853,-380.33 853,-380.33 853,-372.67 853,-372.67 853,-368.83 856.83,-365 860.67,-365 860.67,-365 1039.33,-365 1039.33,-365 1043.17,-365 1047,-368.83 1047,-372.67 1047,-372.67 1047,-380.33 1047,-380.33 1047,-384.17 1043.17,-388 1039.33,-388"/>
<text text-anchor="middle" x="950" y="-372.8" font-family="Arial" font-size="14.00" fill="#c6c5fe">pages/login&#45;register/index.js</text>
</g>
<!-- App.js&#45;&gt;pages/login&#45;register/index.js -->
<g id="edge5" class="edge">
<title>App.js&#45;&gt;pages/login&#45;register/index.js</title>
<path fill="none" stroke="#757575" d="M168.33,-554.17C283.01,-528.07 720.66,-428.47 885.6,-390.93"/>
<polygon fill="#757575" stroke="#757575" points="886.08,-394.41 895.05,-388.78 884.53,-387.58 886.08,-394.41"/>
</g>
<!-- store/auth/authActions.js -->
<g id="node7" class="node">
<title>store/auth/authActions.js</title>
<path fill="none" stroke="#ff6c60" d="M2149.83,-420C2149.83,-420 1995.17,-420 1995.17,-420 1991.33,-420 1987.5,-416.17 1987.5,-412.33 1987.5,-412.33 1987.5,-404.67 1987.5,-404.67 1987.5,-400.83 1991.33,-397 1995.17,-397 1995.17,-397 2149.83,-397 2149.83,-397 2153.67,-397 2157.5,-400.83 2157.5,-404.67 2157.5,-404.67 2157.5,-412.33 2157.5,-412.33 2157.5,-416.17 2153.67,-420 2149.83,-420"/>
<text text-anchor="middle" x="2072.5" y="-404.8" font-family="Arial" font-size="14.00" fill="#ff6c60">store/auth/authActions.js</text>
</g>
<!-- App.js&#45;&gt;store/auth/authActions.js -->
<g id="edge6" class="edge">
<title>App.js&#45;&gt;store/auth/authActions.js</title>
<path fill="none" stroke="#757575" d="M143.02,-548.86C159.47,-476.33 258.32,-89.5 496,-89.5 496,-89.5 496,-89.5 1191.5,-89.5 1272.83,-89.5 1493.09,-58.2 1557,-108.5 1601.09,-143.2 1553.3,-189.86 1593,-229.5 1689.43,-325.78 1778.64,-233.87 1887,-316.5 1911.13,-334.9 1898.31,-356.87 1923,-374.5 1938.65,-385.68 1957.4,-393.25 1976.21,-398.36"/>
<polygon fill="#757575" stroke="#757575" points="1975.26,-401.73 1985.81,-400.73 1976.94,-394.94 1975.26,-401.73"/>
</g>
<!-- assets/icons/index.js -->
<g id="node8" class="node">
<title>assets/icons/index.js</title>
<path fill="none" stroke="#cfffac" d="M1806.33,-771C1806.33,-771 1673.67,-771 1673.67,-771 1669.83,-771 1666,-767.17 1666,-763.33 1666,-763.33 1666,-755.67 1666,-755.67 1666,-751.83 1669.83,-748 1673.67,-748 1673.67,-748 1806.33,-748 1806.33,-748 1810.17,-748 1814,-751.83 1814,-755.67 1814,-755.67 1814,-763.33 1814,-763.33 1814,-767.17 1810.17,-771 1806.33,-771"/>
<text text-anchor="middle" x="1740" y="-755.8" font-family="Arial" font-size="14.00" fill="#cfffac">assets/icons/index.js</text>
</g>
<!-- components/loader/index.js&#45;&gt;assets/icons/index.js -->
<g id="edge8" class="edge">
<title>components/loader/index.js&#45;&gt;assets/icons/index.js</title>
<path fill="none" stroke="#757575" d="M592.59,-560.5C683.84,-560.5 825.88,-560.5 949,-560.5 949,-560.5 949,-560.5 1191.5,-560.5 1354.77,-560.5 1407.53,-531.8 1557,-597.5 1630.59,-629.84 1695.21,-703.43 1723.63,-739.21"/>
<polygon fill="#757575" stroke="#757575" points="1720.52,-740.91 1729.43,-746.65 1726.04,-736.61 1720.52,-740.91"/>
</g>
<!-- data/menuItems.js&#45;&gt;assets/icons/index.js -->
<g id="edge11" class="edge">
<title>data/menuItems.js&#45;&gt;assets/icons/index.js</title>
<path fill="none" stroke="#757575" d="M768.46,-772.44C916.98,-814.7 1425.41,-950.07 1557,-862.5 1591.5,-839.54 1559.89,-801.42 1593,-776.5 1610.45,-763.37 1632.55,-757.12 1654.24,-754.61"/>
<polygon fill="#757575" stroke="#757575" points="1654.35,-758.12 1664.01,-753.76 1653.74,-751.14 1654.35,-758.12"/>
</g>
<!-- pages/dashboard/index.js -->
<g id="node15" class="node">
<title>pages/dashboard/index.js</title>
<path fill="none" stroke="#c6c5fe" d="M1031.83,-772C1031.83,-772 868.17,-772 868.17,-772 864.33,-772 860.5,-768.17 860.5,-764.33 860.5,-764.33 860.5,-756.67 860.5,-756.67 860.5,-752.83 864.33,-749 868.17,-749 868.17,-749 1031.83,-749 1031.83,-749 1035.67,-749 1039.5,-752.83 1039.5,-756.67 1039.5,-756.67 1039.5,-764.33 1039.5,-764.33 1039.5,-768.17 1035.67,-772 1031.83,-772"/>
<text text-anchor="middle" x="950" y="-756.8" font-family="Arial" font-size="14.00" fill="#c6c5fe">pages/dashboard/index.js</text>
</g>
<!-- data/menuItems.js&#45;&gt;pages/dashboard/index.js -->
<g id="edge12" class="edge">
<title>data/menuItems.js&#45;&gt;pages/dashboard/index.js</title>
<path fill="none" stroke="#757575" d="M793.36,-760.5C810.76,-760.5 829.94,-760.5 848.72,-760.5"/>
<polygon fill="#757575" stroke="#757575" points="848.51,-764 858.51,-760.5 848.51,-757 848.51,-764"/>
</g>
<!-- pages/temp/index.js -->
<g id="node16" class="node">
<title>pages/temp/index.js</title>
<path fill="none" stroke="#cfffac" d="M1014.33,-731C1014.33,-731 885.67,-731 885.67,-731 881.83,-731 878,-727.17 878,-723.33 878,-723.33 878,-715.67 878,-715.67 878,-711.83 881.83,-708 885.67,-708 885.67,-708 1014.33,-708 1014.33,-708 1018.17,-708 1022,-711.83 1022,-715.67 1022,-715.67 1022,-723.33 1022,-723.33 1022,-727.17 1018.17,-731 1014.33,-731"/>
<text text-anchor="middle" x="950" y="-715.8" font-family="Arial" font-size="14.00" fill="#cfffac">pages/temp/index.js</text>
</g>
<!-- data/menuItems.js&#45;&gt;pages/temp/index.js -->
<g id="edge13" class="edge">
<title>data/menuItems.js&#45;&gt;pages/temp/index.js</title>
<path fill="none" stroke="#757575" d="M792.16,-748.53C817.53,-743.84 846.81,-738.41 873.16,-733.54"/>
<polygon fill="#757575" stroke="#757575" points="873.57,-737.02 882.77,-731.76 872.3,-730.14 873.57,-737.02"/>
</g>
<!-- components/search/index.js -->
<g id="node12" class="node">
<title>components/search/index.js</title>
<path fill="none" stroke="#c6c5fe" d="M1534.83,-933C1534.83,-933 1356.17,-933 1356.17,-933 1352.33,-933 1348.5,-929.17 1348.5,-925.33 1348.5,-925.33 1348.5,-917.67 1348.5,-917.67 1348.5,-913.83 1352.33,-910 1356.17,-910 1356.17,-910 1534.83,-910 1534.83,-910 1538.67,-910 1542.5,-913.83 1542.5,-917.67 1542.5,-917.67 1542.5,-925.33 1542.5,-925.33 1542.5,-929.17 1538.67,-933 1534.83,-933"/>
<text text-anchor="middle" x="1445.5" y="-917.8" font-family="Arial" font-size="14.00" fill="#c6c5fe">components/search/index.js</text>
</g>
<!-- layout/header/index.js&#45;&gt;components/search/index.js -->
<g id="edge25" class="edge">
<title>layout/header/index.js&#45;&gt;components/search/index.js</title>
<path fill="none" stroke="#757575" d="M1026.76,-955.36C1109.71,-948.64 1243.39,-937.8 1337.13,-930.2"/>
<polygon fill="#757575" stroke="#757575" points="1337.17,-933.71 1346.85,-929.41 1336.6,-926.73 1337.17,-933.71"/>
</g>
<!-- layout/header/PageTitle.js -->
<g id="node23" class="node">
<title>layout/header/PageTitle.js</title>
<path fill="none" stroke="#c6c5fe" d="M1527.83,-1175C1527.83,-1175 1363.17,-1175 1363.17,-1175 1359.33,-1175 1355.5,-1171.17 1355.5,-1167.33 1355.5,-1167.33 1355.5,-1159.67 1355.5,-1159.67 1355.5,-1155.83 1359.33,-1152 1363.17,-1152 1363.17,-1152 1527.83,-1152 1527.83,-1152 1531.67,-1152 1535.5,-1155.83 1535.5,-1159.67 1535.5,-1159.67 1535.5,-1167.33 1535.5,-1167.33 1535.5,-1171.17 1531.67,-1175 1527.83,-1175"/>
<text text-anchor="middle" x="1445.5" y="-1159.8" font-family="Arial" font-size="14.00" fill="#c6c5fe">layout/header/PageTitle.js</text>
</g>
<!-- layout/header/index.js&#45;&gt;layout/header/PageTitle.js -->
<g id="edge26" class="edge">
<title>layout/header/index.js&#45;&gt;layout/header/PageTitle.js</title>
<path fill="none" stroke="#757575" d="M970.97,-973.35C1026.5,-1005.76 1188.23,-1096.59 1334,-1143.5 1340.18,-1145.49 1346.63,-1147.3 1353.16,-1148.94"/>
<polygon fill="#757575" stroke="#757575" points="1352.2,-1152.31 1362.74,-1151.21 1353.81,-1145.5 1352.2,-1152.31"/>
</g>
<!-- layout/header/Profile.js -->
<g id="node26" class="node">
<title>layout/header/Profile.js</title>
<path fill="none" stroke="#c6c5fe" d="M1263.33,-1003C1263.33,-1003 1117.67,-1003 1117.67,-1003 1113.83,-1003 1110,-999.17 1110,-995.33 1110,-995.33 1110,-987.67 1110,-987.67 1110,-983.83 1113.83,-980 1117.67,-980 1117.67,-980 1263.33,-980 1263.33,-980 1267.17,-980 1271,-983.83 1271,-987.67 1271,-987.67 1271,-995.33 1271,-995.33 1271,-999.17 1267.17,-1003 1263.33,-1003"/>
<text text-anchor="middle" x="1190.5" y="-987.8" font-family="Arial" font-size="14.00" fill="#c6c5fe">layout/header/Profile.js</text>
</g>
<!-- layout/header/index.js&#45;&gt;layout/header/Profile.js -->
<g id="edge27" class="edge">
<title>layout/header/index.js&#45;&gt;layout/header/Profile.js</title>
<path fill="none" stroke="#757575" d="M1026.79,-971.03C1049.63,-973.91 1074.94,-977.09 1098.66,-980.07"/>
<polygon fill="#757575" stroke="#757575" points="1097.93,-983.51 1108.29,-981.28 1098.8,-976.56 1097.93,-983.51"/>
</g>
<!-- hooks/useOutsideAlerter.js -->
<g id="node18" class="node">
<title>hooks/useOutsideAlerter.js</title>
<path fill="none" stroke="#cfffac" d="M1531.83,-1093C1531.83,-1093 1359.17,-1093 1359.17,-1093 1355.33,-1093 1351.5,-1089.17 1351.5,-1085.33 1351.5,-1085.33 1351.5,-1077.67 1351.5,-1077.67 1351.5,-1073.83 1355.33,-1070 1359.17,-1070 1359.17,-1070 1531.83,-1070 1531.83,-1070 1535.67,-1070 1539.5,-1073.83 1539.5,-1077.67 1539.5,-1077.67 1539.5,-1085.33 1539.5,-1085.33 1539.5,-1089.17 1535.67,-1093 1531.83,-1093"/>
<text text-anchor="middle" x="1445.5" y="-1077.8" font-family="Arial" font-size="14.00" fill="#cfffac">hooks/useOutsideAlerter.js</text>
</g>
<!-- layout/menu/index.js&#45;&gt;hooks/useOutsideAlerter.js -->
<g id="edge35" class="edge">
<title>layout/menu/index.js&#45;&gt;hooks/useOutsideAlerter.js</title>
<path fill="none" stroke="#757575" d="M358.23,-1135.48C444.85,-1146.74 595.6,-1163.5 725.5,-1163.5 725.5,-1163.5 725.5,-1163.5 951,-1163.5 991.99,-1163.5 1240.94,-1118.9 1368.81,-1095.48"/>
<polygon fill="#757575" stroke="#757575" points="1369.36,-1098.94 1378.56,-1093.7 1368.1,-1092.06 1369.36,-1098.94"/>
</g>
<!-- store/ui/uiSlice.js -->
<g id="node24" class="node">
<title>store/ui/uiSlice.js</title>
<path fill="none" stroke="#cfffac" d="M2649.33,-477C2649.33,-477 2541.67,-477 2541.67,-477 2537.83,-477 2534,-473.17 2534,-469.33 2534,-469.33 2534,-461.67 2534,-461.67 2534,-457.83 2537.83,-454 2541.67,-454 2541.67,-454 2649.33,-454 2649.33,-454 2653.17,-454 2657,-457.83 2657,-461.67 2657,-461.67 2657,-469.33 2657,-469.33 2657,-473.17 2653.17,-477 2649.33,-477"/>
<text text-anchor="middle" x="2595.5" y="-461.8" font-family="Arial" font-size="14.00" fill="#cfffac">store/ui/uiSlice.js</text>
</g>
<!-- layout/menu/index.js&#45;&gt;store/ui/uiSlice.js -->
<g id="edge39" class="edge">
<title>layout/menu/index.js&#45;&gt;store/ui/uiSlice.js</title>
<path fill="none" stroke="#757575" d="M297.55,-1137.44C315.38,-1156.84 353.52,-1194.97 394,-1214.5 529.54,-1279.89 575.01,-1283.5 725.5,-1283.5 725.5,-1283.5 725.5,-1283.5 2073.5,-1283.5 2255.68,-1283.5 2349.4,-1374.44 2482,-1249.5 2595.82,-1142.26 2596.19,-606.64 2594.86,-488.56"/>
<polygon fill="#757575" stroke="#757575" points="2598.36,-488.82 2594.73,-478.87 2591.37,-488.91 2598.36,-488.82"/>
</g>
<!-- layout/menu/Logo.js -->
<g id="node27" class="node">
<title>layout/menu/Logo.js</title>
<path fill="none" stroke="#c6c5fe" d="M1509.33,-1255C1509.33,-1255 1381.67,-1255 1381.67,-1255 1377.83,-1255 1374,-1251.17 1374,-1247.33 1374,-1247.33 1374,-1239.67 1374,-1239.67 1374,-1235.83 1377.83,-1232 1381.67,-1232 1381.67,-1232 1509.33,-1232 1509.33,-1232 1513.17,-1232 1517,-1235.83 1517,-1239.67 1517,-1239.67 1517,-1247.33 1517,-1247.33 1517,-1251.17 1513.17,-1255 1509.33,-1255"/>
<text text-anchor="middle" x="1445.5" y="-1239.8" font-family="Arial" font-size="14.00" fill="#c6c5fe">layout/menu/Logo.js</text>
</g>
<!-- layout/menu/index.js&#45;&gt;layout/menu/Logo.js -->
<g id="edge36" class="edge">
<title>layout/menu/index.js&#45;&gt;layout/menu/Logo.js</title>
<path fill="none" stroke="#757575" d="M312.55,-1137.46C379.02,-1167.46 563.49,-1243.5 725.5,-1243.5 725.5,-1243.5 725.5,-1243.5 951,-1243.5 1095.84,-1243.5 1264.6,-1243.5 1362.52,-1243.5"/>
<polygon fill="#757575" stroke="#757575" points="1362.3,-1247 1372.3,-1243.5 1362.3,-1240 1362.3,-1247"/>
</g>
<!-- layout/menu/Logout.js -->
<g id="node28" class="node">
<title>layout/menu/Logout.js</title>
<path fill="none" stroke="#c6c5fe" d="M1515.33,-1134C1515.33,-1134 1375.67,-1134 1375.67,-1134 1371.83,-1134 1368,-1130.17 1368,-1126.33 1368,-1126.33 1368,-1118.67 1368,-1118.67 1368,-1114.83 1371.83,-1111 1375.67,-1111 1375.67,-1111 1515.33,-1111 1515.33,-1111 1519.17,-1111 1523,-1114.83 1523,-1118.67 1523,-1118.67 1523,-1126.33 1523,-1126.33 1523,-1130.17 1519.17,-1134 1515.33,-1134"/>
<text text-anchor="middle" x="1445.5" y="-1118.8" font-family="Arial" font-size="14.00" fill="#c6c5fe">layout/menu/Logout.js</text>
</g>
<!-- layout/menu/index.js&#45;&gt;layout/menu/Logout.js -->
<g id="edge37" class="edge">
<title>layout/menu/index.js&#45;&gt;layout/menu/Logout.js</title>
<path fill="none" stroke="#757575" d="M358.23,-1115.52C444.85,-1104.26 595.6,-1087.5 725.5,-1087.5 725.5,-1087.5 725.5,-1087.5 951,-1087.5 1093.11,-1087.5 1257.66,-1102.12 1356.29,-1112.46"/>
<polygon fill="#757575" stroke="#757575" points="1355.87,-1115.94 1366.18,-1113.51 1356.61,-1108.97 1355.87,-1115.94"/>
</g>
<!-- layout/menu/MenuContainer.js -->
<g id="node29" class="node">
<title>layout/menu/MenuContainer.js</title>
<path fill="none" stroke="#c6c5fe" d="M592.33,-1059C592.33,-1059 401.67,-1059 401.67,-1059 397.83,-1059 394,-1055.17 394,-1051.33 394,-1051.33 394,-1043.67 394,-1043.67 394,-1039.83 397.83,-1036 401.67,-1036 401.67,-1036 592.33,-1036 592.33,-1036 596.17,-1036 600,-1039.83 600,-1043.67 600,-1043.67 600,-1051.33 600,-1051.33 600,-1055.17 596.17,-1059 592.33,-1059"/>
<text text-anchor="middle" x="497" y="-1043.8" font-family="Arial" font-size="14.00" fill="#c6c5fe">layout/menu/MenuContainer.js</text>
</g>
<!-- layout/menu/index.js&#45;&gt;layout/menu/MenuContainer.js -->
<g id="edge38" class="edge">
<title>layout/menu/index.js&#45;&gt;layout/menu/MenuContainer.js</title>
<path fill="none" stroke="#757575" d="M308.16,-1113.62C329.35,-1102.12 363.16,-1084.79 394,-1073.5 405.36,-1069.34 417.68,-1065.59 429.68,-1062.32"/>
<polygon fill="#757575" stroke="#757575" points="430.34,-1065.77 439.12,-1059.84 428.56,-1059 430.34,-1065.77"/>
</g>
<!-- pages/login&#45;register/Hero.js -->
<g id="node38" class="node">
<title>pages/login&#45;register/Hero.js</title>
<path fill="none" stroke="#c6c5fe" d="M1278.33,-297C1278.33,-297 1102.67,-297 1102.67,-297 1098.83,-297 1095,-293.17 1095,-289.33 1095,-289.33 1095,-281.67 1095,-281.67 1095,-277.83 1098.83,-274 1102.67,-274 1102.67,-274 1278.33,-274 1278.33,-274 1282.17,-274 1286,-277.83 1286,-281.67 1286,-281.67 1286,-289.33 1286,-289.33 1286,-293.17 1282.17,-297 1278.33,-297"/>
<text text-anchor="middle" x="1190.5" y="-281.8" font-family="Arial" font-size="14.00" fill="#c6c5fe">pages/login&#45;register/Hero.js</text>
</g>
<!-- pages/login&#45;register/index.js&#45;&gt;pages/login&#45;register/Hero.js -->
<g id="edge66" class="edge">
<title>pages/login&#45;register/index.js&#45;&gt;pages/login&#45;register/Hero.js</title>
<path fill="none" stroke="#757575" d="M968.96,-364.5C993.62,-348.59 1039.82,-320.75 1083,-305.5 1088.35,-303.61 1093.92,-301.89 1099.58,-300.32"/>
<polygon fill="#757575" stroke="#757575" points="1100.27,-303.76 1109.08,-297.87 1098.52,-296.98 1100.27,-303.76"/>
</g>
<!-- pages/login&#45;register/Login.js -->
<g id="node39" class="node">
<title>pages/login&#45;register/Login.js</title>
<path fill="none" stroke="#c6c5fe" d="M1280.83,-438C1280.83,-438 1100.17,-438 1100.17,-438 1096.33,-438 1092.5,-434.17 1092.5,-430.33 1092.5,-430.33 1092.5,-422.67 1092.5,-422.67 1092.5,-418.83 1096.33,-415 1100.17,-415 1100.17,-415 1280.83,-415 1280.83,-415 1284.67,-415 1288.5,-418.83 1288.5,-422.67 1288.5,-422.67 1288.5,-430.33 1288.5,-430.33 1288.5,-434.17 1284.67,-438 1280.83,-438"/>
<text text-anchor="middle" x="1190.5" y="-422.8" font-family="Arial" font-size="14.00" fill="#c6c5fe">pages/login&#45;register/Login.js</text>
</g>
<!-- pages/login&#45;register/index.js&#45;&gt;pages/login&#45;register/Login.js -->
<g id="edge67" class="edge">
<title>pages/login&#45;register/index.js&#45;&gt;pages/login&#45;register/Login.js</title>
<path fill="none" stroke="#757575" d="M1008.13,-388.48C1042.22,-395.62 1085.72,-404.74 1121.57,-412.26"/>
<polygon fill="#757575" stroke="#757575" points="1120.44,-415.6 1130.95,-414.22 1121.88,-408.75 1120.44,-415.6"/>
</g>
<!-- pages/login&#45;register/Register.js -->
<g id="node40" class="node">
<title>pages/login&#45;register/Register.js</title>
<path fill="none" stroke="#c6c5fe" d="M1290.33,-338C1290.33,-338 1090.67,-338 1090.67,-338 1086.83,-338 1083,-334.17 1083,-330.33 1083,-330.33 1083,-322.67 1083,-322.67 1083,-318.83 1086.83,-315 1090.67,-315 1090.67,-315 1290.33,-315 1290.33,-315 1294.17,-315 1298,-318.83 1298,-322.67 1298,-322.67 1298,-330.33 1298,-330.33 1298,-334.17 1294.17,-338 1290.33,-338"/>
<text text-anchor="middle" x="1190.5" y="-322.8" font-family="Arial" font-size="14.00" fill="#c6c5fe">pages/login&#45;register/Register.js</text>
</g>
<!-- pages/login&#45;register/index.js&#45;&gt;pages/login&#45;register/Register.js -->
<g id="edge68" class="edge">
<title>pages/login&#45;register/index.js&#45;&gt;pages/login&#45;register/Register.js</title>
<path fill="none" stroke="#757575" d="M1008.13,-364.52C1042.22,-357.38 1085.72,-348.26 1121.57,-340.74"/>
<polygon fill="#757575" stroke="#757575" points="1121.88,-344.25 1130.95,-338.78 1120.44,-337.4 1121.88,-344.25"/>
</g>
<!-- store/auth/authActions.js&#45;&gt;store/ui/uiSlice.js -->
<g id="edge72" class="edge">
<title>store/auth/authActions.js&#45;&gt;store/ui/uiSlice.js</title>
<path fill="none" stroke="#757575" d="M2157.79,-417.72C2258.94,-428.79 2426.82,-447.15 2522.28,-457.6"/>
<polygon fill="#757575" stroke="#757575" points="2521.73,-461.06 2532.05,-458.67 2522.49,-454.1 2521.73,-461.06"/>
</g>
<!-- store/auth/_srv.js -->
<g id="node42" class="node">
<title>store/auth/_srv.js</title>
<path fill="none" stroke="#ff6c60" d="M2424.33,-380C2424.33,-380 2315.67,-380 2315.67,-380 2311.83,-380 2308,-376.17 2308,-372.33 2308,-372.33 2308,-364.67 2308,-364.67 2308,-360.83 2311.83,-357 2315.67,-357 2315.67,-357 2424.33,-357 2424.33,-357 2428.17,-357 2432,-360.83 2432,-364.67 2432,-364.67 2432,-372.33 2432,-372.33 2432,-376.17 2428.17,-380 2424.33,-380"/>
<text text-anchor="middle" x="2370" y="-364.8" font-family="Arial" font-size="14.00" fill="#ff6c60">store/auth/_srv.js</text>
</g>
<!-- store/auth/authActions.js&#45;&gt;store/auth/_srv.js -->
<g id="edge70" class="edge">
<title>store/auth/authActions.js&#45;&gt;store/auth/_srv.js</title>
<path fill="none" stroke="#757575" d="M2157.78,-397.09C2201.54,-391.17 2254.46,-384 2296.38,-378.33"/>
<polygon fill="#757575" stroke="#757575" points="2296.68,-381.82 2306.12,-377.01 2295.74,-374.88 2296.68,-381.82"/>
</g>
<!-- store/auth/authSlice.js -->
<g id="node43" class="node">
<title>store/auth/authSlice.js</title>
<path fill="none" stroke="#cfffac" d="M2665.33,-338C2665.33,-338 2525.67,-338 2525.67,-338 2521.83,-338 2518,-334.17 2518,-330.33 2518,-330.33 2518,-322.67 2518,-322.67 2518,-318.83 2521.83,-315 2525.67,-315 2525.67,-315 2665.33,-315 2665.33,-315 2669.17,-315 2673,-318.83 2673,-322.67 2673,-322.67 2673,-330.33 2673,-330.33 2673,-334.17 2669.17,-338 2665.33,-338"/>
<text text-anchor="middle" x="2595.5" y="-322.8" font-family="Arial" font-size="14.00" fill="#cfffac">store/auth/authSlice.js</text>
</g>
<!-- store/auth/authActions.js&#45;&gt;store/auth/authSlice.js -->
<g id="edge71" class="edge">
<title>store/auth/authActions.js&#45;&gt;store/auth/authSlice.js</title>
<path fill="none" stroke="#757575" d="M2157.82,-415.31C2241.69,-419.56 2373.21,-419.35 2482,-388.5 2514.37,-379.32 2547.67,-359.42 2569.55,-344.63"/>
<polygon fill="#757575" stroke="#757575" points="2571.29,-347.68 2577.51,-339.11 2567.3,-341.93 2571.29,-347.68"/>
</g>
<!-- assets/images/hero&#45;pattern.png -->
<g id="node9" class="node">
<title>assets/images/hero&#45;pattern.png</title>
<path fill="none" stroke="#cfffac" d="M1546.33,-141C1546.33,-141 1344.67,-141 1344.67,-141 1340.83,-141 1337,-137.17 1337,-133.33 1337,-133.33 1337,-125.67 1337,-125.67 1337,-121.83 1340.83,-118 1344.67,-118 1344.67,-118 1546.33,-118 1546.33,-118 1550.17,-118 1554,-121.83 1554,-125.67 1554,-125.67 1554,-133.33 1554,-133.33 1554,-137.17 1550.17,-141 1546.33,-141"/>
<text text-anchor="middle" x="1445.5" y="-125.8" font-family="Arial" font-size="14.00" fill="#cfffac">assets/images/hero&#45;pattern.png</text>
</g>
<!-- assets/images/profile&#45;pic.jpg -->
<g id="node10" class="node">
<title>assets/images/profile&#45;pic.jpg</title>
<path fill="none" stroke="#cfffac" d="M1537.33,-1013C1537.33,-1013 1353.67,-1013 1353.67,-1013 1349.83,-1013 1346,-1009.17 1346,-1005.33 1346,-1005.33 1346,-997.67 1346,-997.67 1346,-993.83 1349.83,-990 1353.67,-990 1353.67,-990 1537.33,-990 1537.33,-990 1541.17,-990 1545,-993.83 1545,-997.67 1545,-997.67 1545,-1005.33 1545,-1005.33 1545,-1009.17 1541.17,-1013 1537.33,-1013"/>
<text text-anchor="middle" x="1445.5" y="-997.8" font-family="Arial" font-size="14.00" fill="#cfffac">assets/images/profile&#45;pic.jpg</text>
</g>
<!-- components/formInput/index.js -->
<g id="node11" class="node">
<title>components/formInput/index.js</title>
<path fill="none" stroke="#c6c5fe" d="M1543.83,-418C1543.83,-418 1347.17,-418 1347.17,-418 1343.33,-418 1339.5,-414.17 1339.5,-410.33 1339.5,-410.33 1339.5,-402.67 1339.5,-402.67 1339.5,-398.83 1343.33,-395 1347.17,-395 1347.17,-395 1543.83,-395 1543.83,-395 1547.67,-395 1551.5,-398.83 1551.5,-402.67 1551.5,-402.67 1551.5,-410.33 1551.5,-410.33 1551.5,-414.17 1547.67,-418 1543.83,-418"/>
<text text-anchor="middle" x="1445.5" y="-402.8" font-family="Arial" font-size="14.00" fill="#c6c5fe">components/formInput/index.js</text>
</g>
<!-- components/formInput/index.js&#45;&gt;assets/icons/index.js -->
<g id="edge7" class="edge">
<title>components/formInput/index.js&#45;&gt;assets/icons/index.js</title>
<path fill="none" stroke="#757575" d="M1460.95,-418.24C1482.91,-436.41 1525.44,-472.98 1557,-508.5 1627.33,-587.66 1697.05,-693.38 1725.56,-738.1"/>
<polygon fill="#757575" stroke="#757575" points="1722.48,-739.78 1730.79,-746.35 1728.39,-736.03 1722.48,-739.78"/>
</g>
<!-- components/search/index.js&#45;&gt;assets/icons/index.js -->
<g id="edge9" class="edge">
<title>components/search/index.js&#45;&gt;assets/icons/index.js</title>
<path fill="none" stroke="#757575" d="M1516.93,-909.5C1530.57,-905.92 1544.5,-901.33 1557,-895.5 1622.35,-865.02 1687.18,-808.72 1718.9,-779.02"/>
<polygon fill="#757575" stroke="#757575" points="1721,-781.85 1725.85,-772.43 1716.18,-776.77 1721,-781.85"/>
</g>
<!-- components/survayCard/index.js -->
<g id="node13" class="node">
<title>components/survayCard/index.js</title>
<path fill="none" stroke="#c6c5fe" d="M1548.83,-812C1548.83,-812 1342.17,-812 1342.17,-812 1338.33,-812 1334.5,-808.17 1334.5,-804.33 1334.5,-804.33 1334.5,-796.67 1334.5,-796.67 1334.5,-792.83 1338.33,-789 1342.17,-789 1342.17,-789 1548.83,-789 1548.83,-789 1552.67,-789 1556.5,-792.83 1556.5,-796.67 1556.5,-796.67 1556.5,-804.33 1556.5,-804.33 1556.5,-808.17 1552.67,-812 1548.83,-812"/>
<text text-anchor="middle" x="1445.5" y="-796.8" font-family="Arial" font-size="14.00" fill="#c6c5fe">components/survayCard/index.js</text>
</g>
<!-- components/survayCard/index.js&#45;&gt;assets/icons/index.js -->
<g id="edge10" class="edge">
<title>components/survayCard/index.js&#45;&gt;assets/icons/index.js</title>
<path fill="none" stroke="#757575" d="M1531.89,-788.53C1570.56,-783.11 1616.15,-776.72 1654.7,-771.32"/>
<polygon fill="#757575" stroke="#757575" points="1654.98,-774.81 1664.39,-769.96 1654,-767.88 1654.98,-774.81"/>
</g>
<!-- data/cardsInfo.js -->
<g id="node14" class="node">
<title>data/cardsInfo.js</title>
<path fill="none" stroke="#cfffac" d="M1498.83,-853C1498.83,-853 1392.17,-853 1392.17,-853 1388.33,-853 1384.5,-849.17 1384.5,-845.33 1384.5,-845.33 1384.5,-837.67 1384.5,-837.67 1384.5,-833.83 1388.33,-830 1392.17,-830 1392.17,-830 1498.83,-830 1498.83,-830 1502.67,-830 1506.5,-833.83 1506.5,-837.67 1506.5,-837.67 1506.5,-845.33 1506.5,-845.33 1506.5,-849.17 1502.67,-853 1498.83,-853"/>
<text text-anchor="middle" x="1445.5" y="-837.8" font-family="Arial" font-size="14.00" fill="#cfffac">data/cardsInfo.js</text>
</g>
<!-- pages/dashboard/Recent.js -->
<g id="node31" class="node">
<title>pages/dashboard/Recent.js</title>
<path fill="none" stroke="#c6c5fe" d="M1278.33,-670C1278.33,-670 1102.67,-670 1102.67,-670 1098.83,-670 1095,-666.17 1095,-662.33 1095,-662.33 1095,-654.67 1095,-654.67 1095,-650.83 1098.83,-647 1102.67,-647 1102.67,-647 1278.33,-647 1278.33,-647 1282.17,-647 1286,-650.83 1286,-654.67 1286,-654.67 1286,-662.33 1286,-662.33 1286,-666.17 1282.17,-670 1278.33,-670"/>
<text text-anchor="middle" x="1190.5" y="-654.8" font-family="Arial" font-size="14.00" fill="#c6c5fe">pages/dashboard/Recent.js</text>
</g>
<!-- pages/dashboard/index.js&#45;&gt;pages/dashboard/Recent.js -->
<g id="edge49" class="edge">
<title>pages/dashboard/index.js&#45;&gt;pages/dashboard/Recent.js</title>
<path fill="none" stroke="#757575" d="M1021.5,-748.55C1030.21,-746.28 1038.89,-743.61 1047,-740.5 1064.29,-733.86 1066.96,-728.77 1083,-719.5 1108.52,-704.75 1137.57,-688.12 1158.87,-675.96"/>
<polygon fill="#757575" stroke="#757575" points="1160.39,-679.12 1167.34,-671.12 1156.92,-673.04 1160.39,-679.12"/>
</g>
<!-- pages/dashboard/Survay.js -->
<g id="node34" class="node">
<title>pages/dashboard/Survay.js</title>
<path fill="none" stroke="#c6c5fe" d="M1276.83,-812C1276.83,-812 1104.17,-812 1104.17,-812 1100.33,-812 1096.5,-808.17 1096.5,-804.33 1096.5,-804.33 1096.5,-796.67 1096.5,-796.67 1096.5,-792.83 1100.33,-789 1104.17,-789 1104.17,-789 1276.83,-789 1276.83,-789 1280.67,-789 1284.5,-792.83 1284.5,-796.67 1284.5,-796.67 1284.5,-804.33 1284.5,-804.33 1284.5,-808.17 1280.67,-812 1276.83,-812"/>
<text text-anchor="middle" x="1190.5" y="-796.8" font-family="Arial" font-size="14.00" fill="#c6c5fe">pages/dashboard/Survay.js</text>
</g>
<!-- pages/dashboard/index.js&#45;&gt;pages/dashboard/Survay.js -->
<g id="edge50" class="edge">
<title>pages/dashboard/index.js&#45;&gt;pages/dashboard/Survay.js</title>
<path fill="none" stroke="#757575" d="M1022.23,-772.45C1048.9,-776.92 1079.4,-782.03 1107,-786.66"/>
<polygon fill="#757575" stroke="#757575" points="1106.29,-790.09 1116.73,-788.29 1107.44,-783.19 1106.29,-790.09"/>
</g>
<!-- pages/dashboard/Top.js -->
<g id="node35" class="node">
<title>pages/dashboard/Top.js</title>
<path fill="none" stroke="#c6c5fe" d="M1268.33,-751C1268.33,-751 1112.67,-751 1112.67,-751 1108.83,-751 1105,-747.17 1105,-743.33 1105,-743.33 1105,-735.67 1105,-735.67 1105,-731.83 1108.83,-728 1112.67,-728 1112.67,-728 1268.33,-728 1268.33,-728 1272.17,-728 1276,-731.83 1276,-735.67 1276,-735.67 1276,-743.33 1276,-743.33 1276,-747.17 1272.17,-751 1268.33,-751"/>
<text text-anchor="middle" x="1190.5" y="-735.8" font-family="Arial" font-size="14.00" fill="#c6c5fe">pages/dashboard/Top.js</text>
</g>
<!-- pages/dashboard/index.js&#45;&gt;pages/dashboard/Top.js -->
<g id="edge51" class="edge">
<title>pages/dashboard/index.js&#45;&gt;pages/dashboard/Top.js</title>
<path fill="none" stroke="#757575" d="M1039.81,-752.68C1057.19,-751.15 1075.5,-749.54 1093.11,-747.99"/>
<polygon fill="#757575" stroke="#757575" points="1093.41,-751.47 1103.07,-747.11 1092.8,-744.5 1093.41,-751.47"/>
</g>
<!-- data/routesWithoutMainLoader.js -->
<g id="node17" class="node">
<title>data/routesWithoutMainLoader.js</title>
<path fill="none" stroke="#cfffac" d="M2474.33,-262C2474.33,-262 2265.67,-262 2265.67,-262 2261.83,-262 2258,-258.17 2258,-254.33 2258,-254.33 2258,-246.67 2258,-246.67 2258,-242.83 2261.83,-239 2265.67,-239 2265.67,-239 2474.33,-239 2474.33,-239 2478.17,-239 2482,-242.83 2482,-246.67 2482,-246.67 2482,-254.33 2482,-254.33 2482,-258.17 2478.17,-262 2474.33,-262"/>
<text text-anchor="middle" x="2370" y="-246.8" font-family="Arial" font-size="14.00" fill="#cfffac">data/routesWithoutMainLoader.js</text>
</g>
<!-- hooks/useUsernameValidation.js -->
<g id="node19" class="node">
<title>hooks/useUsernameValidation.js</title>
<path fill="none" stroke="#cfffac" d="M1549.33,-377C1549.33,-377 1341.67,-377 1341.67,-377 1337.83,-377 1334,-373.17 1334,-369.33 1334,-369.33 1334,-361.67 1334,-361.67 1334,-357.83 1337.83,-354 1341.67,-354 1341.67,-354 1549.33,-354 1549.33,-354 1553.17,-354 1557,-357.83 1557,-361.67 1557,-361.67 1557,-369.33 1557,-369.33 1557,-373.17 1553.17,-377 1549.33,-377"/>
<text text-anchor="middle" x="1445.5" y="-361.8" font-family="Arial" font-size="14.00" fill="#cfffac">hooks/useUsernameValidation.js</text>
</g>
<!-- index.css -->
<g id="node20" class="node">
<title>index.css</title>
<path fill="none" stroke="#cfffac" d="M170.33,-23C170.33,-23 108.67,-23 108.67,-23 104.83,-23 101,-19.17 101,-15.33 101,-15.33 101,-7.67 101,-7.67 101,-3.83 104.83,0 108.67,0 108.67,0 170.33,0 170.33,0 174.17,0 178,-3.83 178,-7.67 178,-7.67 178,-15.33 178,-15.33 178,-19.17 174.17,-23 170.33,-23"/>
<text text-anchor="middle" x="139.5" y="-7.8" font-family="Arial" font-size="14.00" fill="#cfffac">index.css</text>
</g>
<!-- index.js -->
<g id="node21" class="node">
<title>index.js</title>
<path fill="none" stroke="#c6c5fe" d="M57.33,-63C57.33,-63 7.67,-63 7.67,-63 3.83,-63 0,-59.17 0,-55.33 0,-55.33 0,-47.67 0,-47.67 0,-43.83 3.83,-40 7.67,-40 7.67,-40 57.33,-40 57.33,-40 61.17,-40 65,-43.83 65,-47.67 65,-47.67 65,-55.33 65,-55.33 65,-59.17 61.17,-63 57.33,-63"/>
<text text-anchor="middle" x="32.5" y="-47.8" font-family="Arial" font-size="14.00" fill="#c6c5fe">index.js</text>
</g>
<!-- index.js&#45;&gt;App.js -->
<g id="edge14" class="edge">
<title>index.js&#45;&gt;App.js</title>
<path fill="none" stroke="#757575" d="M35.89,-63.09C49.32,-128.17 115.4,-448.52 133.76,-537.52"/>
<polygon fill="#757575" stroke="#757575" points="130.31,-538.14 135.76,-547.23 137.17,-536.72 130.31,-538.14"/>
</g>
<!-- index.js&#45;&gt;index.css -->
<g id="edge15" class="edge">
<title>index.js&#45;&gt;index.css</title>
<path fill="none" stroke="#757575" d="M64.72,-39.61C74.68,-35.81 85.87,-31.55 96.47,-27.51"/>
<polygon fill="#757575" stroke="#757575" points="97.71,-30.79 105.81,-23.96 95.21,-24.24 97.71,-30.79"/>
</g>
<!-- store/index.js -->
<g id="node22" class="node">
<title>store/index.js</title>
<path fill="none" stroke="#c6c5fe" d="M2412.83,-221C2412.83,-221 2327.17,-221 2327.17,-221 2323.33,-221 2319.5,-217.17 2319.5,-213.33 2319.5,-213.33 2319.5,-205.67 2319.5,-205.67 2319.5,-201.83 2323.33,-198 2327.17,-198 2327.17,-198 2412.83,-198 2412.83,-198 2416.67,-198 2420.5,-201.83 2420.5,-205.67 2420.5,-205.67 2420.5,-213.33 2420.5,-213.33 2420.5,-217.17 2416.67,-221 2412.83,-221"/>
<text text-anchor="middle" x="2370" y="-205.8" font-family="Arial" font-size="14.00" fill="#c6c5fe">store/index.js</text>
</g>
<!-- index.js&#45;&gt;store/index.js -->
<g id="edge16" class="edge">
<title>index.js&#45;&gt;store/index.js</title>
<path fill="none" stroke="#757575" d="M65.26,-51.5C112.97,-51.5 205.97,-51.5 285,-51.5 285,-51.5 285,-51.5 1741,-51.5 1971.58,-51.5 2235.78,-152.91 2331.73,-193.24"/>
<polygon fill="#757575" stroke="#757575" points="2330.1,-196.35 2340.67,-197.03 2332.83,-189.91 2330.1,-196.35"/>
</g>
<!-- store/index.js&#45;&gt;store/ui/uiSlice.js -->
<g id="edge74" class="edge">
<title>store/index.js&#45;&gt;store/ui/uiSlice.js</title>
<path fill="none" stroke="#757575" d="M2420.99,-207.53C2442.08,-209.26 2465.52,-214.89 2482,-229.5 2522.71,-265.59 2495.08,-297.16 2518,-346.5 2534.95,-382.98 2561.52,-421.48 2578.46,-444.49"/>
<polygon fill="#757575" stroke="#757575" points="2575.6,-446.51 2584.39,-452.42 2581.21,-442.32 2575.6,-446.51"/>
</g>
<!-- store/index.js&#45;&gt;store/auth/authSlice.js -->
<g id="edge73" class="edge">
<title>store/index.js&#45;&gt;store/auth/authSlice.js</title>
<path fill="none" stroke="#757575" d="M2420.82,-212.77C2440.59,-215.51 2463.09,-220.48 2482,-229.5 2520.87,-248.03 2556.9,-283.66 2577.26,-306.2"/>
<polygon fill="#757575" stroke="#757575" points="2574.5,-308.37 2583.74,-313.55 2579.75,-303.74 2574.5,-308.37"/>
</g>
<!-- layout/header/PageTitle.js&#45;&gt;assets/icons/index.js -->
<g id="edge17" class="edge">
<title>layout/header/PageTitle.js&#45;&gt;assets/icons/index.js</title>
<path fill="none" stroke="#757575" d="M1535.98,-1155.16C1543.51,-1152.18 1550.65,-1148.36 1557,-1143.5 1620.1,-1095.17 1705.92,-856.16 1731.5,-781.69"/>
<polygon fill="#757575" stroke="#757575" points="1734.68,-783.23 1734.59,-772.64 1728.05,-780.97 1734.68,-783.23"/>
</g>
<!-- layout/header/PageTitle.js&#45;&gt;store/ui/uiSlice.js -->
<g id="edge18" class="edge">
<title>layout/header/PageTitle.js&#45;&gt;store/ui/uiSlice.js</title>
<path fill="none" stroke="#757575" d="M1518.95,-1175.47C1609.16,-1187.07 1766.11,-1196.18 1887,-1144.5 2238.56,-994.21 2517.79,-585.05 2581.03,-486.88"/>
<polygon fill="#757575" stroke="#757575" points="2583.98,-488.77 2586.41,-478.46 2578.08,-485 2583.98,-488.77"/>
</g>
<!-- utils/removeSlashAndCapitalizeFirstLetter.js -->
<g id="node25" class="node">
<title>utils/removeSlashAndCapitalizeFirstLetter.js</title>
<path fill="none" stroke="#cfffac" d="M1879.33,-1135C1879.33,-1135 1600.67,-1135 1600.67,-1135 1596.83,-1135 1593,-1131.17 1593,-1127.33 1593,-1127.33 1593,-1119.67 1593,-1119.67 1593,-1115.83 1596.83,-1112 1600.67,-1112 1600.67,-1112 1879.33,-1112 1879.33,-1112 1883.17,-1112 1887,-1115.83 1887,-1119.67 1887,-1119.67 1887,-1127.33 1887,-1127.33 1887,-1131.17 1883.17,-1135 1879.33,-1135"/>
<text text-anchor="middle" x="1740" y="-1119.8" font-family="Arial" font-size="14.00" fill="#cfffac">utils/removeSlashAndCapitalizeFirstLetter.js</text>
</g>
<!-- layout/header/PageTitle.js&#45;&gt;utils/removeSlashAndCapitalizeFirstLetter.js -->
<g id="edge19" class="edge">
<title>layout/header/PageTitle.js&#45;&gt;utils/removeSlashAndCapitalizeFirstLetter.js</title>
<path fill="none" stroke="#757575" d="M1533.86,-1151.55C1567.36,-1146.97 1605.8,-1141.72 1640.28,-1137"/>
<polygon fill="#757575" stroke="#757575" points="1640.4,-1140.52 1649.83,-1135.69 1639.45,-1133.58 1640.4,-1140.52"/>
</g>
<!-- layout/header/Profile.js&#45;&gt;store/auth/authActions.js -->
<g id="edge24" class="edge">
<title>layout/header/Profile.js&#45;&gt;store/auth/authActions.js</title>
<path fill="none" stroke="#757575" d="M1271.11,-983.86C1362.11,-974.59 1505.16,-958.24 1557,-942.5 1713.34,-895.03 1771.23,-895.8 1887,-780.5 1993.31,-674.62 2048.71,-495.03 2065.71,-431.56"/>
<polygon fill="#757575" stroke="#757575" points="2069.08,-432.49 2068.22,-421.93 2062.31,-430.72 2069.08,-432.49"/>
</g>
<!-- layout/header/Profile.js&#45;&gt;assets/icons/index.js -->
<g id="edge20" class="edge">
<title>layout/header/Profile.js&#45;&gt;assets/icons/index.js</title>
<path fill="none" stroke="#757575" d="M1219.16,-1003.41C1282.96,-1028.92 1443.62,-1081.92 1557,-1022.5 1656.68,-970.26 1712.6,-835.9 1731.57,-782.18"/>
<polygon fill="#757575" stroke="#757575" points="1734.83,-783.48 1734.76,-772.88 1728.21,-781.21 1734.83,-783.48"/>
</g>
<!-- layout/header/Profile.js&#45;&gt;assets/images/profile&#45;pic.jpg -->
<g id="edge21" class="edge">
<title>layout/header/Profile.js&#45;&gt;assets/images/profile&#45;pic.jpg</title>
<path fill="none" stroke="#757575" d="M1271.2,-994.65C1291.22,-995.44 1313.05,-996.3 1334.26,-997.14"/>
<polygon fill="#757575" stroke="#757575" points="1333.98,-1000.63 1344.11,-997.53 1334.26,-993.64 1333.98,-1000.63"/>
</g>
<!-- layout/header/Profile.js&#45;&gt;components/search/index.js -->
<g id="edge22" class="edge">
<title>layout/header/Profile.js&#45;&gt;components/search/index.js</title>
<path fill="none" stroke="#757575" d="M1227.91,-979.5C1256.58,-970.24 1297.64,-957.38 1334,-947.5 1348.55,-943.55 1364.27,-939.63 1379.16,-936.09"/>
<polygon fill="#757575" stroke="#757575" points="1379.95,-939.5 1388.89,-933.81 1378.35,-932.69 1379.95,-939.5"/>
</g>
<!-- layout/header/Profile.js&#45;&gt;hooks/useOutsideAlerter.js -->
<g id="edge23" class="edge">
<title>layout/header/Profile.js&#45;&gt;hooks/useOutsideAlerter.js</title>
<path fill="none" stroke="#757575" d="M1214.16,-1003.31C1241.82,-1017.34 1290.33,-1040.71 1334,-1055.5 1346.54,-1059.75 1360.11,-1063.56 1373.31,-1066.87"/>
<polygon fill="#757575" stroke="#757575" points="1372.26,-1070.21 1382.8,-1069.17 1373.91,-1063.41 1372.26,-1070.21"/>
</g>
<!-- layout/menu/Logo.js&#45;&gt;assets/icons/index.js -->
<g id="edge28" class="edge">
<title>layout/menu/Logo.js&#45;&gt;assets/icons/index.js</title>
<path fill="none" stroke="#757575" d="M1482.36,-1231.54C1506.18,-1222.03 1536.71,-1206.61 1557,-1184.5 1560.74,-1180.43 1692.91,-868.43 1729.62,-781.67"/>
<polygon fill="#757575" stroke="#757575" points="1732.8,-783.15 1733.47,-772.58 1726.35,-780.42 1732.8,-783.15"/>
</g>
<!-- layout/menu/Logo.js&#45;&gt;store/ui/uiSlice.js -->
<g id="edge29" class="edge">
<title>layout/menu/Logo.js&#45;&gt;store/ui/uiSlice.js</title>
<path fill="none" stroke="#757575" d="M1517.47,-1246.88C1739.47,-1256.74 2410.16,-1280.98 2482,-1217.5 2594.15,-1118.4 2595.89,-604.88 2594.82,-488.83"/>
<polygon fill="#757575" stroke="#757575" points="2598.32,-488.97 2594.71,-479.01 2591.32,-489.05 2598.32,-488.97"/>
</g>
<!-- layout/menu/Logout.js&#45;&gt;store/auth/authActions.js -->
<g id="edge31" class="edge">
<title>layout/menu/Logout.js&#45;&gt;store/auth/authActions.js</title>
<path fill="none" stroke="#757575" d="M1523.31,-1110.53C1534.69,-1108.2 1546.21,-1105.52 1557,-1102.5 1708.32,-1060.1 1778.85,-1089.52 1887,-975.5 2042.18,-811.91 2066.86,-516.22 2070.77,-431.66"/>
<polygon fill="#757575" stroke="#757575" points="2074.26,-432 2071.16,-421.86 2067.26,-431.72 2074.26,-432"/>
</g>
<!-- layout/menu/Logout.js&#45;&gt;assets/icons/index.js -->
<g id="edge30" class="edge">
<title>layout/menu/Logout.js&#45;&gt;assets/icons/index.js</title>
<path fill="none" stroke="#757575" d="M1523.27,-1118.31C1535.39,-1115.02 1547.15,-1110 1557,-1102.5 1586.41,-1080.09 1576.15,-1060.41 1593,-1027.5 1640.4,-934.91 1700.96,-826.73 1726.62,-781.31"/>
<polygon fill="#757575" stroke="#757575" points="1729.6,-783.15 1731.48,-772.72 1723.51,-779.7 1729.6,-783.15"/>
</g>
<!-- layout/menu/MenuContainer.js&#45;&gt;data/menuItems.js -->
<g id="edge32" class="edge">
<title>layout/menu/MenuContainer.js&#45;&gt;data/menuItems.js</title>
<path fill="none" stroke="#757575" d="M507.49,-1035.53C542.47,-991.4 664.54,-837.4 709.08,-781.22"/>
<polygon fill="#757575" stroke="#757575" points="711.82,-783.4 715.28,-773.39 706.33,-779.05 711.82,-783.4"/>
</g>
<!-- layout/menu/MenuItems.js -->
<g id="node30" class="node">
<title>layout/menu/MenuItems.js</title>
<path fill="none" stroke="#c6c5fe" d="M809.33,-1215C809.33,-1215 643.67,-1215 643.67,-1215 639.83,-1215 636,-1211.17 636,-1207.33 636,-1207.33 636,-1199.67 636,-1199.67 636,-1195.83 639.83,-1192 643.67,-1192 643.67,-1192 809.33,-1192 809.33,-1192 813.17,-1192 817,-1195.83 817,-1199.67 817,-1199.67 817,-1207.33 817,-1207.33 817,-1211.17 813.17,-1215 809.33,-1215"/>
<text text-anchor="middle" x="726.5" y="-1199.8" font-family="Arial" font-size="14.00" fill="#c6c5fe">layout/menu/MenuItems.js</text>
</g>
<!-- layout/menu/MenuContainer.js&#45;&gt;layout/menu/MenuItems.js -->
<g id="edge33" class="edge">
<title>layout/menu/MenuContainer.js&#45;&gt;layout/menu/MenuItems.js</title>
<path fill="none" stroke="#757575" d="M515.47,-1059.48C555.11,-1086.66 652.01,-1153.11 699.04,-1185.36"/>
<polygon fill="#757575" stroke="#757575" points="696.8,-1188.07 707.03,-1190.83 700.76,-1182.29 696.8,-1188.07"/>
</g>
<!-- layout/menu/MenuItems.js&#45;&gt;store/ui/uiSlice.js -->
<g id="edge34" class="edge">
<title>layout/menu/MenuItems.js&#45;&gt;store/ui/uiSlice.js</title>
<path fill="none" stroke="#757575" d="M817.36,-1203.5C910.46,-1203.5 1060.16,-1203.5 1189.5,-1203.5 1189.5,-1203.5 1189.5,-1203.5 2073.5,-1203.5 2432.48,-1203.5 2566.03,-613.53 2590.29,-488.58"/>
<polygon fill="#757575" stroke="#757575" points="2593.7,-489.35 2592.12,-478.88 2586.82,-488.05 2593.7,-489.35"/>
</g>
<!-- pages/dashboard/Recent.js&#45;&gt;assets/icons/index.js -->
<g id="edge40" class="edge">
<title>pages/dashboard/Recent.js&#45;&gt;assets/icons/index.js</title>
<path fill="none" stroke="#757575" d="M1221.35,-646.63C1284.96,-623.16 1437.75,-576.48 1557,-617.5 1627.67,-641.81 1691.95,-706.04 1721.65,-739.14"/>
<polygon fill="#757575" stroke="#757575" points="1718.86,-741.26 1728.09,-746.46 1724.11,-736.64 1718.86,-741.26"/>
</g>
<!-- pages/dashboard/RecentItem.js -->
<g id="node32" class="node">
<title>pages/dashboard/RecentItem.js</title>
<path fill="none" stroke="#cfffac" d="M1547.83,-650C1547.83,-650 1343.17,-650 1343.17,-650 1339.33,-650 1335.5,-646.17 1335.5,-642.33 1335.5,-642.33 1335.5,-634.67 1335.5,-634.67 1335.5,-630.83 1339.33,-627 1343.17,-627 1343.17,-627 1547.83,-627 1547.83,-627 1551.67,-627 1555.5,-630.83 1555.5,-634.67 1555.5,-634.67 1555.5,-642.33 1555.5,-642.33 1555.5,-646.17 1551.67,-650 1547.83,-650"/>
<text text-anchor="middle" x="1445.5" y="-634.8" font-family="Arial" font-size="14.00" fill="#cfffac">pages/dashboard/RecentItem.js</text>
</g>
<!-- pages/dashboard/Recent.js&#45;&gt;pages/dashboard/RecentItem.js -->
<g id="edge41" class="edge">
<title>pages/dashboard/Recent.js&#45;&gt;pages/dashboard/RecentItem.js</title>
<path fill="none" stroke="#757575" d="M1286.43,-651C1298.79,-650.02 1311.58,-649.01 1324.29,-648"/>
<polygon fill="#757575" stroke="#757575" points="1324.22,-651.52 1333.92,-647.24 1323.67,-644.54 1324.22,-651.52"/>
</g>
<!-- pages/dashboard/_srv.js -->
<g id="node33" class="node">
<title>pages/dashboard/_srv.js</title>
<path fill="none" stroke="#c6c5fe" d="M1524.33,-691C1524.33,-691 1366.67,-691 1366.67,-691 1362.83,-691 1359,-687.17 1359,-683.33 1359,-683.33 1359,-675.67 1359,-675.67 1359,-671.83 1362.83,-668 1366.67,-668 1366.67,-668 1524.33,-668 1524.33,-668 1528.17,-668 1532,-671.83 1532,-675.67 1532,-675.67 1532,-683.33 1532,-683.33 1532,-687.17 1528.17,-691 1524.33,-691"/>
<text text-anchor="middle" x="1445.5" y="-675.8" font-family="Arial" font-size="14.00" fill="#c6c5fe">pages/dashboard/_srv.js</text>
</g>
<!-- pages/dashboard/Recent.js&#45;&gt;pages/dashboard/_srv.js -->
<g id="edge42" class="edge">
<title>pages/dashboard/Recent.js&#45;&gt;pages/dashboard/_srv.js</title>
<path fill="none" stroke="#757575" d="M1286.43,-666.38C1306.33,-668.03 1327.34,-669.78 1347.33,-671.43"/>
<polygon fill="#757575" stroke="#757575" points="1346.87,-674.91 1357.12,-672.25 1347.44,-667.93 1346.87,-674.91"/>
</g>
<!-- utils/ajax/index.js -->
<g id="node37" class="node">
<title>utils/ajax/index.js</title>
<path fill="none" stroke="#ff6c60" d="M1793.33,-221C1793.33,-221 1686.67,-221 1686.67,-221 1682.83,-221 1679,-217.17 1679,-213.33 1679,-213.33 1679,-205.67 1679,-205.67 1679,-201.83 1682.83,-198 1686.67,-198 1686.67,-198 1793.33,-198 1793.33,-198 1797.17,-198 1801,-201.83 1801,-205.67 1801,-205.67 1801,-213.33 1801,-213.33 1801,-217.17 1797.17,-221 1793.33,-221"/>
<text text-anchor="middle" x="1740" y="-205.8" font-family="Arial" font-size="14.00" fill="#ff6c60">utils/ajax/index.js</text>
</g>
<!-- pages/dashboard/_srv.js&#45;&gt;utils/ajax/index.js -->
<g id="edge48" class="edge">
<title>pages/dashboard/_srv.js&#45;&gt;utils/ajax/index.js</title>
<path fill="none" stroke="#757575" d="M1532.45,-672.21C1541.34,-668.9 1549.75,-664.44 1557,-658.5 1696.27,-544.32 1729.89,-307.04 1737.16,-232.46"/>
<polygon fill="#757575" stroke="#757575" points="1740.63,-232.98 1738.04,-222.71 1733.66,-232.35 1740.63,-232.98"/>
</g>
<!-- pages/dashboard/Survay.js&#45;&gt;components/survayCard/index.js -->
<g id="edge43" class="edge">
<title>pages/dashboard/Survay.js&#45;&gt;components/survayCard/index.js</title>
<path fill="none" stroke="#757575" d="M1284.99,-800.5C1297.4,-800.5 1310.27,-800.5 1323.07,-800.5"/>
<polygon fill="#757575" stroke="#757575" points="1322.77,-804 1332.77,-800.5 1322.77,-797 1322.77,-804"/>
</g>
<!-- pages/dashboard/Survay.js&#45;&gt;data/cardsInfo.js -->
<g id="edge44" class="edge">
<title>pages/dashboard/Survay.js&#45;&gt;data/cardsInfo.js</title>
<path fill="none" stroke="#757575" d="M1265.36,-812.47C1299.3,-817.97 1339.39,-824.47 1373.03,-829.92"/>
<polygon fill="#757575" stroke="#757575" points="1372.25,-833.34 1382.68,-831.48 1373.37,-826.43 1372.25,-833.34"/>
</g>
<!-- pages/dashboard/Top.js&#45;&gt;assets/icons/index.js -->
<g id="edge45" class="edge">
<title>pages/dashboard/Top.js&#45;&gt;assets/icons/index.js</title>
<path fill="none" stroke="#757575" d="M1276.14,-736.88C1350.26,-735.21 1460.85,-734.23 1557,-739.5 1588.94,-741.25 1623.9,-744.71 1654.56,-748.28"/>
<polygon fill="#757575" stroke="#757575" points="1653.81,-751.71 1664.15,-749.41 1654.63,-744.76 1653.81,-751.71"/>
</g>
<!-- pages/dashboard/Top.js&#45;&gt;pages/dashboard/_srv.js -->
<g id="edge47" class="edge">
<title>pages/dashboard/Top.js&#45;&gt;pages/dashboard/_srv.js</title>
<path fill="none" stroke="#757575" d="M1241.61,-727.5C1268.92,-720.98 1303.31,-712.77 1334,-705.5 1349.81,-701.75 1366.91,-697.72 1382.81,-693.98"/>
<polygon fill="#757575" stroke="#757575" points="1383.2,-697.48 1392.13,-691.79 1381.6,-690.67 1383.2,-697.48"/>
</g>
<!-- pages/dashboard/TopItem.js -->
<g id="node36" class="node">
<title>pages/dashboard/TopItem.js</title>
<path fill="none" stroke="#cfffac" d="M1537.83,-771C1537.83,-771 1353.17,-771 1353.17,-771 1349.33,-771 1345.5,-767.17 1345.5,-763.33 1345.5,-763.33 1345.5,-755.67 1345.5,-755.67 1345.5,-751.83 1349.33,-748 1353.17,-748 1353.17,-748 1537.83,-748 1537.83,-748 1541.67,-748 1545.5,-751.83 1545.5,-755.67 1545.5,-755.67 1545.5,-763.33 1545.5,-763.33 1545.5,-767.17 1541.67,-771 1537.83,-771"/>
<text text-anchor="middle" x="1445.5" y="-755.8" font-family="Arial" font-size="14.00" fill="#cfffac">pages/dashboard/TopItem.js</text>
</g>
<!-- pages/dashboard/Top.js&#45;&gt;pages/dashboard/TopItem.js -->
<g id="edge46" class="edge">
<title>pages/dashboard/Top.js&#45;&gt;pages/dashboard/TopItem.js</title>
<path fill="none" stroke="#757575" d="M1276.45,-746.22C1294.93,-747.68 1314.74,-749.24 1334.04,-750.77"/>
<polygon fill="#757575" stroke="#757575" points="1333.59,-754.24 1343.83,-751.54 1334.14,-747.26 1333.59,-754.24"/>
</g>
<!-- utils/ajax/index.js&#45;&gt;store/auth/authActions.js -->
<g id="edge75" class="edge">
<title>utils/ajax/index.js&#45;&gt;store/auth/authActions.js</title>
<path fill="none" stroke="#757575" d="M1801.38,-205.82C1830.68,-207.29 1864.36,-214.29 1887,-235.5 1935.78,-281.18 1874.3,-335.73 1923,-381.5 1937.51,-395.14 1956.5,-403.06 1976.02,-407.46"/>
<polygon fill="#757575" stroke="#757575" points="1975.25,-410.87 1985.73,-409.32 1976.57,-404 1975.25,-410.87"/>
</g>
<!-- utils/ajax/index.js&#45;&gt;store/index.js -->
<g id="edge76" class="edge">
<title>utils/ajax/index.js&#45;&gt;store/index.js</title>
<path fill="none" stroke="#757575" d="M1801.22,-209.5C1920.92,-209.5 2187.6,-209.5 2307.97,-209.5"/>
<polygon fill="#757575" stroke="#757575" points="2307.64,-213 2317.64,-209.5 2307.64,-206 2307.64,-213"/>
</g>
<!-- utils/ajax/index.js&#45;&gt;store/ui/uiSlice.js -->
<g id="edge77" class="edge">
<title>utils/ajax/index.js&#45;&gt;store/ui/uiSlice.js</title>
<path fill="none" stroke="#757575" d="M1801.37,-212.4C1828.69,-215.64 1860.67,-222.24 1887,-235.5 1906.66,-245.4 1903.16,-259.97 1923,-269.5 2036.06,-323.8 2370.4,-290.26 2482,-347.5 2525.99,-370.07 2562.33,-416.78 2580.97,-444.18"/>
<polygon fill="#757575" stroke="#757575" points="2577.96,-445.97 2586.4,-452.38 2583.8,-442.11 2577.96,-445.97"/>
</g>
<!-- utils/ajax/routesWithoutMainLoaderHandler.js -->
<g id="node44" class="node">
<title>utils/ajax/routesWithoutMainLoaderHandler.js</title>
<path fill="none" stroke="#c6c5fe" d="M2214.33,-261C2214.33,-261 1930.67,-261 1930.67,-261 1926.83,-261 1923,-257.17 1923,-253.33 1923,-253.33 1923,-245.67 1923,-245.67 1923,-241.83 1926.83,-238 1930.67,-238 1930.67,-238 2214.33,-238 2214.33,-238 2218.17,-238 2222,-241.83 2222,-245.67 2222,-245.67 2222,-253.33 2222,-253.33 2222,-257.17 2218.17,-261 2214.33,-261"/>
<text text-anchor="middle" x="2072.5" y="-245.8" font-family="Arial" font-size="14.00" fill="#c6c5fe">utils/ajax/routesWithoutMainLoaderHandler.js</text>
</g>
<!-- utils/ajax/index.js&#45;&gt;utils/ajax/routesWithoutMainLoaderHandler.js -->
<g id="edge78" class="edge">
<title>utils/ajax/index.js&#45;&gt;utils/ajax/routesWithoutMainLoaderHandler.js</title>
<path fill="none" stroke="#757575" d="M1801.23,-216.79C1845.82,-222.19 1907.82,-229.69 1961.19,-236.15"/>
<polygon fill="#757575" stroke="#757575" points="1960.59,-239.6 1970.94,-237.33 1961.43,-232.65 1960.59,-239.6"/>
</g>
<!-- pages/login&#45;register/Hero.js&#45;&gt;assets/icons/index.js -->
<g id="edge52" class="edge">
<title>pages/login&#45;register/Hero.js&#45;&gt;assets/icons/index.js</title>
<path fill="none" stroke="#757575" d="M1245.84,-273.55C1322.96,-259.89 1464.99,-247.29 1557,-314.5 1701.32,-419.92 1731.54,-660.29 1737.57,-736.13"/>
<polygon fill="#757575" stroke="#757575" points="1734.07,-736.34 1738.28,-746.07 1741.06,-735.84 1734.07,-736.34"/>
</g>
<!-- pages/login&#45;register/Hero.js&#45;&gt;assets/images/hero&#45;pattern.png -->
<g id="edge53" class="edge">
<title>pages/login&#45;register/Hero.js&#45;&gt;assets/images/hero&#45;pattern.png</title>
<path fill="none" stroke="#757575" d="M1200.78,-273.66C1221.64,-247.9 1275.05,-186.59 1334,-155.5 1341.99,-151.28 1350.67,-147.74 1359.53,-144.77"/>
<polygon fill="#757575" stroke="#757575" points="1360.41,-148.16 1368.94,-141.87 1358.35,-141.47 1360.41,-148.16"/>
</g>
<!-- pages/login&#45;register/Login.js&#45;&gt;store/auth/authActions.js -->
<g id="edge57" class="edge">
<title>pages/login&#45;register/Login.js&#45;&gt;store/auth/authActions.js</title>
<path fill="none" stroke="#757575" d="M1288.86,-427.42C1362.5,-427.9 1466.11,-428.09 1557,-426.5 1703.21,-423.94 1872.69,-417.3 1975.97,-412.84"/>
<polygon fill="#757575" stroke="#757575" points="1975.95,-416.35 1985.79,-412.42 1975.65,-409.35 1975.95,-416.35"/>
</g>
<!-- pages/login&#45;register/Login.js&#45;&gt;assets/icons/index.js -->
<g id="edge54" class="edge">
<title>pages/login&#45;register/Login.js&#45;&gt;assets/icons/index.js</title>
<path fill="none" stroke="#757575" d="M1211.08,-438.43C1237.9,-454.3 1288.01,-482.23 1334,-498.5 1429.58,-532.3 1469.93,-494.56 1557,-546.5 1638.83,-595.31 1702,-694.15 1727.15,-737.86"/>
<polygon fill="#757575" stroke="#757575" points="1724,-739.42 1731.97,-746.41 1730.1,-735.98 1724,-739.42"/>
</g>
<!-- pages/login&#45;register/Login.js&#45;&gt;components/formInput/index.js -->
<g id="edge55" class="edge">
<title>pages/login&#45;register/Login.js&#45;&gt;components/formInput/index.js</title>
<path fill="none" stroke="#757575" d="M1288.95,-418.8C1301.66,-417.79 1314.78,-416.75 1327.76,-415.73"/>
<polygon fill="#757575" stroke="#757575" points="1327.91,-419.23 1337.6,-414.95 1327.36,-412.25 1327.91,-419.23"/>
</g>
<!-- pages/login&#45;register/Login.js&#45;&gt;hooks/useUsernameValidation.js -->
<g id="edge56" class="edge">
<title>pages/login&#45;register/Login.js&#45;&gt;hooks/useUsernameValidation.js</title>
<path fill="none" stroke="#757575" d="M1229.03,-414.58C1257.61,-405.77 1298.03,-393.91 1334,-385.5 1342.77,-383.45 1351.98,-381.49 1361.18,-379.65"/>
<polygon fill="#757575" stroke="#757575" points="1361.73,-383.11 1370.87,-377.76 1360.39,-376.24 1361.73,-383.11"/>
</g>
<!-- pages/login&#45;register/Login.js&#45;&gt;store/ui/uiSlice.js -->
<g id="edge58" class="edge">
<title>pages/login&#45;register/Login.js&#45;&gt;store/ui/uiSlice.js</title>
<path fill="none" stroke="#757575" d="M1259.97,-438.45C1363.38,-455.43 1565.75,-484.5 1739,-484.5 1739,-484.5 1739,-484.5 2073.5,-484.5 2233.86,-484.5 2421.8,-475.4 2522.34,-469.8"/>
<polygon fill="#757575" stroke="#757575" points="2522.27,-473.3 2532.06,-469.25 2521.87,-466.32 2522.27,-473.3"/>
</g>
<!-- pages/login&#45;register/Register.js&#45;&gt;store/auth/authActions.js -->
<g id="edge63" class="edge">
<title>pages/login&#45;register/Register.js&#45;&gt;store/auth/authActions.js</title>
<path fill="none" stroke="#757575" d="M1298.43,-316.52C1310.42,-315.69 1322.47,-314.98 1334,-314.5 1433.02,-310.34 1458.29,-305.56 1557,-314.5 1642.63,-322.26 1883.16,-369.98 2002.52,-394.3"/>
<polygon fill="#757575" stroke="#757575" points="2001.71,-397.7 2012.2,-396.27 2003.11,-390.84 2001.71,-397.7"/>
</g>
<!-- pages/login&#45;register/Register.js&#45;&gt;assets/icons/index.js -->
<g id="edge59" class="edge">
<title>pages/login&#45;register/Register.js&#45;&gt;assets/icons/index.js</title>
<path fill="none" stroke="#757575" d="M1298.35,-319.65C1391.02,-315.86 1516.46,-316.56 1557,-344.5 1694.81,-439.46 1729.26,-663.16 1736.97,-736.08"/>
<polygon fill="#757575" stroke="#757575" points="1733.48,-736.4 1737.94,-746.01 1740.45,-735.72 1733.48,-736.4"/>
</g>
<!-- pages/login&#45;register/Register.js&#45;&gt;components/formInput/index.js -->
<g id="edge60" class="edge">
<title>pages/login&#45;register/Register.js&#45;&gt;components/formInput/index.js</title>
<path fill="none" stroke="#757575" d="M1215.91,-338.41C1243.85,-351.62 1291.28,-372.74 1334,-385.5 1342,-387.89 1350.41,-390.07 1358.87,-392.04"/>
<polygon fill="#757575" stroke="#757575" points="1358,-395.43 1368.52,-394.18 1359.51,-388.59 1358,-395.43"/>
</g>
<!-- pages/login&#45;register/Register.js&#45;&gt;hooks/useUsernameValidation.js -->
<g id="edge61" class="edge">
<title>pages/login&#45;register/Register.js&#45;&gt;hooks/useUsernameValidation.js</title>
<path fill="none" stroke="#757575" d="M1269.13,-338.47C1296.57,-342.7 1327.64,-347.49 1355.92,-351.85"/>
<polygon fill="#757575" stroke="#757575" points="1355.11,-355.26 1365.52,-353.33 1356.17,-348.34 1355.11,-355.26"/>
</g>
<!-- pages/login&#45;register/Register.js&#45;&gt;store/ui/uiSlice.js -->
<g id="edge64" class="edge">
<title>pages/login&#45;register/Register.js&#45;&gt;store/ui/uiSlice.js</title>
<path fill="none" stroke="#757575" d="M1285.13,-314.61C1289.74,-312.04 1294.08,-309.03 1298,-305.5 1338.41,-269.08 1291.01,-221.84 1334,-188.5 1405.2,-133.29 1648.9,-169.5 1739,-169.5 1739,-169.5 1739,-169.5 2073.5,-169.5 2255.25,-169.5 2342.59,-71.88 2482,-188.5 2537.24,-234.71 2490.11,-280.1 2518,-346.5 2533.58,-383.58 2560.53,-421.92 2577.93,-444.73"/>
<polygon fill="#757575" stroke="#757575" points="2575.13,-446.84 2584.03,-452.59 2580.66,-442.54 2575.13,-446.84"/>
</g>
<!-- pages/login&#45;register/_srv.js -->
<g id="node41" class="node">
<title>pages/login&#45;register/_srv.js</title>
<path fill="none" stroke="#c6c5fe" d="M1531.83,-221C1531.83,-221 1359.17,-221 1359.17,-221 1355.33,-221 1351.5,-217.17 1351.5,-213.33 1351.5,-213.33 1351.5,-205.67 1351.5,-205.67 1351.5,-201.83 1355.33,-198 1359.17,-198 1359.17,-198 1531.83,-198 1531.83,-198 1535.67,-198 1539.5,-201.83 1539.5,-205.67 1539.5,-205.67 1539.5,-213.33 1539.5,-213.33 1539.5,-217.17 1535.67,-221 1531.83,-221"/>
<text text-anchor="middle" x="1445.5" y="-205.8" font-family="Arial" font-size="14.00" fill="#c6c5fe">pages/login&#45;register/_srv.js</text>
</g>
<!-- pages/login&#45;register/Register.js&#45;&gt;pages/login&#45;register/_srv.js -->
<g id="edge62" class="edge">
<title>pages/login&#45;register/Register.js&#45;&gt;pages/login&#45;register/_srv.js</title>
<path fill="none" stroke="#757575" d="M1282.62,-314.61C1288.07,-312.08 1293.26,-309.07 1298,-305.5 1325.95,-284.46 1306.44,-257.04 1334,-235.5 1338.59,-231.91 1343.59,-228.81 1348.85,-226.12"/>
<polygon fill="#757575" stroke="#757575" points="1350.17,-229.36 1357.86,-222.07 1347.3,-222.98 1350.17,-229.36"/>
</g>
<!-- pages/login&#45;register/_srv.js&#45;&gt;utils/ajax/index.js -->
<g id="edge65" class="edge">
<title>pages/login&#45;register/_srv.js&#45;&gt;utils/ajax/index.js</title>
<path fill="none" stroke="#757575" d="M1539.85,-209.5C1581.24,-209.5 1629.17,-209.5 1667.63,-209.5"/>
<polygon fill="#757575" stroke="#757575" points="1667.21,-213 1677.21,-209.5 1667.21,-206 1667.21,-213"/>
</g>
<!-- store/auth/_srv.js&#45;&gt;utils/ajax/index.js -->
<g id="edge69" class="edge">
<title>store/auth/_srv.js&#45;&gt;utils/ajax/index.js</title>
<path fill="none" stroke="#757575" d="M2307.88,-373.07C2200.01,-379.84 1981.71,-387.34 1923,-342.5 1883.12,-312.05 1925.01,-268.25 1887,-235.5 1866.7,-218.01 1838.77,-210.44 1812.77,-207.62"/>
<polygon fill="#757575" stroke="#757575" points="1813.15,-204.14 1802.89,-206.79 1812.56,-211.12 1813.15,-204.14"/>
</g>
<!-- utils/ajax/routesWithoutMainLoaderHandler.js&#45;&gt;data/routesWithoutMainLoader.js -->
<g id="edge79" class="edge">
<title>utils/ajax/routesWithoutMainLoaderHandler.js&#45;&gt;data/routesWithoutMainLoader.js</title>
<path fill="none" stroke="#757575" d="M2222.12,-250C2230.13,-250.03 2238.14,-250.06 2246.06,-250.08"/>
<polygon fill="#757575" stroke="#757575" points="2246.04,-253.58 2256.06,-250.12 2246.07,-246.58 2246.04,-253.58"/>
</g>
<!-- utils/ajax/routesWithoutMainLoaderHandler.js&#45;&gt;store/index.js -->
<g id="edge80" class="edge">
<title>utils/ajax/routesWithoutMainLoaderHandler.js&#45;&gt;store/index.js</title>
<path fill="none" stroke="#757575" d="M2161.76,-237.55C2208.96,-231.16 2265.89,-223.46 2308.13,-217.74"/>
<polygon fill="#757575" stroke="#757575" points="2308.41,-221.23 2317.85,-216.42 2307.48,-214.3 2308.41,-221.23"/>
</g>
<!-- utils/ajax/routesWithoutMainLoaderHandler.js&#45;&gt;store/ui/uiSlice.js -->
<g id="edge81" class="edge">
<title>utils/ajax/routesWithoutMainLoaderHandler.js&#45;&gt;store/ui/uiSlice.js</title>
<path fill="none" stroke="#757575" d="M2173.98,-261.48C2286.33,-275.5 2456.04,-298.79 2482,-314.5 2508.72,-330.67 2558.21,-406.79 2581.61,-444.39"/>
<polygon fill="#757575" stroke="#757575" points="2578.44,-445.93 2586.68,-452.6 2584.4,-442.25 2578.44,-445.93"/>
</g>
</g>
</svg>
