<?xml version="1.0" encoding="UTF-8" standalone="no"?>
<!DOCTYPE svg PUBLIC "-//W3C//DTD SVG 1.1//EN"
 "http://www.w3.org/Graphics/SVG/1.1/DTD/svg11.dtd">
<!-- Generated by graphviz version 7.1.0 (20230121.1956)
 -->
<!-- Title: G Pages: 1 -->
<svg width="2773pt" height="1400pt"
 viewBox="0.00 0.00 2773.20 1400.13" xmlns="http://www.w3.org/2000/svg" xmlns:xlink="http://www.w3.org/1999/xlink">
<g id="graph0" class="graph" transform="scale(1 1) rotate(0) translate(21.6 1378.53)">
<title>G</title>
<polygon fill="#111111" stroke="none" points="-21.6,21.6 -21.6,-1378.53 2751.6,-1378.53 2751.6,21.6 -21.6,21.6"/>
<!-- App.js -->
<g id="node1" class="node">
<title>App.js</title>
<path fill="none" stroke="#c6c5fe" d="M188.83,-613C188.83,-613 147.17,-613 147.17,-613 143.33,-613 139.5,-609.17 139.5,-605.33 139.5,-605.33 139.5,-597.67 139.5,-597.67 139.5,-593.83 143.33,-590 147.17,-590 147.17,-590 188.83,-590 188.83,-590 192.67,-590 196.5,-593.83 196.5,-597.67 196.5,-597.67 196.5,-605.33 196.5,-605.33 196.5,-609.17 192.67,-613 188.83,-613"/>
<text text-anchor="middle" x="168" y="-597.8" font-family="Arial" font-size="14.00" fill="#c6c5fe">App.js</text>
</g>
<!-- components/loader/index.js -->
<g id="node2" class="node">
<title>components/loader/index.js</title>
<path fill="none" stroke="#c6c5fe" d="M641.83,-613C641.83,-613 466.17,-613 466.17,-613 462.33,-613 458.5,-609.17 458.5,-605.33 458.5,-605.33 458.5,-597.67 458.5,-597.67 458.5,-593.83 462.33,-590 466.17,-590 466.17,-590 641.83,-590 641.83,-590 645.67,-590 649.5,-593.83 649.5,-597.67 649.5,-597.67 649.5,-605.33 649.5,-605.33 649.5,-609.17 645.67,-613 641.83,-613"/>
<text text-anchor="middle" x="554" y="-597.8" font-family="Arial" font-size="14.00" fill="#c6c5fe">components/loader/index.js</text>
</g>
<!-- App.js&#45;&gt;components/loader/index.js -->
<g id="edge1" class="edge">
<title>App.js&#45;&gt;components/loader/index.js</title>
<path fill="none" stroke="#757575" d="M196.93,-601.5C248.71,-601.5 362.07,-601.5 447.07,-601.5"/>
<polygon fill="#757575" stroke="#757575" points="446.82,-605 456.82,-601.5 446.82,-598 446.82,-605"/>
</g>
<!-- data/menuItems.js -->
<g id="node3" class="node">
<title>data/menuItems.js</title>
<path fill="none" stroke="#c6c5fe" d="M842.33,-823C842.33,-823 724.67,-823 724.67,-823 720.83,-823 717,-819.17 717,-815.33 717,-815.33 717,-807.67 717,-807.67 717,-803.83 720.83,-800 724.67,-800 724.67,-800 842.33,-800 842.33,-800 846.17,-800 850,-803.83 850,-807.67 850,-807.67 850,-815.33 850,-815.33 850,-819.17 846.17,-823 842.33,-823"/>
<text text-anchor="middle" x="783.5" y="-807.8" font-family="Arial" font-size="14.00" fill="#c6c5fe">data/menuItems.js</text>
</g>
<!-- App.js&#45;&gt;data/menuItems.js -->
<g id="edge2" class="edge">
<title>App.js&#45;&gt;data/menuItems.js</title>
<path fill="none" stroke="#757575" d="M196.96,-611.07C294.02,-644.29 617.06,-754.87 737.09,-795.95"/>
<polygon fill="#757575" stroke="#757575" points="735.69,-799.18 746.29,-799.1 737.96,-792.55 735.69,-799.18"/>
</g>
<!-- layout/header/index.js -->
<g id="node4" class="node">
<title>layout/header/index.js</title>
<path fill="none" stroke="#c6c5fe" d="M1075.83,-1014C1075.83,-1014 938.17,-1014 938.17,-1014 934.33,-1014 930.5,-1010.17 930.5,-1006.33 930.5,-1006.33 930.5,-998.67 930.5,-998.67 930.5,-994.83 934.33,-991 938.17,-991 938.17,-991 1075.83,-991 1075.83,-991 1079.67,-991 1083.5,-994.83 1083.5,-998.67 1083.5,-998.67 1083.5,-1006.33 1083.5,-1006.33 1083.5,-1010.17 1079.67,-1014 1075.83,-1014"/>
<text text-anchor="middle" x="1007" y="-998.8" font-family="Arial" font-size="14.00" fill="#c6c5fe">layout/header/index.js</text>
</g>
<!-- App.js&#45;&gt;layout/header/index.js -->
<g id="edge3" class="edge">
<title>App.js&#45;&gt;layout/header/index.js</title>
<path fill="none" stroke="#757575" d="M183.18,-613.48C202.28,-629.24 237.73,-657.2 271,-676.5 520.14,-821.06 845.17,-944.38 961.89,-986.78"/>
<polygon fill="#757575" stroke="#757575" points="960.51,-990 971.1,-990.11 962.89,-983.42 960.51,-990"/>
</g>
<!-- layout/menu/index.js -->
<g id="node5" class="node">
<title>layout/menu/index.js</title>
<path fill="none" stroke="#c6c5fe" d="M407.33,-1178C407.33,-1178 278.67,-1178 278.67,-1178 274.83,-1178 271,-1174.17 271,-1170.33 271,-1170.33 271,-1162.67 271,-1162.67 271,-1158.83 274.83,-1155 278.67,-1155 278.67,-1155 407.33,-1155 407.33,-1155 411.17,-1155 415,-1158.83 415,-1162.67 415,-1162.67 415,-1170.33 415,-1170.33 415,-1174.17 411.17,-1178 407.33,-1178"/>
<text text-anchor="middle" x="343" y="-1162.8" font-family="Arial" font-size="14.00" fill="#c6c5fe">layout/menu/index.js</text>
</g>
<!-- App.js&#45;&gt;layout/menu/index.js -->
<g id="edge4" class="edge">
<title>App.js&#45;&gt;layout/menu/index.js</title>
<path fill="none" stroke="#757575" d="M172.6,-613.37C185.71,-656.66 232.24,-810.08 271,-936.5 294.25,-1012.34 322.06,-1102.16 334.88,-1143.54"/>
<polygon fill="#757575" stroke="#757575" points="331.54,-1144.57 337.84,-1153.09 338.22,-1142.5 331.54,-1144.57"/>
</g>
<!-- pages/login&#45;register/index.js -->
<g id="node6" class="node">
<title>pages/login&#45;register/index.js</title>
<path fill="none" stroke="#c6c5fe" d="M1096.33,-419C1096.33,-419 917.67,-419 917.67,-419 913.83,-419 910,-415.17 910,-411.33 910,-411.33 910,-403.67 910,-403.67 910,-399.83 913.83,-396 917.67,-396 917.67,-396 1096.33,-396 1096.33,-396 1100.17,-396 1104,-399.83 1104,-403.67 1104,-403.67 1104,-411.33 1104,-411.33 1104,-415.17 1100.17,-419 1096.33,-419"/>
<text text-anchor="middle" x="1007" y="-403.8" font-family="Arial" font-size="14.00" fill="#c6c5fe">pages/login&#45;register/index.js</text>
</g>
<!-- App.js&#45;&gt;pages/login&#45;register/index.js -->
<g id="edge5" class="edge">
<title>App.js&#45;&gt;pages/login&#45;register/index.js</title>
<path fill="none" stroke="#757575" d="M196.85,-595.05C314.69,-567.73 774.06,-461.26 943.11,-422.08"/>
<polygon fill="#757575" stroke="#757575" points="943.87,-425.49 952.82,-419.83 942.29,-418.67 943.87,-425.49"/>
</g>
<!-- store/auth/authActions.js -->
<g id="node7" class="node">
<title>store/auth/authActions.js</title>
<path fill="none" stroke="#ff6c60" d="M2206.83,-461C2206.83,-461 2052.17,-461 2052.17,-461 2048.33,-461 2044.5,-457.17 2044.5,-453.33 2044.5,-453.33 2044.5,-445.67 2044.5,-445.67 2044.5,-441.83 2048.33,-438 2052.17,-438 2052.17,-438 2206.83,-438 2206.83,-438 2210.67,-438 2214.5,-441.83 2214.5,-445.67 2214.5,-445.67 2214.5,-453.33 2214.5,-453.33 2214.5,-457.17 2210.67,-461 2206.83,-461"/>
<text text-anchor="middle" x="2129.5" y="-445.8" font-family="Arial" font-size="14.00" fill="#ff6c60">store/auth/authActions.js</text>
</g>
<!-- App.js&#45;&gt;store/auth/authActions.js -->
<g id="edge6" class="edge">
<title>App.js&#45;&gt;store/auth/authActions.js</title>
<path fill="none" stroke="#757575" d="M172.04,-589.86C191.73,-517.33 308.23,-130.5 553,-130.5 553,-130.5 553,-130.5 1248.5,-130.5 1329.83,-130.5 1550.09,-99.2 1614,-149.5 1658.09,-184.2 1610.3,-230.86 1650,-270.5 1746.43,-366.78 1835.64,-274.87 1944,-357.5 1968.13,-375.9 1955.31,-397.87 1980,-415.5 1995.65,-426.68 2014.4,-434.25 2033.21,-439.36"/>
<polygon fill="#757575" stroke="#757575" points="2032.26,-442.73 2042.81,-441.73 2033.94,-435.94 2032.26,-442.73"/>
</g>
<!-- assets/icons/index.js -->
<g id="node8" class="node">
<title>assets/icons/index.js</title>
<path fill="none" stroke="#cfffac" d="M1863.33,-813C1863.33,-813 1730.67,-813 1730.67,-813 1726.83,-813 1723,-809.17 1723,-805.33 1723,-805.33 1723,-797.67 1723,-797.67 1723,-793.83 1726.83,-790 1730.67,-790 1730.67,-790 1863.33,-790 1863.33,-790 1867.17,-790 1871,-793.83 1871,-797.67 1871,-797.67 1871,-805.33 1871,-805.33 1871,-809.17 1867.17,-813 1863.33,-813"/>
<text text-anchor="middle" x="1797" y="-797.8" font-family="Arial" font-size="14.00" fill="#cfffac">assets/icons/index.js</text>
</g>
<!-- components/loader/index.js&#45;&gt;assets/icons/index.js -->
<g id="edge8" class="edge">
<title>components/loader/index.js&#45;&gt;assets/icons/index.js</title>
<path fill="none" stroke="#757575" d="M649.59,-601.5C740.84,-601.5 882.88,-601.5 1006,-601.5 1006,-601.5 1006,-601.5 1248.5,-601.5 1411.77,-601.5 1464.63,-572.57 1614,-638.5 1687.74,-671.04 1752.28,-745.08 1780.66,-781.08"/>
<polygon fill="#757575" stroke="#757575" points="1777.56,-782.8 1786.45,-788.57 1783.1,-778.52 1777.56,-782.8"/>
</g>
<!-- data/menuItems.js&#45;&gt;assets/icons/index.js -->
<g id="edge11" class="edge">
<title>data/menuItems.js&#45;&gt;assets/icons/index.js</title>
<path fill="none" stroke="#757575" d="M827.79,-823.44C979.22,-864.14 1483.09,-990.22 1614,-903.5 1648.2,-880.84 1617.17,-843.1 1650,-818.5 1667.48,-805.4 1689.59,-799.16 1711.28,-796.66"/>
<polygon fill="#757575" stroke="#757575" points="1711.39,-800.16 1721.05,-795.81 1710.78,-793.19 1711.39,-800.16"/>
</g>
<!-- pages/dashboard/index.js -->
<g id="node15" class="node">
<title>pages/dashboard/index.js</title>
<path fill="none" stroke="#c6c5fe" d="M1088.83,-823C1088.83,-823 925.17,-823 925.17,-823 921.33,-823 917.5,-819.17 917.5,-815.33 917.5,-815.33 917.5,-807.67 917.5,-807.67 917.5,-803.83 921.33,-800 925.17,-800 925.17,-800 1088.83,-800 1088.83,-800 1092.67,-800 1096.5,-803.83 1096.5,-807.67 1096.5,-807.67 1096.5,-815.33 1096.5,-815.33 1096.5,-819.17 1092.67,-823 1088.83,-823"/>
<text text-anchor="middle" x="1007" y="-807.8" font-family="Arial" font-size="14.00" fill="#c6c5fe">pages/dashboard/index.js</text>
</g>
<!-- data/menuItems.js&#45;&gt;pages/dashboard/index.js -->
<g id="edge12" class="edge">
<title>data/menuItems.js&#45;&gt;pages/dashboard/index.js</title>
<path fill="none" stroke="#757575" d="M850.36,-811.5C867.76,-811.5 886.94,-811.5 905.72,-811.5"/>
<polygon fill="#757575" stroke="#757575" points="905.51,-815 915.51,-811.5 905.51,-808 905.51,-815"/>
</g>
<!-- pages/temp/index.js -->
<g id="node16" class="node">
<title>pages/temp/index.js</title>
<path fill="none" stroke="#cfffac" d="M1071.33,-782C1071.33,-782 942.67,-782 942.67,-782 938.83,-782 935,-778.17 935,-774.33 935,-774.33 935,-766.67 935,-766.67 935,-762.83 938.83,-759 942.67,-759 942.67,-759 1071.33,-759 1071.33,-759 1075.17,-759 1079,-762.83 1079,-766.67 1079,-766.67 1079,-774.33 1079,-774.33 1079,-778.17 1075.17,-782 1071.33,-782"/>
<text text-anchor="middle" x="1007" y="-766.8" font-family="Arial" font-size="14.00" fill="#cfffac">pages/temp/index.js</text>
</g>
<!-- data/menuItems.js&#45;&gt;pages/temp/index.js -->
<g id="edge13" class="edge">
<title>data/menuItems.js&#45;&gt;pages/temp/index.js</title>
<path fill="none" stroke="#757575" d="M849.16,-799.53C874.53,-794.84 903.81,-789.41 930.16,-784.54"/>
<polygon fill="#757575" stroke="#757575" points="930.57,-788.02 939.77,-782.76 929.3,-781.14 930.57,-788.02"/>
</g>
<!-- components/search/index.js -->
<g id="node12" class="node">
<title>components/search/index.js</title>
<path fill="none" stroke="#c6c5fe" d="M1591.83,-974C1591.83,-974 1413.17,-974 1413.17,-974 1409.33,-974 1405.5,-970.17 1405.5,-966.33 1405.5,-966.33 1405.5,-958.67 1405.5,-958.67 1405.5,-954.83 1409.33,-951 1413.17,-951 1413.17,-951 1591.83,-951 1591.83,-951 1595.67,-951 1599.5,-954.83 1599.5,-958.67 1599.5,-958.67 1599.5,-966.33 1599.5,-966.33 1599.5,-970.17 1595.67,-974 1591.83,-974"/>
<text text-anchor="middle" x="1502.5" y="-958.8" font-family="Arial" font-size="14.00" fill="#c6c5fe">components/search/index.js</text>
</g>
<!-- layout/header/index.js&#45;&gt;components/search/index.js -->
<g id="edge26" class="edge">
<title>layout/header/index.js&#45;&gt;components/search/index.js</title>
<path fill="none" stroke="#757575" d="M1083.76,-996.36C1166.71,-989.64 1300.39,-978.8 1394.13,-971.2"/>
<polygon fill="#757575" stroke="#757575" points="1394.17,-974.71 1403.85,-970.41 1393.6,-967.73 1394.17,-974.71"/>
</g>
<!-- layout/header/PageTitle.js -->
<g id="node24" class="node">
<title>layout/header/PageTitle.js</title>
<path fill="none" stroke="#c6c5fe" d="M1584.83,-1216C1584.83,-1216 1420.17,-1216 1420.17,-1216 1416.33,-1216 1412.5,-1212.17 1412.5,-1208.33 1412.5,-1208.33 1412.5,-1200.67 1412.5,-1200.67 1412.5,-1196.83 1416.33,-1193 1420.17,-1193 1420.17,-1193 1584.83,-1193 1584.83,-1193 1588.67,-1193 1592.5,-1196.83 1592.5,-1200.67 1592.5,-1200.67 1592.5,-1208.33 1592.5,-1208.33 1592.5,-1212.17 1588.67,-1216 1584.83,-1216"/>
<text text-anchor="middle" x="1502.5" y="-1200.8" font-family="Arial" font-size="14.00" fill="#c6c5fe">layout/header/PageTitle.js</text>
</g>
<!-- layout/header/index.js&#45;&gt;layout/header/PageTitle.js -->
<g id="edge27" class="edge">
<title>layout/header/index.js&#45;&gt;layout/header/PageTitle.js</title>
<path fill="none" stroke="#757575" d="M1027.97,-1014.35C1083.5,-1046.76 1245.23,-1137.59 1391,-1184.5 1397.18,-1186.49 1403.63,-1188.3 1410.16,-1189.94"/>
<polygon fill="#757575" stroke="#757575" points="1409.2,-1193.31 1419.74,-1192.21 1410.81,-1186.5 1409.2,-1193.31"/>
</g>
<!-- layout/header/Profile.js -->
<g id="node27" class="node">
<title>layout/header/Profile.js</title>
<path fill="none" stroke="#c6c5fe" d="M1320.33,-1044C1320.33,-1044 1174.67,-1044 1174.67,-1044 1170.83,-1044 1167,-1040.17 1167,-1036.33 1167,-1036.33 1167,-1028.67 1167,-1028.67 1167,-1024.83 1170.83,-1021 1174.67,-1021 1174.67,-1021 1320.33,-1021 1320.33,-1021 1324.17,-1021 1328,-1024.83 1328,-1028.67 1328,-1028.67 1328,-1036.33 1328,-1036.33 1328,-1040.17 1324.17,-1044 1320.33,-1044"/>
<text text-anchor="middle" x="1247.5" y="-1028.8" font-family="Arial" font-size="14.00" fill="#c6c5fe">layout/header/Profile.js</text>
</g>
<!-- layout/header/index.js&#45;&gt;layout/header/Profile.js -->
<g id="edge28" class="edge">
<title>layout/header/index.js&#45;&gt;layout/header/Profile.js</title>
<path fill="none" stroke="#757575" d="M1083.79,-1012.03C1106.63,-1014.91 1131.94,-1018.09 1155.66,-1021.07"/>
<polygon fill="#757575" stroke="#757575" points="1154.93,-1024.51 1165.29,-1022.28 1155.8,-1017.56 1154.93,-1024.51"/>
</g>
<!-- hooks/useOutsideAlerter.js -->
<g id="node18" class="node">
<title>hooks/useOutsideAlerter.js</title>
<path fill="none" stroke="#cfffac" d="M1588.83,-1134C1588.83,-1134 1416.17,-1134 1416.17,-1134 1412.33,-1134 1408.5,-1130.17 1408.5,-1126.33 1408.5,-1126.33 1408.5,-1118.67 1408.5,-1118.67 1408.5,-1114.83 1412.33,-1111 1416.17,-1111 1416.17,-1111 1588.83,-1111 1588.83,-1111 1592.67,-1111 1596.5,-1114.83 1596.5,-1118.67 1596.5,-1118.67 1596.5,-1126.33 1596.5,-1126.33 1596.5,-1130.17 1592.67,-1134 1588.83,-1134"/>
<text text-anchor="middle" x="1502.5" y="-1118.8" font-family="Arial" font-size="14.00" fill="#cfffac">hooks/useOutsideAlerter.js</text>
</g>
<!-- layout/menu/index.js&#45;&gt;hooks/useOutsideAlerter.js -->
<g id="edge36" class="edge">
<title>layout/menu/index.js&#45;&gt;hooks/useOutsideAlerter.js</title>
<path fill="none" stroke="#757575" d="M415.23,-1176.48C501.85,-1187.74 652.6,-1204.5 782.5,-1204.5 782.5,-1204.5 782.5,-1204.5 1008,-1204.5 1048.99,-1204.5 1297.94,-1159.9 1425.81,-1136.48"/>
<polygon fill="#757575" stroke="#757575" points="1426.36,-1139.94 1435.56,-1134.7 1425.1,-1133.06 1426.36,-1139.94"/>
</g>
<!-- store/ui/uiSlice.js -->
<g id="node25" class="node">
<title>store/ui/uiSlice.js</title>
<path fill="none" stroke="#cfffac" d="M2706.33,-518C2706.33,-518 2598.67,-518 2598.67,-518 2594.83,-518 2591,-514.17 2591,-510.33 2591,-510.33 2591,-502.67 2591,-502.67 2591,-498.83 2594.83,-495 2598.67,-495 2598.67,-495 2706.33,-495 2706.33,-495 2710.17,-495 2714,-498.83 2714,-502.67 2714,-502.67 2714,-510.33 2714,-510.33 2714,-514.17 2710.17,-518 2706.33,-518"/>
<text text-anchor="middle" x="2652.5" y="-502.8" font-family="Arial" font-size="14.00" fill="#cfffac">store/ui/uiSlice.js</text>
</g>
<!-- layout/menu/index.js&#45;&gt;store/ui/uiSlice.js -->
<g id="edge40" class="edge">
<title>layout/menu/index.js&#45;&gt;store/ui/uiSlice.js</title>
<path fill="none" stroke="#757575" d="M354.55,-1178.44C372.38,-1197.84 410.52,-1235.97 451,-1255.5 586.54,-1320.89 632.01,-1324.5 782.5,-1324.5 782.5,-1324.5 782.5,-1324.5 2130.5,-1324.5 2312.68,-1324.5 2406.4,-1415.44 2539,-1290.5 2652.82,-1183.26 2653.19,-647.64 2651.86,-529.56"/>
<polygon fill="#757575" stroke="#757575" points="2655.36,-529.82 2651.73,-519.87 2648.37,-529.91 2655.36,-529.82"/>
</g>
<!-- layout/menu/Logo.js -->
<g id="node28" class="node">
<title>layout/menu/Logo.js</title>
<path fill="none" stroke="#c6c5fe" d="M1566.33,-1296C1566.33,-1296 1438.67,-1296 1438.67,-1296 1434.83,-1296 1431,-1292.17 1431,-1288.33 1431,-1288.33 1431,-1280.67 1431,-1280.67 1431,-1276.83 1434.83,-1273 1438.67,-1273 1438.67,-1273 1566.33,-1273 1566.33,-1273 1570.17,-1273 1574,-1276.83 1574,-1280.67 1574,-1280.67 1574,-1288.33 1574,-1288.33 1574,-1292.17 1570.17,-1296 1566.33,-1296"/>
<text text-anchor="middle" x="1502.5" y="-1280.8" font-family="Arial" font-size="14.00" fill="#c6c5fe">layout/menu/Logo.js</text>
</g>
<!-- layout/menu/index.js&#45;&gt;layout/menu/Logo.js -->
<g id="edge37" class="edge">
<title>layout/menu/index.js&#45;&gt;layout/menu/Logo.js</title>
<path fill="none" stroke="#757575" d="M369.55,-1178.46C436.02,-1208.46 620.49,-1284.5 782.5,-1284.5 782.5,-1284.5 782.5,-1284.5 1008,-1284.5 1152.84,-1284.5 1321.6,-1284.5 1419.52,-1284.5"/>
<polygon fill="#757575" stroke="#757575" points="1419.3,-1288 1429.3,-1284.5 1419.3,-1281 1419.3,-1288"/>
</g>
<!-- layout/menu/Logout.js -->
<g id="node29" class="node">
<title>layout/menu/Logout.js</title>
<path fill="none" stroke="#c6c5fe" d="M1572.33,-1175C1572.33,-1175 1432.67,-1175 1432.67,-1175 1428.83,-1175 1425,-1171.17 1425,-1167.33 1425,-1167.33 1425,-1159.67 1425,-1159.67 1425,-1155.83 1428.83,-1152 1432.67,-1152 1432.67,-1152 1572.33,-1152 1572.33,-1152 1576.17,-1152 1580,-1155.83 1580,-1159.67 1580,-1159.67 1580,-1167.33 1580,-1167.33 1580,-1171.17 1576.17,-1175 1572.33,-1175"/>
<text text-anchor="middle" x="1502.5" y="-1159.8" font-family="Arial" font-size="14.00" fill="#c6c5fe">layout/menu/Logout.js</text>
</g>
<!-- layout/menu/index.js&#45;&gt;layout/menu/Logout.js -->
<g id="edge38" class="edge">
<title>layout/menu/index.js&#45;&gt;layout/menu/Logout.js</title>
<path fill="none" stroke="#757575" d="M415.23,-1156.52C501.85,-1145.26 652.6,-1128.5 782.5,-1128.5 782.5,-1128.5 782.5,-1128.5 1008,-1128.5 1150.11,-1128.5 1314.66,-1143.12 1413.29,-1153.46"/>
<polygon fill="#757575" stroke="#757575" points="1412.87,-1156.94 1423.18,-1154.51 1413.61,-1149.97 1412.87,-1156.94"/>
</g>
<!-- layout/menu/MenuContainer.js -->
<g id="node30" class="node">
<title>layout/menu/MenuContainer.js</title>
<path fill="none" stroke="#c6c5fe" d="M649.33,-1100C649.33,-1100 458.67,-1100 458.67,-1100 454.83,-1100 451,-1096.17 451,-1092.33 451,-1092.33 451,-1084.67 451,-1084.67 451,-1080.83 454.83,-1077 458.67,-1077 458.67,-1077 649.33,-1077 649.33,-1077 653.17,-1077 657,-1080.83 657,-1084.67 657,-1084.67 657,-1092.33 657,-1092.33 657,-1096.17 653.17,-1100 649.33,-1100"/>
<text text-anchor="middle" x="554" y="-1084.8" font-family="Arial" font-size="14.00" fill="#c6c5fe">layout/menu/MenuContainer.js</text>
</g>
<!-- layout/menu/index.js&#45;&gt;layout/menu/MenuContainer.js -->
<g id="edge39" class="edge">
<title>layout/menu/index.js&#45;&gt;layout/menu/MenuContainer.js</title>
<path fill="none" stroke="#757575" d="M365.16,-1154.62C386.35,-1143.12 420.16,-1125.79 451,-1114.5 462.36,-1110.34 474.68,-1106.59 486.68,-1103.32"/>
<polygon fill="#757575" stroke="#757575" points="487.34,-1106.77 496.12,-1100.84 485.56,-1100 487.34,-1106.77"/>
</g>
<!-- pages/login&#45;register/Hero.js -->
<g id="node39" class="node">
<title>pages/login&#45;register/Hero.js</title>
<path fill="none" stroke="#c6c5fe" d="M1335.33,-339C1335.33,-339 1159.67,-339 1159.67,-339 1155.83,-339 1152,-335.17 1152,-331.33 1152,-331.33 1152,-323.67 1152,-323.67 1152,-319.83 1155.83,-316 1159.67,-316 1159.67,-316 1335.33,-316 1335.33,-316 1339.17,-316 1343,-319.83 1343,-323.67 1343,-323.67 1343,-331.33 1343,-331.33 1343,-335.17 1339.17,-339 1335.33,-339"/>
<text text-anchor="middle" x="1247.5" y="-323.8" font-family="Arial" font-size="14.00" fill="#c6c5fe">pages/login&#45;register/Hero.js</text>
</g>
<!-- pages/login&#45;register/index.js&#45;&gt;pages/login&#45;register/Hero.js -->
<g id="edge67" class="edge">
<title>pages/login&#45;register/index.js&#45;&gt;pages/login&#45;register/Hero.js</title>
<path fill="none" stroke="#757575" d="M1029.77,-395.62C1055.43,-382.1 1099.68,-360.25 1140,-347.5 1146.21,-345.54 1152.68,-343.74 1159.23,-342.1"/>
<polygon fill="#757575" stroke="#757575" points="1159.91,-345.54 1168.84,-339.83 1158.3,-338.73 1159.91,-345.54"/>
</g>
<!-- pages/login&#45;register/Login.js -->
<g id="node40" class="node">
<title>pages/login&#45;register/Login.js</title>
<path fill="none" stroke="#c6c5fe" d="M1337.83,-479C1337.83,-479 1157.17,-479 1157.17,-479 1153.33,-479 1149.5,-475.17 1149.5,-471.33 1149.5,-471.33 1149.5,-463.67 1149.5,-463.67 1149.5,-459.83 1153.33,-456 1157.17,-456 1157.17,-456 1337.83,-456 1337.83,-456 1341.67,-456 1345.5,-459.83 1345.5,-463.67 1345.5,-463.67 1345.5,-471.33 1345.5,-471.33 1345.5,-475.17 1341.67,-479 1337.83,-479"/>
<text text-anchor="middle" x="1247.5" y="-463.8" font-family="Arial" font-size="14.00" fill="#c6c5fe">pages/login&#45;register/Login.js</text>
</g>
<!-- pages/login&#45;register/index.js&#45;&gt;pages/login&#45;register/Login.js -->
<g id="edge68" class="edge">
<title>pages/login&#45;register/index.js&#45;&gt;pages/login&#45;register/Login.js</title>
<path fill="none" stroke="#757575" d="M1055.69,-419.5C1093.71,-429.06 1147.14,-442.5 1187.79,-452.73"/>
<polygon fill="#757575" stroke="#757575" points="1186.87,-456.11 1197.42,-455.15 1188.58,-449.32 1186.87,-456.11"/>
</g>
<!-- pages/login&#45;register/Register.js -->
<g id="node41" class="node">
<title>pages/login&#45;register/Register.js</title>
<path fill="none" stroke="#c6c5fe" d="M1347.33,-380C1347.33,-380 1147.67,-380 1147.67,-380 1143.83,-380 1140,-376.17 1140,-372.33 1140,-372.33 1140,-364.67 1140,-364.67 1140,-360.83 1143.83,-357 1147.67,-357 1147.67,-357 1347.33,-357 1347.33,-357 1351.17,-357 1355,-360.83 1355,-364.67 1355,-364.67 1355,-372.33 1355,-372.33 1355,-376.17 1351.17,-380 1347.33,-380"/>
<text text-anchor="middle" x="1247.5" y="-364.8" font-family="Arial" font-size="14.00" fill="#c6c5fe">pages/login&#45;register/Register.js</text>
</g>
<!-- pages/login&#45;register/index.js&#45;&gt;pages/login&#45;register/Register.js -->
<g id="edge69" class="edge">
<title>pages/login&#45;register/index.js&#45;&gt;pages/login&#45;register/Register.js</title>
<path fill="none" stroke="#757575" d="M1081.18,-395.53C1106.82,-391.34 1135.82,-386.6 1162.29,-382.27"/>
<polygon fill="#757575" stroke="#757575" points="1162.66,-385.76 1171.97,-380.69 1161.53,-378.85 1162.66,-385.76"/>
</g>
<!-- store/auth/authActions.js&#45;&gt;store/ui/uiSlice.js -->
<g id="edge73" class="edge">
<title>store/auth/authActions.js&#45;&gt;store/ui/uiSlice.js</title>
<path fill="none" stroke="#757575" d="M2214.79,-458.72C2315.94,-469.79 2483.82,-488.15 2579.28,-498.6"/>
<polygon fill="#757575" stroke="#757575" points="2578.73,-502.06 2589.05,-499.67 2579.49,-495.1 2578.73,-502.06"/>
</g>
<!-- store/auth/_srv.js -->
<g id="node43" class="node">
<title>store/auth/_srv.js</title>
<path fill="none" stroke="#ff6c60" d="M2481.33,-421C2481.33,-421 2372.67,-421 2372.67,-421 2368.83,-421 2365,-417.17 2365,-413.33 2365,-413.33 2365,-405.67 2365,-405.67 2365,-401.83 2368.83,-398 2372.67,-398 2372.67,-398 2481.33,-398 2481.33,-398 2485.17,-398 2489,-401.83 2489,-405.67 2489,-405.67 2489,-413.33 2489,-413.33 2489,-417.17 2485.17,-421 2481.33,-421"/>
<text text-anchor="middle" x="2427" y="-405.8" font-family="Arial" font-size="14.00" fill="#ff6c60">store/auth/_srv.js</text>
</g>
<!-- store/auth/authActions.js&#45;&gt;store/auth/_srv.js -->
<g id="edge71" class="edge">
<title>store/auth/authActions.js&#45;&gt;store/auth/_srv.js</title>
<path fill="none" stroke="#757575" d="M2214.78,-438.09C2258.54,-432.17 2311.46,-425 2353.38,-419.33"/>
<polygon fill="#757575" stroke="#757575" points="2353.68,-422.82 2363.12,-418.01 2352.74,-415.88 2353.68,-422.82"/>
</g>
<!-- store/auth/authSlice.js -->
<g id="node44" class="node">
<title>store/auth/authSlice.js</title>
<path fill="none" stroke="#cfffac" d="M2722.33,-379C2722.33,-379 2582.67,-379 2582.67,-379 2578.83,-379 2575,-375.17 2575,-371.33 2575,-371.33 2575,-363.67 2575,-363.67 2575,-359.83 2578.83,-356 2582.67,-356 2582.67,-356 2722.33,-356 2722.33,-356 2726.17,-356 2730,-359.83 2730,-363.67 2730,-363.67 2730,-371.33 2730,-371.33 2730,-375.17 2726.17,-379 2722.33,-379"/>
<text text-anchor="middle" x="2652.5" y="-363.8" font-family="Arial" font-size="14.00" fill="#cfffac">store/auth/authSlice.js</text>
</g>
<!-- store/auth/authActions.js&#45;&gt;store/auth/authSlice.js -->
<g id="edge72" class="edge">
<title>store/auth/authActions.js&#45;&gt;store/auth/authSlice.js</title>
<path fill="none" stroke="#757575" d="M2214.82,-456.31C2298.69,-460.56 2430.21,-460.35 2539,-429.5 2571.37,-420.32 2604.67,-400.42 2626.55,-385.63"/>
<polygon fill="#757575" stroke="#757575" points="2628.29,-388.68 2634.51,-380.11 2624.3,-382.93 2628.29,-388.68"/>
</g>
<!-- assets/images/hero&#45;pattern.png -->
<g id="node9" class="node">
<title>assets/images/hero&#45;pattern.png</title>
<path fill="none" stroke="#cfffac" d="M1603.33,-182C1603.33,-182 1401.67,-182 1401.67,-182 1397.83,-182 1394,-178.17 1394,-174.33 1394,-174.33 1394,-166.67 1394,-166.67 1394,-162.83 1397.83,-159 1401.67,-159 1401.67,-159 1603.33,-159 1603.33,-159 1607.17,-159 1611,-162.83 1611,-166.67 1611,-166.67 1611,-174.33 1611,-174.33 1611,-178.17 1607.17,-182 1603.33,-182"/>
<text text-anchor="middle" x="1502.5" y="-166.8" font-family="Arial" font-size="14.00" fill="#cfffac">assets/images/hero&#45;pattern.png</text>
</g>
<!-- assets/images/profile&#45;pic.jpg -->
<g id="node10" class="node">
<title>assets/images/profile&#45;pic.jpg</title>
<path fill="none" stroke="#cfffac" d="M1594.33,-1054C1594.33,-1054 1410.67,-1054 1410.67,-1054 1406.83,-1054 1403,-1050.17 1403,-1046.33 1403,-1046.33 1403,-1038.67 1403,-1038.67 1403,-1034.83 1406.83,-1031 1410.67,-1031 1410.67,-1031 1594.33,-1031 1594.33,-1031 1598.17,-1031 1602,-1034.83 1602,-1038.67 1602,-1038.67 1602,-1046.33 1602,-1046.33 1602,-1050.17 1598.17,-1054 1594.33,-1054"/>
<text text-anchor="middle" x="1502.5" y="-1038.8" font-family="Arial" font-size="14.00" fill="#cfffac">assets/images/profile&#45;pic.jpg</text>
</g>
<!-- components/formInput/index.js -->
<g id="node11" class="node">
<title>components/formInput/index.js</title>
<path fill="none" stroke="#c6c5fe" d="M1600.83,-459C1600.83,-459 1404.17,-459 1404.17,-459 1400.33,-459 1396.5,-455.17 1396.5,-451.33 1396.5,-451.33 1396.5,-443.67 1396.5,-443.67 1396.5,-439.83 1400.33,-436 1404.17,-436 1404.17,-436 1600.83,-436 1600.83,-436 1604.67,-436 1608.5,-439.83 1608.5,-443.67 1608.5,-443.67 1608.5,-451.33 1608.5,-451.33 1608.5,-455.17 1604.67,-459 1600.83,-459"/>
<text text-anchor="middle" x="1502.5" y="-443.8" font-family="Arial" font-size="14.00" fill="#c6c5fe">components/formInput/index.js</text>
</g>
<!-- components/formInput/index.js&#45;&gt;assets/icons/index.js -->
<g id="edge7" class="edge">
<title>components/formInput/index.js&#45;&gt;assets/icons/index.js</title>
<path fill="none" stroke="#757575" d="M1517.96,-459.23C1539.92,-477.39 1582.48,-513.95 1614,-549.5 1684.44,-628.94 1754.1,-735.1 1782.58,-780"/>
<polygon fill="#757575" stroke="#757575" points="1779.51,-781.7 1787.8,-788.3 1785.43,-777.97 1779.51,-781.7"/>
</g>
<!-- components/search/index.js&#45;&gt;assets/icons/index.js -->
<g id="edge9" class="edge">
<title>components/search/index.js&#45;&gt;assets/icons/index.js</title>
<path fill="none" stroke="#757575" d="M1573.62,-950.55C1587.36,-946.95 1601.4,-942.35 1614,-936.5 1679.23,-906.22 1744.11,-850.34 1775.87,-820.87"/>
<polygon fill="#757575" stroke="#757575" points="1777.94,-823.73 1782.83,-814.33 1773.14,-818.63 1777.94,-823.73"/>
</g>
<!-- components/survayCard/index.js -->
<g id="node13" class="node">
<title>components/survayCard/index.js</title>
<path fill="none" stroke="#c6c5fe" d="M1605.83,-853C1605.83,-853 1399.17,-853 1399.17,-853 1395.33,-853 1391.5,-849.17 1391.5,-845.33 1391.5,-845.33 1391.5,-837.67 1391.5,-837.67 1391.5,-833.83 1395.33,-830 1399.17,-830 1399.17,-830 1605.83,-830 1605.83,-830 1609.67,-830 1613.5,-833.83 1613.5,-837.67 1613.5,-837.67 1613.5,-845.33 1613.5,-845.33 1613.5,-849.17 1609.67,-853 1605.83,-853"/>
<text text-anchor="middle" x="1502.5" y="-837.8" font-family="Arial" font-size="14.00" fill="#c6c5fe">components/survayCard/index.js</text>
</g>
<!-- components/survayCard/index.js&#45;&gt;assets/icons/index.js -->
<g id="edge10" class="edge">
<title>components/survayCard/index.js&#45;&gt;assets/icons/index.js</title>
<path fill="none" stroke="#757575" d="M1590.86,-829.55C1629.17,-824.31 1673.94,-818.19 1711.87,-813.01"/>
<polygon fill="#757575" stroke="#757575" points="1711.95,-816.53 1721.39,-811.7 1711.01,-809.59 1711.95,-816.53"/>
</g>
<!-- data/cardsInfo.js -->
<g id="node14" class="node">
<title>data/cardsInfo.js</title>
<path fill="none" stroke="#cfffac" d="M1555.83,-894C1555.83,-894 1449.17,-894 1449.17,-894 1445.33,-894 1441.5,-890.17 1441.5,-886.33 1441.5,-886.33 1441.5,-878.67 1441.5,-878.67 1441.5,-874.83 1445.33,-871 1449.17,-871 1449.17,-871 1555.83,-871 1555.83,-871 1559.67,-871 1563.5,-874.83 1563.5,-878.67 1563.5,-878.67 1563.5,-886.33 1563.5,-886.33 1563.5,-890.17 1559.67,-894 1555.83,-894"/>
<text text-anchor="middle" x="1502.5" y="-878.8" font-family="Arial" font-size="14.00" fill="#cfffac">data/cardsInfo.js</text>
</g>
<!-- pages/dashboard/Recent.js -->
<g id="node32" class="node">
<title>pages/dashboard/Recent.js</title>
<path fill="none" stroke="#c6c5fe" d="M1335.33,-711C1335.33,-711 1159.67,-711 1159.67,-711 1155.83,-711 1152,-707.17 1152,-703.33 1152,-703.33 1152,-695.67 1152,-695.67 1152,-691.83 1155.83,-688 1159.67,-688 1159.67,-688 1335.33,-688 1335.33,-688 1339.17,-688 1343,-691.83 1343,-695.67 1343,-695.67 1343,-703.33 1343,-703.33 1343,-707.17 1339.17,-711 1335.33,-711"/>
<text text-anchor="middle" x="1247.5" y="-695.8" font-family="Arial" font-size="14.00" fill="#c6c5fe">pages/dashboard/Recent.js</text>
</g>
<!-- pages/dashboard/index.js&#45;&gt;pages/dashboard/Recent.js -->
<g id="edge50" class="edge">
<title>pages/dashboard/index.js&#45;&gt;pages/dashboard/Recent.js</title>
<path fill="none" stroke="#757575" d="M1083.65,-799.57C1090.69,-797.33 1097.59,-794.66 1104,-791.5 1122.94,-782.16 1122.76,-772.69 1140,-760.5 1163.32,-744.01 1191.43,-728.06 1212.9,-716.61"/>
<polygon fill="#757575" stroke="#757575" points="1214.31,-719.83 1221.53,-712.07 1211.05,-713.63 1214.31,-719.83"/>
</g>
<!-- pages/dashboard/Survay.js -->
<g id="node35" class="node">
<title>pages/dashboard/Survay.js</title>
<path fill="none" stroke="#c6c5fe" d="M1333.83,-853C1333.83,-853 1161.17,-853 1161.17,-853 1157.33,-853 1153.5,-849.17 1153.5,-845.33 1153.5,-845.33 1153.5,-837.67 1153.5,-837.67 1153.5,-833.83 1157.33,-830 1161.17,-830 1161.17,-830 1333.83,-830 1333.83,-830 1337.67,-830 1341.5,-833.83 1341.5,-837.67 1341.5,-837.67 1341.5,-845.33 1341.5,-845.33 1341.5,-849.17 1337.67,-853 1333.83,-853"/>
<text text-anchor="middle" x="1247.5" y="-837.8" font-family="Arial" font-size="14.00" fill="#c6c5fe">pages/dashboard/Survay.js</text>
</g>
<!-- pages/dashboard/index.js&#45;&gt;pages/dashboard/Survay.js -->
<g id="edge51" class="edge">
<title>pages/dashboard/index.js&#45;&gt;pages/dashboard/Survay.js</title>
<path fill="none" stroke="#757575" d="M1096.81,-822.67C1111.48,-824.52 1126.81,-826.44 1141.82,-828.33"/>
<polygon fill="#757575" stroke="#757575" points="1141.37,-831.8 1151.73,-829.58 1142.24,-824.86 1141.37,-831.8"/>
</g>
<!-- pages/dashboard/Top.js -->
<g id="node36" class="node">
<title>pages/dashboard/Top.js</title>
<path fill="none" stroke="#c6c5fe" d="M1325.33,-792C1325.33,-792 1169.67,-792 1169.67,-792 1165.83,-792 1162,-788.17 1162,-784.33 1162,-784.33 1162,-776.67 1162,-776.67 1162,-772.83 1165.83,-769 1169.67,-769 1169.67,-769 1325.33,-769 1325.33,-769 1329.17,-769 1333,-772.83 1333,-776.67 1333,-776.67 1333,-784.33 1333,-784.33 1333,-788.17 1329.17,-792 1325.33,-792"/>
<text text-anchor="middle" x="1247.5" y="-776.8" font-family="Arial" font-size="14.00" fill="#c6c5fe">pages/dashboard/Top.js</text>
</g>
<!-- pages/dashboard/index.js&#45;&gt;pages/dashboard/Top.js -->
<g id="edge52" class="edge">
<title>pages/dashboard/index.js&#45;&gt;pages/dashboard/Top.js</title>
<path fill="none" stroke="#757575" d="M1096.81,-799.96C1114.27,-797.69 1132.67,-795.3 1150.37,-793"/>
<polygon fill="#757575" stroke="#757575" points="1150.61,-796.49 1160.07,-791.73 1149.71,-789.55 1150.61,-796.49"/>
</g>
<!-- data/routesWithoutMainLoader.js -->
<g id="node17" class="node">
<title>data/routesWithoutMainLoader.js</title>
<path fill="none" stroke="#cfffac" d="M2531.33,-303C2531.33,-303 2322.67,-303 2322.67,-303 2318.83,-303 2315,-299.17 2315,-295.33 2315,-295.33 2315,-287.67 2315,-287.67 2315,-283.83 2318.83,-280 2322.67,-280 2322.67,-280 2531.33,-280 2531.33,-280 2535.17,-280 2539,-283.83 2539,-287.67 2539,-287.67 2539,-295.33 2539,-295.33 2539,-299.17 2535.17,-303 2531.33,-303"/>
<text text-anchor="middle" x="2427" y="-287.8" font-family="Arial" font-size="14.00" fill="#cfffac">data/routesWithoutMainLoader.js</text>
</g>
<!-- hooks/useUsernameValidation.js -->
<g id="node19" class="node">
<title>hooks/useUsernameValidation.js</title>
<path fill="none" stroke="#cfffac" d="M1606.33,-418C1606.33,-418 1398.67,-418 1398.67,-418 1394.83,-418 1391,-414.17 1391,-410.33 1391,-410.33 1391,-402.67 1391,-402.67 1391,-398.83 1394.83,-395 1398.67,-395 1398.67,-395 1606.33,-395 1606.33,-395 1610.17,-395 1614,-398.83 1614,-402.67 1614,-402.67 1614,-410.33 1614,-410.33 1614,-414.17 1610.17,-418 1606.33,-418"/>
<text text-anchor="middle" x="1502.5" y="-402.8" font-family="Arial" font-size="14.00" fill="#cfffac">hooks/useUsernameValidation.js</text>
</g>
<!-- index.css -->
<g id="node20" class="node">
<title>index.css</title>
<path fill="none" stroke="#cfffac" d="M198.83,-64C198.83,-64 137.17,-64 137.17,-64 133.33,-64 129.5,-60.17 129.5,-56.33 129.5,-56.33 129.5,-48.67 129.5,-48.67 129.5,-44.83 133.33,-41 137.17,-41 137.17,-41 198.83,-41 198.83,-41 202.67,-41 206.5,-44.83 206.5,-48.67 206.5,-48.67 206.5,-56.33 206.5,-56.33 206.5,-60.17 202.67,-64 198.83,-64"/>
<text text-anchor="middle" x="168" y="-48.8" font-family="Arial" font-size="14.00" fill="#cfffac">index.css</text>
</g>
<!-- index.js -->
<g id="node21" class="node">
<title>index.js</title>
<path fill="none" stroke="#c6c5fe" d="M57.33,-84C57.33,-84 7.67,-84 7.67,-84 3.83,-84 0,-80.17 0,-76.33 0,-76.33 0,-68.67 0,-68.67 0,-64.83 3.83,-61 7.67,-61 7.67,-61 57.33,-61 57.33,-61 61.17,-61 65,-64.83 65,-68.67 65,-68.67 65,-76.33 65,-76.33 65,-80.17 61.17,-84 57.33,-84"/>
<text text-anchor="middle" x="32.5" y="-68.8" font-family="Arial" font-size="14.00" fill="#c6c5fe">index.js</text>
</g>
<!-- index.js&#45;&gt;App.js -->
<g id="edge14" class="edge">
<title>index.js&#45;&gt;App.js</title>
<path fill="none" stroke="#757575" d="M36.48,-84.29C53.47,-151.63 138.28,-487.71 161.25,-578.73"/>
<polygon fill="#757575" stroke="#757575" points="157.81,-579.37 163.65,-588.21 164.59,-577.66 157.81,-579.37"/>
</g>
<!-- index.js&#45;&gt;index.css -->
<g id="edge15" class="edge">
<title>index.js&#45;&gt;index.css</title>
<path fill="none" stroke="#757575" d="M65.48,-67.71C81.17,-65.36 100.42,-62.47 117.92,-59.85"/>
<polygon fill="#757575" stroke="#757575" points="118.25,-63.34 127.62,-58.4 117.21,-56.42 118.25,-63.34"/>
</g>
<!-- reportWebVitals.js -->
<g id="node22" class="node">
<title>reportWebVitals.js</title>
<path fill="none" stroke="#cfffac" d="M227.33,-23C227.33,-23 108.67,-23 108.67,-23 104.83,-23 101,-19.17 101,-15.33 101,-15.33 101,-7.67 101,-7.67 101,-3.83 104.83,0 108.67,0 108.67,0 227.33,0 227.33,0 231.17,0 235,-3.83 235,-7.67 235,-7.67 235,-15.33 235,-15.33 235,-19.17 231.17,-23 227.33,-23"/>
<text text-anchor="middle" x="168" y="-7.8" font-family="Arial" font-size="14.00" fill="#cfffac">reportWebVitals.js</text>
</g>
<!-- index.js&#45;&gt;reportWebVitals.js -->
<g id="edge16" class="edge">
<title>index.js&#45;&gt;reportWebVitals.js</title>
<path fill="none" stroke="#757575" d="M50.33,-60.63C63.6,-51.68 82.85,-39.61 101,-31.5 104.33,-30.01 107.81,-28.59 111.35,-27.25"/>
<polygon fill="#757575" stroke="#757575" points="112.38,-30.6 120.64,-23.96 110.04,-24 112.38,-30.6"/>
</g>
<!-- store/index.js -->
<g id="node23" class="node">
<title>store/index.js</title>
<path fill="none" stroke="#c6c5fe" d="M2469.83,-262C2469.83,-262 2384.17,-262 2384.17,-262 2380.33,-262 2376.5,-258.17 2376.5,-254.33 2376.5,-254.33 2376.5,-246.67 2376.5,-246.67 2376.5,-242.83 2380.33,-239 2384.17,-239 2384.17,-239 2469.83,-239 2469.83,-239 2473.67,-239 2477.5,-242.83 2477.5,-246.67 2477.5,-246.67 2477.5,-254.33 2477.5,-254.33 2477.5,-258.17 2473.67,-262 2469.83,-262"/>
<text text-anchor="middle" x="2427" y="-246.8" font-family="Arial" font-size="14.00" fill="#c6c5fe">store/index.js</text>
</g>
<!-- index.js&#45;&gt;store/index.js -->
<g id="edge17" class="edge">
<title>index.js&#45;&gt;store/index.js</title>
<path fill="none" stroke="#757575" d="M65.43,-75.94C121.39,-81.66 240.83,-92.5 342,-92.5 342,-92.5 342,-92.5 1798,-92.5 2028.58,-92.5 2292.78,-193.91 2388.73,-234.24"/>
<polygon fill="#757575" stroke="#757575" points="2387.1,-237.35 2397.67,-238.03 2389.83,-230.91 2387.1,-237.35"/>
</g>
<!-- store/index.js&#45;&gt;store/ui/uiSlice.js -->
<g id="edge75" class="edge">
<title>store/index.js&#45;&gt;store/ui/uiSlice.js</title>
<path fill="none" stroke="#757575" d="M2477.99,-248.53C2499.08,-250.26 2522.52,-255.89 2539,-270.5 2579.71,-306.59 2552.08,-338.16 2575,-387.5 2591.95,-423.98 2618.52,-462.48 2635.46,-485.49"/>
<polygon fill="#757575" stroke="#757575" points="2632.6,-487.51 2641.39,-493.42 2638.21,-483.32 2632.6,-487.51"/>
</g>
<!-- store/index.js&#45;&gt;store/auth/authSlice.js -->
<g id="edge74" class="edge">
<title>store/index.js&#45;&gt;store/auth/authSlice.js</title>
<path fill="none" stroke="#757575" d="M2477.82,-253.77C2497.59,-256.51 2520.09,-261.48 2539,-270.5 2577.87,-289.03 2613.9,-324.66 2634.26,-347.2"/>
<polygon fill="#757575" stroke="#757575" points="2631.5,-349.37 2640.74,-354.55 2636.75,-344.74 2631.5,-349.37"/>
</g>
<!-- layout/header/PageTitle.js&#45;&gt;assets/icons/index.js -->
<g id="edge18" class="edge">
<title>layout/header/PageTitle.js&#45;&gt;assets/icons/index.js</title>
<path fill="none" stroke="#757575" d="M1592.97,-1196.15C1600.5,-1193.17 1607.65,-1189.36 1614,-1184.5 1676.99,-1136.3 1762.88,-897.91 1788.5,-823.63"/>
<polygon fill="#757575" stroke="#757575" points="1791.66,-825.2 1791.59,-814.61 1785.04,-822.94 1791.66,-825.2"/>
</g>
<!-- layout/header/PageTitle.js&#45;&gt;store/ui/uiSlice.js -->
<g id="edge19" class="edge">
<title>layout/header/PageTitle.js&#45;&gt;store/ui/uiSlice.js</title>
<path fill="none" stroke="#757575" d="M1575.95,-1216.47C1666.16,-1228.07 1823.11,-1237.18 1944,-1185.5 2295.56,-1035.21 2574.79,-626.05 2638.03,-527.88"/>
<polygon fill="#757575" stroke="#757575" points="2640.98,-529.77 2643.41,-519.46 2635.08,-526 2640.98,-529.77"/>
</g>
<!-- utils/removeSlashAndCapitalizeFirstLetter.js -->
<g id="node26" class="node">
<title>utils/removeSlashAndCapitalizeFirstLetter.js</title>
<path fill="none" stroke="#cfffac" d="M1936.33,-1176C1936.33,-1176 1657.67,-1176 1657.67,-1176 1653.83,-1176 1650,-1172.17 1650,-1168.33 1650,-1168.33 1650,-1160.67 1650,-1160.67 1650,-1156.83 1653.83,-1153 1657.67,-1153 1657.67,-1153 1936.33,-1153 1936.33,-1153 1940.17,-1153 1944,-1156.83 1944,-1160.67 1944,-1160.67 1944,-1168.33 1944,-1168.33 1944,-1172.17 1940.17,-1176 1936.33,-1176"/>
<text text-anchor="middle" x="1797" y="-1160.8" font-family="Arial" font-size="14.00" fill="#cfffac">utils/removeSlashAndCapitalizeFirstLetter.js</text>
</g>
<!-- layout/header/PageTitle.js&#45;&gt;utils/removeSlashAndCapitalizeFirstLetter.js -->
<g id="edge20" class="edge">
<title>layout/header/PageTitle.js&#45;&gt;utils/removeSlashAndCapitalizeFirstLetter.js</title>
<path fill="none" stroke="#757575" d="M1590.86,-1192.55C1624.36,-1187.97 1662.8,-1182.72 1697.28,-1178"/>
<polygon fill="#757575" stroke="#757575" points="1697.4,-1181.52 1706.83,-1176.69 1696.45,-1174.58 1697.4,-1181.52"/>
</g>
<!-- layout/header/Profile.js&#45;&gt;store/auth/authActions.js -->
<g id="edge25" class="edge">
<title>layout/header/Profile.js&#45;&gt;store/auth/authActions.js</title>
<path fill="none" stroke="#757575" d="M1328.1,-1024.83C1419.09,-1015.54 1562.14,-999.18 1614,-983.5 1770.21,-936.27 1828.29,-937.58 1944,-822.5 2050.85,-716.23 2106.07,-535.5 2122.86,-472.2"/>
<polygon fill="#757575" stroke="#757575" points="2126.21,-473.19 2125.33,-462.63 2119.44,-471.44 2126.21,-473.19"/>
</g>
<!-- layout/header/Profile.js&#45;&gt;assets/icons/index.js -->
<g id="edge21" class="edge">
<title>layout/header/Profile.js&#45;&gt;assets/icons/index.js</title>
<path fill="none" stroke="#757575" d="M1276.16,-1044.39C1339.94,-1069.88 1500.57,-1122.82 1614,-1063.5 1713.47,-1011.48 1769.51,-877.62 1788.55,-824.1"/>
<polygon fill="#757575" stroke="#757575" points="1791.79,-825.43 1791.74,-814.84 1785.17,-823.15 1791.79,-825.43"/>
</g>
<!-- layout/header/Profile.js&#45;&gt;assets/images/profile&#45;pic.jpg -->
<g id="edge22" class="edge">
<title>layout/header/Profile.js&#45;&gt;assets/images/profile&#45;pic.jpg</title>
<path fill="none" stroke="#757575" d="M1328.2,-1035.65C1348.22,-1036.44 1370.05,-1037.3 1391.26,-1038.14"/>
<polygon fill="#757575" stroke="#757575" points="1390.98,-1041.63 1401.11,-1038.53 1391.26,-1034.64 1390.98,-1041.63"/>
</g>
<!-- layout/header/Profile.js&#45;&gt;components/search/index.js -->
<g id="edge23" class="edge">
<title>layout/header/Profile.js&#45;&gt;components/search/index.js</title>
<path fill="none" stroke="#757575" d="M1284.91,-1020.5C1313.58,-1011.24 1354.64,-998.38 1391,-988.5 1405.55,-984.55 1421.27,-980.63 1436.16,-977.09"/>
<polygon fill="#757575" stroke="#757575" points="1436.95,-980.5 1445.89,-974.81 1435.35,-973.69 1436.95,-980.5"/>
</g>
<!-- layout/header/Profile.js&#45;&gt;hooks/useOutsideAlerter.js -->
<g id="edge24" class="edge">
<title>layout/header/Profile.js&#45;&gt;hooks/useOutsideAlerter.js</title>
<path fill="none" stroke="#757575" d="M1271.16,-1044.31C1298.82,-1058.34 1347.33,-1081.71 1391,-1096.5 1403.54,-1100.75 1417.11,-1104.56 1430.31,-1107.87"/>
<polygon fill="#757575" stroke="#757575" points="1429.26,-1111.21 1439.8,-1110.17 1430.91,-1104.41 1429.26,-1111.21"/>
</g>
<!-- layout/menu/Logo.js&#45;&gt;assets/icons/index.js -->
<g id="edge29" class="edge">
<title>layout/menu/Logo.js&#45;&gt;assets/icons/index.js</title>
<path fill="none" stroke="#757575" d="M1539.35,-1272.54C1563.18,-1263.02 1593.7,-1247.6 1614,-1225.5 1617.73,-1221.44 1749.9,-910.18 1786.62,-823.62"/>
<polygon fill="#757575" stroke="#757575" points="1789.79,-825.12 1790.47,-814.55 1783.34,-822.39 1789.79,-825.12"/>
</g>
<!-- layout/menu/Logo.js&#45;&gt;store/ui/uiSlice.js -->
<g id="edge30" class="edge">
<title>layout/menu/Logo.js&#45;&gt;store/ui/uiSlice.js</title>
<path fill="none" stroke="#757575" d="M1574.47,-1287.88C1796.47,-1297.74 2467.16,-1321.98 2539,-1258.5 2651.15,-1159.4 2652.89,-645.88 2651.82,-529.83"/>
<polygon fill="#757575" stroke="#757575" points="2655.32,-529.97 2651.71,-520.01 2648.32,-530.05 2655.32,-529.97"/>
</g>
<!-- layout/menu/Logout.js&#45;&gt;store/auth/authActions.js -->
<g id="edge32" class="edge">
<title>layout/menu/Logout.js&#45;&gt;store/auth/authActions.js</title>
<path fill="none" stroke="#757575" d="M1580.31,-1151.53C1591.69,-1149.2 1603.21,-1146.52 1614,-1143.5 1765.32,-1101.1 1835.85,-1130.52 1944,-1016.5 2099.18,-852.91 2123.86,-557.22 2127.77,-472.66"/>
<polygon fill="#757575" stroke="#757575" points="2131.26,-473 2128.16,-462.86 2124.26,-472.72 2131.26,-473"/>
</g>
<!-- layout/menu/Logout.js&#45;&gt;assets/icons/index.js -->
<g id="edge31" class="edge">
<title>layout/menu/Logout.js&#45;&gt;assets/icons/index.js</title>
<path fill="none" stroke="#757575" d="M1580.27,-1159.31C1592.39,-1156.02 1604.15,-1151 1614,-1143.5 1643.41,-1121.09 1633.12,-1101.4 1650,-1068.5 1697.34,-976.22 1757.93,-868.46 1783.61,-823.22"/>
<polygon fill="#757575" stroke="#757575" points="1786.57,-825.09 1788.48,-814.67 1780.49,-821.63 1786.57,-825.09"/>
</g>
<!-- layout/menu/MenuContainer.js&#45;&gt;data/menuItems.js -->
<g id="edge33" class="edge">
<title>layout/menu/MenuContainer.js&#45;&gt;data/menuItems.js</title>
<path fill="none" stroke="#757575" d="M564.78,-1076.6C600,-1033.71 720.69,-886.76 765.54,-832.15"/>
<polygon fill="#757575" stroke="#757575" points="768.16,-834.48 771.8,-824.53 762.75,-830.03 768.16,-834.48"/>
</g>
<!-- layout/menu/MenuItems.js -->
<g id="node31" class="node">
<title>layout/menu/MenuItems.js</title>
<path fill="none" stroke="#c6c5fe" d="M866.33,-1256C866.33,-1256 700.67,-1256 700.67,-1256 696.83,-1256 693,-1252.17 693,-1248.33 693,-1248.33 693,-1240.67 693,-1240.67 693,-1236.83 696.83,-1233 700.67,-1233 700.67,-1233 866.33,-1233 866.33,-1233 870.17,-1233 874,-1236.83 874,-1240.67 874,-1240.67 874,-1248.33 874,-1248.33 874,-1252.17 870.17,-1256 866.33,-1256"/>
<text text-anchor="middle" x="783.5" y="-1240.8" font-family="Arial" font-size="14.00" fill="#c6c5fe">layout/menu/MenuItems.js</text>
</g>
<!-- layout/menu/MenuContainer.js&#45;&gt;layout/menu/MenuItems.js -->
<g id="edge34" class="edge">
<title>layout/menu/MenuContainer.js&#45;&gt;layout/menu/MenuItems.js</title>
<path fill="none" stroke="#757575" d="M572.47,-1100.48C612.11,-1127.66 709.01,-1194.11 756.04,-1226.36"/>
<polygon fill="#757575" stroke="#757575" points="753.8,-1229.07 764.03,-1231.83 757.76,-1223.29 753.8,-1229.07"/>
</g>
<!-- layout/menu/MenuItems.js&#45;&gt;store/ui/uiSlice.js -->
<g id="edge35" class="edge">
<title>layout/menu/MenuItems.js&#45;&gt;store/ui/uiSlice.js</title>
<path fill="none" stroke="#757575" d="M874.36,-1244.5C967.46,-1244.5 1117.16,-1244.5 1246.5,-1244.5 1246.5,-1244.5 1246.5,-1244.5 2130.5,-1244.5 2489.48,-1244.5 2623.03,-654.53 2647.29,-529.58"/>
<polygon fill="#757575" stroke="#757575" points="2650.7,-530.35 2649.12,-519.88 2643.82,-529.05 2650.7,-530.35"/>
</g>
<!-- pages/dashboard/Recent.js&#45;&gt;assets/icons/index.js -->
<g id="edge41" class="edge">
<title>pages/dashboard/Recent.js&#45;&gt;assets/icons/index.js</title>
<path fill="none" stroke="#757575" d="M1278.36,-687.6C1341.99,-664.06 1494.82,-617.28 1614,-658.5 1684.81,-682.99 1749.03,-747.67 1778.69,-781"/>
<polygon fill="#757575" stroke="#757575" points="1775.91,-783.14 1785.12,-788.37 1781.18,-778.54 1775.91,-783.14"/>
</g>
<!-- pages/dashboard/RecentItem.js -->
<g id="node33" class="node">
<title>pages/dashboard/RecentItem.js</title>
<path fill="none" stroke="#cfffac" d="M1604.83,-691C1604.83,-691 1400.17,-691 1400.17,-691 1396.33,-691 1392.5,-687.17 1392.5,-683.33 1392.5,-683.33 1392.5,-675.67 1392.5,-675.67 1392.5,-671.83 1396.33,-668 1400.17,-668 1400.17,-668 1604.83,-668 1604.83,-668 1608.67,-668 1612.5,-671.83 1612.5,-675.67 1612.5,-675.67 1612.5,-683.33 1612.5,-683.33 1612.5,-687.17 1608.67,-691 1604.83,-691"/>
<text text-anchor="middle" x="1502.5" y="-675.8" font-family="Arial" font-size="14.00" fill="#cfffac">pages/dashboard/RecentItem.js</text>
</g>
<!-- pages/dashboard/Recent.js&#45;&gt;pages/dashboard/RecentItem.js -->
<g id="edge42" class="edge">
<title>pages/dashboard/Recent.js&#45;&gt;pages/dashboard/RecentItem.js</title>
<path fill="none" stroke="#757575" d="M1343.43,-692C1355.79,-691.02 1368.58,-690.01 1381.29,-689"/>
<polygon fill="#757575" stroke="#757575" points="1381.22,-692.52 1390.92,-688.24 1380.67,-685.54 1381.22,-692.52"/>
</g>
<!-- pages/dashboard/_srv.js -->
<g id="node34" class="node">
<title>pages/dashboard/_srv.js</title>
<path fill="none" stroke="#c6c5fe" d="M1581.33,-732C1581.33,-732 1423.67,-732 1423.67,-732 1419.83,-732 1416,-728.17 1416,-724.33 1416,-724.33 1416,-716.67 1416,-716.67 1416,-712.83 1419.83,-709 1423.67,-709 1423.67,-709 1581.33,-709 1581.33,-709 1585.17,-709 1589,-712.83 1589,-716.67 1589,-716.67 1589,-724.33 1589,-724.33 1589,-728.17 1585.17,-732 1581.33,-732"/>
<text text-anchor="middle" x="1502.5" y="-716.8" font-family="Arial" font-size="14.00" fill="#c6c5fe">pages/dashboard/_srv.js</text>
</g>
<!-- pages/dashboard/Recent.js&#45;&gt;pages/dashboard/_srv.js -->
<g id="edge43" class="edge">
<title>pages/dashboard/Recent.js&#45;&gt;pages/dashboard/_srv.js</title>
<path fill="none" stroke="#757575" d="M1343.43,-707.38C1363.33,-709.03 1384.34,-710.78 1404.33,-712.43"/>
<polygon fill="#757575" stroke="#757575" points="1403.87,-715.91 1414.12,-713.25 1404.44,-708.93 1403.87,-715.91"/>
</g>
<!-- utils/ajax/index.js -->
<g id="node38" class="node">
<title>utils/ajax/index.js</title>
<path fill="none" stroke="#ff6c60" d="M1850.33,-262C1850.33,-262 1743.67,-262 1743.67,-262 1739.83,-262 1736,-258.17 1736,-254.33 1736,-254.33 1736,-246.67 1736,-246.67 1736,-242.83 1739.83,-239 1743.67,-239 1743.67,-239 1850.33,-239 1850.33,-239 1854.17,-239 1858,-242.83 1858,-246.67 1858,-246.67 1858,-254.33 1858,-254.33 1858,-258.17 1854.17,-262 1850.33,-262"/>
<text text-anchor="middle" x="1797" y="-246.8" font-family="Arial" font-size="14.00" fill="#ff6c60">utils/ajax/index.js</text>
</g>
<!-- pages/dashboard/_srv.js&#45;&gt;utils/ajax/index.js -->
<g id="edge49" class="edge">
<title>pages/dashboard/_srv.js&#45;&gt;utils/ajax/index.js</title>
<path fill="none" stroke="#757575" d="M1589.45,-713.21C1598.34,-709.9 1606.75,-705.44 1614,-699.5 1753.27,-585.32 1786.89,-348.04 1794.16,-273.46"/>
<polygon fill="#757575" stroke="#757575" points="1797.63,-273.98 1795.04,-263.71 1790.66,-273.35 1797.63,-273.98"/>
</g>
<!-- pages/dashboard/Survay.js&#45;&gt;components/survayCard/index.js -->
<g id="edge44" class="edge">
<title>pages/dashboard/Survay.js&#45;&gt;components/survayCard/index.js</title>
<path fill="none" stroke="#757575" d="M1341.99,-841.5C1354.4,-841.5 1367.27,-841.5 1380.07,-841.5"/>
<polygon fill="#757575" stroke="#757575" points="1379.77,-845 1389.77,-841.5 1379.77,-838 1379.77,-845"/>
</g>
<!-- pages/dashboard/Survay.js&#45;&gt;data/cardsInfo.js -->
<g id="edge45" class="edge">
<title>pages/dashboard/Survay.js&#45;&gt;data/cardsInfo.js</title>
<path fill="none" stroke="#757575" d="M1322.36,-853.47C1356.3,-858.97 1396.39,-865.47 1430.03,-870.92"/>
<polygon fill="#757575" stroke="#757575" points="1429.25,-874.34 1439.68,-872.48 1430.37,-867.43 1429.25,-874.34"/>
</g>
<!-- pages/dashboard/Top.js&#45;&gt;assets/icons/index.js -->
<g id="edge46" class="edge">
<title>pages/dashboard/Top.js&#45;&gt;assets/icons/index.js</title>
<path fill="none" stroke="#757575" d="M1333.14,-777.75C1407.27,-776 1517.87,-774.97 1614,-780.5 1645.96,-782.34 1680.92,-785.98 1711.58,-789.72"/>
<polygon fill="#757575" stroke="#757575" points="1710.81,-793.15 1721.16,-790.91 1711.67,-786.2 1710.81,-793.15"/>
</g>
<!-- pages/dashboard/Top.js&#45;&gt;pages/dashboard/_srv.js -->
<g id="edge48" class="edge">
<title>pages/dashboard/Top.js&#45;&gt;pages/dashboard/_srv.js</title>
<path fill="none" stroke="#757575" d="M1298.61,-768.5C1325.92,-761.98 1360.31,-753.77 1391,-746.5 1406.81,-742.75 1423.91,-738.72 1439.81,-734.98"/>
<polygon fill="#757575" stroke="#757575" points="1440.2,-738.48 1449.13,-732.79 1438.6,-731.67 1440.2,-738.48"/>
</g>
<!-- pages/dashboard/TopItem.js -->
<g id="node37" class="node">
<title>pages/dashboard/TopItem.js</title>
<path fill="none" stroke="#cfffac" d="M1594.83,-812C1594.83,-812 1410.17,-812 1410.17,-812 1406.33,-812 1402.5,-808.17 1402.5,-804.33 1402.5,-804.33 1402.5,-796.67 1402.5,-796.67 1402.5,-792.83 1406.33,-789 1410.17,-789 1410.17,-789 1594.83,-789 1594.83,-789 1598.67,-789 1602.5,-792.83 1602.5,-796.67 1602.5,-796.67 1602.5,-804.33 1602.5,-804.33 1602.5,-808.17 1598.67,-812 1594.83,-812"/>
<text text-anchor="middle" x="1502.5" y="-796.8" font-family="Arial" font-size="14.00" fill="#cfffac">pages/dashboard/TopItem.js</text>
</g>
<!-- pages/dashboard/Top.js&#45;&gt;pages/dashboard/TopItem.js -->
<g id="edge47" class="edge">
<title>pages/dashboard/Top.js&#45;&gt;pages/dashboard/TopItem.js</title>
<path fill="none" stroke="#757575" d="M1333.45,-787.22C1351.93,-788.68 1371.74,-790.24 1391.04,-791.77"/>
<polygon fill="#757575" stroke="#757575" points="1390.59,-795.24 1400.83,-792.54 1391.14,-788.26 1390.59,-795.24"/>
</g>
<!-- utils/ajax/index.js&#45;&gt;store/auth/authActions.js -->
<g id="edge76" class="edge">
<title>utils/ajax/index.js&#45;&gt;store/auth/authActions.js</title>
<path fill="none" stroke="#757575" d="M1858.38,-246.82C1887.68,-248.29 1921.36,-255.29 1944,-276.5 1992.78,-322.18 1931.3,-376.73 1980,-422.5 1994.51,-436.14 2013.5,-444.06 2033.02,-448.46"/>
<polygon fill="#757575" stroke="#757575" points="2032.25,-451.87 2042.73,-450.32 2033.57,-445 2032.25,-451.87"/>
</g>
<!-- utils/ajax/index.js&#45;&gt;store/index.js -->
<g id="edge77" class="edge">
<title>utils/ajax/index.js&#45;&gt;store/index.js</title>
<path fill="none" stroke="#757575" d="M1858.22,-250.5C1977.92,-250.5 2244.6,-250.5 2364.97,-250.5"/>
<polygon fill="#757575" stroke="#757575" points="2364.64,-254 2374.64,-250.5 2364.64,-247 2364.64,-254"/>
</g>
<!-- utils/ajax/index.js&#45;&gt;store/ui/uiSlice.js -->
<g id="edge78" class="edge">
<title>utils/ajax/index.js&#45;&gt;store/ui/uiSlice.js</title>
<path fill="none" stroke="#757575" d="M1858.37,-253.4C1885.69,-256.64 1917.67,-263.24 1944,-276.5 1963.66,-286.4 1960.16,-300.97 1980,-310.5 2093.06,-364.8 2427.4,-331.26 2539,-388.5 2582.99,-411.07 2619.33,-457.78 2637.97,-485.18"/>
<polygon fill="#757575" stroke="#757575" points="2634.96,-486.97 2643.4,-493.38 2640.8,-483.11 2634.96,-486.97"/>
</g>
<!-- utils/ajax/routesWithoutMainLoaderHandler.js -->
<g id="node45" class="node">
<title>utils/ajax/routesWithoutMainLoaderHandler.js</title>
<path fill="none" stroke="#c6c5fe" d="M2271.33,-302C2271.33,-302 1987.67,-302 1987.67,-302 1983.83,-302 1980,-298.17 1980,-294.33 1980,-294.33 1980,-286.67 1980,-286.67 1980,-282.83 1983.83,-279 1987.67,-279 1987.67,-279 2271.33,-279 2271.33,-279 2275.17,-279 2279,-282.83 2279,-286.67 2279,-286.67 2279,-294.33 2279,-294.33 2279,-298.17 2275.17,-302 2271.33,-302"/>
<text text-anchor="middle" x="2129.5" y="-286.8" font-family="Arial" font-size="14.00" fill="#c6c5fe">utils/ajax/routesWithoutMainLoaderHandler.js</text>
</g>
<!-- utils/ajax/index.js&#45;&gt;utils/ajax/routesWithoutMainLoaderHandler.js -->
<g id="edge79" class="edge">
<title>utils/ajax/index.js&#45;&gt;utils/ajax/routesWithoutMainLoaderHandler.js</title>
<path fill="none" stroke="#757575" d="M1858.23,-257.79C1902.82,-263.19 1964.82,-270.69 2018.19,-277.15"/>
<polygon fill="#757575" stroke="#757575" points="2017.59,-280.6 2027.94,-278.33 2018.43,-273.65 2017.59,-280.6"/>
</g>
<!-- pages/login&#45;register/Hero.js&#45;&gt;assets/icons/index.js -->
<g id="edge53" class="edge">
<title>pages/login&#45;register/Hero.js&#45;&gt;assets/icons/index.js</title>
<path fill="none" stroke="#757575" d="M1301.86,-315.54C1378.74,-301.55 1521.56,-288.11 1614,-355.5 1758.7,-460.98 1788.67,-702.01 1794.6,-778.06"/>
<polygon fill="#757575" stroke="#757575" points="1791.11,-778.3 1795.3,-788.03 1798.09,-777.81 1791.11,-778.3"/>
</g>
<!-- pages/login&#45;register/Hero.js&#45;&gt;assets/images/hero&#45;pattern.png -->
<g id="edge54" class="edge">
<title>pages/login&#45;register/Hero.js&#45;&gt;assets/images/hero&#45;pattern.png</title>
<path fill="none" stroke="#757575" d="M1257.76,-315.57C1278.58,-289.6 1331.91,-227.81 1391,-196.5 1398.92,-192.3 1407.52,-188.77 1416.3,-185.81"/>
<polygon fill="#757575" stroke="#757575" points="1417.11,-189.23 1425.63,-182.92 1415.04,-182.54 1417.11,-189.23"/>
</g>
<!-- pages/login&#45;register/Login.js&#45;&gt;store/auth/authActions.js -->
<g id="edge58" class="edge">
<title>pages/login&#45;register/Login.js&#45;&gt;store/auth/authActions.js</title>
<path fill="none" stroke="#757575" d="M1345.86,-468.42C1419.5,-468.9 1523.11,-469.09 1614,-467.5 1760.21,-464.94 1929.69,-458.3 2032.97,-453.84"/>
<polygon fill="#757575" stroke="#757575" points="2032.95,-457.35 2042.79,-453.42 2032.65,-450.35 2032.95,-457.35"/>
</g>
<!-- pages/login&#45;register/Login.js&#45;&gt;assets/icons/index.js -->
<g id="edge55" class="edge">
<title>pages/login&#45;register/Login.js&#45;&gt;assets/icons/index.js</title>
<path fill="none" stroke="#757575" d="M1268.08,-479.43C1294.9,-495.3 1345.01,-523.23 1391,-539.5 1486.58,-573.3 1526.99,-535.46 1614,-587.5 1696,-636.54 1759.08,-735.84 1784.17,-779.76"/>
<polygon fill="#757575" stroke="#757575" points="1781.04,-781.34 1788.99,-788.35 1787.15,-777.92 1781.04,-781.34"/>
</g>
<!-- pages/login&#45;register/Login.js&#45;&gt;components/formInput/index.js -->
<g id="edge56" class="edge">
<title>pages/login&#45;register/Login.js&#45;&gt;components/formInput/index.js</title>
<path fill="none" stroke="#757575" d="M1345.95,-459.8C1358.66,-458.79 1371.78,-457.75 1384.76,-456.73"/>
<polygon fill="#757575" stroke="#757575" points="1384.91,-460.23 1394.6,-455.95 1384.36,-453.25 1384.91,-460.23"/>
</g>
<!-- pages/login&#45;register/Login.js&#45;&gt;hooks/useUsernameValidation.js -->
<g id="edge57" class="edge">
<title>pages/login&#45;register/Login.js&#45;&gt;hooks/useUsernameValidation.js</title>
<path fill="none" stroke="#757575" d="M1286.03,-455.58C1314.61,-446.77 1355.03,-434.91 1391,-426.5 1399.77,-424.45 1408.98,-422.49 1418.18,-420.65"/>
<polygon fill="#757575" stroke="#757575" points="1418.73,-424.11 1427.87,-418.76 1417.39,-417.24 1418.73,-424.11"/>
</g>
<!-- pages/login&#45;register/Login.js&#45;&gt;store/ui/uiSlice.js -->
<g id="edge59" class="edge">
<title>pages/login&#45;register/Login.js&#45;&gt;store/ui/uiSlice.js</title>
<path fill="none" stroke="#757575" d="M1316.97,-479.45C1420.38,-496.43 1622.75,-525.5 1796,-525.5 1796,-525.5 1796,-525.5 2130.5,-525.5 2290.86,-525.5 2478.8,-516.4 2579.34,-510.8"/>
<polygon fill="#757575" stroke="#757575" points="2579.27,-514.3 2589.06,-510.25 2578.87,-507.32 2579.27,-514.3"/>
</g>
<!-- pages/login&#45;register/Register.js&#45;&gt;store/auth/authActions.js -->
<g id="edge64" class="edge">
<title>pages/login&#45;register/Register.js&#45;&gt;store/auth/authActions.js</title>
<path fill="none" stroke="#757575" d="M1355.42,-357.69C1367.41,-356.79 1379.46,-356.03 1391,-355.5 1490.01,-350.99 1515.29,-346.56 1614,-355.5 1699.63,-363.26 1940.16,-410.98 2059.52,-435.3"/>
<polygon fill="#757575" stroke="#757575" points="2058.71,-438.7 2069.2,-437.27 2060.11,-431.84 2058.71,-438.7"/>
</g>
<!-- pages/login&#45;register/Register.js&#45;&gt;assets/icons/index.js -->
<g id="edge60" class="edge">
<title>pages/login&#45;register/Register.js&#45;&gt;assets/icons/index.js</title>
<path fill="none" stroke="#757575" d="M1355.34,-361.32C1448,-357.26 1573.44,-357.6 1614,-385.5 1752.48,-480.74 1786.54,-705.87 1794.05,-778.49"/>
<polygon fill="#757575" stroke="#757575" points="1790.56,-778.73 1794.99,-788.35 1797.53,-778.07 1790.56,-778.73"/>
</g>
<!-- pages/login&#45;register/Register.js&#45;&gt;components/formInput/index.js -->
<g id="edge61" class="edge">
<title>pages/login&#45;register/Register.js&#45;&gt;components/formInput/index.js</title>
<path fill="none" stroke="#757575" d="M1273.44,-380.43C1301.47,-393.41 1348.6,-413.98 1391,-426.5 1399.07,-428.88 1407.56,-431.06 1416.09,-433.03"/>
<polygon fill="#757575" stroke="#757575" points="1415.31,-436.44 1425.83,-435.18 1416.82,-429.61 1415.31,-436.44"/>
</g>
<!-- pages/login&#45;register/Register.js&#45;&gt;hooks/useUsernameValidation.js -->
<g id="edge62" class="edge">
<title>pages/login&#45;register/Register.js&#45;&gt;hooks/useUsernameValidation.js</title>
<path fill="none" stroke="#757575" d="M1328.2,-380.47C1354.31,-384.39 1383.51,-388.78 1410.4,-392.82"/>
<polygon fill="#757575" stroke="#757575" points="1409.86,-396.27 1420.27,-394.3 1410.9,-389.35 1409.86,-396.27"/>
</g>
<!-- pages/login&#45;register/Register.js&#45;&gt;store/ui/uiSlice.js -->
<g id="edge65" class="edge">
<title>pages/login&#45;register/Register.js&#45;&gt;store/ui/uiSlice.js</title>
<path fill="none" stroke="#757575" d="M1342.14,-356.62C1346.75,-354.05 1351.08,-351.04 1355,-347.5 1395.69,-310.74 1347.71,-263.15 1391,-229.5 1462.13,-174.2 1705.9,-210.5 1796,-210.5 1796,-210.5 1796,-210.5 2130.5,-210.5 2312.25,-210.5 2399.59,-112.88 2539,-229.5 2594.24,-275.71 2547.11,-321.1 2575,-387.5 2590.58,-424.58 2617.53,-462.92 2634.93,-485.73"/>
<polygon fill="#757575" stroke="#757575" points="2632.13,-487.84 2641.03,-493.59 2637.66,-483.54 2632.13,-487.84"/>
</g>
<!-- pages/login&#45;register/_srv.js -->
<g id="node42" class="node">
<title>pages/login&#45;register/_srv.js</title>
<path fill="none" stroke="#c6c5fe" d="M1588.83,-262C1588.83,-262 1416.17,-262 1416.17,-262 1412.33,-262 1408.5,-258.17 1408.5,-254.33 1408.5,-254.33 1408.5,-246.67 1408.5,-246.67 1408.5,-242.83 1412.33,-239 1416.17,-239 1416.17,-239 1588.83,-239 1588.83,-239 1592.67,-239 1596.5,-242.83 1596.5,-246.67 1596.5,-246.67 1596.5,-254.33 1596.5,-254.33 1596.5,-258.17 1592.67,-262 1588.83,-262"/>
<text text-anchor="middle" x="1502.5" y="-246.8" font-family="Arial" font-size="14.00" fill="#c6c5fe">pages/login&#45;register/_srv.js</text>
</g>
<!-- pages/login&#45;register/Register.js&#45;&gt;pages/login&#45;register/_srv.js -->
<g id="edge63" class="edge">
<title>pages/login&#45;register/Register.js&#45;&gt;pages/login&#45;register/_srv.js</title>
<path fill="none" stroke="#757575" d="M1339.9,-356.52C1345.25,-354.01 1350.34,-351.03 1355,-347.5 1383.21,-326.14 1363.19,-298.37 1391,-276.5 1395.58,-272.9 1400.57,-269.78 1405.83,-267.09"/>
<polygon fill="#757575" stroke="#757575" points="1407.15,-270.33 1414.83,-263.03 1404.27,-263.95 1407.15,-270.33"/>
</g>
<!-- pages/login&#45;register/_srv.js&#45;&gt;utils/ajax/index.js -->
<g id="edge66" class="edge">
<title>pages/login&#45;register/_srv.js&#45;&gt;utils/ajax/index.js</title>
<path fill="none" stroke="#757575" d="M1596.85,-250.5C1638.24,-250.5 1686.17,-250.5 1724.63,-250.5"/>
<polygon fill="#757575" stroke="#757575" points="1724.21,-254 1734.21,-250.5 1724.21,-247 1724.21,-254"/>
</g>
<!-- store/auth/_srv.js&#45;&gt;utils/ajax/index.js -->
<g id="edge70" class="edge">
<title>store/auth/_srv.js&#45;&gt;utils/ajax/index.js</title>
<path fill="none" stroke="#757575" d="M2364.88,-414.07C2257.01,-420.84 2038.71,-428.34 1980,-383.5 1940.12,-353.05 1982.01,-309.25 1944,-276.5 1923.7,-259.01 1895.77,-251.44 1869.77,-248.62"/>
<polygon fill="#757575" stroke="#757575" points="1870.15,-245.14 1859.89,-247.79 1869.56,-252.12 1870.15,-245.14"/>
</g>
<!-- utils/ajax/routesWithoutMainLoaderHandler.js&#45;&gt;data/routesWithoutMainLoader.js -->
<g id="edge80" class="edge">
<title>utils/ajax/routesWithoutMainLoaderHandler.js&#45;&gt;data/routesWithoutMainLoader.js</title>
<path fill="none" stroke="#757575" d="M2279.12,-291C2287.13,-291.03 2295.14,-291.06 2303.06,-291.08"/>
<polygon fill="#757575" stroke="#757575" points="2303.04,-294.58 2313.06,-291.12 2303.07,-287.58 2303.04,-294.58"/>
</g>
<!-- utils/ajax/routesWithoutMainLoaderHandler.js&#45;&gt;store/index.js -->
<g id="edge81" class="edge">
<title>utils/ajax/routesWithoutMainLoaderHandler.js&#45;&gt;store/index.js</title>
<path fill="none" stroke="#757575" d="M2218.76,-278.55C2265.96,-272.16 2322.89,-264.46 2365.13,-258.74"/>
<polygon fill="#757575" stroke="#757575" points="2365.41,-262.23 2374.85,-257.42 2364.48,-255.3 2365.41,-262.23"/>
</g>
<!-- utils/ajax/routesWithoutMainLoaderHandler.js&#45;&gt;store/ui/uiSlice.js -->
<g id="edge82" class="edge">
<title>utils/ajax/routesWithoutMainLoaderHandler.js&#45;&gt;store/ui/uiSlice.js</title>
<path fill="none" stroke="#757575" d="M2230.98,-302.48C2343.33,-316.5 2513.04,-339.79 2539,-355.5 2565.72,-371.67 2615.21,-447.79 2638.61,-485.39"/>
<polygon fill="#757575" stroke="#757575" points="2635.44,-486.93 2643.68,-493.6 2641.4,-483.25 2635.44,-486.93"/>
</g>
</g>
</svg>
