<?xml version="1.0" encoding="UTF-8" standalone="no"?>
<!DOCTYPE svg PUBLIC "-//W3C//DTD SVG 1.1//EN"
 "http://www.w3.org/Graphics/SVG/1.1/DTD/svg11.dtd">
<!-- Generated by graphviz version 7.1.0 (20230121.1956)
 -->
<!-- Title: dependency&#45;cruiser output Pages: 1 -->
<svg width="863pt" height="1502pt"
 viewBox="0.00 0.00 862.50 1502.38" xmlns="http://www.w3.org/2000/svg" xmlns:xlink="http://www.w3.org/1999/xlink">
<g id="graph0" class="graph" transform="scale(1 1) rotate(0) translate(4 1498.38)">
<title>dependency&#45;cruiser output</title>
<polygon fill="white" stroke="none" points="-4,4 -4,-1498.38 858.5,-1498.38 858.5,4 -4,4"/>
<g id="clust1" class="cluster">
<title>cluster_src</title>
<path fill="#ffffff" stroke="black" stroke-width="2" d="M20,-57.63C20,-57.63 834.5,-57.63 834.5,-57.63 840.5,-57.63 846.5,-63.63 846.5,-69.63 846.5,-69.63 846.5,-1453.63 846.5,-1453.63 846.5,-1459.63 840.5,-1465.63 834.5,-1465.63 834.5,-1465.63 20,-1465.63 20,-1465.63 14,-1465.63 8,-1459.63 8,-1453.63 8,-1453.63 8,-69.63 8,-69.63 8,-63.63 14,-57.63 20,-57.63"/>
<text text-anchor="middle" x="427.25" y="-1454.43" font-family="Helvetica,sans-Serif" font-weight="bold" font-size="9.00">src</text>
</g>
<g id="clust10" class="cluster">
<title>cluster_src/data</title>
<path fill="#ffffff" stroke="black" stroke-width="2" d="M401.5,-821.63C401.5,-821.63 525.5,-821.63 525.5,-821.63 531.5,-821.63 537.5,-827.63 537.5,-833.63 537.5,-833.63 537.5,-921.63 537.5,-921.63 537.5,-927.63 531.5,-933.63 525.5,-933.63 525.5,-933.63 401.5,-933.63 401.5,-933.63 395.5,-933.63 389.5,-927.63 389.5,-921.63 389.5,-921.63 389.5,-833.63 389.5,-833.63 389.5,-827.63 395.5,-821.63 401.5,-821.63"/>
<text text-anchor="middle" x="463.5" y="-922.43" font-family="Helvetica,sans-Serif" font-weight="bold" font-size="9.00">data</text>
</g>
<g id="clust5" class="cluster">
<title>cluster_src/components</title>
<path fill="#ffffff" stroke="black" stroke-width="2" d="M432.5,-457.63C432.5,-457.63 494.5,-457.63 494.5,-457.63 500.5,-457.63 506.5,-463.63 506.5,-469.63 506.5,-469.63 506.5,-711.63 506.5,-711.63 506.5,-717.63 500.5,-723.63 494.5,-723.63 494.5,-723.63 432.5,-723.63 432.5,-723.63 426.5,-723.63 420.5,-717.63 420.5,-711.63 420.5,-711.63 420.5,-469.63 420.5,-469.63 420.5,-463.63 426.5,-457.63 432.5,-457.63"/>
<text text-anchor="middle" x="463.5" y="-712.43" font-family="Helvetica,sans-Serif" font-weight="bold" font-size="9.00">components</text>
</g>
<g id="clust9" class="cluster">
<title>cluster_src/components/survayCard</title>
<path fill="#ffffff" stroke="black" stroke-width="2" d="M440.5,-525.63C440.5,-525.63 486.5,-525.63 486.5,-525.63 492.5,-525.63 498.5,-531.63 498.5,-537.63 498.5,-537.63 498.5,-565.63 498.5,-565.63 498.5,-571.63 492.5,-577.63 486.5,-577.63 486.5,-577.63 440.5,-577.63 440.5,-577.63 434.5,-577.63 428.5,-571.63 428.5,-565.63 428.5,-565.63 428.5,-537.63 428.5,-537.63 428.5,-531.63 434.5,-525.63 440.5,-525.63"/>
<text text-anchor="middle" x="463.5" y="-566.43" font-family="Helvetica,sans-Serif" font-weight="bold" font-size="9.00">survayCard</text>
</g>
<g id="clust6" class="cluster">
<title>cluster_src/components/formInput</title>
<path fill="#ffffff" stroke="black" stroke-width="2" d="M440.5,-465.63C440.5,-465.63 486.5,-465.63 486.5,-465.63 492.5,-465.63 498.5,-471.63 498.5,-477.63 498.5,-477.63 498.5,-505.63 498.5,-505.63 498.5,-511.63 492.5,-517.63 486.5,-517.63 486.5,-517.63 440.5,-517.63 440.5,-517.63 434.5,-517.63 428.5,-511.63 428.5,-505.63 428.5,-505.63 428.5,-477.63 428.5,-477.63 428.5,-471.63 434.5,-465.63 440.5,-465.63"/>
<text text-anchor="middle" x="463.5" y="-506.43" font-family="Helvetica,sans-Serif" font-weight="bold" font-size="9.00">formInput</text>
</g>
<g id="clust8" class="cluster">
<title>cluster_src/components/search</title>
<path fill="#ffffff" stroke="black" stroke-width="2" d="M440.5,-645.63C440.5,-645.63 486.5,-645.63 486.5,-645.63 492.5,-645.63 498.5,-651.63 498.5,-657.63 498.5,-657.63 498.5,-685.63 498.5,-685.63 498.5,-691.63 492.5,-697.63 486.5,-697.63 486.5,-697.63 440.5,-697.63 440.5,-697.63 434.5,-697.63 428.5,-691.63 428.5,-685.63 428.5,-685.63 428.5,-657.63 428.5,-657.63 428.5,-651.63 434.5,-645.63 440.5,-645.63"/>
<text text-anchor="middle" x="463.5" y="-686.43" font-family="Helvetica,sans-Serif" font-weight="bold" font-size="9.00">search</text>
</g>
<g id="clust7" class="cluster">
<title>cluster_src/components/loader</title>
<path fill="#ffffff" stroke="black" stroke-width="2" d="M440.5,-585.63C440.5,-585.63 486.5,-585.63 486.5,-585.63 492.5,-585.63 498.5,-591.63 498.5,-597.63 498.5,-597.63 498.5,-625.63 498.5,-625.63 498.5,-631.63 492.5,-637.63 486.5,-637.63 486.5,-637.63 440.5,-637.63 440.5,-637.63 434.5,-637.63 428.5,-631.63 428.5,-625.63 428.5,-625.63 428.5,-597.63 428.5,-597.63 428.5,-591.63 434.5,-585.63 440.5,-585.63"/>
<text text-anchor="middle" x="463.5" y="-626.43" font-family="Helvetica,sans-Serif" font-weight="bold" font-size="9.00">loader</text>
</g>
<g id="clust2" class="cluster">
<title>cluster_src/assets</title>
<path fill="#ffffff" stroke="black" stroke-width="2" d="M602,-547.63C602,-547.63 695,-547.63 695,-547.63 701,-547.63 707,-553.63 707,-559.63 707,-559.63 707,-711.63 707,-711.63 707,-717.63 701,-723.63 695,-723.63 695,-723.63 602,-723.63 602,-723.63 596,-723.63 590,-717.63 590,-711.63 590,-711.63 590,-559.63 590,-559.63 590,-553.63 596,-547.63 602,-547.63"/>
<text text-anchor="middle" x="648.5" y="-712.43" font-family="Helvetica,sans-Serif" font-weight="bold" font-size="9.00">assets</text>
</g>
<g id="clust4" class="cluster">
<title>cluster_src/assets/images</title>
<path fill="#ffffff" stroke="black" stroke-width="2" d="M610,-615.63C610,-615.63 687,-615.63 687,-615.63 693,-615.63 699,-621.63 699,-627.63 699,-627.63 699,-685.63 699,-685.63 699,-691.63 693,-697.63 687,-697.63 687,-697.63 610,-697.63 610,-697.63 604,-697.63 598,-691.63 598,-685.63 598,-685.63 598,-627.63 598,-627.63 598,-621.63 604,-615.63 610,-615.63"/>
<text text-anchor="middle" x="648.5" y="-686.43" font-family="Helvetica,sans-Serif" font-weight="bold" font-size="9.00">images</text>
</g>
<g id="clust3" class="cluster">
<title>cluster_src/assets/icons</title>
<path fill="#ffffff" stroke="black" stroke-width="2" d="M625.5,-555.63C625.5,-555.63 671.5,-555.63 671.5,-555.63 677.5,-555.63 683.5,-561.63 683.5,-567.63 683.5,-567.63 683.5,-595.63 683.5,-595.63 683.5,-601.63 677.5,-607.63 671.5,-607.63 671.5,-607.63 625.5,-607.63 625.5,-607.63 619.5,-607.63 613.5,-601.63 613.5,-595.63 613.5,-595.63 613.5,-567.63 613.5,-567.63 613.5,-561.63 619.5,-555.63 625.5,-555.63"/>
<text text-anchor="middle" x="648.5" y="-596.43" font-family="Helvetica,sans-Serif" font-weight="bold" font-size="9.00">icons</text>
</g>
<g id="clust12" class="cluster">
<title>cluster_src/layout</title>
<path fill="#ffffff" stroke="black" stroke-width="2" d="M195,-1165.63C195,-1165.63 503.5,-1165.63 503.5,-1165.63 509.5,-1165.63 515.5,-1171.63 515.5,-1177.63 515.5,-1177.63 515.5,-1389.63 515.5,-1389.63 515.5,-1395.63 509.5,-1401.63 503.5,-1401.63 503.5,-1401.63 195,-1401.63 195,-1401.63 189,-1401.63 183,-1395.63 183,-1389.63 183,-1389.63 183,-1177.63 183,-1177.63 183,-1171.63 189,-1165.63 195,-1165.63"/>
<text text-anchor="middle" x="349.25" y="-1390.43" font-family="Helvetica,sans-Serif" font-weight="bold" font-size="9.00">layout</text>
</g>
<g id="clust13" class="cluster">
<title>cluster_src/layout/header</title>
<path fill="#ffffff" stroke="black" stroke-width="2" d="M203,-1173.63C203,-1173.63 342,-1173.63 342,-1173.63 348,-1173.63 354,-1179.63 354,-1185.63 354,-1185.63 354,-1243.63 354,-1243.63 354,-1249.63 348,-1255.63 342,-1255.63 342,-1255.63 203,-1255.63 203,-1255.63 197,-1255.63 191,-1249.63 191,-1243.63 191,-1243.63 191,-1185.63 191,-1185.63 191,-1179.63 197,-1173.63 203,-1173.63"/>
<text text-anchor="middle" x="272.5" y="-1244.43" font-family="Helvetica,sans-Serif" font-weight="bold" font-size="9.00">header</text>
</g>
<g id="clust14" class="cluster">
<title>cluster_src/layout/menu</title>
<path fill="#ffffff" stroke="black" stroke-width="2" d="M203,-1263.63C203,-1263.63 495.5,-1263.63 495.5,-1263.63 501.5,-1263.63 507.5,-1269.63 507.5,-1275.63 507.5,-1275.63 507.5,-1363.63 507.5,-1363.63 507.5,-1369.63 501.5,-1375.63 495.5,-1375.63 495.5,-1375.63 203,-1375.63 203,-1375.63 197,-1375.63 191,-1369.63 191,-1363.63 191,-1363.63 191,-1275.63 191,-1275.63 191,-1269.63 197,-1263.63 203,-1263.63"/>
<text text-anchor="middle" x="349.25" y="-1364.43" font-family="Helvetica,sans-Serif" font-weight="bold" font-size="9.00">menu</text>
</g>
<g id="clust11" class="cluster">
<title>cluster_src/hooks</title>
<path fill="#ffffff" stroke="black" stroke-width="2" d="M404,-731.63C404,-731.63 523,-731.63 523,-731.63 529,-731.63 535,-737.63 535,-743.63 535,-743.63 535,-801.63 535,-801.63 535,-807.63 529,-813.63 523,-813.63 523,-813.63 404,-813.63 404,-813.63 398,-813.63 392,-807.63 392,-801.63 392,-801.63 392,-743.63 392,-743.63 392,-737.63 398,-731.63 404,-731.63"/>
<text text-anchor="middle" x="463.5" y="-802.43" font-family="Helvetica,sans-Serif" font-weight="bold" font-size="9.00">hooks</text>
</g>
<g id="clust15" class="cluster">
<title>cluster_src/pages</title>
<path fill="#ffffff" stroke="black" stroke-width="2" d="M195,-123.63C195,-123.63 504.5,-123.63 504.5,-123.63 510.5,-123.63 516.5,-129.63 516.5,-135.63 516.5,-135.63 516.5,-437.63 516.5,-437.63 516.5,-443.63 510.5,-449.63 504.5,-449.63 504.5,-449.63 195,-449.63 195,-449.63 189,-449.63 183,-443.63 183,-437.63 183,-437.63 183,-135.63 183,-135.63 183,-129.63 189,-123.63 195,-123.63"/>
<text text-anchor="middle" x="349.75" y="-438.43" font-family="Helvetica,sans-Serif" font-weight="bold" font-size="9.00">pages</text>
</g>
<g id="clust16" class="cluster">
<title>cluster_src/pages/dashboard</title>
<path fill="#ffffff" stroke="black" stroke-width="2" d="M203,-251.63C203,-251.63 496.5,-251.63 496.5,-251.63 502.5,-251.63 508.5,-257.63 508.5,-263.63 508.5,-263.63 508.5,-351.63 508.5,-351.63 508.5,-357.63 502.5,-363.63 496.5,-363.63 496.5,-363.63 203,-363.63 203,-363.63 197,-363.63 191,-357.63 191,-351.63 191,-351.63 191,-263.63 191,-263.63 191,-257.63 197,-251.63 203,-251.63"/>
<text text-anchor="middle" x="349.75" y="-352.43" font-family="Helvetica,sans-Serif" font-weight="bold" font-size="9.00">dashboard</text>
</g>
<g id="clust17" class="cluster">
<title>cluster_src/pages/login&#45;register</title>
<path fill="#ffffff" stroke="black" stroke-width="2" d="M203,-131.63C203,-131.63 486.5,-131.63 486.5,-131.63 492.5,-131.63 498.5,-137.63 498.5,-143.63 498.5,-143.63 498.5,-231.63 498.5,-231.63 498.5,-237.63 492.5,-243.63 486.5,-243.63 486.5,-243.63 203,-243.63 203,-243.63 197,-243.63 191,-237.63 191,-231.63 191,-231.63 191,-143.63 191,-143.63 191,-137.63 197,-131.63 203,-131.63"/>
<text text-anchor="middle" x="344.75" y="-232.43" font-family="Helvetica,sans-Serif" font-weight="bold" font-size="9.00">login&#45;register</text>
</g>
<g id="clust18" class="cluster">
<title>cluster_src/pages/temp</title>
<path fill="#ffffff" stroke="black" stroke-width="2" d="M203,-371.63C203,-371.63 249,-371.63 249,-371.63 255,-371.63 261,-377.63 261,-383.63 261,-383.63 261,-411.63 261,-411.63 261,-417.63 255,-423.63 249,-423.63 249,-423.63 203,-423.63 203,-423.63 197,-423.63 191,-417.63 191,-411.63 191,-411.63 191,-383.63 191,-383.63 191,-377.63 197,-371.63 203,-371.63"/>
<text text-anchor="middle" x="226" y="-412.43" font-family="Helvetica,sans-Serif" font-weight="bold" font-size="9.00">temp</text>
</g>
<g id="clust19" class="cluster">
<title>cluster_src/store</title>
<path fill="#ffffff" stroke="black" stroke-width="2" d="M607.5,-1141.63C607.5,-1141.63 826.5,-1141.63 826.5,-1141.63 832.5,-1141.63 838.5,-1147.63 838.5,-1153.63 838.5,-1153.63 838.5,-1305.63 838.5,-1305.63 838.5,-1311.63 832.5,-1317.63 826.5,-1317.63 826.5,-1317.63 607.5,-1317.63 607.5,-1317.63 601.5,-1317.63 595.5,-1311.63 595.5,-1305.63 595.5,-1305.63 595.5,-1153.63 595.5,-1153.63 595.5,-1147.63 601.5,-1141.63 607.5,-1141.63"/>
<text text-anchor="middle" x="717" y="-1306.43" font-family="Helvetica,sans-Serif" font-weight="bold" font-size="9.00">store</text>
</g>
<g id="clust20" class="cluster">
<title>cluster_src/store/auth</title>
<path fill="#ffffff" stroke="black" stroke-width="2" d="M615.5,-1209.63C615.5,-1209.63 818.5,-1209.63 818.5,-1209.63 824.5,-1209.63 830.5,-1215.63 830.5,-1221.63 830.5,-1221.63 830.5,-1279.63 830.5,-1279.63 830.5,-1285.63 824.5,-1291.63 818.5,-1291.63 818.5,-1291.63 615.5,-1291.63 615.5,-1291.63 609.5,-1291.63 603.5,-1285.63 603.5,-1279.63 603.5,-1279.63 603.5,-1221.63 603.5,-1221.63 603.5,-1215.63 609.5,-1209.63 615.5,-1209.63"/>
<text text-anchor="middle" x="717" y="-1280.43" font-family="Helvetica,sans-Serif" font-weight="bold" font-size="9.00">auth</text>
</g>
<g id="clust21" class="cluster">
<title>cluster_src/store/ui</title>
<path fill="#ffffff" stroke="black" stroke-width="2" d="M767,-1149.63C767,-1149.63 813,-1149.63 813,-1149.63 819,-1149.63 825,-1155.63 825,-1161.63 825,-1161.63 825,-1189.63 825,-1189.63 825,-1195.63 819,-1201.63 813,-1201.63 813,-1201.63 767,-1201.63 767,-1201.63 761,-1201.63 755,-1195.63 755,-1189.63 755,-1189.63 755,-1161.63 755,-1161.63 755,-1155.63 761,-1149.63 767,-1149.63"/>
<text text-anchor="middle" x="790" y="-1190.43" font-family="Helvetica,sans-Serif" font-weight="bold" font-size="9.00">ui</text>
</g>
<g id="clust22" class="cluster">
<title>cluster_src/utils</title>
<path fill="#ffffff" stroke="black" stroke-width="2" d="M378,-1021.63C378,-1021.63 735,-1021.63 735,-1021.63 741,-1021.63 747,-1027.63 747,-1033.63 747,-1033.63 747,-1121.63 747,-1121.63 747,-1127.63 741,-1133.63 735,-1133.63 735,-1133.63 378,-1133.63 378,-1133.63 372,-1133.63 366,-1127.63 366,-1121.63 366,-1121.63 366,-1033.63 366,-1033.63 366,-1027.63 372,-1021.63 378,-1021.63"/>
<text text-anchor="middle" x="556.5" y="-1122.43" font-family="Helvetica,sans-Serif" font-weight="bold" font-size="9.00">utils</text>
</g>
<g id="clust23" class="cluster">
<title>cluster_src/utils/ajax</title>
<path fill="#ffffff" stroke="black" stroke-width="2" d="M440.5,-1055.63C440.5,-1055.63 727,-1055.63 727,-1055.63 733,-1055.63 739,-1061.63 739,-1067.63 739,-1067.63 739,-1095.63 739,-1095.63 739,-1101.63 733,-1107.63 727,-1107.63 727,-1107.63 440.5,-1107.63 440.5,-1107.63 434.5,-1107.63 428.5,-1101.63 428.5,-1095.63 428.5,-1095.63 428.5,-1067.63 428.5,-1067.63 428.5,-1061.63 434.5,-1055.63 440.5,-1055.63"/>
<text text-anchor="middle" x="583.75" y="-1096.43" font-family="Helvetica,sans-Serif" font-weight="bold" font-size="9.00">ajax</text>
</g>
<!-- src/App.js -->
<g id="node1" class="node">
<title>src/App.js</title>
<g id="a_node1"><a xlink:href="src/App.js" xlink:title="App.js">
<path fill="#ffffcc" stroke="black" d="M150,-1199.63C150,-1199.63 108,-1199.63 108,-1199.63 105,-1199.63 102,-1196.63 102,-1193.63 102,-1193.63 102,-1187.63 102,-1187.63 102,-1184.63 105,-1181.63 108,-1181.63 108,-1181.63 150,-1181.63 150,-1181.63 153,-1181.63 156,-1184.63 156,-1187.63 156,-1187.63 156,-1193.63 156,-1193.63 156,-1196.63 153,-1199.63 150,-1199.63"/>
<text text-anchor="start" x="116" y="-1188.43" font-family="Helvetica,sans-Serif" font-size="9.00">App.js</text>
</a>
</g>
</g>
<!-- src/components/loader/index.js -->
<g id="node2" class="node">
<title>src/components/loader/index.js</title>
<g id="a_node2"><a xlink:href="src/components/loader/index.js" xlink:title="index.js">
<path fill="#ffffcc" stroke="black" d="M484.5,-611.63C484.5,-611.63 442.5,-611.63 442.5,-611.63 439.5,-611.63 436.5,-608.63 436.5,-605.63 436.5,-605.63 436.5,-599.63 436.5,-599.63 436.5,-596.63 439.5,-593.63 442.5,-593.63 442.5,-593.63 484.5,-593.63 484.5,-593.63 487.5,-593.63 490.5,-596.63 490.5,-599.63 490.5,-599.63 490.5,-605.63 490.5,-605.63 490.5,-608.63 487.5,-611.63 484.5,-611.63"/>
<text text-anchor="start" x="447.5" y="-600.43" font-family="Helvetica,sans-Serif" font-size="9.00">index.js</text>
</a>
</g>
</g>
<!-- src/App.js&#45;&gt;src/components/loader/index.js -->
<g id="edge1" class="edge">
<title>src/App.js&#45;&gt;src/components/loader/index.js</title>
<path fill="none" stroke="#000000" stroke-width="2" stroke-opacity="0.200000" d="M130.89,-1181.45C136.04,-1131.94 165.58,-892.96 269,-734.63 301.49,-684.88 316.17,-674.99 366,-642.63 385.13,-630.21 408.74,-620.34 427.83,-613.51"/>
<polygon fill="#000000" fill-opacity="0.200000" stroke="#000000" stroke-width="2" stroke-opacity="0.200000" points="428.41,-615.53 433.39,-611.58 427.03,-611.57 428.41,-615.53"/>
</g>
<!-- src/data/menuItems.js -->
<g id="node3" class="node">
<title>src/data/menuItems.js</title>
<g id="a_node3"><a xlink:href="src/data/menuItems.js" xlink:title="menuItems.js">
<path fill="#ffffcc" stroke="black" d="M494.5,-877.63C494.5,-877.63 432.5,-877.63 432.5,-877.63 429.5,-877.63 426.5,-874.63 426.5,-871.63 426.5,-871.63 426.5,-865.63 426.5,-865.63 426.5,-862.63 429.5,-859.63 432.5,-859.63 432.5,-859.63 494.5,-859.63 494.5,-859.63 497.5,-859.63 500.5,-862.63 500.5,-865.63 500.5,-865.63 500.5,-871.63 500.5,-871.63 500.5,-874.63 497.5,-877.63 494.5,-877.63"/>
<text text-anchor="start" x="434.5" y="-866.43" font-family="Helvetica,sans-Serif" font-size="9.00">menuItems.js</text>
</a>
</g>
</g>
<!-- src/App.js&#45;&gt;src/data/menuItems.js -->
<g id="edge2" class="edge">
<title>src/App.js&#45;&gt;src/data/menuItems.js</title>
<path fill="none" stroke="#000000" stroke-width="2" stroke-opacity="0.200000" d="M133.94,-1181.32C152.55,-1138.66 236.15,-960.55 366,-883.63 381.4,-874.5 400.52,-870.35 417.66,-868.63"/>
<polygon fill="#000000" fill-opacity="0.200000" stroke="#000000" stroke-width="2" stroke-opacity="0.200000" points="417.58,-870.74 423.4,-868.17 417.25,-866.55 417.58,-870.74"/>
</g>
<!-- src/layout/header/index.js -->
<g id="node4" class="node">
<title>src/layout/header/index.js</title>
<g id="a_node4"><a xlink:href="src/layout/header/index.js" xlink:title="index.js">
<path fill="#ffffcc" stroke="black" d="M247,-1199.63C247,-1199.63 205,-1199.63 205,-1199.63 202,-1199.63 199,-1196.63 199,-1193.63 199,-1193.63 199,-1187.63 199,-1187.63 199,-1184.63 202,-1181.63 205,-1181.63 205,-1181.63 247,-1181.63 247,-1181.63 250,-1181.63 253,-1184.63 253,-1187.63 253,-1187.63 253,-1193.63 253,-1193.63 253,-1196.63 250,-1199.63 247,-1199.63"/>
<text text-anchor="start" x="210" y="-1188.43" font-family="Helvetica,sans-Serif" font-size="9.00">index.js</text>
</a>
</g>
</g>
<!-- src/App.js&#45;&gt;src/layout/header/index.js -->
<g id="edge3" class="edge">
<title>src/App.js&#45;&gt;src/layout/header/index.js</title>
<path fill="none" stroke="#000000" stroke-width="2" stroke-opacity="0.200000" d="M156.46,-1190.63C166.76,-1190.63 178.7,-1190.63 189.71,-1190.63"/>
<polygon fill="#000000" fill-opacity="0.200000" stroke="#000000" stroke-width="2" stroke-opacity="0.200000" points="189.65,-1192.73 195.65,-1190.63 189.65,-1188.53 189.65,-1192.73"/>
</g>
<!-- src/layout/menu/index.js -->
<g id="node5" class="node">
<title>src/layout/menu/index.js</title>
<g id="a_node5"><a xlink:href="src/layout/menu/index.js" xlink:title="index.js">
<path fill="#ffffcc" stroke="black" d="M247,-1304.63C247,-1304.63 205,-1304.63 205,-1304.63 202,-1304.63 199,-1301.63 199,-1298.63 199,-1298.63 199,-1292.63 199,-1292.63 199,-1289.63 202,-1286.63 205,-1286.63 205,-1286.63 247,-1286.63 247,-1286.63 250,-1286.63 253,-1289.63 253,-1292.63 253,-1292.63 253,-1298.63 253,-1298.63 253,-1301.63 250,-1304.63 247,-1304.63"/>
<text text-anchor="start" x="210" y="-1293.43" font-family="Helvetica,sans-Serif" font-size="9.00">index.js</text>
</a>
</g>
</g>
<!-- src/App.js&#45;&gt;src/layout/menu/index.js -->
<g id="edge4" class="edge">
<title>src/App.js&#45;&gt;src/layout/menu/index.js</title>
<path fill="none" stroke="#000000" stroke-width="2" stroke-opacity="0.200000" d="M136.36,-1199.86C145.83,-1213.36 164.53,-1239.01 183,-1258.63 190.34,-1266.43 199.15,-1274.37 206.8,-1280.89"/>
<polygon fill="#000000" fill-opacity="0.200000" stroke="#000000" stroke-width="2" stroke-opacity="0.200000" points="205.15,-1282.25 211.1,-1284.49 207.85,-1279.03 205.15,-1282.25"/>
</g>
<!-- src/pages/login&#45;register/index.js -->
<g id="node6" class="node">
<title>src/pages/login&#45;register/index.js</title>
<g id="a_node6"><a xlink:href="src/pages/login-register/index.js" xlink:title="index.js">
<path fill="#ffffcc" stroke="black" d="M247,-202.63C247,-202.63 205,-202.63 205,-202.63 202,-202.63 199,-199.63 199,-196.63 199,-196.63 199,-190.63 199,-190.63 199,-187.63 202,-184.63 205,-184.63 205,-184.63 247,-184.63 247,-184.63 250,-184.63 253,-187.63 253,-190.63 253,-190.63 253,-196.63 253,-196.63 253,-199.63 250,-202.63 247,-202.63"/>
<text text-anchor="start" x="210" y="-191.43" font-family="Helvetica,sans-Serif" font-size="9.00">index.js</text>
</a>
</g>
</g>
<!-- src/App.js&#45;&gt;src/pages/login&#45;register/index.js -->
<g id="edge5" class="edge">
<title>src/App.js&#45;&gt;src/pages/login&#45;register/index.js</title>
<path fill="none" stroke="#000000" stroke-width="2" stroke-opacity="0.200000" d="M130.2,-1181.13C132.16,-1088.08 148.91,-340.81 183,-248.63 188.48,-233.8 199.43,-219.68 208.78,-209.46"/>
<polygon fill="#000000" fill-opacity="0.200000" stroke="#000000" stroke-width="2" stroke-opacity="0.200000" points="210.18,-211.02 212.81,-205.23 207.15,-208.12 210.18,-211.02"/>
</g>
<!-- src/store/auth/authActions.js -->
<g id="node7" class="node">
<title>src/store/auth/authActions.js</title>
<g id="a_node7"><a xlink:href="src/store/auth/authActions.js" xlink:title="authActions.js">
<path fill="#ffffcc" stroke="black" d="M679.5,-1235.63C679.5,-1235.63 617.5,-1235.63 617.5,-1235.63 614.5,-1235.63 611.5,-1232.63 611.5,-1229.63 611.5,-1229.63 611.5,-1223.63 611.5,-1223.63 611.5,-1220.63 614.5,-1217.63 617.5,-1217.63 617.5,-1217.63 679.5,-1217.63 679.5,-1217.63 682.5,-1217.63 685.5,-1220.63 685.5,-1223.63 685.5,-1223.63 685.5,-1229.63 685.5,-1229.63 685.5,-1232.63 682.5,-1235.63 679.5,-1235.63"/>
<text text-anchor="start" x="619.5" y="-1224.43" font-family="Helvetica,sans-Serif" font-size="9.00">authActions.js</text>
</a>
</g>
</g>
<!-- src/App.js&#45;&gt;src/store/auth/authActions.js -->
<g id="edge6" class="edge">
<title>src/App.js&#45;&gt;src/store/auth/authActions.js</title>
<path fill="none" stroke="#000000" stroke-width="2" stroke-opacity="0.200000" d="M135.61,-1199.96C145.5,-1216.92 165.87,-1254.25 175,-1288.63 180.15,-1308.03 168.19,-1365.07 183,-1378.63 304.32,-1489.64 409.26,-1458.52 553,-1378.63 605.38,-1349.51 632.47,-1277.99 642.65,-1244.49"/>
<polygon fill="#000000" fill-opacity="0.200000" stroke="#000000" stroke-width="2" stroke-opacity="0.200000" points="644.58,-1245.37 644.24,-1239.02 640.55,-1244.2 644.58,-1245.37"/>
</g>
<!-- src/assets/icons/index.js -->
<g id="node8" class="node">
<title>src/assets/icons/index.js</title>
<g id="a_node8"><a xlink:href="src/assets/icons/index.js" xlink:title="index.js">
<path fill="#ffffcc" stroke="black" d="M669.5,-581.63C669.5,-581.63 627.5,-581.63 627.5,-581.63 624.5,-581.63 621.5,-578.63 621.5,-575.63 621.5,-575.63 621.5,-569.63 621.5,-569.63 621.5,-566.63 624.5,-563.63 627.5,-563.63 627.5,-563.63 669.5,-563.63 669.5,-563.63 672.5,-563.63 675.5,-566.63 675.5,-569.63 675.5,-569.63 675.5,-575.63 675.5,-575.63 675.5,-578.63 672.5,-581.63 669.5,-581.63"/>
<text text-anchor="start" x="632.5" y="-570.43" font-family="Helvetica,sans-Serif" font-size="9.00">index.js</text>
</a>
</g>
</g>
<!-- src/components/loader/index.js&#45;&gt;src/assets/icons/index.js -->
<g id="edge8" class="edge">
<title>src/components/loader/index.js&#45;&gt;src/assets/icons/index.js</title>
<path fill="none" stroke="#000000" stroke-width="2" stroke-opacity="0.200000" d="M490.72,-598.33C522.7,-593.09 576.88,-584.21 612.42,-578.38"/>
<polygon fill="#000000" fill-opacity="0.200000" stroke="#000000" stroke-width="2" stroke-opacity="0.200000" points="612.46,-580.5 618.05,-577.46 611.78,-576.35 612.46,-580.5"/>
</g>
<!-- src/data/menuItems.js&#45;&gt;src/assets/icons/index.js -->
<g id="edge11" class="edge">
<title>src/data/menuItems.js&#45;&gt;src/assets/icons/index.js</title>
<path fill="none" stroke="#000000" stroke-width="2" stroke-opacity="0.200000" d="M500.56,-872.28C518.97,-872.02 540.14,-868.05 553,-853.63 570.85,-833.62 551.21,-635 566,-612.63 576.68,-596.47 595.89,-586.61 612.98,-580.72"/>
<polygon fill="#000000" fill-opacity="0.200000" stroke="#000000" stroke-width="2" stroke-opacity="0.200000" points="613.17,-582.86 618.26,-579.05 611.91,-578.86 613.17,-582.86"/>
</g>
<!-- src/pages/dashboard/index.js -->
<g id="node15" class="node">
<title>src/pages/dashboard/index.js</title>
<g id="a_node15"><a xlink:href="src/pages/dashboard/index.js" xlink:title="index.js">
<path fill="#ffffcc" stroke="black" d="M247,-322.63C247,-322.63 205,-322.63 205,-322.63 202,-322.63 199,-319.63 199,-316.63 199,-316.63 199,-310.63 199,-310.63 199,-307.63 202,-304.63 205,-304.63 205,-304.63 247,-304.63 247,-304.63 250,-304.63 253,-307.63 253,-310.63 253,-310.63 253,-316.63 253,-316.63 253,-319.63 250,-322.63 247,-322.63"/>
<text text-anchor="start" x="210" y="-311.43" font-family="Helvetica,sans-Serif" font-size="9.00">index.js</text>
</a>
</g>
</g>
<!-- src/data/menuItems.js&#45;&gt;src/pages/dashboard/index.js -->
<g id="edge12" class="edge">
<title>src/data/menuItems.js&#45;&gt;src/pages/dashboard/index.js</title>
<path fill="none" stroke="#000000" stroke-width="2" stroke-opacity="0.200000" d="M426.09,-872.29C405.92,-872.26 381.79,-868.51 366,-853.63 365.37,-853.04 261.32,-369.43 261,-368.63 255.44,-354.86 246.55,-340.63 239.25,-330.1"/>
<polygon fill="#000000" fill-opacity="0.200000" stroke="#000000" stroke-width="2" stroke-opacity="0.200000" points="241.02,-328.96 235.83,-325.3 237.6,-331.4 241.02,-328.96"/>
</g>
<!-- src/pages/temp/index.js -->
<g id="node16" class="node">
<title>src/pages/temp/index.js</title>
<g id="a_node16"><a xlink:href="src/pages/temp/index.js" xlink:title="index.js">
<path fill="#ffffcc" stroke="black" d="M247,-397.63C247,-397.63 205,-397.63 205,-397.63 202,-397.63 199,-394.63 199,-391.63 199,-391.63 199,-385.63 199,-385.63 199,-382.63 202,-379.63 205,-379.63 205,-379.63 247,-379.63 247,-379.63 250,-379.63 253,-382.63 253,-385.63 253,-385.63 253,-391.63 253,-391.63 253,-394.63 250,-397.63 247,-397.63"/>
<text text-anchor="start" x="210" y="-386.43" font-family="Helvetica,sans-Serif" font-size="9.00">index.js</text>
</a>
</g>
</g>
<!-- src/data/menuItems.js&#45;&gt;src/pages/temp/index.js -->
<g id="edge13" class="edge">
<title>src/data/menuItems.js&#45;&gt;src/pages/temp/index.js</title>
<path fill="none" stroke="#000000" stroke-width="2" stroke-opacity="0.200000" d="M426.22,-864.37C375.36,-857.54 287.01,-842.24 269,-816.63 255.74,-797.76 274.26,-420.5 261,-401.63 260.75,-401.28 260.5,-400.94 260.23,-400.61"/>
<polygon fill="#000000" fill-opacity="0.200000" stroke="#000000" stroke-width="2" stroke-opacity="0.200000" points="261.71,-399.1 255.76,-396.86 259.01,-402.32 261.71,-399.1"/>
</g>
<!-- src/components/search/index.js -->
<g id="node12" class="node">
<title>src/components/search/index.js</title>
<g id="a_node12"><a xlink:href="src/components/search/index.js" xlink:title="index.js">
<path fill="#ffffcc" stroke="black" d="M484.5,-671.63C484.5,-671.63 442.5,-671.63 442.5,-671.63 439.5,-671.63 436.5,-668.63 436.5,-665.63 436.5,-665.63 436.5,-659.63 436.5,-659.63 436.5,-656.63 439.5,-653.63 442.5,-653.63 442.5,-653.63 484.5,-653.63 484.5,-653.63 487.5,-653.63 490.5,-656.63 490.5,-659.63 490.5,-659.63 490.5,-665.63 490.5,-665.63 490.5,-668.63 487.5,-671.63 484.5,-671.63"/>
<text text-anchor="start" x="447.5" y="-660.43" font-family="Helvetica,sans-Serif" font-size="9.00">index.js</text>
</a>
</g>
</g>
<!-- src/layout/header/index.js&#45;&gt;src/components/search/index.js -->
<g id="edge26" class="edge">
<title>src/layout/header/index.js&#45;&gt;src/components/search/index.js</title>
<path fill="none" stroke="#000000" stroke-width="2" stroke-opacity="0.200000" d="M253.43,-1184.33C256.38,-1182.61 259.03,-1180.42 261,-1177.63 272.15,-1161.82 261.54,-847.47 269,-829.63 290.94,-777.14 319.32,-779.34 358,-737.63 361.64,-733.7 361.98,-732.16 366,-728.63 389,-708.38 418.43,-689.06 438.71,-676.62"/>
<polygon fill="#000000" fill-opacity="0.200000" stroke="#000000" stroke-width="2" stroke-opacity="0.200000" points="439.63,-678.51 443.67,-673.61 437.45,-674.92 439.63,-678.51"/>
</g>
<!-- src/layout/header/PageTitle.js -->
<g id="node24" class="node">
<title>src/layout/header/PageTitle.js</title>
<g id="a_node24"><a xlink:href="src/layout/header/PageTitle.js" xlink:title="PageTitle.js">
<path fill="#ffffcc" stroke="black" d="M340,-1229.63C340,-1229.63 287,-1229.63 287,-1229.63 284,-1229.63 281,-1226.63 281,-1223.63 281,-1223.63 281,-1217.63 281,-1217.63 281,-1214.63 284,-1211.63 287,-1211.63 287,-1211.63 340,-1211.63 340,-1211.63 343,-1211.63 346,-1214.63 346,-1217.63 346,-1217.63 346,-1223.63 346,-1223.63 346,-1226.63 343,-1229.63 340,-1229.63"/>
<text text-anchor="start" x="289" y="-1218.43" font-family="Helvetica,sans-Serif" font-size="9.00">PageTitle.js</text>
</a>
</g>
</g>
<!-- src/layout/header/index.js&#45;&gt;src/layout/header/PageTitle.js -->
<g id="edge27" class="edge">
<title>src/layout/header/index.js&#45;&gt;src/layout/header/PageTitle.js</title>
<path fill="none" stroke="#000000" stroke-width="2" stroke-opacity="0.200000" d="M253.2,-1200.03C258.43,-1201.9 263.89,-1203.83 269,-1205.63 271.4,-1206.47 273.88,-1207.34 276.38,-1208.21"/>
<polygon fill="#000000" fill-opacity="0.200000" stroke="#000000" stroke-width="2" stroke-opacity="0.200000" points="275.65,-1210.18 282.01,-1210.16 277.03,-1206.21 275.65,-1210.18"/>
</g>
<!-- src/layout/header/Profile.js -->
<g id="node27" class="node">
<title>src/layout/header/Profile.js</title>
<g id="a_node27"><a xlink:href="src/layout/header/Profile.js" xlink:title="Profile.js">
<path fill="#ffffcc" stroke="black" d="M334.5,-1199.63C334.5,-1199.63 292.5,-1199.63 292.5,-1199.63 289.5,-1199.63 286.5,-1196.63 286.5,-1193.63 286.5,-1193.63 286.5,-1187.63 286.5,-1187.63 286.5,-1184.63 289.5,-1181.63 292.5,-1181.63 292.5,-1181.63 334.5,-1181.63 334.5,-1181.63 337.5,-1181.63 340.5,-1184.63 340.5,-1187.63 340.5,-1187.63 340.5,-1193.63 340.5,-1193.63 340.5,-1196.63 337.5,-1199.63 334.5,-1199.63"/>
<text text-anchor="start" x="295" y="-1188.43" font-family="Helvetica,sans-Serif" font-size="9.00">Profile.js</text>
</a>
</g>
</g>
<!-- src/layout/header/index.js&#45;&gt;src/layout/header/Profile.js -->
<g id="edge28" class="edge">
<title>src/layout/header/index.js&#45;&gt;src/layout/header/Profile.js</title>
<path fill="none" stroke="#000000" stroke-width="2" stroke-opacity="0.200000" d="M253.12,-1190.63C260.75,-1190.63 269.23,-1190.63 277.33,-1190.63"/>
<polygon fill="#000000" fill-opacity="0.200000" stroke="#000000" stroke-width="2" stroke-opacity="0.200000" points="277.22,-1192.73 283.22,-1190.63 277.22,-1188.53 277.22,-1192.73"/>
</g>
<!-- src/hooks/useOutsideAlerter.js -->
<g id="node18" class="node">
<title>src/hooks/useOutsideAlerter.js</title>
<g id="a_node18"><a xlink:href="src/hooks/useOutsideAlerter.js" xlink:title="useOutsideAlerter.js">
<path fill="#ffffcc" stroke="black" d="M508,-787.63C508,-787.63 419,-787.63 419,-787.63 416,-787.63 413,-784.63 413,-781.63 413,-781.63 413,-775.63 413,-775.63 413,-772.63 416,-769.63 419,-769.63 419,-769.63 508,-769.63 508,-769.63 511,-769.63 514,-772.63 514,-775.63 514,-775.63 514,-781.63 514,-781.63 514,-784.63 511,-787.63 508,-787.63"/>
<text text-anchor="start" x="421" y="-776.43" font-family="Helvetica,sans-Serif" font-size="9.00">useOutsideAlerter.js</text>
</a>
</g>
</g>
<!-- src/layout/menu/index.js&#45;&gt;src/hooks/useOutsideAlerter.js -->
<g id="edge36" class="edge">
<title>src/layout/menu/index.js&#45;&gt;src/hooks/useOutsideAlerter.js</title>
<path fill="none" stroke="#000000" stroke-width="2" stroke-opacity="0.200000" d="M238.9,-1286.31C246.63,-1279.53 256.12,-1269.64 261,-1258.63 276.9,-1222.72 261.98,-1209.27 269,-1170.63 298.02,-1010.97 258.59,-940.27 366,-818.63 377.35,-805.78 393.47,-796.96 409.3,-790.96"/>
<polygon fill="#000000" fill-opacity="0.200000" stroke="#000000" stroke-width="2" stroke-opacity="0.200000" points="409.7,-793.04 414.66,-789.07 408.31,-789.08 409.7,-793.04"/>
</g>
<!-- src/store/ui/uiSlice.js -->
<g id="node25" class="node">
<title>src/store/ui/uiSlice.js</title>
<g id="a_node25"><a xlink:href="src/store/ui/uiSlice.js" xlink:title="uiSlice.js">
<path fill="#ffffcc" stroke="black" d="M811,-1175.63C811,-1175.63 769,-1175.63 769,-1175.63 766,-1175.63 763,-1172.63 763,-1169.63 763,-1169.63 763,-1163.63 763,-1163.63 763,-1160.63 766,-1157.63 769,-1157.63 769,-1157.63 811,-1157.63 811,-1157.63 814,-1157.63 817,-1160.63 817,-1163.63 817,-1163.63 817,-1169.63 817,-1169.63 817,-1172.63 814,-1175.63 811,-1175.63"/>
<text text-anchor="start" x="771" y="-1164.43" font-family="Helvetica,sans-Serif" font-size="9.00">uiSlice.js</text>
</a>
</g>
</g>
<!-- src/layout/menu/index.js&#45;&gt;src/store/ui/uiSlice.js -->
<g id="edge37" class="edge">
<title>src/layout/menu/index.js&#45;&gt;src/store/ui/uiSlice.js</title>
<path fill="none" stroke="#000000" stroke-width="2" stroke-opacity="0.200000" d="M253.39,-1302.4C256.28,-1304.04 258.92,-1306.09 261,-1308.63 274.44,-1325.01 252.81,-1341.96 269,-1355.63 363.47,-1435.38 439.51,-1636.92 747,-1327.63 756.5,-1318.07 749.94,-1219.11 755,-1206.63 758.7,-1197.51 765.33,-1188.96 771.76,-1182.13"/>
<polygon fill="#000000" fill-opacity="0.200000" stroke="#000000" stroke-width="2" stroke-opacity="0.200000" points="773.09,-1183.77 775.86,-1178.05 770.12,-1180.79 773.09,-1183.77"/>
</g>
<!-- src/layout/menu/Logo.js -->
<g id="node28" class="node">
<title>src/layout/menu/Logo.js</title>
<g id="a_node28"><a xlink:href="src/layout/menu/Logo.js" xlink:title="Logo.js">
<path fill="#ffffcc" stroke="black" d="M334.5,-1319.63C334.5,-1319.63 292.5,-1319.63 292.5,-1319.63 289.5,-1319.63 286.5,-1316.63 286.5,-1313.63 286.5,-1313.63 286.5,-1307.63 286.5,-1307.63 286.5,-1304.63 289.5,-1301.63 292.5,-1301.63 292.5,-1301.63 334.5,-1301.63 334.5,-1301.63 337.5,-1301.63 340.5,-1304.63 340.5,-1307.63 340.5,-1307.63 340.5,-1313.63 340.5,-1313.63 340.5,-1316.63 337.5,-1319.63 334.5,-1319.63"/>
<text text-anchor="start" x="298" y="-1308.43" font-family="Helvetica,sans-Serif" font-size="9.00">Logo.js</text>
</a>
</g>
</g>
<!-- src/layout/menu/index.js&#45;&gt;src/layout/menu/Logo.js -->
<g id="edge38" class="edge">
<title>src/layout/menu/index.js&#45;&gt;src/layout/menu/Logo.js</title>
<path fill="none" stroke="#000000" stroke-width="2" stroke-opacity="0.200000" d="M253.12,-1300.21C260.84,-1301.56 269.41,-1303.07 277.59,-1304.5"/>
<polygon fill="#000000" fill-opacity="0.200000" stroke="#000000" stroke-width="2" stroke-opacity="0.200000" points="276.99,-1306.53 283.27,-1305.5 277.72,-1302.39 276.99,-1306.53"/>
</g>
<!-- src/layout/menu/Logout.js -->
<g id="node29" class="node">
<title>src/layout/menu/Logout.js</title>
<g id="a_node29"><a xlink:href="src/layout/menu/Logout.js" xlink:title="Logout.js">
<path fill="#ffffcc" stroke="black" d="M335,-1349.63C335,-1349.63 292,-1349.63 292,-1349.63 289,-1349.63 286,-1346.63 286,-1343.63 286,-1343.63 286,-1337.63 286,-1337.63 286,-1334.63 289,-1331.63 292,-1331.63 292,-1331.63 335,-1331.63 335,-1331.63 338,-1331.63 341,-1334.63 341,-1337.63 341,-1337.63 341,-1343.63 341,-1343.63 341,-1346.63 338,-1349.63 335,-1349.63"/>
<text text-anchor="start" x="294" y="-1338.43" font-family="Helvetica,sans-Serif" font-size="9.00">Logout.js</text>
</a>
</g>
</g>
<!-- src/layout/menu/index.js&#45;&gt;src/layout/menu/Logout.js -->
<g id="edge39" class="edge">
<title>src/layout/menu/index.js&#45;&gt;src/layout/menu/Logout.js</title>
<path fill="none" stroke="#000000" stroke-width="2" stroke-opacity="0.200000" d="M253.46,-1303.34C256.19,-1304.82 258.78,-1306.56 261,-1308.63 267.12,-1314.31 262.79,-1320.05 269,-1325.63 271.6,-1327.96 274.58,-1329.94 277.74,-1331.61"/>
<polygon fill="#000000" fill-opacity="0.200000" stroke="#000000" stroke-width="2" stroke-opacity="0.200000" points="276.72,-1333.45 283.06,-1333.94 278.41,-1329.61 276.72,-1333.45"/>
</g>
<!-- src/layout/menu/MenuContainer.js -->
<g id="node30" class="node">
<title>src/layout/menu/MenuContainer.js</title>
<g id="a_node30"><a xlink:href="src/layout/menu/MenuContainer.js" xlink:title="MenuContainer.js">
<path fill="#ffffcc" stroke="black" d="M352,-1289.63C352,-1289.63 275,-1289.63 275,-1289.63 272,-1289.63 269,-1286.63 269,-1283.63 269,-1283.63 269,-1277.63 269,-1277.63 269,-1274.63 272,-1271.63 275,-1271.63 275,-1271.63 352,-1271.63 352,-1271.63 355,-1271.63 358,-1274.63 358,-1277.63 358,-1277.63 358,-1283.63 358,-1283.63 358,-1286.63 355,-1289.63 352,-1289.63"/>
<text text-anchor="start" x="277" y="-1278.43" font-family="Helvetica,sans-Serif" font-size="9.00">MenuContainer.js</text>
</a>
</g>
</g>
<!-- src/layout/menu/index.js&#45;&gt;src/layout/menu/MenuContainer.js -->
<g id="edge40" class="edge">
<title>src/layout/menu/index.js&#45;&gt;src/layout/menu/MenuContainer.js</title>
<path fill="none" stroke="#000000" stroke-width="2" stroke-opacity="0.200000" d="M253.12,-1291.05C255.27,-1290.67 257.48,-1290.28 259.74,-1289.88"/>
<polygon fill="#000000" fill-opacity="0.200000" stroke="#000000" stroke-width="2" stroke-opacity="0.200000" points="260.04,-1291.96 265.59,-1288.86 259.31,-1287.83 260.04,-1291.96"/>
</g>
<!-- src/pages/login&#45;register/Hero.js -->
<g id="node39" class="node">
<title>src/pages/login&#45;register/Hero.js</title>
<g id="a_node39"><a xlink:href="src/pages/login-register/Hero.js" xlink:title="Hero.js">
<path fill="#ffffcc" stroke="black" d="M334.5,-157.63C334.5,-157.63 292.5,-157.63 292.5,-157.63 289.5,-157.63 286.5,-154.63 286.5,-151.63 286.5,-151.63 286.5,-145.63 286.5,-145.63 286.5,-142.63 289.5,-139.63 292.5,-139.63 292.5,-139.63 334.5,-139.63 334.5,-139.63 337.5,-139.63 340.5,-142.63 340.5,-145.63 340.5,-145.63 340.5,-151.63 340.5,-151.63 340.5,-154.63 337.5,-157.63 334.5,-157.63"/>
<text text-anchor="start" x="298" y="-146.43" font-family="Helvetica,sans-Serif" font-size="9.00">Hero.js</text>
</a>
</g>
</g>
<!-- src/pages/login&#45;register/index.js&#45;&gt;src/pages/login&#45;register/Hero.js -->
<g id="edge67" class="edge">
<title>src/pages/login&#45;register/index.js&#45;&gt;src/pages/login&#45;register/Hero.js</title>
<path fill="none" stroke="#000000" stroke-width="2" stroke-opacity="0.200000" d="M238.19,-184.27C246.33,-177.81 257.85,-169.38 269,-163.63 271.87,-162.15 274.91,-160.76 278.01,-159.48"/>
<polygon fill="#000000" fill-opacity="0.200000" stroke="#000000" stroke-width="2" stroke-opacity="0.200000" points="278.56,-161.52 283.4,-157.41 277.05,-157.6 278.56,-161.52"/>
</g>
<!-- src/pages/login&#45;register/Login.js -->
<g id="node40" class="node">
<title>src/pages/login&#45;register/Login.js</title>
<g id="a_node40"><a xlink:href="src/pages/login-register/Login.js" xlink:title="Login.js">
<path fill="#ffffcc" stroke="black" d="M334.5,-217.63C334.5,-217.63 292.5,-217.63 292.5,-217.63 289.5,-217.63 286.5,-214.63 286.5,-211.63 286.5,-211.63 286.5,-205.63 286.5,-205.63 286.5,-202.63 289.5,-199.63 292.5,-199.63 292.5,-199.63 334.5,-199.63 334.5,-199.63 337.5,-199.63 340.5,-202.63 340.5,-205.63 340.5,-205.63 340.5,-211.63 340.5,-211.63 340.5,-214.63 337.5,-217.63 334.5,-217.63"/>
<text text-anchor="start" x="296.5" y="-206.43" font-family="Helvetica,sans-Serif" font-size="9.00">Login.js</text>
</a>
</g>
</g>
<!-- src/pages/login&#45;register/index.js&#45;&gt;src/pages/login&#45;register/Login.js -->
<g id="edge68" class="edge">
<title>src/pages/login&#45;register/index.js&#45;&gt;src/pages/login&#45;register/Login.js</title>
<path fill="none" stroke="#000000" stroke-width="2" stroke-opacity="0.200000" d="M253.12,-198.21C260.84,-199.56 269.41,-201.07 277.59,-202.5"/>
<polygon fill="#000000" fill-opacity="0.200000" stroke="#000000" stroke-width="2" stroke-opacity="0.200000" points="276.99,-204.53 283.27,-203.5 277.72,-200.39 276.99,-204.53"/>
</g>
<!-- src/pages/login&#45;register/Register.js -->
<g id="node41" class="node">
<title>src/pages/login&#45;register/Register.js</title>
<g id="a_node41"><a xlink:href="src/pages/login-register/Register.js" xlink:title="Register.js">
<path fill="#ffffcc" stroke="black" d="M338.5,-187.63C338.5,-187.63 288.5,-187.63 288.5,-187.63 285.5,-187.63 282.5,-184.63 282.5,-181.63 282.5,-181.63 282.5,-175.63 282.5,-175.63 282.5,-172.63 285.5,-169.63 288.5,-169.63 288.5,-169.63 338.5,-169.63 338.5,-169.63 341.5,-169.63 344.5,-172.63 344.5,-175.63 344.5,-175.63 344.5,-181.63 344.5,-181.63 344.5,-184.63 341.5,-187.63 338.5,-187.63"/>
<text text-anchor="start" x="290.5" y="-176.43" font-family="Helvetica,sans-Serif" font-size="9.00">Register.js</text>
</a>
</g>
</g>
<!-- src/pages/login&#45;register/index.js&#45;&gt;src/pages/login&#45;register/Register.js -->
<g id="edge69" class="edge">
<title>src/pages/login&#45;register/index.js&#45;&gt;src/pages/login&#45;register/Register.js</title>
<path fill="none" stroke="#000000" stroke-width="2" stroke-opacity="0.200000" d="M253.12,-189.05C259.54,-187.92 266.56,-186.69 273.44,-185.48"/>
<polygon fill="#000000" fill-opacity="0.200000" stroke="#000000" stroke-width="2" stroke-opacity="0.200000" points="273.52,-187.6 279.06,-184.49 272.79,-183.46 273.52,-187.6"/>
</g>
<!-- src/store/auth/authActions.js&#45;&gt;src/store/ui/uiSlice.js -->
<g id="edge71" class="edge">
<title>src/store/auth/authActions.js&#45;&gt;src/store/ui/uiSlice.js</title>
<path fill="none" stroke="#000000" stroke-width="2" stroke-opacity="0.200000" d="M685.61,-1227.73C704.83,-1226.9 728.29,-1223.54 747,-1213.63 750.67,-1211.68 764.77,-1195.5 775.63,-1182.66"/>
<polygon fill="#000000" fill-opacity="0.200000" stroke="#000000" stroke-width="2" stroke-opacity="0.200000" points="777.04,-1184.25 779.3,-1178.3 773.83,-1181.54 777.04,-1184.25"/>
</g>
<!-- src/store/auth/_srv.js -->
<g id="node43" class="node">
<title>src/store/auth/_srv.js</title>
<g id="a_node43"><a xlink:href="src/store/auth/_srv.js" xlink:title="_srv.js">
<path fill="#ffffcc" stroke="black" d="M811,-1235.63C811,-1235.63 769,-1235.63 769,-1235.63 766,-1235.63 763,-1232.63 763,-1229.63 763,-1229.63 763,-1223.63 763,-1223.63 763,-1220.63 766,-1217.63 769,-1217.63 769,-1217.63 811,-1217.63 811,-1217.63 814,-1217.63 817,-1220.63 817,-1223.63 817,-1223.63 817,-1229.63 817,-1229.63 817,-1232.63 814,-1235.63 811,-1235.63"/>
<text text-anchor="start" x="776" y="-1224.43" font-family="Helvetica,sans-Serif" font-size="9.00">_srv.js</text>
</a>
</g>
</g>
<!-- src/store/auth/authActions.js&#45;&gt;src/store/auth/_srv.js -->
<g id="edge72" class="edge">
<title>src/store/auth/authActions.js&#45;&gt;src/store/auth/_srv.js</title>
<path fill="none" stroke="#000000" stroke-width="2" stroke-opacity="0.200000" d="M685.79,-1226.63C703.55,-1226.63 725.1,-1226.63 743.91,-1226.63"/>
<polygon fill="#000000" fill-opacity="0.200000" stroke="#000000" stroke-width="2" stroke-opacity="0.200000" points="753.56,-1228.73 759.56,-1226.63 753.56,-1224.53 753.56,-1228.73"/>
<polyline fill="none" stroke="#000000" stroke-width="2" stroke-opacity="0.200000" points="752.56,-1226.63 749.56,-1226.63"/>
<ellipse fill="none" stroke="#000000" stroke-width="2" stroke-opacity="0.200000" cx="746.16" cy="-1226.63" rx="2.4" ry="2.4"/>
</g>
<!-- src/store/auth/authSlice.js -->
<g id="node44" class="node">
<title>src/store/auth/authSlice.js</title>
<g id="a_node44"><a xlink:href="src/store/auth/authSlice.js" xlink:title="authSlice.js">
<path fill="#ffffcc" stroke="black" d="M816.5,-1265.63C816.5,-1265.63 763.5,-1265.63 763.5,-1265.63 760.5,-1265.63 757.5,-1262.63 757.5,-1259.63 757.5,-1259.63 757.5,-1253.63 757.5,-1253.63 757.5,-1250.63 760.5,-1247.63 763.5,-1247.63 763.5,-1247.63 816.5,-1247.63 816.5,-1247.63 819.5,-1247.63 822.5,-1250.63 822.5,-1253.63 822.5,-1253.63 822.5,-1259.63 822.5,-1259.63 822.5,-1262.63 819.5,-1265.63 816.5,-1265.63"/>
<text text-anchor="start" x="765.5" y="-1254.43" font-family="Helvetica,sans-Serif" font-size="9.00">authSlice.js</text>
</a>
</g>
</g>
<!-- src/store/auth/authActions.js&#45;&gt;src/store/auth/authSlice.js -->
<g id="edge73" class="edge">
<title>src/store/auth/authActions.js&#45;&gt;src/store/auth/authSlice.js</title>
<path fill="none" stroke="#000000" stroke-width="2" stroke-opacity="0.200000" d="M685.79,-1234.43C704.97,-1238.56 728.58,-1243.63 748.37,-1247.89"/>
<polygon fill="#000000" fill-opacity="0.200000" stroke="#000000" stroke-width="2" stroke-opacity="0.200000" points="747.9,-1249.94 754.21,-1249.15 748.78,-1245.83 747.9,-1249.94"/>
</g>
<!-- src/assets/images/hero&#45;pattern.png -->
<g id="node9" class="node">
<title>src/assets/images/hero&#45;pattern.png</title>
<g id="a_node9"><a xlink:href="src/assets/images/hero-pattern.png" xlink:title="hero&#45;pattern.png">
<path fill="#ffffcc" stroke="black" d="M685,-641.63C685,-641.63 612,-641.63 612,-641.63 609,-641.63 606,-638.63 606,-635.63 606,-635.63 606,-629.63 606,-629.63 606,-626.63 609,-623.63 612,-623.63 612,-623.63 685,-623.63 685,-623.63 688,-623.63 691,-626.63 691,-629.63 691,-629.63 691,-635.63 691,-635.63 691,-638.63 688,-641.63 685,-641.63"/>
<text text-anchor="start" x="614" y="-630.43" font-family="Helvetica,sans-Serif" font-size="9.00">hero&#45;pattern.png</text>
</a>
</g>
</g>
<!-- src/assets/images/profile&#45;pic.jpg -->
<g id="node10" class="node">
<title>src/assets/images/profile&#45;pic.jpg</title>
<g id="a_node10"><a xlink:href="src/assets/images/profile-pic.jpg" xlink:title="profile&#45;pic.jpg">
<path fill="#ffffcc" stroke="black" d="M678.5,-671.63C678.5,-671.63 618.5,-671.63 618.5,-671.63 615.5,-671.63 612.5,-668.63 612.5,-665.63 612.5,-665.63 612.5,-659.63 612.5,-659.63 612.5,-656.63 615.5,-653.63 618.5,-653.63 618.5,-653.63 678.5,-653.63 678.5,-653.63 681.5,-653.63 684.5,-656.63 684.5,-659.63 684.5,-659.63 684.5,-665.63 684.5,-665.63 684.5,-668.63 681.5,-671.63 678.5,-671.63"/>
<text text-anchor="start" x="620.5" y="-660.43" font-family="Helvetica,sans-Serif" font-size="9.00">profile&#45;pic.jpg</text>
</a>
</g>
</g>
<!-- src/components/formInput/index.js -->
<g id="node11" class="node">
<title>src/components/formInput/index.js</title>
<g id="a_node11"><a xlink:href="src/components/formInput/index.js" xlink:title="index.js">
<path fill="#ffffcc" stroke="black" d="M484.5,-491.63C484.5,-491.63 442.5,-491.63 442.5,-491.63 439.5,-491.63 436.5,-488.63 436.5,-485.63 436.5,-485.63 436.5,-479.63 436.5,-479.63 436.5,-476.63 439.5,-473.63 442.5,-473.63 442.5,-473.63 484.5,-473.63 484.5,-473.63 487.5,-473.63 490.5,-476.63 490.5,-479.63 490.5,-479.63 490.5,-485.63 490.5,-485.63 490.5,-488.63 487.5,-491.63 484.5,-491.63"/>
<text text-anchor="start" x="447.5" y="-480.43" font-family="Helvetica,sans-Serif" font-size="9.00">index.js</text>
</a>
</g>
</g>
<!-- src/components/formInput/index.js&#45;&gt;src/assets/icons/index.js -->
<g id="edge7" class="edge">
<title>src/components/formInput/index.js&#45;&gt;src/assets/icons/index.js</title>
<path fill="none" stroke="#000000" stroke-width="2" stroke-opacity="0.200000" d="M486.5,-492.12C504.51,-499.99 530.59,-511.65 553,-522.63 576.96,-534.37 603.8,-548.68 622.74,-558.99"/>
<polygon fill="#000000" fill-opacity="0.200000" stroke="#000000" stroke-width="2" stroke-opacity="0.200000" points="621.66,-560.79 627.94,-561.82 623.68,-557.1 621.66,-560.79"/>
</g>
<!-- src/components/search/index.js&#45;&gt;src/assets/icons/index.js -->
<g id="edge9" class="edge">
<title>src/components/search/index.js&#45;&gt;src/assets/icons/index.js</title>
<path fill="none" stroke="#000000" stroke-width="2" stroke-opacity="0.200000" d="M490.8,-661.97C509.97,-660.21 535.54,-655.04 553,-640.63 563.58,-631.9 556.4,-622.43 566,-612.63 578.96,-599.39 597.19,-589.88 613.13,-583.46"/>
<polygon fill="#000000" fill-opacity="0.200000" stroke="#000000" stroke-width="2" stroke-opacity="0.200000" points="613.52,-585.55 618.38,-581.46 612.03,-581.63 613.52,-585.55"/>
</g>
<!-- src/components/survayCard/index.js -->
<g id="node13" class="node">
<title>src/components/survayCard/index.js</title>
<g id="a_node13"><a xlink:href="src/components/survayCard/index.js" xlink:title="index.js">
<path fill="#ffffcc" stroke="black" d="M484.5,-551.63C484.5,-551.63 442.5,-551.63 442.5,-551.63 439.5,-551.63 436.5,-548.63 436.5,-545.63 436.5,-545.63 436.5,-539.63 436.5,-539.63 436.5,-536.63 439.5,-533.63 442.5,-533.63 442.5,-533.63 484.5,-533.63 484.5,-533.63 487.5,-533.63 490.5,-536.63 490.5,-539.63 490.5,-539.63 490.5,-545.63 490.5,-545.63 490.5,-548.63 487.5,-551.63 484.5,-551.63"/>
<text text-anchor="start" x="447.5" y="-540.43" font-family="Helvetica,sans-Serif" font-size="9.00">index.js</text>
</a>
</g>
</g>
<!-- src/components/survayCard/index.js&#45;&gt;src/assets/icons/index.js -->
<g id="edge10" class="edge">
<title>src/components/survayCard/index.js&#45;&gt;src/assets/icons/index.js</title>
<path fill="none" stroke="#000000" stroke-width="2" stroke-opacity="0.200000" d="M490.72,-546.93C522.7,-552.17 576.88,-561.05 612.42,-566.88"/>
<polygon fill="#000000" fill-opacity="0.200000" stroke="#000000" stroke-width="2" stroke-opacity="0.200000" points="611.78,-568.9 618.05,-567.8 612.46,-564.76 611.78,-568.9"/>
</g>
<!-- src/data/cardsInfo.js -->
<g id="node14" class="node">
<title>src/data/cardsInfo.js</title>
<g id="a_node14"><a xlink:href="src/data/cardsInfo.js" xlink:title="cardsInfo.js">
<path fill="#ffffcc" stroke="black" d="M490,-847.63C490,-847.63 437,-847.63 437,-847.63 434,-847.63 431,-844.63 431,-841.63 431,-841.63 431,-835.63 431,-835.63 431,-832.63 434,-829.63 437,-829.63 437,-829.63 490,-829.63 490,-829.63 493,-829.63 496,-832.63 496,-835.63 496,-835.63 496,-841.63 496,-841.63 496,-844.63 493,-847.63 490,-847.63"/>
<text text-anchor="start" x="439" y="-836.43" font-family="Helvetica,sans-Serif" font-size="9.00">cardsInfo.js</text>
</a>
</g>
</g>
<!-- src/pages/dashboard/Recent.js -->
<g id="node32" class="node">
<title>src/pages/dashboard/Recent.js</title>
<g id="a_node32"><a xlink:href="src/pages/dashboard/Recent.js" xlink:title="Recent.js">
<path fill="#ffffcc" stroke="black" d="M335.5,-277.63C335.5,-277.63 291.5,-277.63 291.5,-277.63 288.5,-277.63 285.5,-274.63 285.5,-271.63 285.5,-271.63 285.5,-265.63 285.5,-265.63 285.5,-262.63 288.5,-259.63 291.5,-259.63 291.5,-259.63 335.5,-259.63 335.5,-259.63 338.5,-259.63 341.5,-262.63 341.5,-265.63 341.5,-265.63 341.5,-271.63 341.5,-271.63 341.5,-274.63 338.5,-277.63 335.5,-277.63"/>
<text text-anchor="start" x="293.5" y="-266.43" font-family="Helvetica,sans-Serif" font-size="9.00">Recent.js</text>
</a>
</g>
</g>
<!-- src/pages/dashboard/index.js&#45;&gt;src/pages/dashboard/Recent.js -->
<g id="edge50" class="edge">
<title>src/pages/dashboard/index.js&#45;&gt;src/pages/dashboard/Recent.js</title>
<path fill="none" stroke="#000000" stroke-width="2" stroke-opacity="0.200000" d="M238.19,-304.27C246.33,-297.81 257.85,-289.38 269,-283.63 271.56,-282.31 274.25,-281.07 277,-279.9"/>
<polygon fill="#000000" fill-opacity="0.200000" stroke="#000000" stroke-width="2" stroke-opacity="0.200000" points="277.67,-281.89 282.49,-277.75 276.14,-277.98 277.67,-281.89"/>
</g>
<!-- src/pages/dashboard/Survay.js -->
<g id="node35" class="node">
<title>src/pages/dashboard/Survay.js</title>
<g id="a_node35"><a xlink:href="src/pages/dashboard/Survay.js" xlink:title="Survay.js">
<path fill="#ffffcc" stroke="black" d="M334.5,-337.63C334.5,-337.63 292.5,-337.63 292.5,-337.63 289.5,-337.63 286.5,-334.63 286.5,-331.63 286.5,-331.63 286.5,-325.63 286.5,-325.63 286.5,-322.63 289.5,-319.63 292.5,-319.63 292.5,-319.63 334.5,-319.63 334.5,-319.63 337.5,-319.63 340.5,-322.63 340.5,-325.63 340.5,-325.63 340.5,-331.63 340.5,-331.63 340.5,-334.63 337.5,-337.63 334.5,-337.63"/>
<text text-anchor="start" x="295" y="-326.43" font-family="Helvetica,sans-Serif" font-size="9.00">Survay.js</text>
</a>
</g>
</g>
<!-- src/pages/dashboard/index.js&#45;&gt;src/pages/dashboard/Survay.js -->
<g id="edge51" class="edge">
<title>src/pages/dashboard/index.js&#45;&gt;src/pages/dashboard/Survay.js</title>
<path fill="none" stroke="#000000" stroke-width="2" stroke-opacity="0.200000" d="M253.12,-318.21C260.84,-319.56 269.41,-321.07 277.59,-322.5"/>
<polygon fill="#000000" fill-opacity="0.200000" stroke="#000000" stroke-width="2" stroke-opacity="0.200000" points="276.99,-324.53 283.27,-323.5 277.72,-320.39 276.99,-324.53"/>
</g>
<!-- src/pages/dashboard/Top.js -->
<g id="node36" class="node">
<title>src/pages/dashboard/Top.js</title>
<g id="a_node36"><a xlink:href="src/pages/dashboard/Top.js" xlink:title="Top.js">
<path fill="#ffffcc" stroke="black" d="M334.5,-307.63C334.5,-307.63 292.5,-307.63 292.5,-307.63 289.5,-307.63 286.5,-304.63 286.5,-301.63 286.5,-301.63 286.5,-295.63 286.5,-295.63 286.5,-292.63 289.5,-289.63 292.5,-289.63 292.5,-289.63 334.5,-289.63 334.5,-289.63 337.5,-289.63 340.5,-292.63 340.5,-295.63 340.5,-295.63 340.5,-301.63 340.5,-301.63 340.5,-304.63 337.5,-307.63 334.5,-307.63"/>
<text text-anchor="start" x="300.5" y="-296.43" font-family="Helvetica,sans-Serif" font-size="9.00">Top.js</text>
</a>
</g>
</g>
<!-- src/pages/dashboard/index.js&#45;&gt;src/pages/dashboard/Top.js -->
<g id="edge52" class="edge">
<title>src/pages/dashboard/index.js&#45;&gt;src/pages/dashboard/Top.js</title>
<path fill="none" stroke="#000000" stroke-width="2" stroke-opacity="0.200000" d="M253.12,-309.05C260.84,-307.69 269.41,-306.19 277.59,-304.75"/>
<polygon fill="#000000" fill-opacity="0.200000" stroke="#000000" stroke-width="2" stroke-opacity="0.200000" points="277.72,-306.86 283.27,-303.76 276.99,-302.72 277.72,-306.86"/>
</g>
<!-- src/data/routesWithoutMainLoader.js -->
<g id="node17" class="node">
<title>src/data/routesWithoutMainLoader.js</title>
<g id="a_node17"><a xlink:href="src/data/routesWithoutMainLoader.js" xlink:title="routesWithoutMainLoader.js">
<path fill="#ffffcc" stroke="black" d="M523.5,-907.63C523.5,-907.63 403.5,-907.63 403.5,-907.63 400.5,-907.63 397.5,-904.63 397.5,-901.63 397.5,-901.63 397.5,-895.63 397.5,-895.63 397.5,-892.63 400.5,-889.63 403.5,-889.63 403.5,-889.63 523.5,-889.63 523.5,-889.63 526.5,-889.63 529.5,-892.63 529.5,-895.63 529.5,-895.63 529.5,-901.63 529.5,-901.63 529.5,-904.63 526.5,-907.63 523.5,-907.63"/>
<text text-anchor="start" x="405.5" y="-896.43" font-family="Helvetica,sans-Serif" font-size="9.00">routesWithoutMainLoader.js</text>
</a>
</g>
</g>
<!-- src/hooks/useUsernameValidation.js -->
<g id="node19" class="node">
<title>src/hooks/useUsernameValidation.js</title>
<g id="a_node19"><a xlink:href="src/hooks/useUsernameValidation.js" xlink:title="useUsernameValidation.js">
<path fill="#ffffcc" stroke="black" d="M521,-757.63C521,-757.63 406,-757.63 406,-757.63 403,-757.63 400,-754.63 400,-751.63 400,-751.63 400,-745.63 400,-745.63 400,-742.63 403,-739.63 406,-739.63 406,-739.63 521,-739.63 521,-739.63 524,-739.63 527,-742.63 527,-745.63 527,-745.63 527,-751.63 527,-751.63 527,-754.63 524,-757.63 521,-757.63"/>
<text text-anchor="start" x="408" y="-746.43" font-family="Helvetica,sans-Serif" font-size="9.00">useUsernameValidation.js</text>
</a>
</g>
</g>
<!-- src/index.css -->
<g id="node20" class="node">
<title>src/index.css</title>
<g id="a_node20"><a xlink:href="src/index.css" xlink:title="index.css">
<path fill="#ffffcc" stroke="black" d="M151,-1312.63C151,-1312.63 107,-1312.63 107,-1312.63 104,-1312.63 101,-1309.63 101,-1306.63 101,-1306.63 101,-1300.63 101,-1300.63 101,-1297.63 104,-1294.63 107,-1294.63 107,-1294.63 151,-1294.63 151,-1294.63 154,-1294.63 157,-1297.63 157,-1300.63 157,-1300.63 157,-1306.63 157,-1306.63 157,-1309.63 154,-1312.63 151,-1312.63"/>
<text text-anchor="start" x="109" y="-1301.43" font-family="Helvetica,sans-Serif" font-size="9.00">index.css</text>
</a>
</g>
</g>
<!-- src/index.js -->
<g id="node21" class="node">
<title>src/index.js</title>
<g id="a_node21"><a xlink:href="src/index.js" xlink:title="index.js">
<path fill="#ffffcc" stroke="black" d="M64,-1327.63C64,-1327.63 22,-1327.63 22,-1327.63 19,-1327.63 16,-1324.63 16,-1321.63 16,-1321.63 16,-1315.63 16,-1315.63 16,-1312.63 19,-1309.63 22,-1309.63 22,-1309.63 64,-1309.63 64,-1309.63 67,-1309.63 70,-1312.63 70,-1315.63 70,-1315.63 70,-1321.63 70,-1321.63 70,-1324.63 67,-1327.63 64,-1327.63"/>
<text text-anchor="start" x="27" y="-1316.43" font-family="Helvetica,sans-Serif" font-size="9.00">index.js</text>
</a>
</g>
</g>
<!-- src/index.js&#45;&gt;src/App.js -->
<g id="edge14" class="edge">
<title>src/index.js&#45;&gt;src/App.js</title>
<path fill="none" stroke="#000000" stroke-width="2" stroke-opacity="0.200000" d="M50.04,-1309.42C64.08,-1288.03 99.07,-1234.72 117.01,-1207.38"/>
<polygon fill="#000000" fill-opacity="0.200000" stroke="#000000" stroke-width="2" stroke-opacity="0.200000" points="118.59,-1208.79 120.13,-1202.63 115.08,-1206.49 118.59,-1208.79"/>
</g>
<!-- src/index.js&#45;&gt;src/index.css -->
<g id="edge15" class="edge">
<title>src/index.js&#45;&gt;src/index.css</title>
<path fill="none" stroke="#000000" stroke-width="2" stroke-opacity="0.200000" d="M70.12,-1313.96C77.11,-1312.72 84.79,-1311.34 92.21,-1310.02"/>
<polygon fill="#000000" fill-opacity="0.200000" stroke="#000000" stroke-width="2" stroke-opacity="0.200000" points="92.22,-1312.15 97.76,-1309.03 91.48,-1308.02 92.22,-1312.15"/>
</g>
<!-- src/reportWebVitals.js -->
<g id="node22" class="node">
<title>src/reportWebVitals.js</title>
<g id="a_node22"><a xlink:href="src/reportWebVitals.js" xlink:title="reportWebVitals.js">
<path fill="#ffffcc" stroke="black" d="M169,-1342.63C169,-1342.63 89,-1342.63 89,-1342.63 86,-1342.63 83,-1339.63 83,-1336.63 83,-1336.63 83,-1330.63 83,-1330.63 83,-1327.63 86,-1324.63 89,-1324.63 89,-1324.63 169,-1324.63 169,-1324.63 172,-1324.63 175,-1327.63 175,-1330.63 175,-1330.63 175,-1336.63 175,-1336.63 175,-1339.63 172,-1342.63 169,-1342.63"/>
<text text-anchor="start" x="91" y="-1331.43" font-family="Helvetica,sans-Serif" font-size="9.00">reportWebVitals.js</text>
</a>
</g>
</g>
<!-- src/index.js&#45;&gt;src/reportWebVitals.js -->
<g id="edge16" class="edge">
<title>src/index.js&#45;&gt;src/reportWebVitals.js</title>
<path fill="none" stroke="#000000" stroke-width="2" stroke-opacity="0.200000" d="M70.12,-1323.29C71.38,-1323.52 72.67,-1323.75 73.97,-1323.98"/>
<polygon fill="#000000" fill-opacity="0.200000" stroke="#000000" stroke-width="2" stroke-opacity="0.200000" points="73.51,-1326.03 79.78,-1325.02 74.24,-1321.9 73.51,-1326.03"/>
</g>
<!-- src/store/index.js -->
<g id="node23" class="node">
<title>src/store/index.js</title>
<g id="a_node23"><a xlink:href="src/store/index.js" xlink:title="index.js">
<path fill="#ffffcc" stroke="black" d="M669.5,-1175.63C669.5,-1175.63 627.5,-1175.63 627.5,-1175.63 624.5,-1175.63 621.5,-1172.63 621.5,-1169.63 621.5,-1169.63 621.5,-1163.63 621.5,-1163.63 621.5,-1160.63 624.5,-1157.63 627.5,-1157.63 627.5,-1157.63 669.5,-1157.63 669.5,-1157.63 672.5,-1157.63 675.5,-1160.63 675.5,-1163.63 675.5,-1163.63 675.5,-1169.63 675.5,-1169.63 675.5,-1172.63 672.5,-1175.63 669.5,-1175.63"/>
<text text-anchor="start" x="632.5" y="-1164.43" font-family="Helvetica,sans-Serif" font-size="9.00">index.js</text>
</a>
</g>
</g>
<!-- src/index.js&#45;&gt;src/store/index.js -->
<g id="edge17" class="edge">
<title>src/index.js&#45;&gt;src/store/index.js</title>
<path fill="none" stroke="#000000" stroke-width="2" stroke-opacity="0.200000" d="M51.12,-1328.04C73.4,-1356.33 145.07,-1438.63 225,-1438.63 225,-1438.63 225,-1438.63 314.5,-1438.63 423.8,-1438.63 482.59,-1462.24 553,-1378.63 577.69,-1349.31 544.52,-1238.37 566,-1206.63 576.86,-1190.59 596.07,-1180.73 613.12,-1174.81"/>
<polygon fill="#000000" fill-opacity="0.200000" stroke="#000000" stroke-width="2" stroke-opacity="0.200000" points="613.3,-1176.96 618.38,-1173.14 612.03,-1172.96 613.3,-1176.96"/>
</g>
<!-- src/store/index.js&#45;&gt;src/store/ui/uiSlice.js -->
<g id="edge75" class="edge">
<title>src/store/index.js&#45;&gt;src/store/ui/uiSlice.js</title>
<path fill="none" stroke="#000000" stroke-width="2" stroke-opacity="0.200000" d="M675.74,-1166.63C697.85,-1166.63 729.69,-1166.63 753.97,-1166.63"/>
<polygon fill="#000000" fill-opacity="0.200000" stroke="#000000" stroke-width="2" stroke-opacity="0.200000" points="753.85,-1168.73 759.85,-1166.63 753.85,-1164.53 753.85,-1168.73"/>
</g>
<!-- src/store/index.js&#45;&gt;src/store/auth/authSlice.js -->
<g id="edge74" class="edge">
<title>src/store/index.js&#45;&gt;src/store/auth/authSlice.js</title>
<path fill="none" stroke="#000000" stroke-width="2" stroke-opacity="0.200000" d="M675.8,-1170.56C698.02,-1175.29 729.02,-1185.41 747,-1206.63 755.87,-1217.09 747.9,-1226.33 755.98,-1240.14"/>
<polygon fill="#000000" fill-opacity="0.200000" stroke="#000000" stroke-width="2" stroke-opacity="0.200000" points="754.28,-1241.36 759.56,-1244.89 757.63,-1238.84 754.28,-1241.36"/>
</g>
<!-- src/layout/header/PageTitle.js&#45;&gt;src/assets/icons/index.js -->
<g id="edge18" class="edge">
<title>src/layout/header/PageTitle.js&#45;&gt;src/assets/icons/index.js</title>
<path fill="none" stroke="#000000" stroke-width="2" stroke-opacity="0.200000" d="M346.08,-1214.91C350.73,-1212.73 354.96,-1209.74 358,-1205.63 373.78,-1184.25 347.81,-985.99 366,-966.63 394.58,-936.2 524.34,-978.98 553,-948.63 578.65,-921.46 545.63,-643.95 566,-612.63 576.56,-596.39 595.76,-586.52 612.88,-580.65"/>
<polygon fill="#000000" fill-opacity="0.200000" stroke="#000000" stroke-width="2" stroke-opacity="0.200000" points="613.08,-582.79 618.17,-578.99 611.82,-578.78 613.08,-582.79"/>
</g>
<!-- src/layout/header/PageTitle.js&#45;&gt;src/store/ui/uiSlice.js -->
<g id="edge19" class="edge">
<title>src/layout/header/PageTitle.js&#45;&gt;src/store/ui/uiSlice.js</title>
<path fill="none" stroke="#000000" stroke-width="2" stroke-opacity="0.200000" d="M346.3,-1216.73C396.16,-1212.44 493.22,-1211.7 553,-1260.63 565.52,-1270.87 552.67,-1285.46 566,-1294.63 582.57,-1306.03 732.15,-1308.19 747,-1294.63 761.5,-1281.39 747.4,-1224.73 755,-1206.63 758.81,-1197.55 765.46,-1189.01 771.87,-1182.18"/>
<polygon fill="#000000" fill-opacity="0.200000" stroke="#000000" stroke-width="2" stroke-opacity="0.200000" points="773.2,-1183.82 775.95,-1178.09 770.22,-1180.85 773.2,-1183.82"/>
</g>
<!-- src/utils/removeSlashAndCapitalizeFirstLetter.js -->
<g id="node26" class="node">
<title>src/utils/removeSlashAndCapitalizeFirstLetter.js</title>
<g id="a_node26"><a xlink:href="src/utils/removeSlashAndCapitalizeFirstLetter.js" xlink:title="removeSlashAndCapitalizeFirstLetter.js">
<path fill="#ffffcc" stroke="black" d="M547,-1047.63C547,-1047.63 380,-1047.63 380,-1047.63 377,-1047.63 374,-1044.63 374,-1041.63 374,-1041.63 374,-1035.63 374,-1035.63 374,-1032.63 377,-1029.63 380,-1029.63 380,-1029.63 547,-1029.63 547,-1029.63 550,-1029.63 553,-1032.63 553,-1035.63 553,-1035.63 553,-1041.63 553,-1041.63 553,-1044.63 550,-1047.63 547,-1047.63"/>
<text text-anchor="start" x="382" y="-1036.43" font-family="Helvetica,sans-Serif" font-size="9.00">removeSlashAndCapitalizeFirstLetter.js</text>
</a>
</g>
</g>
<!-- src/layout/header/PageTitle.js&#45;&gt;src/utils/removeSlashAndCapitalizeFirstLetter.js -->
<g id="edge20" class="edge">
<title>src/layout/header/PageTitle.js&#45;&gt;src/utils/removeSlashAndCapitalizeFirstLetter.js</title>
<path fill="none" stroke="#000000" stroke-width="2" stroke-opacity="0.200000" d="M346.45,-1214.66C350.93,-1212.5 355.02,-1209.58 358,-1205.63 368.24,-1192.03 354.53,-1065.2 366,-1052.63 366.45,-1052.14 366.91,-1051.65 367.37,-1051.19"/>
<polygon fill="#000000" fill-opacity="0.200000" stroke="#000000" stroke-width="2" stroke-opacity="0.200000" points="368.33,-1053.13 371.58,-1047.66 365.63,-1049.91 368.33,-1053.13"/>
</g>
<!-- src/layout/header/Profile.js&#45;&gt;src/store/auth/authActions.js -->
<g id="edge25" class="edge">
<title>src/layout/header/Profile.js&#45;&gt;src/store/auth/authActions.js</title>
<path fill="none" stroke="#000000" stroke-width="2" stroke-opacity="0.200000" d="M340.91,-1193.48C397.7,-1199.62 532.02,-1214.14 602.51,-1221.76"/>
<polygon fill="#000000" fill-opacity="0.200000" stroke="#000000" stroke-width="2" stroke-opacity="0.200000" points="602,-1223.82 608.19,-1222.38 602.45,-1219.65 602,-1223.82"/>
</g>
<!-- src/layout/header/Profile.js&#45;&gt;src/assets/icons/index.js -->
<g id="edge21" class="edge">
<title>src/layout/header/Profile.js&#45;&gt;src/assets/icons/index.js</title>
<path fill="none" stroke="#000000" stroke-width="2" stroke-opacity="0.200000" d="M316.94,-1181.44C324.02,-1154.57 344.89,-1073.66 358,-1005.63 360.25,-993.93 357.31,-960.77 366,-952.63 396.43,-924.1 524.18,-966.78 553,-936.63 577.89,-910.58 546.34,-642.82 566,-612.63 576.57,-596.4 595.77,-586.53 612.89,-580.66"/>
<polygon fill="#000000" fill-opacity="0.200000" stroke="#000000" stroke-width="2" stroke-opacity="0.200000" points="613.09,-582.8 618.18,-579 611.83,-578.79 613.09,-582.8"/>
</g>
<!-- src/layout/header/Profile.js&#45;&gt;src/assets/images/profile&#45;pic.jpg -->
<g id="edge22" class="edge">
<title>src/layout/header/Profile.js&#45;&gt;src/assets/images/profile&#45;pic.jpg</title>
<path fill="none" stroke="#000000" stroke-width="2" stroke-opacity="0.200000" d="M315.7,-1181.23C320.41,-1145.92 338.68,-1021.79 366,-994.63 426.85,-934.13 490.24,-1005.14 553,-946.63 632.28,-872.71 645.1,-730.7 647.13,-680.63"/>
<polygon fill="#000000" fill-opacity="0.200000" stroke="#000000" stroke-width="2" stroke-opacity="0.200000" points="649.22,-680.98 647.32,-674.92 645.03,-680.85 649.22,-680.98"/>
</g>
<!-- src/layout/header/Profile.js&#45;&gt;src/components/search/index.js -->
<g id="edge23" class="edge">
<title>src/layout/header/Profile.js&#45;&gt;src/components/search/index.js</title>
<path fill="none" stroke="#000000" stroke-width="2" stroke-opacity="0.200000" d="M315.06,-1181.48C318.89,-1120.08 341.74,-769.01 366,-728.63 380.74,-704.1 408.51,-686.57 430.49,-675.77"/>
<polygon fill="#000000" fill-opacity="0.200000" stroke="#000000" stroke-width="2" stroke-opacity="0.200000" points="431.32,-677.7 435.85,-673.25 429.53,-673.9 431.32,-677.7"/>
</g>
<!-- src/layout/header/Profile.js&#45;&gt;src/hooks/useOutsideAlerter.js -->
<g id="edge24" class="edge">
<title>src/layout/header/Profile.js&#45;&gt;src/hooks/useOutsideAlerter.js</title>
<path fill="none" stroke="#000000" stroke-width="2" stroke-opacity="0.200000" d="M319.81,-1181.36C329.56,-1163.77 350.06,-1124.04 358,-1087.63 361.18,-1073.02 357.51,-830.94 366,-818.63 375.12,-805.4 389.49,-796.54 404.38,-790.6"/>
<polygon fill="#000000" fill-opacity="0.200000" stroke="#000000" stroke-width="2" stroke-opacity="0.200000" points="404.9,-792.65 409.82,-788.63 403.47,-788.7 404.9,-792.65"/>
</g>
<!-- src/layout/menu/Logo.js&#45;&gt;src/assets/icons/index.js -->
<g id="edge29" class="edge">
<title>src/layout/menu/Logo.js&#45;&gt;src/assets/icons/index.js</title>
<path fill="none" stroke="#000000" stroke-width="2" stroke-opacity="0.200000" d="M340.74,-1307.05C347.4,-1304.84 353.84,-1301.3 358,-1295.63 377.78,-1268.65 344.16,-1019.97 366,-994.63 421.1,-930.7 497.56,-1025.26 553,-961.63 578.49,-932.37 544.87,-645.17 566,-612.63 576.55,-596.38 595.75,-586.52 612.87,-580.65"/>
<polygon fill="#000000" fill-opacity="0.200000" stroke="#000000" stroke-width="2" stroke-opacity="0.200000" points="613.07,-582.79 618.17,-578.99 611.81,-578.78 613.07,-582.79"/>
</g>
<!-- src/layout/menu/Logo.js&#45;&gt;src/store/ui/uiSlice.js -->
<g id="edge30" class="edge">
<title>src/layout/menu/Logo.js&#45;&gt;src/store/ui/uiSlice.js</title>
<path fill="none" stroke="#000000" stroke-width="2" stroke-opacity="0.200000" d="M340.73,-1307.05C347.4,-1304.83 353.84,-1301.29 358,-1295.63 367.12,-1283.22 354.96,-1029.36 366,-1018.63 426.97,-959.4 681.75,-998.15 747,-1052.63 776,-1076.84 784.98,-1122.98 787.76,-1148.51"/>
<polygon fill="#000000" fill-opacity="0.200000" stroke="#000000" stroke-width="2" stroke-opacity="0.200000" points="785.64,-1148.4 788.27,-1154.18 789.82,-1148.02 785.64,-1148.4"/>
</g>
<!-- src/layout/menu/Logout.js&#45;&gt;src/store/auth/authActions.js -->
<g id="edge32" class="edge">
<title>src/layout/menu/Logout.js&#45;&gt;src/store/auth/authActions.js</title>
<path fill="none" stroke="#000000" stroke-width="2" stroke-opacity="0.200000" d="M341.34,-1335.95C347.52,-1333.73 353.57,-1330.46 358,-1325.63 367.91,-1314.82 355.58,-1303.94 366,-1293.63 429.5,-1230.84 540.54,-1222.94 602.48,-1223.98"/>
<polygon fill="#000000" fill-opacity="0.200000" stroke="#000000" stroke-width="2" stroke-opacity="0.200000" points="602.18,-1226.08 608.23,-1224.12 602.28,-1221.88 602.18,-1226.08"/>
</g>
<!-- src/layout/menu/Logout.js&#45;&gt;src/assets/icons/index.js -->
<g id="edge31" class="edge">
<title>src/layout/menu/Logout.js&#45;&gt;src/assets/icons/index.js</title>
<path fill="none" stroke="#000000" stroke-width="2" stroke-opacity="0.200000" d="M341.2,-1336.9C347.7,-1334.68 353.94,-1331.17 358,-1325.63 378.17,-1298.1 344,-1044.71 366,-1018.63 420.63,-953.87 498.08,-1046.13 553,-981.63 579.6,-950.39 543.69,-647.06 566,-612.63 576.53,-596.37 595.73,-586.51 612.85,-580.64"/>
<polygon fill="#000000" fill-opacity="0.200000" stroke="#000000" stroke-width="2" stroke-opacity="0.200000" points="613.06,-582.78 618.16,-578.98 611.8,-578.77 613.06,-582.78"/>
</g>
<!-- src/layout/menu/MenuContainer.js&#45;&gt;src/data/menuItems.js -->
<g id="edge33" class="edge">
<title>src/layout/menu/MenuContainer.js&#45;&gt;src/data/menuItems.js</title>
<path fill="none" stroke="#000000" stroke-width="2" stroke-opacity="0.200000" d="M343.69,-1271.37C349.35,-1268.22 354.57,-1264.07 358,-1258.63 369.1,-1240.99 352.28,-899.31 366,-883.63 378.57,-869.26 398.75,-864.63 417.41,-863.95"/>
<polygon fill="#000000" fill-opacity="0.200000" stroke="#000000" stroke-width="2" stroke-opacity="0.200000" points="417.39,-866.05 423.38,-863.92 417.37,-861.85 417.39,-866.05"/>
</g>
<!-- src/layout/menu/MenuItems.js -->
<g id="node31" class="node">
<title>src/layout/menu/MenuItems.js</title>
<g id="a_node31"><a xlink:href="src/layout/menu/MenuItems.js" xlink:title="MenuItems.js">
<path fill="#ffffcc" stroke="black" d="M493.5,-1317.63C493.5,-1317.63 433.5,-1317.63 433.5,-1317.63 430.5,-1317.63 427.5,-1314.63 427.5,-1311.63 427.5,-1311.63 427.5,-1305.63 427.5,-1305.63 427.5,-1302.63 430.5,-1299.63 433.5,-1299.63 433.5,-1299.63 493.5,-1299.63 493.5,-1299.63 496.5,-1299.63 499.5,-1302.63 499.5,-1305.63 499.5,-1305.63 499.5,-1311.63 499.5,-1311.63 499.5,-1314.63 496.5,-1317.63 493.5,-1317.63"/>
<text text-anchor="start" x="435.5" y="-1306.43" font-family="Helvetica,sans-Serif" font-size="9.00">MenuItems.js</text>
</a>
</g>
</g>
<!-- src/layout/menu/MenuContainer.js&#45;&gt;src/layout/menu/MenuItems.js -->
<g id="edge34" class="edge">
<title>src/layout/menu/MenuContainer.js&#45;&gt;src/layout/menu/MenuItems.js</title>
<path fill="none" stroke="#000000" stroke-width="2" stroke-opacity="0.200000" d="M358.1,-1288.88C377.1,-1292.47 399.32,-1296.67 418.37,-1300.28"/>
<polygon fill="#000000" fill-opacity="0.200000" stroke="#000000" stroke-width="2" stroke-opacity="0.200000" points="417.9,-1302.33 424.18,-1301.38 418.68,-1298.2 417.9,-1302.33"/>
</g>
<!-- src/layout/menu/MenuItems.js&#45;&gt;src/store/ui/uiSlice.js -->
<g id="edge35" class="edge">
<title>src/layout/menu/MenuItems.js&#45;&gt;src/store/ui/uiSlice.js</title>
<path fill="none" stroke="#000000" stroke-width="2" stroke-opacity="0.200000" d="M489.67,-1318.04C544.54,-1336.73 675.7,-1371.29 747,-1304.63 762.96,-1289.71 746.63,-1226.81 755,-1206.63 758.77,-1197.53 765.41,-1188.99 771.83,-1182.16"/>
<polygon fill="#000000" fill-opacity="0.200000" stroke="#000000" stroke-width="2" stroke-opacity="0.200000" points="773.16,-1183.8 775.92,-1178.08 770.19,-1180.83 773.16,-1183.8"/>
</g>
<!-- src/pages/dashboard/Recent.js&#45;&gt;src/assets/icons/index.js -->
<g id="edge41" class="edge">
<title>src/pages/dashboard/Recent.js&#45;&gt;src/assets/icons/index.js</title>
<path fill="none" stroke="#000000" stroke-width="2" stroke-opacity="0.200000" d="M341.71,-260.2C348.04,-256.96 354.07,-252.55 358,-246.63 372.52,-224.72 346.8,-146.57 366,-128.63 381.18,-114.44 536.85,-115.55 553,-128.63 621,-183.68 642.13,-477.23 646.54,-554.16"/>
<polygon fill="#000000" fill-opacity="0.200000" stroke="#000000" stroke-width="2" stroke-opacity="0.200000" points="644.44,-554.27 646.87,-560.15 648.64,-554.04 644.44,-554.27"/>
</g>
<!-- src/pages/dashboard/_srv.js -->
<g id="node33" class="node">
<title>src/pages/dashboard/_srv.js</title>
<g id="a_node33"><a xlink:href="src/pages/dashboard/_srv.js" xlink:title="_srv.js">
<path fill="#ffffcc" stroke="black" d="M484.5,-307.63C484.5,-307.63 442.5,-307.63 442.5,-307.63 439.5,-307.63 436.5,-304.63 436.5,-301.63 436.5,-301.63 436.5,-295.63 436.5,-295.63 436.5,-292.63 439.5,-289.63 442.5,-289.63 442.5,-289.63 484.5,-289.63 484.5,-289.63 487.5,-289.63 490.5,-292.63 490.5,-295.63 490.5,-295.63 490.5,-301.63 490.5,-301.63 490.5,-304.63 487.5,-307.63 484.5,-307.63"/>
<text text-anchor="start" x="449.5" y="-296.43" font-family="Helvetica,sans-Serif" font-size="9.00">_srv.js</text>
</a>
</g>
</g>
<!-- src/pages/dashboard/Recent.js&#45;&gt;src/pages/dashboard/_srv.js -->
<g id="edge42" class="edge">
<title>src/pages/dashboard/Recent.js&#45;&gt;src/pages/dashboard/_srv.js</title>
<path fill="none" stroke="#000000" stroke-width="2" stroke-opacity="0.200000" d="M341.86,-277.31C349.61,-279.57 358.09,-281.87 366,-283.63 386.1,-288.1 408.86,-291.7 427.22,-294.26"/>
<polygon fill="#000000" fill-opacity="0.200000" stroke="#000000" stroke-width="2" stroke-opacity="0.200000" points="426.89,-296.33 433.12,-295.06 427.45,-292.17 426.89,-296.33"/>
</g>
<!-- src/pages/dashboard/RecentItem.js -->
<g id="node34" class="node">
<title>src/pages/dashboard/RecentItem.js</title>
<g id="a_node34"><a xlink:href="src/pages/dashboard/RecentItem.js" xlink:title="RecentItem.js">
<path fill="#ffffcc" stroke="black" d="M494.5,-277.63C494.5,-277.63 432.5,-277.63 432.5,-277.63 429.5,-277.63 426.5,-274.63 426.5,-271.63 426.5,-271.63 426.5,-265.63 426.5,-265.63 426.5,-262.63 429.5,-259.63 432.5,-259.63 432.5,-259.63 494.5,-259.63 494.5,-259.63 497.5,-259.63 500.5,-262.63 500.5,-265.63 500.5,-265.63 500.5,-271.63 500.5,-271.63 500.5,-274.63 497.5,-277.63 494.5,-277.63"/>
<text text-anchor="start" x="434.5" y="-266.43" font-family="Helvetica,sans-Serif" font-size="9.00">RecentItem.js</text>
</a>
</g>
</g>
<!-- src/pages/dashboard/Recent.js&#45;&gt;src/pages/dashboard/RecentItem.js -->
<g id="edge43" class="edge">
<title>src/pages/dashboard/Recent.js&#45;&gt;src/pages/dashboard/RecentItem.js</title>
<path fill="none" stroke="#000000" stroke-width="2" stroke-opacity="0.200000" d="M341.99,-268.63C363.14,-268.63 392.8,-268.63 417.4,-268.63"/>
<polygon fill="#000000" fill-opacity="0.200000" stroke="#000000" stroke-width="2" stroke-opacity="0.200000" points="417.19,-270.73 423.19,-268.63 417.19,-266.53 417.19,-270.73"/>
</g>
<!-- src/utils/ajax/index.js -->
<g id="node38" class="node">
<title>src/utils/ajax/index.js</title>
<g id="a_node38"><a xlink:href="src/utils/ajax/index.js" xlink:title="index.js">
<path fill="#ffffcc" stroke="black" d="M484.5,-1081.63C484.5,-1081.63 442.5,-1081.63 442.5,-1081.63 439.5,-1081.63 436.5,-1078.63 436.5,-1075.63 436.5,-1075.63 436.5,-1069.63 436.5,-1069.63 436.5,-1066.63 439.5,-1063.63 442.5,-1063.63 442.5,-1063.63 484.5,-1063.63 484.5,-1063.63 487.5,-1063.63 490.5,-1066.63 490.5,-1069.63 490.5,-1069.63 490.5,-1075.63 490.5,-1075.63 490.5,-1078.63 487.5,-1081.63 484.5,-1081.63"/>
<text text-anchor="start" x="447.5" y="-1070.43" font-family="Helvetica,sans-Serif" font-size="9.00">index.js</text>
</a>
</g>
</g>
<!-- src/pages/dashboard/_srv.js&#45;&gt;src/utils/ajax/index.js -->
<g id="edge49" class="edge">
<title>src/pages/dashboard/_srv.js&#45;&gt;src/utils/ajax/index.js</title>
<path fill="none" stroke="#000000" stroke-width="2" stroke-opacity="0.200000" d="M436.41,-293.81C409.32,-290.72 370.5,-291.55 362,-319.63 359.05,-329.38 359.05,-1043.87 362,-1053.63 369.55,-1078.57 401.25,-1081.31 427.24,-1079.02"/>
<polygon fill="#000000" fill-opacity="0.200000" stroke="#000000" stroke-width="2" stroke-opacity="0.200000" points="427.41,-1081.12 433.14,-1078.37 426.95,-1076.94 427.41,-1081.12"/>
</g>
<!-- src/pages/dashboard/Survay.js&#45;&gt;src/components/survayCard/index.js -->
<g id="edge44" class="edge">
<title>src/pages/dashboard/Survay.js&#45;&gt;src/components/survayCard/index.js</title>
<path fill="none" stroke="#000000" stroke-width="2" stroke-opacity="0.200000" d="M340.6,-331.01C347.26,-332.91 353.73,-336.16 358,-341.63 370.25,-357.32 353.24,-505.35 366,-520.63 380.74,-538.29 406.46,-543.49 427.64,-544.44"/>
<polygon fill="#000000" fill-opacity="0.200000" stroke="#000000" stroke-width="2" stroke-opacity="0.200000" points="427.32,-546.53 433.36,-544.55 427.4,-542.34 427.32,-546.53"/>
</g>
<!-- src/pages/dashboard/Survay.js&#45;&gt;src/data/cardsInfo.js -->
<g id="edge45" class="edge">
<title>src/pages/dashboard/Survay.js&#45;&gt;src/data/cardsInfo.js</title>
<path fill="none" stroke="#000000" stroke-width="2" stroke-opacity="0.200000" d="M314.84,-337.99C317.29,-402.49 332.92,-779.35 366,-816.63 379.85,-832.23 402.26,-837.98 422.01,-839.72"/>
<polygon fill="#000000" fill-opacity="0.200000" stroke="#000000" stroke-width="2" stroke-opacity="0.200000" points="421.71,-841.8 427.83,-840.07 421.97,-837.61 421.71,-841.8"/>
</g>
<!-- src/pages/dashboard/Top.js&#45;&gt;src/assets/icons/index.js -->
<g id="edge46" class="edge">
<title>src/pages/dashboard/Top.js&#45;&gt;src/assets/icons/index.js</title>
<path fill="none" stroke="#000000" stroke-width="2" stroke-opacity="0.200000" d="M340.88,-302.6C347.37,-304.82 353.7,-308.27 358,-313.63 377.34,-337.69 347.54,-357.88 366,-382.63 420.06,-455.08 480.1,-409.18 553,-462.63 589.33,-489.26 621.03,-532.39 636.83,-555.95"/>
<polygon fill="#000000" fill-opacity="0.200000" stroke="#000000" stroke-width="2" stroke-opacity="0.200000" points="635.03,-557.03 640.08,-560.88 638.53,-554.72 635.03,-557.03"/>
</g>
<!-- src/pages/dashboard/Top.js&#45;&gt;src/pages/dashboard/_srv.js -->
<g id="edge47" class="edge">
<title>src/pages/dashboard/Top.js&#45;&gt;src/pages/dashboard/_srv.js</title>
<path fill="none" stroke="#000000" stroke-width="2" stroke-opacity="0.200000" d="M340.96,-298.63C365.06,-298.63 400.82,-298.63 427.32,-298.63"/>
<polygon fill="#000000" fill-opacity="0.200000" stroke="#000000" stroke-width="2" stroke-opacity="0.200000" points="427.24,-300.73 433.24,-298.63 427.24,-296.53 427.24,-300.73"/>
</g>
<!-- src/pages/dashboard/TopItem.js -->
<g id="node37" class="node">
<title>src/pages/dashboard/TopItem.js</title>
<g id="a_node37"><a xlink:href="src/pages/dashboard/TopItem.js" xlink:title="TopItem.js">
<path fill="#ffffcc" stroke="black" d="M487.5,-337.63C487.5,-337.63 439.5,-337.63 439.5,-337.63 436.5,-337.63 433.5,-334.63 433.5,-331.63 433.5,-331.63 433.5,-325.63 433.5,-325.63 433.5,-322.63 436.5,-319.63 439.5,-319.63 439.5,-319.63 487.5,-319.63 487.5,-319.63 490.5,-319.63 493.5,-322.63 493.5,-325.63 493.5,-325.63 493.5,-331.63 493.5,-331.63 493.5,-334.63 490.5,-337.63 487.5,-337.63"/>
<text text-anchor="start" x="441.5" y="-326.43" font-family="Helvetica,sans-Serif" font-size="9.00">TopItem.js</text>
</a>
</g>
</g>
<!-- src/pages/dashboard/Top.js&#45;&gt;src/pages/dashboard/TopItem.js -->
<g id="edge48" class="edge">
<title>src/pages/dashboard/Top.js&#45;&gt;src/pages/dashboard/TopItem.js</title>
<path fill="none" stroke="#000000" stroke-width="2" stroke-opacity="0.200000" d="M340.79,-307C348.83,-309.36 357.73,-311.79 366,-313.63 385.2,-317.9 406.82,-321.38 424.72,-323.91"/>
<polygon fill="#000000" fill-opacity="0.200000" stroke="#000000" stroke-width="2" stroke-opacity="0.200000" points="423.95,-325.92 430.18,-324.66 424.52,-321.76 423.95,-325.92"/>
</g>
<!-- src/utils/ajax/index.js&#45;&gt;src/store/auth/authActions.js -->
<g id="edge77" class="edge">
<title>src/utils/ajax/index.js&#45;&gt;src/store/auth/authActions.js</title>
<path fill="none" stroke="#000000" stroke-width="2" stroke-opacity="0.200000" d="M484.96,-1082.09C505.63,-1092.77 536.75,-1112.17 553,-1138.63 570.71,-1167.45 541.92,-1189.87 566,-1213.63 573.24,-1220.77 582.73,-1224.95 592.67,-1227.26"/>
<polygon fill="#000000" fill-opacity="0.200000" stroke="#000000" stroke-width="2" stroke-opacity="0.200000" points="602.02,-1230.59 608.24,-1229.28 602.56,-1226.43 602.02,-1230.59"/>
<polyline fill="none" stroke="#000000" stroke-width="2" stroke-opacity="0.200000" points="601.29,-1228.38 598.32,-1228"/>
<ellipse fill="none" stroke="#000000" stroke-width="2" stroke-opacity="0.200000" cx="594.95" cy="-1227.56" rx="2.4" ry="2.4"/>
</g>
<!-- src/utils/ajax/index.js&#45;&gt;src/store/index.js -->
<g id="edge76" class="edge">
<title>src/utils/ajax/index.js&#45;&gt;src/store/index.js</title>
<path fill="none" stroke="#000000" stroke-width="2" stroke-opacity="0.200000" d="M476.37,-1081.98C494.71,-1096.07 531.43,-1122.85 566,-1139.63 580.8,-1146.81 597.98,-1152.81 612.74,-1157.32"/>
<polygon fill="#000000" fill-opacity="0.200000" stroke="#000000" stroke-width="2" stroke-opacity="0.200000" points="611.87,-1159.25 618.22,-1158.95 613.06,-1155.23 611.87,-1159.25"/>
</g>
<!-- src/utils/ajax/index.js&#45;&gt;src/store/ui/uiSlice.js -->
<g id="edge78" class="edge">
<title>src/utils/ajax/index.js&#45;&gt;src/store/ui/uiSlice.js</title>
<path fill="none" stroke="#000000" stroke-width="2" stroke-opacity="0.200000" d="M490.82,-1076.46C551.89,-1085.6 701.44,-1109.6 747,-1131.63 757.08,-1136.5 766.78,-1144.31 774.32,-1151.31"/>
<polygon fill="#000000" fill-opacity="0.200000" stroke="#000000" stroke-width="2" stroke-opacity="0.200000" points="772.65,-1152.62 778.41,-1155.3 775.58,-1149.61 772.65,-1152.62"/>
</g>
<!-- src/utils/ajax/routesWithoutMainLoaderHandler.js -->
<g id="node45" class="node">
<title>src/utils/ajax/routesWithoutMainLoaderHandler.js</title>
<g id="a_node45"><a xlink:href="src/utils/ajax/routesWithoutMainLoaderHandler.js" xlink:title="routesWithoutMainLoaderHandler.js">
<path fill="#ffffcc" stroke="black" d="M725,-1081.63C725,-1081.63 572,-1081.63 572,-1081.63 569,-1081.63 566,-1078.63 566,-1075.63 566,-1075.63 566,-1069.63 566,-1069.63 566,-1066.63 569,-1063.63 572,-1063.63 572,-1063.63 725,-1063.63 725,-1063.63 728,-1063.63 731,-1066.63 731,-1069.63 731,-1069.63 731,-1075.63 731,-1075.63 731,-1078.63 728,-1081.63 725,-1081.63"/>
<text text-anchor="start" x="574" y="-1070.43" font-family="Helvetica,sans-Serif" font-size="9.00">routesWithoutMainLoaderHandler.js</text>
</a>
</g>
</g>
<!-- src/utils/ajax/index.js&#45;&gt;src/utils/ajax/routesWithoutMainLoaderHandler.js -->
<g id="edge79" class="edge">
<title>src/utils/ajax/index.js&#45;&gt;src/utils/ajax/routesWithoutMainLoaderHandler.js</title>
<path fill="none" stroke="#000000" stroke-width="2" stroke-opacity="0.200000" d="M490.72,-1072.63C508.32,-1072.63 532.65,-1072.63 556.9,-1072.63"/>
<polygon fill="#000000" fill-opacity="0.200000" stroke="#000000" stroke-width="2" stroke-opacity="0.200000" points="556.79,-1074.73 562.79,-1072.63 556.79,-1070.53 556.79,-1074.73"/>
</g>
<!-- src/pages/login&#45;register/Hero.js&#45;&gt;src/assets/icons/index.js -->
<g id="edge53" class="edge">
<title>src/pages/login&#45;register/Hero.js&#45;&gt;src/assets/icons/index.js</title>
<path fill="none" stroke="#000000" stroke-width="2" stroke-opacity="0.200000" d="M340.7,-152.24C347.36,-154.45 353.81,-157.99 358,-163.63 371.46,-181.75 351.2,-349.59 366,-366.63 421.39,-430.4 484.45,-351.26 553,-400.63 607.06,-439.56 633.67,-519.36 643.22,-554.89"/>
<polygon fill="#000000" fill-opacity="0.200000" stroke="#000000" stroke-width="2" stroke-opacity="0.200000" points="641.1,-555.07 644.63,-560.36 645.17,-554.02 641.1,-555.07"/>
</g>
<!-- src/pages/login&#45;register/Hero.js&#45;&gt;src/assets/images/hero&#45;pattern.png -->
<g id="edge54" class="edge">
<title>src/pages/login&#45;register/Hero.js&#45;&gt;src/assets/images/hero&#45;pattern.png</title>
<path fill="none" stroke="#000000" stroke-width="2" stroke-opacity="0.200000" d="M340.71,-152.23C347.37,-154.44 353.82,-157.98 358,-163.63 372.82,-183.65 351.68,-367.25 366,-387.63 417.48,-460.89 499.63,-390.72 553,-462.63 572.68,-489.14 544.8,-585.32 566,-610.63 573.88,-620.03 585.31,-625.64 597.14,-628.92"/>
<polygon fill="#000000" fill-opacity="0.200000" stroke="#000000" stroke-width="2" stroke-opacity="0.200000" points="596.51,-630.93 602.83,-630.24 597.46,-626.84 596.51,-630.93"/>
</g>
<!-- src/pages/login&#45;register/Login.js&#45;&gt;src/store/auth/authActions.js -->
<g id="edge58" class="edge">
<title>src/pages/login&#45;register/Login.js&#45;&gt;src/store/auth/authActions.js</title>
<path fill="none" stroke="#000000" stroke-width="2" stroke-opacity="0.200000" d="M330.04,-218.04C340.06,-225.08 352.25,-235.69 358,-248.63 368.13,-271.42 350.57,-1127.02 366,-1146.63 419,-1213.97 483.27,-1143.81 553,-1193.63 561.63,-1199.79 557.11,-1207.85 566,-1213.63 576.63,-1220.54 589.66,-1224.22 602.15,-1226.09"/>
<polygon fill="#000000" fill-opacity="0.200000" stroke="#000000" stroke-width="2" stroke-opacity="0.200000" points="601.9,-1228.17 608.1,-1226.79 602.39,-1224 601.9,-1228.17"/>
</g>
<!-- src/pages/login&#45;register/Login.js&#45;&gt;src/assets/icons/index.js -->
<g id="edge55" class="edge">
<title>src/pages/login&#45;register/Login.js&#45;&gt;src/assets/icons/index.js</title>
<path fill="none" stroke="#000000" stroke-width="2" stroke-opacity="0.200000" d="M340.93,-204.69C347.43,-202.47 353.73,-199.01 358,-193.63 368.96,-179.8 352.91,-126.46 366,-114.63 381.41,-100.7 536.89,-101.5 553,-114.63 623.17,-171.8 642.79,-476.8 646.69,-554.57"/>
<polygon fill="#000000" fill-opacity="0.200000" stroke="#000000" stroke-width="2" stroke-opacity="0.200000" points="644.58,-554.35 646.96,-560.24 648.77,-554.15 644.58,-554.35"/>
</g>
<!-- src/pages/login&#45;register/Login.js&#45;&gt;src/components/formInput/index.js -->
<g id="edge56" class="edge">
<title>src/pages/login&#45;register/Login.js&#45;&gt;src/components/formInput/index.js</title>
<path fill="none" stroke="#000000" stroke-width="2" stroke-opacity="0.200000" d="M329.87,-218.12C339.82,-225.19 351.99,-235.81 358,-248.63 373.12,-280.86 349.46,-377.1 366,-408.63 380.59,-436.43 410.8,-456.91 433.56,-469.18"/>
<polygon fill="#000000" fill-opacity="0.200000" stroke="#000000" stroke-width="2" stroke-opacity="0.200000" points="432.58,-471.04 438.87,-471.94 434.51,-467.31 432.58,-471.04"/>
</g>
<!-- src/pages/login&#45;register/Login.js&#45;&gt;src/hooks/useUsernameValidation.js -->
<g id="edge57" class="edge">
<title>src/pages/login&#45;register/Login.js&#45;&gt;src/hooks/useUsernameValidation.js</title>
<path fill="none" stroke="#000000" stroke-width="2" stroke-opacity="0.200000" d="M330.01,-218.06C340.01,-225.1 352.19,-235.71 358,-248.63 368.3,-271.53 352.59,-679.4 366,-700.63 376.75,-717.64 395.49,-728.83 413.62,-736.08"/>
<polygon fill="#000000" fill-opacity="0.200000" stroke="#000000" stroke-width="2" stroke-opacity="0.200000" points="412.68,-737.98 419.04,-738.1 414.14,-734.04 412.68,-737.98"/>
</g>
<!-- src/pages/login&#45;register/Login.js&#45;&gt;src/store/ui/uiSlice.js -->
<g id="edge59" class="edge">
<title>src/pages/login&#45;register/Login.js&#45;&gt;src/store/ui/uiSlice.js</title>
<path fill="none" stroke="#000000" stroke-width="2" stroke-opacity="0.200000" d="M340.98,-204.74C347.48,-202.52 353.78,-199.05 358,-193.63 370.76,-177.27 350.72,-114.65 366,-100.63 396.62,-72.53 518.3,-77.76 553,-100.63 735.54,-220.92 695.7,-340.12 747,-552.63 775.37,-670.14 786.4,-1059.62 788.58,-1148.47"/>
<polygon fill="#000000" fill-opacity="0.200000" stroke="#000000" stroke-width="2" stroke-opacity="0.200000" points="786.48,-1148.4 788.72,-1154.35 790.68,-1148.3 786.48,-1148.4"/>
</g>
<!-- src/pages/login&#45;register/Register.js&#45;&gt;src/store/auth/authActions.js -->
<g id="edge63" class="edge">
<title>src/pages/login&#45;register/Register.js&#45;&gt;src/store/auth/authActions.js</title>
<path fill="none" stroke="#000000" stroke-width="2" stroke-opacity="0.200000" d="M344.85,-183.69C350,-185.91 354.73,-189.09 358,-193.63 372.88,-214.3 349.74,-1091.02 366,-1110.63 420.07,-1175.86 493.12,-1087.69 553,-1147.63 574.13,-1168.78 544.48,-1192.87 566,-1213.63 575.73,-1223.01 589.36,-1227.24 602.69,-1228.85"/>
<polygon fill="#000000" fill-opacity="0.200000" stroke="#000000" stroke-width="2" stroke-opacity="0.200000" points="602.19,-1230.91 608.34,-1229.31 602.53,-1226.73 602.19,-1230.91"/>
</g>
<!-- src/pages/login&#45;register/Register.js&#45;&gt;src/assets/icons/index.js -->
<g id="edge60" class="edge">
<title>src/pages/login&#45;register/Register.js&#45;&gt;src/assets/icons/index.js</title>
<path fill="none" stroke="#000000" stroke-width="2" stroke-opacity="0.200000" d="M344.88,-173.06C349.9,-170.88 354.57,-167.84 358,-163.63 375.8,-141.73 344.82,-119.29 366,-100.63 397.18,-73.16 520.86,-74.29 553,-100.63 625.21,-159.81 643.36,-475.26 646.81,-554.54"/>
<polygon fill="#000000" fill-opacity="0.200000" stroke="#000000" stroke-width="2" stroke-opacity="0.200000" points="644.7,-554.44 647.05,-560.35 648.9,-554.27 644.7,-554.44"/>
</g>
<!-- src/pages/login&#45;register/Register.js&#45;&gt;src/components/formInput/index.js -->
<g id="edge61" class="edge">
<title>src/pages/login&#45;register/Register.js&#45;&gt;src/components/formInput/index.js</title>
<path fill="none" stroke="#000000" stroke-width="2" stroke-opacity="0.200000" d="M344.75,-183.76C349.91,-185.98 354.67,-189.14 358,-193.63 372.24,-212.83 355.03,-387.39 366,-408.63 380.39,-436.48 410.55,-456.92 433.35,-469.17"/>
<polygon fill="#000000" fill-opacity="0.200000" stroke="#000000" stroke-width="2" stroke-opacity="0.200000" points="432.09,-470.88 438.38,-471.77 434.02,-467.15 432.09,-470.88"/>
</g>
<!-- src/pages/login&#45;register/Register.js&#45;&gt;src/hooks/useUsernameValidation.js -->
<g id="edge62" class="edge">
<title>src/pages/login&#45;register/Register.js&#45;&gt;src/hooks/useUsernameValidation.js</title>
<path fill="none" stroke="#000000" stroke-width="2" stroke-opacity="0.200000" d="M344.82,-183.71C349.98,-185.93 354.72,-189.1 358,-193.63 374.53,-216.44 350.98,-676.8 366,-700.63 376.73,-717.65 395.47,-728.84 413.6,-736.09"/>
<polygon fill="#000000" fill-opacity="0.200000" stroke="#000000" stroke-width="2" stroke-opacity="0.200000" points="412.66,-737.99 419.02,-738.1 414.13,-734.05 412.66,-737.99"/>
</g>
<!-- src/pages/login&#45;register/Register.js&#45;&gt;src/store/ui/uiSlice.js -->
<g id="edge64" class="edge">
<title>src/pages/login&#45;register/Register.js&#45;&gt;src/store/ui/uiSlice.js</title>
<path fill="none" stroke="#000000" stroke-width="2" stroke-opacity="0.200000" d="M345,-173.16C350.01,-170.96 354.65,-167.9 358,-163.63 369.98,-148.35 351.66,-89.71 366,-76.63 491.51,37.87 634.21,19.43 747,-107.63 782.97,-148.15 788.31,-1011.06 788.93,-1148.3"/>
<polygon fill="#000000" fill-opacity="0.200000" stroke="#000000" stroke-width="2" stroke-opacity="0.200000" points="786.83,-1148.2 788.95,-1154.19 791.03,-1148.18 786.83,-1148.2"/>
</g>
<!-- src/pages/login&#45;register/_srv.js -->
<g id="node42" class="node">
<title>src/pages/login&#45;register/_srv.js</title>
<g id="a_node42"><a xlink:href="src/pages/login-register/_srv.js" xlink:title="_srv.js">
<path fill="#ffffcc" stroke="black" d="M484.5,-202.63C484.5,-202.63 442.5,-202.63 442.5,-202.63 439.5,-202.63 436.5,-199.63 436.5,-196.63 436.5,-196.63 436.5,-190.63 436.5,-190.63 436.5,-187.63 439.5,-184.63 442.5,-184.63 442.5,-184.63 484.5,-184.63 484.5,-184.63 487.5,-184.63 490.5,-187.63 490.5,-190.63 490.5,-190.63 490.5,-196.63 490.5,-196.63 490.5,-199.63 487.5,-202.63 484.5,-202.63"/>
<text text-anchor="start" x="449.5" y="-191.43" font-family="Helvetica,sans-Serif" font-size="9.00">_srv.js</text>
</a>
</g>
</g>
<!-- src/pages/login&#45;register/Register.js&#45;&gt;src/pages/login&#45;register/_srv.js -->
<g id="edge65" class="edge">
<title>src/pages/login&#45;register/Register.js&#45;&gt;src/pages/login&#45;register/_srv.js</title>
<path fill="none" stroke="#000000" stroke-width="2" stroke-opacity="0.200000" d="M344.81,-181.7C368.76,-184.13 402.22,-187.52 427.35,-190.07"/>
<polygon fill="#000000" fill-opacity="0.200000" stroke="#000000" stroke-width="2" stroke-opacity="0.200000" points="427,-192.14 433.18,-190.66 427.43,-187.96 427,-192.14"/>
</g>
<!-- src/pages/login&#45;register/_srv.js&#45;&gt;src/utils/ajax/index.js -->
<g id="edge66" class="edge">
<title>src/pages/login&#45;register/_srv.js&#45;&gt;src/utils/ajax/index.js</title>
<path fill="none" stroke="#000000" stroke-width="2" stroke-opacity="0.200000" d="M436.4,-199.37C409.73,-206.79 371.65,-222.75 362,-254.63 358.78,-265.25 358.78,-1043.01 362,-1053.63 369.55,-1078.57 401.25,-1081.31 427.24,-1079.02"/>
<polygon fill="#000000" fill-opacity="0.200000" stroke="#000000" stroke-width="2" stroke-opacity="0.200000" points="427.41,-1081.12 433.14,-1078.37 426.95,-1076.94 427.41,-1081.12"/>
</g>
<!-- src/store/auth/_srv.js&#45;&gt;src/utils/ajax/index.js -->
<g id="edge70" class="edge">
<title>src/store/auth/_srv.js&#45;&gt;src/utils/ajax/index.js</title>
<path fill="none" stroke="#000000" stroke-width="2" stroke-opacity="0.200000" d="M768.18,-1217.18C763.11,-1213.91 758.21,-1209.75 755,-1204.63 739.76,-1180.35 767.03,-1161.14 747,-1140.63 718.59,-1111.53 605.24,-1124.32 566,-1113.63 543.74,-1107.56 519.77,-1098.03 500.72,-1089.69"/>
<polygon fill="#000000" fill-opacity="0.200000" stroke="#000000" stroke-width="2" stroke-opacity="0.200000" points="492.95,-1083.86 486.62,-1083.3 491.22,-1087.69 492.95,-1083.86"/>
<polyline fill="none" stroke="#000000" stroke-width="2" stroke-opacity="0.200000" points="493,-1086.19 495.73,-1087.43"/>
<ellipse fill="none" stroke="#000000" stroke-width="2" stroke-opacity="0.200000" cx="498.83" cy="-1088.83" rx="2.4" ry="2.4"/>
</g>
<!-- src/utils/ajax/routesWithoutMainLoaderHandler.js&#45;&gt;src/data/routesWithoutMainLoader.js -->
<g id="edge80" class="edge">
<title>src/utils/ajax/routesWithoutMainLoaderHandler.js&#45;&gt;src/data/routesWithoutMainLoader.js</title>
<path fill="none" stroke="#000000" stroke-width="2" stroke-opacity="0.200000" d="M637.61,-1063.23C607.63,-1034.72 517.56,-949.08 480.6,-913.93"/>
<polygon fill="#000000" fill-opacity="0.200000" stroke="#000000" stroke-width="2" stroke-opacity="0.200000" points="482.33,-912.68 476.53,-910.07 479.43,-915.72 482.33,-912.68"/>
</g>
<!-- src/utils/ajax/routesWithoutMainLoaderHandler.js&#45;&gt;src/store/index.js -->
<g id="edge81" class="edge">
<title>src/utils/ajax/routesWithoutMainLoaderHandler.js&#45;&gt;src/store/index.js</title>
<path fill="none" stroke="#000000" stroke-width="2" stroke-opacity="0.200000" d="M648.5,-1081.81C648.5,-1104.04 648.5,-1126.27 648.5,-1148.5"/>
<polygon fill="#000000" fill-opacity="0.200000" stroke="#000000" stroke-width="2" stroke-opacity="0.200000" points="646.4,-1148.32 648.5,-1154.32 650.6,-1148.32 646.4,-1148.32"/>
</g>
<!-- src/utils/ajax/routesWithoutMainLoaderHandler.js&#45;&gt;src/store/ui/uiSlice.js -->
<g id="edge82" class="edge">
<title>src/utils/ajax/routesWithoutMainLoaderHandler.js&#45;&gt;src/store/ui/uiSlice.js</title>
<path fill="none" stroke="#000000" stroke-width="2" stroke-opacity="0.200000" d="M691.09,-1082.1C709.48,-1087.7 730.61,-1096.2 747,-1108.63 761.46,-1119.6 773.09,-1136.92 780.41,-1149.78"/>
<polygon fill="#000000" fill-opacity="0.200000" stroke="#000000" stroke-width="2" stroke-opacity="0.200000" points="778.44,-1150.55 783.15,-1154.82 782.13,-1148.54 778.44,-1150.55"/>
</g>
</g>
</svg>
