<?xml version="1.0" encoding="UTF-8" standalone="no"?>
<!DOCTYPE svg PUBLIC "-//W3C//DTD SVG 1.1//EN"
 "http://www.w3.org/Graphics/SVG/1.1/DTD/svg11.dtd">
<!-- Generated by graphviz version 7.1.0 (20230121.1956)
 -->
<!-- Title: dependency&#45;cruiser output Pages: 1 -->
<svg width="827pt" height="1502pt"
 viewBox="0.00 0.00 826.50 1502.38" xmlns="http://www.w3.org/2000/svg" xmlns:xlink="http://www.w3.org/1999/xlink">
<g id="graph0" class="graph" transform="scale(1 1) rotate(0) translate(4 1498.38)">
<title>dependency&#45;cruiser output</title>
<polygon fill="white" stroke="none" points="-4,4 -4,-1498.38 822.5,-1498.38 822.5,4 -4,4"/>
<g id="clust1" class="cluster">
<title>cluster_src</title>
<path fill="#ffffff" stroke="black" stroke-width="2" d="M20,-57.63C20,-57.63 798.5,-57.63 798.5,-57.63 804.5,-57.63 810.5,-63.63 810.5,-69.63 810.5,-69.63 810.5,-1453.63 810.5,-1453.63 810.5,-1459.63 804.5,-1465.63 798.5,-1465.63 798.5,-1465.63 20,-1465.63 20,-1465.63 14,-1465.63 8,-1459.63 8,-1453.63 8,-1453.63 8,-69.63 8,-69.63 8,-63.63 14,-57.63 20,-57.63"/>
<text text-anchor="middle" x="409.25" y="-1454.43" font-family="Helvetica,sans-Serif" font-weight="bold" font-size="9.00">src</text>
</g>
<g id="clust2" class="cluster">
<title>cluster_src/assets</title>
<path fill="#ffffff" stroke="black" stroke-width="2" d="M566,-547.63C566,-547.63 659,-547.63 659,-547.63 665,-547.63 671,-553.63 671,-559.63 671,-559.63 671,-711.63 671,-711.63 671,-717.63 665,-723.63 659,-723.63 659,-723.63 566,-723.63 566,-723.63 560,-723.63 554,-717.63 554,-711.63 554,-711.63 554,-559.63 554,-559.63 554,-553.63 560,-547.63 566,-547.63"/>
<text text-anchor="middle" x="612.5" y="-712.43" font-family="Helvetica,sans-Serif" font-weight="bold" font-size="9.00">assets</text>
</g>
<g id="clust3" class="cluster">
<title>cluster_src/assets/icons</title>
<path fill="#ffffff" stroke="black" stroke-width="2" d="M589.5,-555.63C589.5,-555.63 635.5,-555.63 635.5,-555.63 641.5,-555.63 647.5,-561.63 647.5,-567.63 647.5,-567.63 647.5,-595.63 647.5,-595.63 647.5,-601.63 641.5,-607.63 635.5,-607.63 635.5,-607.63 589.5,-607.63 589.5,-607.63 583.5,-607.63 577.5,-601.63 577.5,-595.63 577.5,-595.63 577.5,-567.63 577.5,-567.63 577.5,-561.63 583.5,-555.63 589.5,-555.63"/>
<text text-anchor="middle" x="612.5" y="-596.43" font-family="Helvetica,sans-Serif" font-weight="bold" font-size="9.00">icons</text>
</g>
<g id="clust4" class="cluster">
<title>cluster_src/assets/images</title>
<path fill="#ffffff" stroke="black" stroke-width="2" d="M574,-615.63C574,-615.63 651,-615.63 651,-615.63 657,-615.63 663,-621.63 663,-627.63 663,-627.63 663,-685.63 663,-685.63 663,-691.63 657,-697.63 651,-697.63 651,-697.63 574,-697.63 574,-697.63 568,-697.63 562,-691.63 562,-685.63 562,-685.63 562,-627.63 562,-627.63 562,-621.63 568,-615.63 574,-615.63"/>
<text text-anchor="middle" x="612.5" y="-686.43" font-family="Helvetica,sans-Serif" font-weight="bold" font-size="9.00">images</text>
</g>
<g id="clust10" class="cluster">
<title>cluster_src/data</title>
<path fill="#ffffff" stroke="black" stroke-width="2" d="M365.5,-821.63C365.5,-821.63 489.5,-821.63 489.5,-821.63 495.5,-821.63 501.5,-827.63 501.5,-833.63 501.5,-833.63 501.5,-921.63 501.5,-921.63 501.5,-927.63 495.5,-933.63 489.5,-933.63 489.5,-933.63 365.5,-933.63 365.5,-933.63 359.5,-933.63 353.5,-927.63 353.5,-921.63 353.5,-921.63 353.5,-833.63 353.5,-833.63 353.5,-827.63 359.5,-821.63 365.5,-821.63"/>
<text text-anchor="middle" x="427.5" y="-922.43" font-family="Helvetica,sans-Serif" font-weight="bold" font-size="9.00">data</text>
</g>
<g id="clust5" class="cluster">
<title>cluster_src/components</title>
<path fill="#ffffff" stroke="black" stroke-width="2" d="M396.5,-457.63C396.5,-457.63 458.5,-457.63 458.5,-457.63 464.5,-457.63 470.5,-463.63 470.5,-469.63 470.5,-469.63 470.5,-711.63 470.5,-711.63 470.5,-717.63 464.5,-723.63 458.5,-723.63 458.5,-723.63 396.5,-723.63 396.5,-723.63 390.5,-723.63 384.5,-717.63 384.5,-711.63 384.5,-711.63 384.5,-469.63 384.5,-469.63 384.5,-463.63 390.5,-457.63 396.5,-457.63"/>
<text text-anchor="middle" x="427.5" y="-712.43" font-family="Helvetica,sans-Serif" font-weight="bold" font-size="9.00">components</text>
</g>
<g id="clust6" class="cluster">
<title>cluster_src/components/formInput</title>
<path fill="#ffffff" stroke="black" stroke-width="2" d="M404.5,-525.63C404.5,-525.63 450.5,-525.63 450.5,-525.63 456.5,-525.63 462.5,-531.63 462.5,-537.63 462.5,-537.63 462.5,-565.63 462.5,-565.63 462.5,-571.63 456.5,-577.63 450.5,-577.63 450.5,-577.63 404.5,-577.63 404.5,-577.63 398.5,-577.63 392.5,-571.63 392.5,-565.63 392.5,-565.63 392.5,-537.63 392.5,-537.63 392.5,-531.63 398.5,-525.63 404.5,-525.63"/>
<text text-anchor="middle" x="427.5" y="-566.43" font-family="Helvetica,sans-Serif" font-weight="bold" font-size="9.00">formInput</text>
</g>
<g id="clust9" class="cluster">
<title>cluster_src/components/survayCard</title>
<path fill="#ffffff" stroke="black" stroke-width="2" d="M404.5,-465.63C404.5,-465.63 450.5,-465.63 450.5,-465.63 456.5,-465.63 462.5,-471.63 462.5,-477.63 462.5,-477.63 462.5,-505.63 462.5,-505.63 462.5,-511.63 456.5,-517.63 450.5,-517.63 450.5,-517.63 404.5,-517.63 404.5,-517.63 398.5,-517.63 392.5,-511.63 392.5,-505.63 392.5,-505.63 392.5,-477.63 392.5,-477.63 392.5,-471.63 398.5,-465.63 404.5,-465.63"/>
<text text-anchor="middle" x="427.5" y="-506.43" font-family="Helvetica,sans-Serif" font-weight="bold" font-size="9.00">survayCard</text>
</g>
<g id="clust8" class="cluster">
<title>cluster_src/components/search</title>
<path fill="#ffffff" stroke="black" stroke-width="2" d="M404.5,-645.63C404.5,-645.63 450.5,-645.63 450.5,-645.63 456.5,-645.63 462.5,-651.63 462.5,-657.63 462.5,-657.63 462.5,-685.63 462.5,-685.63 462.5,-691.63 456.5,-697.63 450.5,-697.63 450.5,-697.63 404.5,-697.63 404.5,-697.63 398.5,-697.63 392.5,-691.63 392.5,-685.63 392.5,-685.63 392.5,-657.63 392.5,-657.63 392.5,-651.63 398.5,-645.63 404.5,-645.63"/>
<text text-anchor="middle" x="427.5" y="-686.43" font-family="Helvetica,sans-Serif" font-weight="bold" font-size="9.00">search</text>
</g>
<g id="clust7" class="cluster">
<title>cluster_src/components/loader</title>
<path fill="#ffffff" stroke="black" stroke-width="2" d="M404.5,-585.63C404.5,-585.63 450.5,-585.63 450.5,-585.63 456.5,-585.63 462.5,-591.63 462.5,-597.63 462.5,-597.63 462.5,-625.63 462.5,-625.63 462.5,-631.63 456.5,-637.63 450.5,-637.63 450.5,-637.63 404.5,-637.63 404.5,-637.63 398.5,-637.63 392.5,-631.63 392.5,-625.63 392.5,-625.63 392.5,-597.63 392.5,-597.63 392.5,-591.63 398.5,-585.63 404.5,-585.63"/>
<text text-anchor="middle" x="427.5" y="-626.43" font-family="Helvetica,sans-Serif" font-weight="bold" font-size="9.00">loader</text>
</g>
<g id="clust12" class="cluster">
<title>cluster_src/layout</title>
<path fill="#ffffff" stroke="black" stroke-width="2" d="M159,-1165.63C159,-1165.63 467.5,-1165.63 467.5,-1165.63 473.5,-1165.63 479.5,-1171.63 479.5,-1177.63 479.5,-1177.63 479.5,-1389.63 479.5,-1389.63 479.5,-1395.63 473.5,-1401.63 467.5,-1401.63 467.5,-1401.63 159,-1401.63 159,-1401.63 153,-1401.63 147,-1395.63 147,-1389.63 147,-1389.63 147,-1177.63 147,-1177.63 147,-1171.63 153,-1165.63 159,-1165.63"/>
<text text-anchor="middle" x="313.25" y="-1390.43" font-family="Helvetica,sans-Serif" font-weight="bold" font-size="9.00">layout</text>
</g>
<g id="clust13" class="cluster">
<title>cluster_src/layout/header</title>
<path fill="#ffffff" stroke="black" stroke-width="2" d="M167,-1173.63C167,-1173.63 306,-1173.63 306,-1173.63 312,-1173.63 318,-1179.63 318,-1185.63 318,-1185.63 318,-1243.63 318,-1243.63 318,-1249.63 312,-1255.63 306,-1255.63 306,-1255.63 167,-1255.63 167,-1255.63 161,-1255.63 155,-1249.63 155,-1243.63 155,-1243.63 155,-1185.63 155,-1185.63 155,-1179.63 161,-1173.63 167,-1173.63"/>
<text text-anchor="middle" x="236.5" y="-1244.43" font-family="Helvetica,sans-Serif" font-weight="bold" font-size="9.00">header</text>
</g>
<g id="clust14" class="cluster">
<title>cluster_src/layout/menu</title>
<path fill="#ffffff" stroke="black" stroke-width="2" d="M167,-1263.63C167,-1263.63 459.5,-1263.63 459.5,-1263.63 465.5,-1263.63 471.5,-1269.63 471.5,-1275.63 471.5,-1275.63 471.5,-1363.63 471.5,-1363.63 471.5,-1369.63 465.5,-1375.63 459.5,-1375.63 459.5,-1375.63 167,-1375.63 167,-1375.63 161,-1375.63 155,-1369.63 155,-1363.63 155,-1363.63 155,-1275.63 155,-1275.63 155,-1269.63 161,-1263.63 167,-1263.63"/>
<text text-anchor="middle" x="313.25" y="-1364.43" font-family="Helvetica,sans-Serif" font-weight="bold" font-size="9.00">menu</text>
</g>
<g id="clust11" class="cluster">
<title>cluster_src/hooks</title>
<path fill="#ffffff" stroke="black" stroke-width="2" d="M368,-731.63C368,-731.63 487,-731.63 487,-731.63 493,-731.63 499,-737.63 499,-743.63 499,-743.63 499,-801.63 499,-801.63 499,-807.63 493,-813.63 487,-813.63 487,-813.63 368,-813.63 368,-813.63 362,-813.63 356,-807.63 356,-801.63 356,-801.63 356,-743.63 356,-743.63 356,-737.63 362,-731.63 368,-731.63"/>
<text text-anchor="middle" x="427.5" y="-802.43" font-family="Helvetica,sans-Serif" font-weight="bold" font-size="9.00">hooks</text>
</g>
<g id="clust15" class="cluster">
<title>cluster_src/pages</title>
<path fill="#ffffff" stroke="black" stroke-width="2" d="M159,-123.63C159,-123.63 468.5,-123.63 468.5,-123.63 474.5,-123.63 480.5,-129.63 480.5,-135.63 480.5,-135.63 480.5,-437.63 480.5,-437.63 480.5,-443.63 474.5,-449.63 468.5,-449.63 468.5,-449.63 159,-449.63 159,-449.63 153,-449.63 147,-443.63 147,-437.63 147,-437.63 147,-135.63 147,-135.63 147,-129.63 153,-123.63 159,-123.63"/>
<text text-anchor="middle" x="313.75" y="-438.43" font-family="Helvetica,sans-Serif" font-weight="bold" font-size="9.00">pages</text>
</g>
<g id="clust16" class="cluster">
<title>cluster_src/pages/dashboard</title>
<path fill="#ffffff" stroke="black" stroke-width="2" d="M167,-251.63C167,-251.63 460.5,-251.63 460.5,-251.63 466.5,-251.63 472.5,-257.63 472.5,-263.63 472.5,-263.63 472.5,-351.63 472.5,-351.63 472.5,-357.63 466.5,-363.63 460.5,-363.63 460.5,-363.63 167,-363.63 167,-363.63 161,-363.63 155,-357.63 155,-351.63 155,-351.63 155,-263.63 155,-263.63 155,-257.63 161,-251.63 167,-251.63"/>
<text text-anchor="middle" x="313.75" y="-352.43" font-family="Helvetica,sans-Serif" font-weight="bold" font-size="9.00">dashboard</text>
</g>
<g id="clust17" class="cluster">
<title>cluster_src/pages/login&#45;register</title>
<path fill="#ffffff" stroke="black" stroke-width="2" d="M167,-131.63C167,-131.63 450.5,-131.63 450.5,-131.63 456.5,-131.63 462.5,-137.63 462.5,-143.63 462.5,-143.63 462.5,-231.63 462.5,-231.63 462.5,-237.63 456.5,-243.63 450.5,-243.63 450.5,-243.63 167,-243.63 167,-243.63 161,-243.63 155,-237.63 155,-231.63 155,-231.63 155,-143.63 155,-143.63 155,-137.63 161,-131.63 167,-131.63"/>
<text text-anchor="middle" x="308.75" y="-232.43" font-family="Helvetica,sans-Serif" font-weight="bold" font-size="9.00">login&#45;register</text>
</g>
<g id="clust18" class="cluster">
<title>cluster_src/pages/temp</title>
<path fill="#ffffff" stroke="black" stroke-width="2" d="M167,-371.63C167,-371.63 213,-371.63 213,-371.63 219,-371.63 225,-377.63 225,-383.63 225,-383.63 225,-411.63 225,-411.63 225,-417.63 219,-423.63 213,-423.63 213,-423.63 167,-423.63 167,-423.63 161,-423.63 155,-417.63 155,-411.63 155,-411.63 155,-383.63 155,-383.63 155,-377.63 161,-371.63 167,-371.63"/>
<text text-anchor="middle" x="190" y="-412.43" font-family="Helvetica,sans-Serif" font-weight="bold" font-size="9.00">temp</text>
</g>
<g id="clust19" class="cluster">
<title>cluster_src/store</title>
<path fill="#ffffff" stroke="black" stroke-width="2" d="M571.5,-1141.63C571.5,-1141.63 790.5,-1141.63 790.5,-1141.63 796.5,-1141.63 802.5,-1147.63 802.5,-1153.63 802.5,-1153.63 802.5,-1305.63 802.5,-1305.63 802.5,-1311.63 796.5,-1317.63 790.5,-1317.63 790.5,-1317.63 571.5,-1317.63 571.5,-1317.63 565.5,-1317.63 559.5,-1311.63 559.5,-1305.63 559.5,-1305.63 559.5,-1153.63 559.5,-1153.63 559.5,-1147.63 565.5,-1141.63 571.5,-1141.63"/>
<text text-anchor="middle" x="681" y="-1306.43" font-family="Helvetica,sans-Serif" font-weight="bold" font-size="9.00">store</text>
</g>
<g id="clust20" class="cluster">
<title>cluster_src/store/auth</title>
<path fill="#ffffff" stroke="black" stroke-width="2" d="M579.5,-1209.63C579.5,-1209.63 782.5,-1209.63 782.5,-1209.63 788.5,-1209.63 794.5,-1215.63 794.5,-1221.63 794.5,-1221.63 794.5,-1279.63 794.5,-1279.63 794.5,-1285.63 788.5,-1291.63 782.5,-1291.63 782.5,-1291.63 579.5,-1291.63 579.5,-1291.63 573.5,-1291.63 567.5,-1285.63 567.5,-1279.63 567.5,-1279.63 567.5,-1221.63 567.5,-1221.63 567.5,-1215.63 573.5,-1209.63 579.5,-1209.63"/>
<text text-anchor="middle" x="681" y="-1280.43" font-family="Helvetica,sans-Serif" font-weight="bold" font-size="9.00">auth</text>
</g>
<g id="clust21" class="cluster">
<title>cluster_src/store/ui</title>
<path fill="#ffffff" stroke="black" stroke-width="2" d="M731,-1149.63C731,-1149.63 777,-1149.63 777,-1149.63 783,-1149.63 789,-1155.63 789,-1161.63 789,-1161.63 789,-1189.63 789,-1189.63 789,-1195.63 783,-1201.63 777,-1201.63 777,-1201.63 731,-1201.63 731,-1201.63 725,-1201.63 719,-1195.63 719,-1189.63 719,-1189.63 719,-1161.63 719,-1161.63 719,-1155.63 725,-1149.63 731,-1149.63"/>
<text text-anchor="middle" x="754" y="-1190.43" font-family="Helvetica,sans-Serif" font-weight="bold" font-size="9.00">ui</text>
</g>
<g id="clust22" class="cluster">
<title>cluster_src/utils</title>
<path fill="#ffffff" stroke="black" stroke-width="2" d="M342,-1021.63C342,-1021.63 699,-1021.63 699,-1021.63 705,-1021.63 711,-1027.63 711,-1033.63 711,-1033.63 711,-1121.63 711,-1121.63 711,-1127.63 705,-1133.63 699,-1133.63 699,-1133.63 342,-1133.63 342,-1133.63 336,-1133.63 330,-1127.63 330,-1121.63 330,-1121.63 330,-1033.63 330,-1033.63 330,-1027.63 336,-1021.63 342,-1021.63"/>
<text text-anchor="middle" x="520.5" y="-1122.43" font-family="Helvetica,sans-Serif" font-weight="bold" font-size="9.00">utils</text>
</g>
<g id="clust23" class="cluster">
<title>cluster_src/utils/ajax</title>
<path fill="#ffffff" stroke="black" stroke-width="2" d="M404.5,-1055.63C404.5,-1055.63 691,-1055.63 691,-1055.63 697,-1055.63 703,-1061.63 703,-1067.63 703,-1067.63 703,-1095.63 703,-1095.63 703,-1101.63 697,-1107.63 691,-1107.63 691,-1107.63 404.5,-1107.63 404.5,-1107.63 398.5,-1107.63 392.5,-1101.63 392.5,-1095.63 392.5,-1095.63 392.5,-1067.63 392.5,-1067.63 392.5,-1061.63 398.5,-1055.63 404.5,-1055.63"/>
<text text-anchor="middle" x="547.75" y="-1096.43" font-family="Helvetica,sans-Serif" font-weight="bold" font-size="9.00">ajax</text>
</g>
<!-- src/App.js -->
<g id="node1" class="node">
<title>src/App.js</title>
<g id="a_node1"><a xlink:href="src/App.js" xlink:title="App.js">
<path fill="#ffffcc" stroke="black" d="M132,-1199.63C132,-1199.63 90,-1199.63 90,-1199.63 87,-1199.63 84,-1196.63 84,-1193.63 84,-1193.63 84,-1187.63 84,-1187.63 84,-1184.63 87,-1181.63 90,-1181.63 90,-1181.63 132,-1181.63 132,-1181.63 135,-1181.63 138,-1184.63 138,-1187.63 138,-1187.63 138,-1193.63 138,-1193.63 138,-1196.63 135,-1199.63 132,-1199.63"/>
<text text-anchor="start" x="98" y="-1188.43" font-family="Helvetica,sans-Serif" font-size="9.00">App.js</text>
</a>
</g>
</g>
<!-- src/components/loader/index.js -->
<g id="node2" class="node">
<title>src/components/loader/index.js</title>
<g id="a_node2"><a xlink:href="src/components/loader/index.js" xlink:title="index.js">
<path fill="#ffffcc" stroke="black" d="M448.5,-611.63C448.5,-611.63 406.5,-611.63 406.5,-611.63 403.5,-611.63 400.5,-608.63 400.5,-605.63 400.5,-605.63 400.5,-599.63 400.5,-599.63 400.5,-596.63 403.5,-593.63 406.5,-593.63 406.5,-593.63 448.5,-593.63 448.5,-593.63 451.5,-593.63 454.5,-596.63 454.5,-599.63 454.5,-599.63 454.5,-605.63 454.5,-605.63 454.5,-608.63 451.5,-611.63 448.5,-611.63"/>
<text text-anchor="start" x="411.5" y="-600.43" font-family="Helvetica,sans-Serif" font-size="9.00">index.js</text>
</a>
</g>
</g>
<!-- src/App.js&#45;&gt;src/components/loader/index.js -->
<g id="edge1" class="edge">
<title>src/App.js&#45;&gt;src/components/loader/index.js</title>
<path fill="none" stroke="#000000" stroke-width="2" stroke-opacity="0.200000" d="M112.37,-1181.41C114.74,-1131.67 131.26,-891.72 233,-734.63 265.3,-684.76 280.17,-674.99 330,-642.63 349.13,-630.21 372.74,-620.34 391.83,-613.51"/>
<polygon fill="#000000" fill-opacity="0.200000" stroke="#000000" stroke-width="2" stroke-opacity="0.200000" points="392.41,-615.53 397.39,-611.58 391.03,-611.57 392.41,-615.53"/>
</g>
<!-- src/data/menuItems.js -->
<g id="node3" class="node">
<title>src/data/menuItems.js</title>
<g id="a_node3"><a xlink:href="src/data/menuItems.js" xlink:title="menuItems.js">
<path fill="#ffffcc" stroke="black" d="M458.5,-877.63C458.5,-877.63 396.5,-877.63 396.5,-877.63 393.5,-877.63 390.5,-874.63 390.5,-871.63 390.5,-871.63 390.5,-865.63 390.5,-865.63 390.5,-862.63 393.5,-859.63 396.5,-859.63 396.5,-859.63 458.5,-859.63 458.5,-859.63 461.5,-859.63 464.5,-862.63 464.5,-865.63 464.5,-865.63 464.5,-871.63 464.5,-871.63 464.5,-874.63 461.5,-877.63 458.5,-877.63"/>
<text text-anchor="start" x="398.5" y="-866.43" font-family="Helvetica,sans-Serif" font-size="9.00">menuItems.js</text>
</a>
</g>
</g>
<!-- src/App.js&#45;&gt;src/data/menuItems.js -->
<g id="edge2" class="edge">
<title>src/App.js&#45;&gt;src/data/menuItems.js</title>
<path fill="none" stroke="#000000" stroke-width="2" stroke-opacity="0.200000" d="M115.42,-1181.33C131.63,-1138.72 205.18,-960.8 330,-883.63 345.23,-874.21 364.31,-870.01 381.48,-868.33"/>
<polygon fill="#000000" fill-opacity="0.200000" stroke="#000000" stroke-width="2" stroke-opacity="0.200000" points="381.41,-870.44 387.23,-867.89 381.09,-866.25 381.41,-870.44"/>
</g>
<!-- src/layout/header/index.js -->
<g id="node4" class="node">
<title>src/layout/header/index.js</title>
<g id="a_node4"><a xlink:href="src/layout/header/index.js" xlink:title="index.js">
<path fill="#ffffcc" stroke="black" d="M211,-1199.63C211,-1199.63 169,-1199.63 169,-1199.63 166,-1199.63 163,-1196.63 163,-1193.63 163,-1193.63 163,-1187.63 163,-1187.63 163,-1184.63 166,-1181.63 169,-1181.63 169,-1181.63 211,-1181.63 211,-1181.63 214,-1181.63 217,-1184.63 217,-1187.63 217,-1187.63 217,-1193.63 217,-1193.63 217,-1196.63 214,-1199.63 211,-1199.63"/>
<text text-anchor="start" x="174" y="-1188.43" font-family="Helvetica,sans-Serif" font-size="9.00">index.js</text>
</a>
</g>
</g>
<!-- src/App.js&#45;&gt;src/layout/header/index.js -->
<g id="edge3" class="edge">
<title>src/App.js&#45;&gt;src/layout/header/index.js</title>
<path fill="none" stroke="#000000" stroke-width="2" stroke-opacity="0.200000" d="M138.5,-1190.63C143.52,-1190.63 148.83,-1190.63 154.06,-1190.63"/>
<polygon fill="#000000" fill-opacity="0.200000" stroke="#000000" stroke-width="2" stroke-opacity="0.200000" points="153.69,-1192.73 159.69,-1190.63 153.69,-1188.53 153.69,-1192.73"/>
</g>
<!-- src/layout/menu/index.js -->
<g id="node5" class="node">
<title>src/layout/menu/index.js</title>
<g id="a_node5"><a xlink:href="src/layout/menu/index.js" xlink:title="index.js">
<path fill="#ffffcc" stroke="black" d="M211,-1304.63C211,-1304.63 169,-1304.63 169,-1304.63 166,-1304.63 163,-1301.63 163,-1298.63 163,-1298.63 163,-1292.63 163,-1292.63 163,-1289.63 166,-1286.63 169,-1286.63 169,-1286.63 211,-1286.63 211,-1286.63 214,-1286.63 217,-1289.63 217,-1292.63 217,-1292.63 217,-1298.63 217,-1298.63 217,-1301.63 214,-1304.63 211,-1304.63"/>
<text text-anchor="start" x="174" y="-1293.43" font-family="Helvetica,sans-Serif" font-size="9.00">index.js</text>
</a>
</g>
</g>
<!-- src/App.js&#45;&gt;src/layout/menu/index.js -->
<g id="edge4" class="edge">
<title>src/App.js&#45;&gt;src/layout/menu/index.js</title>
<path fill="none" stroke="#000000" stroke-width="2" stroke-opacity="0.200000" d="M115.54,-1200.06C120.97,-1213.82 132.31,-1239.78 147,-1258.63 153.4,-1266.84 161.81,-1274.67 169.41,-1280.98"/>
<polygon fill="#000000" fill-opacity="0.200000" stroke="#000000" stroke-width="2" stroke-opacity="0.200000" points="167.74,-1282.33 173.73,-1284.44 170.36,-1279.05 167.74,-1282.33"/>
</g>
<!-- src/pages/login&#45;register/index.js -->
<g id="node6" class="node">
<title>src/pages/login&#45;register/index.js</title>
<g id="a_node6"><a xlink:href="src/pages/login-register/index.js" xlink:title="index.js">
<path fill="#ffffcc" stroke="black" d="M211,-202.63C211,-202.63 169,-202.63 169,-202.63 166,-202.63 163,-199.63 163,-196.63 163,-196.63 163,-190.63 163,-190.63 163,-187.63 166,-184.63 169,-184.63 169,-184.63 211,-184.63 211,-184.63 214,-184.63 217,-187.63 217,-190.63 217,-190.63 217,-196.63 217,-196.63 217,-199.63 214,-202.63 211,-202.63"/>
<text text-anchor="start" x="174" y="-191.43" font-family="Helvetica,sans-Serif" font-size="9.00">index.js</text>
</a>
</g>
</g>
<!-- src/App.js&#45;&gt;src/pages/login&#45;register/index.js -->
<g id="edge5" class="edge">
<title>src/App.js&#45;&gt;src/pages/login&#45;register/index.js</title>
<path fill="none" stroke="#000000" stroke-width="2" stroke-opacity="0.200000" d="M112,-1181.13C112.09,-1088.11 113.82,-341.05 147,-248.63 152.34,-233.74 163.29,-219.63 172.68,-209.42"/>
<polygon fill="#000000" fill-opacity="0.200000" stroke="#000000" stroke-width="2" stroke-opacity="0.200000" points="174.09,-210.98 176.73,-205.2 171.06,-208.07 174.09,-210.98"/>
</g>
<!-- src/store/auth/authActions.js -->
<g id="node7" class="node">
<title>src/store/auth/authActions.js</title>
<g id="a_node7"><a xlink:href="src/store/auth/authActions.js" xlink:title="authActions.js">
<path fill="#ffffcc" stroke="black" d="M643.5,-1235.63C643.5,-1235.63 581.5,-1235.63 581.5,-1235.63 578.5,-1235.63 575.5,-1232.63 575.5,-1229.63 575.5,-1229.63 575.5,-1223.63 575.5,-1223.63 575.5,-1220.63 578.5,-1217.63 581.5,-1217.63 581.5,-1217.63 643.5,-1217.63 643.5,-1217.63 646.5,-1217.63 649.5,-1220.63 649.5,-1223.63 649.5,-1223.63 649.5,-1229.63 649.5,-1229.63 649.5,-1232.63 646.5,-1235.63 643.5,-1235.63"/>
<text text-anchor="start" x="583.5" y="-1224.43" font-family="Helvetica,sans-Serif" font-size="9.00">authActions.js</text>
</a>
</g>
</g>
<!-- src/App.js&#45;&gt;src/store/auth/authActions.js -->
<g id="edge6" class="edge">
<title>src/App.js&#45;&gt;src/store/auth/authActions.js</title>
<path fill="none" stroke="#000000" stroke-width="2" stroke-opacity="0.200000" d="M114.65,-1199.92C120.03,-1219.13 132.3,-1264.67 139,-1303.63 141.84,-1320.15 134.54,-1367.42 147,-1378.63 269.29,-1488.57 373.26,-1458.52 517,-1378.63 569.38,-1349.51 596.47,-1277.99 606.65,-1244.49"/>
<polygon fill="#000000" fill-opacity="0.200000" stroke="#000000" stroke-width="2" stroke-opacity="0.200000" points="608.58,-1245.37 608.24,-1239.02 604.55,-1244.2 608.58,-1245.37"/>
</g>
<!-- src/assets/icons/index.js -->
<g id="node8" class="node">
<title>src/assets/icons/index.js</title>
<g id="a_node8"><a xlink:href="src/assets/icons/index.js" xlink:title="index.js">
<path fill="#ffffcc" stroke="black" d="M633.5,-581.63C633.5,-581.63 591.5,-581.63 591.5,-581.63 588.5,-581.63 585.5,-578.63 585.5,-575.63 585.5,-575.63 585.5,-569.63 585.5,-569.63 585.5,-566.63 588.5,-563.63 591.5,-563.63 591.5,-563.63 633.5,-563.63 633.5,-563.63 636.5,-563.63 639.5,-566.63 639.5,-569.63 639.5,-569.63 639.5,-575.63 639.5,-575.63 639.5,-578.63 636.5,-581.63 633.5,-581.63"/>
<text text-anchor="start" x="596.5" y="-570.43" font-family="Helvetica,sans-Serif" font-size="9.00">index.js</text>
</a>
</g>
</g>
<!-- src/components/loader/index.js&#45;&gt;src/assets/icons/index.js -->
<g id="edge8" class="edge">
<title>src/components/loader/index.js&#45;&gt;src/assets/icons/index.js</title>
<path fill="none" stroke="#000000" stroke-width="2" stroke-opacity="0.200000" d="M454.72,-598.33C486.7,-593.09 540.88,-584.21 576.42,-578.38"/>
<polygon fill="#000000" fill-opacity="0.200000" stroke="#000000" stroke-width="2" stroke-opacity="0.200000" points="576.46,-580.5 582.05,-577.46 575.78,-576.35 576.46,-580.5"/>
</g>
<!-- src/data/menuItems.js&#45;&gt;src/assets/icons/index.js -->
<g id="edge11" class="edge">
<title>src/data/menuItems.js&#45;&gt;src/assets/icons/index.js</title>
<path fill="none" stroke="#000000" stroke-width="2" stroke-opacity="0.200000" d="M464.56,-872.28C482.97,-872.02 504.14,-868.05 517,-853.63 534.85,-833.62 515.21,-635 530,-612.63 540.68,-596.47 559.89,-586.61 576.98,-580.72"/>
<polygon fill="#000000" fill-opacity="0.200000" stroke="#000000" stroke-width="2" stroke-opacity="0.200000" points="577.17,-582.86 582.26,-579.05 575.91,-578.86 577.17,-582.86"/>
</g>
<!-- src/pages/dashboard/index.js -->
<g id="node15" class="node">
<title>src/pages/dashboard/index.js</title>
<g id="a_node15"><a xlink:href="src/pages/dashboard/index.js" xlink:title="index.js">
<path fill="#ffffcc" stroke="black" d="M211,-322.63C211,-322.63 169,-322.63 169,-322.63 166,-322.63 163,-319.63 163,-316.63 163,-316.63 163,-310.63 163,-310.63 163,-307.63 166,-304.63 169,-304.63 169,-304.63 211,-304.63 211,-304.63 214,-304.63 217,-307.63 217,-310.63 217,-310.63 217,-316.63 217,-316.63 217,-319.63 214,-322.63 211,-322.63"/>
<text text-anchor="start" x="174" y="-311.43" font-family="Helvetica,sans-Serif" font-size="9.00">index.js</text>
</a>
</g>
</g>
<!-- src/data/menuItems.js&#45;&gt;src/pages/dashboard/index.js -->
<g id="edge12" class="edge">
<title>src/data/menuItems.js&#45;&gt;src/pages/dashboard/index.js</title>
<path fill="none" stroke="#000000" stroke-width="2" stroke-opacity="0.200000" d="M390.09,-872.29C369.92,-872.26 345.79,-868.51 330,-853.63 329.37,-853.04 225.32,-369.43 225,-368.63 219.44,-354.86 210.55,-340.63 203.25,-330.1"/>
<polygon fill="#000000" fill-opacity="0.200000" stroke="#000000" stroke-width="2" stroke-opacity="0.200000" points="205.02,-328.96 199.83,-325.3 201.6,-331.4 205.02,-328.96"/>
</g>
<!-- src/pages/temp/index.js -->
<g id="node16" class="node">
<title>src/pages/temp/index.js</title>
<g id="a_node16"><a xlink:href="src/pages/temp/index.js" xlink:title="index.js">
<path fill="#ffffcc" stroke="black" d="M211,-397.63C211,-397.63 169,-397.63 169,-397.63 166,-397.63 163,-394.63 163,-391.63 163,-391.63 163,-385.63 163,-385.63 163,-382.63 166,-379.63 169,-379.63 169,-379.63 211,-379.63 211,-379.63 214,-379.63 217,-382.63 217,-385.63 217,-385.63 217,-391.63 217,-391.63 217,-394.63 214,-397.63 211,-397.63"/>
<text text-anchor="start" x="174" y="-386.43" font-family="Helvetica,sans-Serif" font-size="9.00">index.js</text>
</a>
</g>
</g>
<!-- src/data/menuItems.js&#45;&gt;src/pages/temp/index.js -->
<g id="edge13" class="edge">
<title>src/data/menuItems.js&#45;&gt;src/pages/temp/index.js</title>
<path fill="none" stroke="#000000" stroke-width="2" stroke-opacity="0.200000" d="M390.22,-864.37C339.36,-857.54 251.01,-842.24 233,-816.63 219.74,-797.76 238.26,-420.5 225,-401.63 224.75,-401.28 224.5,-400.94 224.23,-400.61"/>
<polygon fill="#000000" fill-opacity="0.200000" stroke="#000000" stroke-width="2" stroke-opacity="0.200000" points="225.71,-399.1 219.76,-396.86 223.01,-402.32 225.71,-399.1"/>
</g>
<!-- src/components/search/index.js -->
<g id="node12" class="node">
<title>src/components/search/index.js</title>
<g id="a_node12"><a xlink:href="src/components/search/index.js" xlink:title="index.js">
<path fill="#ffffcc" stroke="black" d="M448.5,-671.63C448.5,-671.63 406.5,-671.63 406.5,-671.63 403.5,-671.63 400.5,-668.63 400.5,-665.63 400.5,-665.63 400.5,-659.63 400.5,-659.63 400.5,-656.63 403.5,-653.63 406.5,-653.63 406.5,-653.63 448.5,-653.63 448.5,-653.63 451.5,-653.63 454.5,-656.63 454.5,-659.63 454.5,-659.63 454.5,-665.63 454.5,-665.63 454.5,-668.63 451.5,-671.63 448.5,-671.63"/>
<text text-anchor="start" x="411.5" y="-660.43" font-family="Helvetica,sans-Serif" font-size="9.00">index.js</text>
</a>
</g>
</g>
<!-- src/layout/header/index.js&#45;&gt;src/components/search/index.js -->
<g id="edge25" class="edge">
<title>src/layout/header/index.js&#45;&gt;src/components/search/index.js</title>
<path fill="none" stroke="#000000" stroke-width="2" stroke-opacity="0.200000" d="M217.43,-1184.33C220.38,-1182.61 223.03,-1180.42 225,-1177.63 236.15,-1161.82 225.54,-847.47 233,-829.63 254.94,-777.14 283.32,-779.34 322,-737.63 325.64,-733.7 325.98,-732.16 330,-728.63 353,-708.38 382.43,-689.06 402.71,-676.62"/>
<polygon fill="#000000" fill-opacity="0.200000" stroke="#000000" stroke-width="2" stroke-opacity="0.200000" points="403.63,-678.51 407.67,-673.61 401.45,-674.92 403.63,-678.51"/>
</g>
<!-- src/layout/header/PageTitle.js -->
<g id="node23" class="node">
<title>src/layout/header/PageTitle.js</title>
<g id="a_node23"><a xlink:href="src/layout/header/PageTitle.js" xlink:title="PageTitle.js">
<path fill="#ffffcc" stroke="black" d="M304,-1229.63C304,-1229.63 251,-1229.63 251,-1229.63 248,-1229.63 245,-1226.63 245,-1223.63 245,-1223.63 245,-1217.63 245,-1217.63 245,-1214.63 248,-1211.63 251,-1211.63 251,-1211.63 304,-1211.63 304,-1211.63 307,-1211.63 310,-1214.63 310,-1217.63 310,-1217.63 310,-1223.63 310,-1223.63 310,-1226.63 307,-1229.63 304,-1229.63"/>
<text text-anchor="start" x="253" y="-1218.43" font-family="Helvetica,sans-Serif" font-size="9.00">PageTitle.js</text>
</a>
</g>
</g>
<!-- src/layout/header/index.js&#45;&gt;src/layout/header/PageTitle.js -->
<g id="edge26" class="edge">
<title>src/layout/header/index.js&#45;&gt;src/layout/header/PageTitle.js</title>
<path fill="none" stroke="#000000" stroke-width="2" stroke-opacity="0.200000" d="M217.2,-1200.03C222.43,-1201.9 227.89,-1203.83 233,-1205.63 235.4,-1206.47 237.88,-1207.34 240.38,-1208.21"/>
<polygon fill="#000000" fill-opacity="0.200000" stroke="#000000" stroke-width="2" stroke-opacity="0.200000" points="239.65,-1210.18 246.01,-1210.16 241.03,-1206.21 239.65,-1210.18"/>
</g>
<!-- src/layout/header/Profile.js -->
<g id="node26" class="node">
<title>src/layout/header/Profile.js</title>
<g id="a_node26"><a xlink:href="src/layout/header/Profile.js" xlink:title="Profile.js">
<path fill="#ffffcc" stroke="black" d="M298.5,-1199.63C298.5,-1199.63 256.5,-1199.63 256.5,-1199.63 253.5,-1199.63 250.5,-1196.63 250.5,-1193.63 250.5,-1193.63 250.5,-1187.63 250.5,-1187.63 250.5,-1184.63 253.5,-1181.63 256.5,-1181.63 256.5,-1181.63 298.5,-1181.63 298.5,-1181.63 301.5,-1181.63 304.5,-1184.63 304.5,-1187.63 304.5,-1187.63 304.5,-1193.63 304.5,-1193.63 304.5,-1196.63 301.5,-1199.63 298.5,-1199.63"/>
<text text-anchor="start" x="259" y="-1188.43" font-family="Helvetica,sans-Serif" font-size="9.00">Profile.js</text>
</a>
</g>
</g>
<!-- src/layout/header/index.js&#45;&gt;src/layout/header/Profile.js -->
<g id="edge27" class="edge">
<title>src/layout/header/index.js&#45;&gt;src/layout/header/Profile.js</title>
<path fill="none" stroke="#000000" stroke-width="2" stroke-opacity="0.200000" d="M217.12,-1190.63C224.75,-1190.63 233.23,-1190.63 241.33,-1190.63"/>
<polygon fill="#000000" fill-opacity="0.200000" stroke="#000000" stroke-width="2" stroke-opacity="0.200000" points="241.22,-1192.73 247.22,-1190.63 241.22,-1188.53 241.22,-1192.73"/>
</g>
<!-- src/hooks/useOutsideAlerter.js -->
<g id="node18" class="node">
<title>src/hooks/useOutsideAlerter.js</title>
<g id="a_node18"><a xlink:href="src/hooks/useOutsideAlerter.js" xlink:title="useOutsideAlerter.js">
<path fill="#ffffcc" stroke="black" d="M472,-787.63C472,-787.63 383,-787.63 383,-787.63 380,-787.63 377,-784.63 377,-781.63 377,-781.63 377,-775.63 377,-775.63 377,-772.63 380,-769.63 383,-769.63 383,-769.63 472,-769.63 472,-769.63 475,-769.63 478,-772.63 478,-775.63 478,-775.63 478,-781.63 478,-781.63 478,-784.63 475,-787.63 472,-787.63"/>
<text text-anchor="start" x="385" y="-776.43" font-family="Helvetica,sans-Serif" font-size="9.00">useOutsideAlerter.js</text>
</a>
</g>
</g>
<!-- src/layout/menu/index.js&#45;&gt;src/hooks/useOutsideAlerter.js -->
<g id="edge35" class="edge">
<title>src/layout/menu/index.js&#45;&gt;src/hooks/useOutsideAlerter.js</title>
<path fill="none" stroke="#000000" stroke-width="2" stroke-opacity="0.200000" d="M202.9,-1286.31C210.63,-1279.53 220.12,-1269.64 225,-1258.63 240.9,-1222.72 225.98,-1209.27 233,-1170.63 262.02,-1010.97 222.59,-940.27 330,-818.63 341.35,-805.78 357.47,-796.96 373.3,-790.96"/>
<polygon fill="#000000" fill-opacity="0.200000" stroke="#000000" stroke-width="2" stroke-opacity="0.200000" points="373.7,-793.04 378.66,-789.07 372.31,-789.08 373.7,-793.04"/>
</g>
<!-- src/store/ui/uiSlice.js -->
<g id="node24" class="node">
<title>src/store/ui/uiSlice.js</title>
<g id="a_node24"><a xlink:href="src/store/ui/uiSlice.js" xlink:title="uiSlice.js">
<path fill="#ffffcc" stroke="black" d="M775,-1175.63C775,-1175.63 733,-1175.63 733,-1175.63 730,-1175.63 727,-1172.63 727,-1169.63 727,-1169.63 727,-1163.63 727,-1163.63 727,-1160.63 730,-1157.63 733,-1157.63 733,-1157.63 775,-1157.63 775,-1157.63 778,-1157.63 781,-1160.63 781,-1163.63 781,-1163.63 781,-1169.63 781,-1169.63 781,-1172.63 778,-1175.63 775,-1175.63"/>
<text text-anchor="start" x="735" y="-1164.43" font-family="Helvetica,sans-Serif" font-size="9.00">uiSlice.js</text>
</a>
</g>
</g>
<!-- src/layout/menu/index.js&#45;&gt;src/store/ui/uiSlice.js -->
<g id="edge36" class="edge">
<title>src/layout/menu/index.js&#45;&gt;src/store/ui/uiSlice.js</title>
<path fill="none" stroke="#000000" stroke-width="2" stroke-opacity="0.200000" d="M217.39,-1302.4C220.28,-1304.04 222.92,-1306.09 225,-1308.63 238.44,-1325.01 216.81,-1341.96 233,-1355.63 327.47,-1435.38 403.51,-1636.92 711,-1327.63 720.5,-1318.07 713.94,-1219.11 719,-1206.63 722.7,-1197.51 729.33,-1188.96 735.76,-1182.13"/>
<polygon fill="#000000" fill-opacity="0.200000" stroke="#000000" stroke-width="2" stroke-opacity="0.200000" points="737.09,-1183.77 739.86,-1178.05 734.12,-1180.79 737.09,-1183.77"/>
</g>
<!-- src/layout/menu/Logo.js -->
<g id="node27" class="node">
<title>src/layout/menu/Logo.js</title>
<g id="a_node27"><a xlink:href="src/layout/menu/Logo.js" xlink:title="Logo.js">
<path fill="#ffffcc" stroke="black" d="M298.5,-1319.63C298.5,-1319.63 256.5,-1319.63 256.5,-1319.63 253.5,-1319.63 250.5,-1316.63 250.5,-1313.63 250.5,-1313.63 250.5,-1307.63 250.5,-1307.63 250.5,-1304.63 253.5,-1301.63 256.5,-1301.63 256.5,-1301.63 298.5,-1301.63 298.5,-1301.63 301.5,-1301.63 304.5,-1304.63 304.5,-1307.63 304.5,-1307.63 304.5,-1313.63 304.5,-1313.63 304.5,-1316.63 301.5,-1319.63 298.5,-1319.63"/>
<text text-anchor="start" x="262" y="-1308.43" font-family="Helvetica,sans-Serif" font-size="9.00">Logo.js</text>
</a>
</g>
</g>
<!-- src/layout/menu/index.js&#45;&gt;src/layout/menu/Logo.js -->
<g id="edge37" class="edge">
<title>src/layout/menu/index.js&#45;&gt;src/layout/menu/Logo.js</title>
<path fill="none" stroke="#000000" stroke-width="2" stroke-opacity="0.200000" d="M217.12,-1300.21C224.84,-1301.56 233.41,-1303.07 241.59,-1304.5"/>
<polygon fill="#000000" fill-opacity="0.200000" stroke="#000000" stroke-width="2" stroke-opacity="0.200000" points="240.99,-1306.53 247.27,-1305.5 241.72,-1302.39 240.99,-1306.53"/>
</g>
<!-- src/layout/menu/Logout.js -->
<g id="node28" class="node">
<title>src/layout/menu/Logout.js</title>
<g id="a_node28"><a xlink:href="src/layout/menu/Logout.js" xlink:title="Logout.js">
<path fill="#ffffcc" stroke="black" d="M299,-1349.63C299,-1349.63 256,-1349.63 256,-1349.63 253,-1349.63 250,-1346.63 250,-1343.63 250,-1343.63 250,-1337.63 250,-1337.63 250,-1334.63 253,-1331.63 256,-1331.63 256,-1331.63 299,-1331.63 299,-1331.63 302,-1331.63 305,-1334.63 305,-1337.63 305,-1337.63 305,-1343.63 305,-1343.63 305,-1346.63 302,-1349.63 299,-1349.63"/>
<text text-anchor="start" x="258" y="-1338.43" font-family="Helvetica,sans-Serif" font-size="9.00">Logout.js</text>
</a>
</g>
</g>
<!-- src/layout/menu/index.js&#45;&gt;src/layout/menu/Logout.js -->
<g id="edge38" class="edge">
<title>src/layout/menu/index.js&#45;&gt;src/layout/menu/Logout.js</title>
<path fill="none" stroke="#000000" stroke-width="2" stroke-opacity="0.200000" d="M217.46,-1303.34C220.19,-1304.82 222.78,-1306.56 225,-1308.63 231.12,-1314.31 226.79,-1320.05 233,-1325.63 235.6,-1327.96 238.58,-1329.94 241.74,-1331.61"/>
<polygon fill="#000000" fill-opacity="0.200000" stroke="#000000" stroke-width="2" stroke-opacity="0.200000" points="240.72,-1333.45 247.06,-1333.94 242.41,-1329.61 240.72,-1333.45"/>
</g>
<!-- src/layout/menu/MenuContainer.js -->
<g id="node29" class="node">
<title>src/layout/menu/MenuContainer.js</title>
<g id="a_node29"><a xlink:href="src/layout/menu/MenuContainer.js" xlink:title="MenuContainer.js">
<path fill="#ffffcc" stroke="black" d="M316,-1289.63C316,-1289.63 239,-1289.63 239,-1289.63 236,-1289.63 233,-1286.63 233,-1283.63 233,-1283.63 233,-1277.63 233,-1277.63 233,-1274.63 236,-1271.63 239,-1271.63 239,-1271.63 316,-1271.63 316,-1271.63 319,-1271.63 322,-1274.63 322,-1277.63 322,-1277.63 322,-1283.63 322,-1283.63 322,-1286.63 319,-1289.63 316,-1289.63"/>
<text text-anchor="start" x="241" y="-1278.43" font-family="Helvetica,sans-Serif" font-size="9.00">MenuContainer.js</text>
</a>
</g>
</g>
<!-- src/layout/menu/index.js&#45;&gt;src/layout/menu/MenuContainer.js -->
<g id="edge39" class="edge">
<title>src/layout/menu/index.js&#45;&gt;src/layout/menu/MenuContainer.js</title>
<path fill="none" stroke="#000000" stroke-width="2" stroke-opacity="0.200000" d="M217.12,-1291.05C219.27,-1290.67 221.48,-1290.28 223.74,-1289.88"/>
<polygon fill="#000000" fill-opacity="0.200000" stroke="#000000" stroke-width="2" stroke-opacity="0.200000" points="224.04,-1291.96 229.59,-1288.86 223.31,-1287.83 224.04,-1291.96"/>
</g>
<!-- src/pages/login&#45;register/Hero.js -->
<g id="node38" class="node">
<title>src/pages/login&#45;register/Hero.js</title>
<g id="a_node38"><a xlink:href="src/pages/login-register/Hero.js" xlink:title="Hero.js">
<path fill="#ffffcc" stroke="black" d="M298.5,-157.63C298.5,-157.63 256.5,-157.63 256.5,-157.63 253.5,-157.63 250.5,-154.63 250.5,-151.63 250.5,-151.63 250.5,-145.63 250.5,-145.63 250.5,-142.63 253.5,-139.63 256.5,-139.63 256.5,-139.63 298.5,-139.63 298.5,-139.63 301.5,-139.63 304.5,-142.63 304.5,-145.63 304.5,-145.63 304.5,-151.63 304.5,-151.63 304.5,-154.63 301.5,-157.63 298.5,-157.63"/>
<text text-anchor="start" x="262" y="-146.43" font-family="Helvetica,sans-Serif" font-size="9.00">Hero.js</text>
</a>
</g>
</g>
<!-- src/pages/login&#45;register/index.js&#45;&gt;src/pages/login&#45;register/Hero.js -->
<g id="edge66" class="edge">
<title>src/pages/login&#45;register/index.js&#45;&gt;src/pages/login&#45;register/Hero.js</title>
<path fill="none" stroke="#000000" stroke-width="2" stroke-opacity="0.200000" d="M202.19,-184.27C210.33,-177.81 221.85,-169.38 233,-163.63 235.87,-162.15 238.91,-160.76 242.01,-159.48"/>
<polygon fill="#000000" fill-opacity="0.200000" stroke="#000000" stroke-width="2" stroke-opacity="0.200000" points="242.56,-161.52 247.4,-157.41 241.05,-157.6 242.56,-161.52"/>
</g>
<!-- src/pages/login&#45;register/Login.js -->
<g id="node39" class="node">
<title>src/pages/login&#45;register/Login.js</title>
<g id="a_node39"><a xlink:href="src/pages/login-register/Login.js" xlink:title="Login.js">
<path fill="#ffffcc" stroke="black" d="M298.5,-217.63C298.5,-217.63 256.5,-217.63 256.5,-217.63 253.5,-217.63 250.5,-214.63 250.5,-211.63 250.5,-211.63 250.5,-205.63 250.5,-205.63 250.5,-202.63 253.5,-199.63 256.5,-199.63 256.5,-199.63 298.5,-199.63 298.5,-199.63 301.5,-199.63 304.5,-202.63 304.5,-205.63 304.5,-205.63 304.5,-211.63 304.5,-211.63 304.5,-214.63 301.5,-217.63 298.5,-217.63"/>
<text text-anchor="start" x="260.5" y="-206.43" font-family="Helvetica,sans-Serif" font-size="9.00">Login.js</text>
</a>
</g>
</g>
<!-- src/pages/login&#45;register/index.js&#45;&gt;src/pages/login&#45;register/Login.js -->
<g id="edge67" class="edge">
<title>src/pages/login&#45;register/index.js&#45;&gt;src/pages/login&#45;register/Login.js</title>
<path fill="none" stroke="#000000" stroke-width="2" stroke-opacity="0.200000" d="M217.12,-198.21C224.84,-199.56 233.41,-201.07 241.59,-202.5"/>
<polygon fill="#000000" fill-opacity="0.200000" stroke="#000000" stroke-width="2" stroke-opacity="0.200000" points="240.99,-204.53 247.27,-203.5 241.72,-200.39 240.99,-204.53"/>
</g>
<!-- src/pages/login&#45;register/Register.js -->
<g id="node40" class="node">
<title>src/pages/login&#45;register/Register.js</title>
<g id="a_node40"><a xlink:href="src/pages/login-register/Register.js" xlink:title="Register.js">
<path fill="#ffffcc" stroke="black" d="M302.5,-187.63C302.5,-187.63 252.5,-187.63 252.5,-187.63 249.5,-187.63 246.5,-184.63 246.5,-181.63 246.5,-181.63 246.5,-175.63 246.5,-175.63 246.5,-172.63 249.5,-169.63 252.5,-169.63 252.5,-169.63 302.5,-169.63 302.5,-169.63 305.5,-169.63 308.5,-172.63 308.5,-175.63 308.5,-175.63 308.5,-181.63 308.5,-181.63 308.5,-184.63 305.5,-187.63 302.5,-187.63"/>
<text text-anchor="start" x="254.5" y="-176.43" font-family="Helvetica,sans-Serif" font-size="9.00">Register.js</text>
</a>
</g>
</g>
<!-- src/pages/login&#45;register/index.js&#45;&gt;src/pages/login&#45;register/Register.js -->
<g id="edge68" class="edge">
<title>src/pages/login&#45;register/index.js&#45;&gt;src/pages/login&#45;register/Register.js</title>
<path fill="none" stroke="#000000" stroke-width="2" stroke-opacity="0.200000" d="M217.12,-189.05C223.54,-187.92 230.56,-186.69 237.44,-185.48"/>
<polygon fill="#000000" fill-opacity="0.200000" stroke="#000000" stroke-width="2" stroke-opacity="0.200000" points="237.52,-187.6 243.06,-184.49 236.79,-183.46 237.52,-187.6"/>
</g>
<!-- src/store/auth/authActions.js&#45;&gt;src/store/ui/uiSlice.js -->
<g id="edge70" class="edge">
<title>src/store/auth/authActions.js&#45;&gt;src/store/ui/uiSlice.js</title>
<path fill="none" stroke="#000000" stroke-width="2" stroke-opacity="0.200000" d="M649.61,-1227.73C668.83,-1226.9 692.29,-1223.54 711,-1213.63 714.67,-1211.68 728.77,-1195.5 739.63,-1182.66"/>
<polygon fill="#000000" fill-opacity="0.200000" stroke="#000000" stroke-width="2" stroke-opacity="0.200000" points="741.04,-1184.25 743.3,-1178.3 737.83,-1181.54 741.04,-1184.25"/>
</g>
<!-- src/store/auth/_srv.js -->
<g id="node42" class="node">
<title>src/store/auth/_srv.js</title>
<g id="a_node42"><a xlink:href="src/store/auth/_srv.js" xlink:title="_srv.js">
<path fill="#ffffcc" stroke="black" d="M775,-1235.63C775,-1235.63 733,-1235.63 733,-1235.63 730,-1235.63 727,-1232.63 727,-1229.63 727,-1229.63 727,-1223.63 727,-1223.63 727,-1220.63 730,-1217.63 733,-1217.63 733,-1217.63 775,-1217.63 775,-1217.63 778,-1217.63 781,-1220.63 781,-1223.63 781,-1223.63 781,-1229.63 781,-1229.63 781,-1232.63 778,-1235.63 775,-1235.63"/>
<text text-anchor="start" x="740" y="-1224.43" font-family="Helvetica,sans-Serif" font-size="9.00">_srv.js</text>
</a>
</g>
</g>
<!-- src/store/auth/authActions.js&#45;&gt;src/store/auth/_srv.js -->
<g id="edge71" class="edge">
<title>src/store/auth/authActions.js&#45;&gt;src/store/auth/_srv.js</title>
<path fill="none" stroke="#000000" stroke-width="2" stroke-opacity="0.200000" d="M649.79,-1226.63C667.55,-1226.63 689.1,-1226.63 707.91,-1226.63"/>
<polygon fill="#000000" fill-opacity="0.200000" stroke="#000000" stroke-width="2" stroke-opacity="0.200000" points="717.56,-1228.73 723.56,-1226.63 717.56,-1224.53 717.56,-1228.73"/>
<polyline fill="none" stroke="#000000" stroke-width="2" stroke-opacity="0.200000" points="716.56,-1226.63 713.56,-1226.63"/>
<ellipse fill="none" stroke="#000000" stroke-width="2" stroke-opacity="0.200000" cx="710.16" cy="-1226.63" rx="2.4" ry="2.4"/>
</g>
<!-- src/store/auth/authSlice.js -->
<g id="node43" class="node">
<title>src/store/auth/authSlice.js</title>
<g id="a_node43"><a xlink:href="src/store/auth/authSlice.js" xlink:title="authSlice.js">
<path fill="#ffffcc" stroke="black" d="M780.5,-1265.63C780.5,-1265.63 727.5,-1265.63 727.5,-1265.63 724.5,-1265.63 721.5,-1262.63 721.5,-1259.63 721.5,-1259.63 721.5,-1253.63 721.5,-1253.63 721.5,-1250.63 724.5,-1247.63 727.5,-1247.63 727.5,-1247.63 780.5,-1247.63 780.5,-1247.63 783.5,-1247.63 786.5,-1250.63 786.5,-1253.63 786.5,-1253.63 786.5,-1259.63 786.5,-1259.63 786.5,-1262.63 783.5,-1265.63 780.5,-1265.63"/>
<text text-anchor="start" x="729.5" y="-1254.43" font-family="Helvetica,sans-Serif" font-size="9.00">authSlice.js</text>
</a>
</g>
</g>
<!-- src/store/auth/authActions.js&#45;&gt;src/store/auth/authSlice.js -->
<g id="edge72" class="edge">
<title>src/store/auth/authActions.js&#45;&gt;src/store/auth/authSlice.js</title>
<path fill="none" stroke="#000000" stroke-width="2" stroke-opacity="0.200000" d="M649.79,-1234.43C668.97,-1238.56 692.58,-1243.63 712.37,-1247.89"/>
<polygon fill="#000000" fill-opacity="0.200000" stroke="#000000" stroke-width="2" stroke-opacity="0.200000" points="711.9,-1249.94 718.21,-1249.15 712.78,-1245.83 711.9,-1249.94"/>
</g>
<!-- src/assets/images/hero&#45;pattern.png -->
<g id="node9" class="node">
<title>src/assets/images/hero&#45;pattern.png</title>
<g id="a_node9"><a xlink:href="src/assets/images/hero-pattern.png" xlink:title="hero&#45;pattern.png">
<path fill="#ffffcc" stroke="black" d="M649,-641.63C649,-641.63 576,-641.63 576,-641.63 573,-641.63 570,-638.63 570,-635.63 570,-635.63 570,-629.63 570,-629.63 570,-626.63 573,-623.63 576,-623.63 576,-623.63 649,-623.63 649,-623.63 652,-623.63 655,-626.63 655,-629.63 655,-629.63 655,-635.63 655,-635.63 655,-638.63 652,-641.63 649,-641.63"/>
<text text-anchor="start" x="578" y="-630.43" font-family="Helvetica,sans-Serif" font-size="9.00">hero&#45;pattern.png</text>
</a>
</g>
</g>
<!-- src/assets/images/profile&#45;pic.jpg -->
<g id="node10" class="node">
<title>src/assets/images/profile&#45;pic.jpg</title>
<g id="a_node10"><a xlink:href="src/assets/images/profile-pic.jpg" xlink:title="profile&#45;pic.jpg">
<path fill="#ffffcc" stroke="black" d="M642.5,-671.63C642.5,-671.63 582.5,-671.63 582.5,-671.63 579.5,-671.63 576.5,-668.63 576.5,-665.63 576.5,-665.63 576.5,-659.63 576.5,-659.63 576.5,-656.63 579.5,-653.63 582.5,-653.63 582.5,-653.63 642.5,-653.63 642.5,-653.63 645.5,-653.63 648.5,-656.63 648.5,-659.63 648.5,-659.63 648.5,-665.63 648.5,-665.63 648.5,-668.63 645.5,-671.63 642.5,-671.63"/>
<text text-anchor="start" x="584.5" y="-660.43" font-family="Helvetica,sans-Serif" font-size="9.00">profile&#45;pic.jpg</text>
</a>
</g>
</g>
<!-- src/components/formInput/index.js -->
<g id="node11" class="node">
<title>src/components/formInput/index.js</title>
<g id="a_node11"><a xlink:href="src/components/formInput/index.js" xlink:title="index.js">
<path fill="#ffffcc" stroke="black" d="M448.5,-551.63C448.5,-551.63 406.5,-551.63 406.5,-551.63 403.5,-551.63 400.5,-548.63 400.5,-545.63 400.5,-545.63 400.5,-539.63 400.5,-539.63 400.5,-536.63 403.5,-533.63 406.5,-533.63 406.5,-533.63 448.5,-533.63 448.5,-533.63 451.5,-533.63 454.5,-536.63 454.5,-539.63 454.5,-539.63 454.5,-545.63 454.5,-545.63 454.5,-548.63 451.5,-551.63 448.5,-551.63"/>
<text text-anchor="start" x="411.5" y="-540.43" font-family="Helvetica,sans-Serif" font-size="9.00">index.js</text>
</a>
</g>
</g>
<!-- src/components/formInput/index.js&#45;&gt;src/assets/icons/index.js -->
<g id="edge7" class="edge">
<title>src/components/formInput/index.js&#45;&gt;src/assets/icons/index.js</title>
<path fill="none" stroke="#000000" stroke-width="2" stroke-opacity="0.200000" d="M454.72,-546.93C486.7,-552.17 540.88,-561.05 576.42,-566.88"/>
<polygon fill="#000000" fill-opacity="0.200000" stroke="#000000" stroke-width="2" stroke-opacity="0.200000" points="575.78,-568.9 582.05,-567.8 576.46,-564.76 575.78,-568.9"/>
</g>
<!-- src/components/search/index.js&#45;&gt;src/assets/icons/index.js -->
<g id="edge9" class="edge">
<title>src/components/search/index.js&#45;&gt;src/assets/icons/index.js</title>
<path fill="none" stroke="#000000" stroke-width="2" stroke-opacity="0.200000" d="M454.8,-661.97C473.97,-660.21 499.54,-655.04 517,-640.63 527.58,-631.9 520.4,-622.43 530,-612.63 542.96,-599.39 561.19,-589.88 577.13,-583.46"/>
<polygon fill="#000000" fill-opacity="0.200000" stroke="#000000" stroke-width="2" stroke-opacity="0.200000" points="577.52,-585.55 582.38,-581.46 576.03,-581.63 577.52,-585.55"/>
</g>
<!-- src/components/survayCard/index.js -->
<g id="node13" class="node">
<title>src/components/survayCard/index.js</title>
<g id="a_node13"><a xlink:href="src/components/survayCard/index.js" xlink:title="index.js">
<path fill="#ffffcc" stroke="black" d="M448.5,-491.63C448.5,-491.63 406.5,-491.63 406.5,-491.63 403.5,-491.63 400.5,-488.63 400.5,-485.63 400.5,-485.63 400.5,-479.63 400.5,-479.63 400.5,-476.63 403.5,-473.63 406.5,-473.63 406.5,-473.63 448.5,-473.63 448.5,-473.63 451.5,-473.63 454.5,-476.63 454.5,-479.63 454.5,-479.63 454.5,-485.63 454.5,-485.63 454.5,-488.63 451.5,-491.63 448.5,-491.63"/>
<text text-anchor="start" x="411.5" y="-480.43" font-family="Helvetica,sans-Serif" font-size="9.00">index.js</text>
</a>
</g>
</g>
<!-- src/components/survayCard/index.js&#45;&gt;src/assets/icons/index.js -->
<g id="edge10" class="edge">
<title>src/components/survayCard/index.js&#45;&gt;src/assets/icons/index.js</title>
<path fill="none" stroke="#000000" stroke-width="2" stroke-opacity="0.200000" d="M450.5,-492.12C468.51,-499.99 494.59,-511.65 517,-522.63 540.96,-534.37 567.8,-548.68 586.74,-558.99"/>
<polygon fill="#000000" fill-opacity="0.200000" stroke="#000000" stroke-width="2" stroke-opacity="0.200000" points="585.66,-560.79 591.94,-561.82 587.68,-557.1 585.66,-560.79"/>
</g>
<!-- src/data/cardsInfo.js -->
<g id="node14" class="node">
<title>src/data/cardsInfo.js</title>
<g id="a_node14"><a xlink:href="src/data/cardsInfo.js" xlink:title="cardsInfo.js">
<path fill="#ffffcc" stroke="black" d="M454,-847.63C454,-847.63 401,-847.63 401,-847.63 398,-847.63 395,-844.63 395,-841.63 395,-841.63 395,-835.63 395,-835.63 395,-832.63 398,-829.63 401,-829.63 401,-829.63 454,-829.63 454,-829.63 457,-829.63 460,-832.63 460,-835.63 460,-835.63 460,-841.63 460,-841.63 460,-844.63 457,-847.63 454,-847.63"/>
<text text-anchor="start" x="403" y="-836.43" font-family="Helvetica,sans-Serif" font-size="9.00">cardsInfo.js</text>
</a>
</g>
</g>
<!-- src/pages/dashboard/Recent.js -->
<g id="node31" class="node">
<title>src/pages/dashboard/Recent.js</title>
<g id="a_node31"><a xlink:href="src/pages/dashboard/Recent.js" xlink:title="Recent.js">
<path fill="#ffffcc" stroke="black" d="M299.5,-277.63C299.5,-277.63 255.5,-277.63 255.5,-277.63 252.5,-277.63 249.5,-274.63 249.5,-271.63 249.5,-271.63 249.5,-265.63 249.5,-265.63 249.5,-262.63 252.5,-259.63 255.5,-259.63 255.5,-259.63 299.5,-259.63 299.5,-259.63 302.5,-259.63 305.5,-262.63 305.5,-265.63 305.5,-265.63 305.5,-271.63 305.5,-271.63 305.5,-274.63 302.5,-277.63 299.5,-277.63"/>
<text text-anchor="start" x="257.5" y="-266.43" font-family="Helvetica,sans-Serif" font-size="9.00">Recent.js</text>
</a>
</g>
</g>
<!-- src/pages/dashboard/index.js&#45;&gt;src/pages/dashboard/Recent.js -->
<g id="edge49" class="edge">
<title>src/pages/dashboard/index.js&#45;&gt;src/pages/dashboard/Recent.js</title>
<path fill="none" stroke="#000000" stroke-width="2" stroke-opacity="0.200000" d="M202.19,-304.27C210.33,-297.81 221.85,-289.38 233,-283.63 235.56,-282.31 238.25,-281.07 241,-279.9"/>
<polygon fill="#000000" fill-opacity="0.200000" stroke="#000000" stroke-width="2" stroke-opacity="0.200000" points="241.67,-281.89 246.49,-277.75 240.14,-277.98 241.67,-281.89"/>
</g>
<!-- src/pages/dashboard/Survay.js -->
<g id="node34" class="node">
<title>src/pages/dashboard/Survay.js</title>
<g id="a_node34"><a xlink:href="src/pages/dashboard/Survay.js" xlink:title="Survay.js">
<path fill="#ffffcc" stroke="black" d="M298.5,-337.63C298.5,-337.63 256.5,-337.63 256.5,-337.63 253.5,-337.63 250.5,-334.63 250.5,-331.63 250.5,-331.63 250.5,-325.63 250.5,-325.63 250.5,-322.63 253.5,-319.63 256.5,-319.63 256.5,-319.63 298.5,-319.63 298.5,-319.63 301.5,-319.63 304.5,-322.63 304.5,-325.63 304.5,-325.63 304.5,-331.63 304.5,-331.63 304.5,-334.63 301.5,-337.63 298.5,-337.63"/>
<text text-anchor="start" x="259" y="-326.43" font-family="Helvetica,sans-Serif" font-size="9.00">Survay.js</text>
</a>
</g>
</g>
<!-- src/pages/dashboard/index.js&#45;&gt;src/pages/dashboard/Survay.js -->
<g id="edge50" class="edge">
<title>src/pages/dashboard/index.js&#45;&gt;src/pages/dashboard/Survay.js</title>
<path fill="none" stroke="#000000" stroke-width="2" stroke-opacity="0.200000" d="M217.12,-318.21C224.84,-319.56 233.41,-321.07 241.59,-322.5"/>
<polygon fill="#000000" fill-opacity="0.200000" stroke="#000000" stroke-width="2" stroke-opacity="0.200000" points="240.99,-324.53 247.27,-323.5 241.72,-320.39 240.99,-324.53"/>
</g>
<!-- src/pages/dashboard/Top.js -->
<g id="node35" class="node">
<title>src/pages/dashboard/Top.js</title>
<g id="a_node35"><a xlink:href="src/pages/dashboard/Top.js" xlink:title="Top.js">
<path fill="#ffffcc" stroke="black" d="M298.5,-307.63C298.5,-307.63 256.5,-307.63 256.5,-307.63 253.5,-307.63 250.5,-304.63 250.5,-301.63 250.5,-301.63 250.5,-295.63 250.5,-295.63 250.5,-292.63 253.5,-289.63 256.5,-289.63 256.5,-289.63 298.5,-289.63 298.5,-289.63 301.5,-289.63 304.5,-292.63 304.5,-295.63 304.5,-295.63 304.5,-301.63 304.5,-301.63 304.5,-304.63 301.5,-307.63 298.5,-307.63"/>
<text text-anchor="start" x="264.5" y="-296.43" font-family="Helvetica,sans-Serif" font-size="9.00">Top.js</text>
</a>
</g>
</g>
<!-- src/pages/dashboard/index.js&#45;&gt;src/pages/dashboard/Top.js -->
<g id="edge51" class="edge">
<title>src/pages/dashboard/index.js&#45;&gt;src/pages/dashboard/Top.js</title>
<path fill="none" stroke="#000000" stroke-width="2" stroke-opacity="0.200000" d="M217.12,-309.05C224.84,-307.69 233.41,-306.19 241.59,-304.75"/>
<polygon fill="#000000" fill-opacity="0.200000" stroke="#000000" stroke-width="2" stroke-opacity="0.200000" points="241.72,-306.86 247.27,-303.76 240.99,-302.72 241.72,-306.86"/>
</g>
<!-- src/data/routesWithoutMainLoader.js -->
<g id="node17" class="node">
<title>src/data/routesWithoutMainLoader.js</title>
<g id="a_node17"><a xlink:href="src/data/routesWithoutMainLoader.js" xlink:title="routesWithoutMainLoader.js">
<path fill="#ffffcc" stroke="black" d="M487.5,-907.63C487.5,-907.63 367.5,-907.63 367.5,-907.63 364.5,-907.63 361.5,-904.63 361.5,-901.63 361.5,-901.63 361.5,-895.63 361.5,-895.63 361.5,-892.63 364.5,-889.63 367.5,-889.63 367.5,-889.63 487.5,-889.63 487.5,-889.63 490.5,-889.63 493.5,-892.63 493.5,-895.63 493.5,-895.63 493.5,-901.63 493.5,-901.63 493.5,-904.63 490.5,-907.63 487.5,-907.63"/>
<text text-anchor="start" x="369.5" y="-896.43" font-family="Helvetica,sans-Serif" font-size="9.00">routesWithoutMainLoader.js</text>
</a>
</g>
</g>
<!-- src/hooks/useUsernameValidation.js -->
<g id="node19" class="node">
<title>src/hooks/useUsernameValidation.js</title>
<g id="a_node19"><a xlink:href="src/hooks/useUsernameValidation.js" xlink:title="useUsernameValidation.js">
<path fill="#ffffcc" stroke="black" d="M485,-757.63C485,-757.63 370,-757.63 370,-757.63 367,-757.63 364,-754.63 364,-751.63 364,-751.63 364,-745.63 364,-745.63 364,-742.63 367,-739.63 370,-739.63 370,-739.63 485,-739.63 485,-739.63 488,-739.63 491,-742.63 491,-745.63 491,-745.63 491,-751.63 491,-751.63 491,-754.63 488,-757.63 485,-757.63"/>
<text text-anchor="start" x="372" y="-746.43" font-family="Helvetica,sans-Serif" font-size="9.00">useUsernameValidation.js</text>
</a>
</g>
</g>
<!-- src/index.css -->
<g id="node20" class="node">
<title>src/index.css</title>
<g id="a_node20"><a xlink:href="src/index.css" xlink:title="index.css">
<path fill="#ffffcc" stroke="black" d="M133,-1327.63C133,-1327.63 89,-1327.63 89,-1327.63 86,-1327.63 83,-1324.63 83,-1321.63 83,-1321.63 83,-1315.63 83,-1315.63 83,-1312.63 86,-1309.63 89,-1309.63 89,-1309.63 133,-1309.63 133,-1309.63 136,-1309.63 139,-1312.63 139,-1315.63 139,-1315.63 139,-1321.63 139,-1321.63 139,-1324.63 136,-1327.63 133,-1327.63"/>
<text text-anchor="start" x="91" y="-1316.43" font-family="Helvetica,sans-Serif" font-size="9.00">index.css</text>
</a>
</g>
</g>
<!-- src/index.js -->
<g id="node21" class="node">
<title>src/index.js</title>
<g id="a_node21"><a xlink:href="src/index.js" xlink:title="index.js">
<path fill="#ffffcc" stroke="black" d="M64,-1327.63C64,-1327.63 22,-1327.63 22,-1327.63 19,-1327.63 16,-1324.63 16,-1321.63 16,-1321.63 16,-1315.63 16,-1315.63 16,-1312.63 19,-1309.63 22,-1309.63 22,-1309.63 64,-1309.63 64,-1309.63 67,-1309.63 70,-1312.63 70,-1315.63 70,-1315.63 70,-1321.63 70,-1321.63 70,-1324.63 67,-1327.63 64,-1327.63"/>
<text text-anchor="start" x="27" y="-1316.43" font-family="Helvetica,sans-Serif" font-size="9.00">index.js</text>
</a>
</g>
</g>
<!-- src/index.js&#45;&gt;src/App.js -->
<g id="edge14" class="edge">
<title>src/index.js&#45;&gt;src/App.js</title>
<path fill="none" stroke="#000000" stroke-width="2" stroke-opacity="0.200000" d="M48.75,-1309.42C59.68,-1288.22 86.8,-1235.63 101,-1208.09"/>
<polygon fill="#000000" fill-opacity="0.200000" stroke="#000000" stroke-width="2" stroke-opacity="0.200000" points="102.85,-1209.08 103.73,-1202.79 99.11,-1207.16 102.85,-1209.08"/>
</g>
<!-- src/index.js&#45;&gt;src/index.css -->
<g id="edge15" class="edge">
<title>src/index.js&#45;&gt;src/index.css</title>
<path fill="none" stroke="#000000" stroke-width="2" stroke-opacity="0.200000" d="M70.46,-1318.63C71.59,-1318.63 72.73,-1318.63 73.88,-1318.63"/>
<polygon fill="#000000" fill-opacity="0.200000" stroke="#000000" stroke-width="2" stroke-opacity="0.200000" points="73.64,-1320.73 79.64,-1318.63 73.64,-1316.53 73.64,-1320.73"/>
</g>
<!-- src/store/index.js -->
<g id="node22" class="node">
<title>src/store/index.js</title>
<g id="a_node22"><a xlink:href="src/store/index.js" xlink:title="index.js">
<path fill="#ffffcc" stroke="black" d="M633.5,-1175.63C633.5,-1175.63 591.5,-1175.63 591.5,-1175.63 588.5,-1175.63 585.5,-1172.63 585.5,-1169.63 585.5,-1169.63 585.5,-1163.63 585.5,-1163.63 585.5,-1160.63 588.5,-1157.63 591.5,-1157.63 591.5,-1157.63 633.5,-1157.63 633.5,-1157.63 636.5,-1157.63 639.5,-1160.63 639.5,-1163.63 639.5,-1163.63 639.5,-1169.63 639.5,-1169.63 639.5,-1172.63 636.5,-1175.63 633.5,-1175.63"/>
<text text-anchor="start" x="596.5" y="-1164.43" font-family="Helvetica,sans-Serif" font-size="9.00">index.js</text>
</a>
</g>
</g>
<!-- src/index.js&#45;&gt;src/store/index.js -->
<g id="edge16" class="edge">
<title>src/index.js&#45;&gt;src/store/index.js</title>
<path fill="none" stroke="#000000" stroke-width="2" stroke-opacity="0.200000" d="M49.24,-1328.04C65.75,-1356.33 119.73,-1438.63 189,-1438.63 189,-1438.63 189,-1438.63 278.5,-1438.63 387.8,-1438.63 446.59,-1462.24 517,-1378.63 541.69,-1349.31 508.52,-1238.37 530,-1206.63 540.86,-1190.59 560.07,-1180.73 577.12,-1174.81"/>
<polygon fill="#000000" fill-opacity="0.200000" stroke="#000000" stroke-width="2" stroke-opacity="0.200000" points="577.3,-1176.96 582.38,-1173.14 576.03,-1172.96 577.3,-1176.96"/>
</g>
<!-- src/store/index.js&#45;&gt;src/store/ui/uiSlice.js -->
<g id="edge74" class="edge">
<title>src/store/index.js&#45;&gt;src/store/ui/uiSlice.js</title>
<path fill="none" stroke="#000000" stroke-width="2" stroke-opacity="0.200000" d="M639.74,-1166.63C661.85,-1166.63 693.69,-1166.63 717.97,-1166.63"/>
<polygon fill="#000000" fill-opacity="0.200000" stroke="#000000" stroke-width="2" stroke-opacity="0.200000" points="717.85,-1168.73 723.85,-1166.63 717.85,-1164.53 717.85,-1168.73"/>
</g>
<!-- src/store/index.js&#45;&gt;src/store/auth/authSlice.js -->
<g id="edge73" class="edge">
<title>src/store/index.js&#45;&gt;src/store/auth/authSlice.js</title>
<path fill="none" stroke="#000000" stroke-width="2" stroke-opacity="0.200000" d="M639.8,-1170.56C662.02,-1175.29 693.02,-1185.41 711,-1206.63 719.87,-1217.09 711.9,-1226.33 719.98,-1240.14"/>
<polygon fill="#000000" fill-opacity="0.200000" stroke="#000000" stroke-width="2" stroke-opacity="0.200000" points="718.28,-1241.36 723.56,-1244.89 721.63,-1238.84 718.28,-1241.36"/>
</g>
<!-- src/layout/header/PageTitle.js&#45;&gt;src/assets/icons/index.js -->
<g id="edge17" class="edge">
<title>src/layout/header/PageTitle.js&#45;&gt;src/assets/icons/index.js</title>
<path fill="none" stroke="#000000" stroke-width="2" stroke-opacity="0.200000" d="M310.08,-1214.91C314.73,-1212.73 318.96,-1209.74 322,-1205.63 337.78,-1184.25 311.81,-985.99 330,-966.63 358.58,-936.2 488.34,-978.98 517,-948.63 542.65,-921.46 509.63,-643.95 530,-612.63 540.56,-596.39 559.76,-586.52 576.88,-580.65"/>
<polygon fill="#000000" fill-opacity="0.200000" stroke="#000000" stroke-width="2" stroke-opacity="0.200000" points="577.08,-582.79 582.17,-578.99 575.82,-578.78 577.08,-582.79"/>
</g>
<!-- src/layout/header/PageTitle.js&#45;&gt;src/store/ui/uiSlice.js -->
<g id="edge18" class="edge">
<title>src/layout/header/PageTitle.js&#45;&gt;src/store/ui/uiSlice.js</title>
<path fill="none" stroke="#000000" stroke-width="2" stroke-opacity="0.200000" d="M310.3,-1216.73C360.16,-1212.44 457.22,-1211.7 517,-1260.63 529.52,-1270.87 516.67,-1285.46 530,-1294.63 546.57,-1306.03 696.15,-1308.19 711,-1294.63 725.5,-1281.39 711.4,-1224.73 719,-1206.63 722.81,-1197.55 729.46,-1189.01 735.87,-1182.18"/>
<polygon fill="#000000" fill-opacity="0.200000" stroke="#000000" stroke-width="2" stroke-opacity="0.200000" points="737.2,-1183.82 739.95,-1178.09 734.22,-1180.85 737.2,-1183.82"/>
</g>
<!-- src/utils/removeSlashAndCapitalizeFirstLetter.js -->
<g id="node25" class="node">
<title>src/utils/removeSlashAndCapitalizeFirstLetter.js</title>
<g id="a_node25"><a xlink:href="src/utils/removeSlashAndCapitalizeFirstLetter.js" xlink:title="removeSlashAndCapitalizeFirstLetter.js">
<path fill="#ffffcc" stroke="black" d="M511,-1047.63C511,-1047.63 344,-1047.63 344,-1047.63 341,-1047.63 338,-1044.63 338,-1041.63 338,-1041.63 338,-1035.63 338,-1035.63 338,-1032.63 341,-1029.63 344,-1029.63 344,-1029.63 511,-1029.63 511,-1029.63 514,-1029.63 517,-1032.63 517,-1035.63 517,-1035.63 517,-1041.63 517,-1041.63 517,-1044.63 514,-1047.63 511,-1047.63"/>
<text text-anchor="start" x="346" y="-1036.43" font-family="Helvetica,sans-Serif" font-size="9.00">removeSlashAndCapitalizeFirstLetter.js</text>
</a>
</g>
</g>
<!-- src/layout/header/PageTitle.js&#45;&gt;src/utils/removeSlashAndCapitalizeFirstLetter.js -->
<g id="edge19" class="edge">
<title>src/layout/header/PageTitle.js&#45;&gt;src/utils/removeSlashAndCapitalizeFirstLetter.js</title>
<path fill="none" stroke="#000000" stroke-width="2" stroke-opacity="0.200000" d="M310.45,-1214.66C314.93,-1212.5 319.02,-1209.58 322,-1205.63 332.24,-1192.03 318.53,-1065.2 330,-1052.63 330.45,-1052.14 330.91,-1051.65 331.37,-1051.19"/>
<polygon fill="#000000" fill-opacity="0.200000" stroke="#000000" stroke-width="2" stroke-opacity="0.200000" points="332.33,-1053.13 335.58,-1047.66 329.63,-1049.91 332.33,-1053.13"/>
</g>
<!-- src/layout/header/Profile.js&#45;&gt;src/store/auth/authActions.js -->
<g id="edge24" class="edge">
<title>src/layout/header/Profile.js&#45;&gt;src/store/auth/authActions.js</title>
<path fill="none" stroke="#000000" stroke-width="2" stroke-opacity="0.200000" d="M304.91,-1193.48C361.7,-1199.62 496.02,-1214.14 566.51,-1221.76"/>
<polygon fill="#000000" fill-opacity="0.200000" stroke="#000000" stroke-width="2" stroke-opacity="0.200000" points="566,-1223.82 572.19,-1222.38 566.45,-1219.65 566,-1223.82"/>
</g>
<!-- src/layout/header/Profile.js&#45;&gt;src/assets/icons/index.js -->
<g id="edge20" class="edge">
<title>src/layout/header/Profile.js&#45;&gt;src/assets/icons/index.js</title>
<path fill="none" stroke="#000000" stroke-width="2" stroke-opacity="0.200000" d="M280.94,-1181.44C288.02,-1154.57 308.89,-1073.66 322,-1005.63 324.25,-993.93 321.31,-960.77 330,-952.63 360.43,-924.1 488.18,-966.78 517,-936.63 541.89,-910.58 510.34,-642.82 530,-612.63 540.57,-596.4 559.77,-586.53 576.89,-580.66"/>
<polygon fill="#000000" fill-opacity="0.200000" stroke="#000000" stroke-width="2" stroke-opacity="0.200000" points="577.09,-582.8 582.18,-579 575.83,-578.79 577.09,-582.8"/>
</g>
<!-- src/layout/header/Profile.js&#45;&gt;src/assets/images/profile&#45;pic.jpg -->
<g id="edge21" class="edge">
<title>src/layout/header/Profile.js&#45;&gt;src/assets/images/profile&#45;pic.jpg</title>
<path fill="none" stroke="#000000" stroke-width="2" stroke-opacity="0.200000" d="M279.7,-1181.23C284.41,-1145.92 302.68,-1021.79 330,-994.63 390.85,-934.13 454.24,-1005.14 517,-946.63 596.28,-872.71 609.1,-730.7 611.13,-680.63"/>
<polygon fill="#000000" fill-opacity="0.200000" stroke="#000000" stroke-width="2" stroke-opacity="0.200000" points="613.22,-680.98 611.32,-674.92 609.03,-680.85 613.22,-680.98"/>
</g>
<!-- src/layout/header/Profile.js&#45;&gt;src/components/search/index.js -->
<g id="edge22" class="edge">
<title>src/layout/header/Profile.js&#45;&gt;src/components/search/index.js</title>
<path fill="none" stroke="#000000" stroke-width="2" stroke-opacity="0.200000" d="M279.06,-1181.48C282.89,-1120.08 305.74,-769.01 330,-728.63 344.74,-704.1 372.51,-686.57 394.49,-675.77"/>
<polygon fill="#000000" fill-opacity="0.200000" stroke="#000000" stroke-width="2" stroke-opacity="0.200000" points="395.32,-677.7 399.85,-673.25 393.53,-673.9 395.32,-677.7"/>
</g>
<!-- src/layout/header/Profile.js&#45;&gt;src/hooks/useOutsideAlerter.js -->
<g id="edge23" class="edge">
<title>src/layout/header/Profile.js&#45;&gt;src/hooks/useOutsideAlerter.js</title>
<path fill="none" stroke="#000000" stroke-width="2" stroke-opacity="0.200000" d="M283.81,-1181.36C293.56,-1163.77 314.06,-1124.04 322,-1087.63 325.18,-1073.02 321.51,-830.94 330,-818.63 339.12,-805.4 353.49,-796.54 368.38,-790.6"/>
<polygon fill="#000000" fill-opacity="0.200000" stroke="#000000" stroke-width="2" stroke-opacity="0.200000" points="368.9,-792.65 373.82,-788.63 367.47,-788.7 368.9,-792.65"/>
</g>
<!-- src/layout/menu/Logo.js&#45;&gt;src/assets/icons/index.js -->
<g id="edge28" class="edge">
<title>src/layout/menu/Logo.js&#45;&gt;src/assets/icons/index.js</title>
<path fill="none" stroke="#000000" stroke-width="2" stroke-opacity="0.200000" d="M304.74,-1307.05C311.4,-1304.84 317.84,-1301.3 322,-1295.63 341.78,-1268.65 308.16,-1019.97 330,-994.63 385.1,-930.7 461.56,-1025.26 517,-961.63 542.49,-932.37 508.87,-645.17 530,-612.63 540.55,-596.38 559.75,-586.52 576.87,-580.65"/>
<polygon fill="#000000" fill-opacity="0.200000" stroke="#000000" stroke-width="2" stroke-opacity="0.200000" points="577.07,-582.79 582.17,-578.99 575.81,-578.78 577.07,-582.79"/>
</g>
<!-- src/layout/menu/Logo.js&#45;&gt;src/store/ui/uiSlice.js -->
<g id="edge29" class="edge">
<title>src/layout/menu/Logo.js&#45;&gt;src/store/ui/uiSlice.js</title>
<path fill="none" stroke="#000000" stroke-width="2" stroke-opacity="0.200000" d="M304.73,-1307.05C311.4,-1304.83 317.84,-1301.29 322,-1295.63 331.12,-1283.22 318.96,-1029.36 330,-1018.63 390.97,-959.4 645.75,-998.15 711,-1052.63 740,-1076.84 748.98,-1122.98 751.76,-1148.51"/>
<polygon fill="#000000" fill-opacity="0.200000" stroke="#000000" stroke-width="2" stroke-opacity="0.200000" points="749.64,-1148.4 752.27,-1154.18 753.82,-1148.02 749.64,-1148.4"/>
</g>
<!-- src/layout/menu/Logout.js&#45;&gt;src/store/auth/authActions.js -->
<g id="edge31" class="edge">
<title>src/layout/menu/Logout.js&#45;&gt;src/store/auth/authActions.js</title>
<path fill="none" stroke="#000000" stroke-width="2" stroke-opacity="0.200000" d="M305.34,-1335.95C311.52,-1333.73 317.57,-1330.46 322,-1325.63 331.91,-1314.82 319.58,-1303.94 330,-1293.63 393.5,-1230.84 504.54,-1222.94 566.48,-1223.98"/>
<polygon fill="#000000" fill-opacity="0.200000" stroke="#000000" stroke-width="2" stroke-opacity="0.200000" points="566.18,-1226.08 572.23,-1224.12 566.28,-1221.88 566.18,-1226.08"/>
</g>
<!-- src/layout/menu/Logout.js&#45;&gt;src/assets/icons/index.js -->
<g id="edge30" class="edge">
<title>src/layout/menu/Logout.js&#45;&gt;src/assets/icons/index.js</title>
<path fill="none" stroke="#000000" stroke-width="2" stroke-opacity="0.200000" d="M305.2,-1336.9C311.7,-1334.68 317.94,-1331.17 322,-1325.63 342.17,-1298.1 308,-1044.71 330,-1018.63 384.63,-953.87 462.08,-1046.13 517,-981.63 543.6,-950.39 507.69,-647.06 530,-612.63 540.53,-596.37 559.73,-586.51 576.85,-580.64"/>
<polygon fill="#000000" fill-opacity="0.200000" stroke="#000000" stroke-width="2" stroke-opacity="0.200000" points="577.06,-582.78 582.16,-578.98 575.8,-578.77 577.06,-582.78"/>
</g>
<!-- src/layout/menu/MenuContainer.js&#45;&gt;src/data/menuItems.js -->
<g id="edge32" class="edge">
<title>src/layout/menu/MenuContainer.js&#45;&gt;src/data/menuItems.js</title>
<path fill="none" stroke="#000000" stroke-width="2" stroke-opacity="0.200000" d="M307.69,-1271.37C313.35,-1268.22 318.57,-1264.07 322,-1258.63 333.1,-1240.99 316.28,-899.31 330,-883.63 342.57,-869.26 362.75,-864.63 381.41,-863.95"/>
<polygon fill="#000000" fill-opacity="0.200000" stroke="#000000" stroke-width="2" stroke-opacity="0.200000" points="381.39,-866.05 387.38,-863.92 381.37,-861.85 381.39,-866.05"/>
</g>
<!-- src/layout/menu/MenuItems.js -->
<g id="node30" class="node">
<title>src/layout/menu/MenuItems.js</title>
<g id="a_node30"><a xlink:href="src/layout/menu/MenuItems.js" xlink:title="MenuItems.js">
<path fill="#ffffcc" stroke="black" d="M457.5,-1317.63C457.5,-1317.63 397.5,-1317.63 397.5,-1317.63 394.5,-1317.63 391.5,-1314.63 391.5,-1311.63 391.5,-1311.63 391.5,-1305.63 391.5,-1305.63 391.5,-1302.63 394.5,-1299.63 397.5,-1299.63 397.5,-1299.63 457.5,-1299.63 457.5,-1299.63 460.5,-1299.63 463.5,-1302.63 463.5,-1305.63 463.5,-1305.63 463.5,-1311.63 463.5,-1311.63 463.5,-1314.63 460.5,-1317.63 457.5,-1317.63"/>
<text text-anchor="start" x="399.5" y="-1306.43" font-family="Helvetica,sans-Serif" font-size="9.00">MenuItems.js</text>
</a>
</g>
</g>
<!-- src/layout/menu/MenuContainer.js&#45;&gt;src/layout/menu/MenuItems.js -->
<g id="edge33" class="edge">
<title>src/layout/menu/MenuContainer.js&#45;&gt;src/layout/menu/MenuItems.js</title>
<path fill="none" stroke="#000000" stroke-width="2" stroke-opacity="0.200000" d="M322.1,-1288.88C341.1,-1292.47 363.32,-1296.67 382.37,-1300.28"/>
<polygon fill="#000000" fill-opacity="0.200000" stroke="#000000" stroke-width="2" stroke-opacity="0.200000" points="381.9,-1302.33 388.18,-1301.38 382.68,-1298.2 381.9,-1302.33"/>
</g>
<!-- src/layout/menu/MenuItems.js&#45;&gt;src/store/ui/uiSlice.js -->
<g id="edge34" class="edge">
<title>src/layout/menu/MenuItems.js&#45;&gt;src/store/ui/uiSlice.js</title>
<path fill="none" stroke="#000000" stroke-width="2" stroke-opacity="0.200000" d="M453.67,-1318.04C508.54,-1336.73 639.7,-1371.29 711,-1304.63 726.96,-1289.71 710.63,-1226.81 719,-1206.63 722.77,-1197.53 729.41,-1188.99 735.83,-1182.16"/>
<polygon fill="#000000" fill-opacity="0.200000" stroke="#000000" stroke-width="2" stroke-opacity="0.200000" points="737.16,-1183.8 739.92,-1178.08 734.19,-1180.83 737.16,-1183.8"/>
</g>
<!-- src/pages/dashboard/Recent.js&#45;&gt;src/assets/icons/index.js -->
<g id="edge40" class="edge">
<title>src/pages/dashboard/Recent.js&#45;&gt;src/assets/icons/index.js</title>
<path fill="none" stroke="#000000" stroke-width="2" stroke-opacity="0.200000" d="M305.71,-260.2C312.04,-256.96 318.07,-252.55 322,-246.63 336.52,-224.72 310.8,-146.57 330,-128.63 345.18,-114.44 500.85,-115.55 517,-128.63 585,-183.68 606.13,-477.23 610.54,-554.16"/>
<polygon fill="#000000" fill-opacity="0.200000" stroke="#000000" stroke-width="2" stroke-opacity="0.200000" points="608.44,-554.27 610.87,-560.15 612.64,-554.04 608.44,-554.27"/>
</g>
<!-- src/pages/dashboard/_srv.js -->
<g id="node32" class="node">
<title>src/pages/dashboard/_srv.js</title>
<g id="a_node32"><a xlink:href="src/pages/dashboard/_srv.js" xlink:title="_srv.js">
<path fill="#ffffcc" stroke="black" d="M448.5,-307.63C448.5,-307.63 406.5,-307.63 406.5,-307.63 403.5,-307.63 400.5,-304.63 400.5,-301.63 400.5,-301.63 400.5,-295.63 400.5,-295.63 400.5,-292.63 403.5,-289.63 406.5,-289.63 406.5,-289.63 448.5,-289.63 448.5,-289.63 451.5,-289.63 454.5,-292.63 454.5,-295.63 454.5,-295.63 454.5,-301.63 454.5,-301.63 454.5,-304.63 451.5,-307.63 448.5,-307.63"/>
<text text-anchor="start" x="413.5" y="-296.43" font-family="Helvetica,sans-Serif" font-size="9.00">_srv.js</text>
</a>
</g>
</g>
<!-- src/pages/dashboard/Recent.js&#45;&gt;src/pages/dashboard/_srv.js -->
<g id="edge41" class="edge">
<title>src/pages/dashboard/Recent.js&#45;&gt;src/pages/dashboard/_srv.js</title>
<path fill="none" stroke="#000000" stroke-width="2" stroke-opacity="0.200000" d="M305.86,-277.31C313.61,-279.57 322.09,-281.87 330,-283.63 350.1,-288.1 372.86,-291.7 391.22,-294.26"/>
<polygon fill="#000000" fill-opacity="0.200000" stroke="#000000" stroke-width="2" stroke-opacity="0.200000" points="390.89,-296.33 397.12,-295.06 391.45,-292.17 390.89,-296.33"/>
</g>
<!-- src/pages/dashboard/RecentItem.js -->
<g id="node33" class="node">
<title>src/pages/dashboard/RecentItem.js</title>
<g id="a_node33"><a xlink:href="src/pages/dashboard/RecentItem.js" xlink:title="RecentItem.js">
<path fill="#ffffcc" stroke="black" d="M458.5,-277.63C458.5,-277.63 396.5,-277.63 396.5,-277.63 393.5,-277.63 390.5,-274.63 390.5,-271.63 390.5,-271.63 390.5,-265.63 390.5,-265.63 390.5,-262.63 393.5,-259.63 396.5,-259.63 396.5,-259.63 458.5,-259.63 458.5,-259.63 461.5,-259.63 464.5,-262.63 464.5,-265.63 464.5,-265.63 464.5,-271.63 464.5,-271.63 464.5,-274.63 461.5,-277.63 458.5,-277.63"/>
<text text-anchor="start" x="398.5" y="-266.43" font-family="Helvetica,sans-Serif" font-size="9.00">RecentItem.js</text>
</a>
</g>
</g>
<!-- src/pages/dashboard/Recent.js&#45;&gt;src/pages/dashboard/RecentItem.js -->
<g id="edge42" class="edge">
<title>src/pages/dashboard/Recent.js&#45;&gt;src/pages/dashboard/RecentItem.js</title>
<path fill="none" stroke="#000000" stroke-width="2" stroke-opacity="0.200000" d="M305.99,-268.63C327.14,-268.63 356.8,-268.63 381.4,-268.63"/>
<polygon fill="#000000" fill-opacity="0.200000" stroke="#000000" stroke-width="2" stroke-opacity="0.200000" points="381.19,-270.73 387.19,-268.63 381.19,-266.53 381.19,-270.73"/>
</g>
<!-- src/utils/ajax/index.js -->
<g id="node37" class="node">
<title>src/utils/ajax/index.js</title>
<g id="a_node37"><a xlink:href="src/utils/ajax/index.js" xlink:title="index.js">
<path fill="#ffffcc" stroke="black" d="M448.5,-1081.63C448.5,-1081.63 406.5,-1081.63 406.5,-1081.63 403.5,-1081.63 400.5,-1078.63 400.5,-1075.63 400.5,-1075.63 400.5,-1069.63 400.5,-1069.63 400.5,-1066.63 403.5,-1063.63 406.5,-1063.63 406.5,-1063.63 448.5,-1063.63 448.5,-1063.63 451.5,-1063.63 454.5,-1066.63 454.5,-1069.63 454.5,-1069.63 454.5,-1075.63 454.5,-1075.63 454.5,-1078.63 451.5,-1081.63 448.5,-1081.63"/>
<text text-anchor="start" x="411.5" y="-1070.43" font-family="Helvetica,sans-Serif" font-size="9.00">index.js</text>
</a>
</g>
</g>
<!-- src/pages/dashboard/_srv.js&#45;&gt;src/utils/ajax/index.js -->
<g id="edge48" class="edge">
<title>src/pages/dashboard/_srv.js&#45;&gt;src/utils/ajax/index.js</title>
<path fill="none" stroke="#000000" stroke-width="2" stroke-opacity="0.200000" d="M400.41,-293.81C373.32,-290.72 334.5,-291.55 326,-319.63 323.05,-329.38 323.05,-1043.87 326,-1053.63 333.55,-1078.57 365.25,-1081.31 391.24,-1079.02"/>
<polygon fill="#000000" fill-opacity="0.200000" stroke="#000000" stroke-width="2" stroke-opacity="0.200000" points="391.41,-1081.12 397.14,-1078.37 390.95,-1076.94 391.41,-1081.12"/>
</g>
<!-- src/pages/dashboard/Survay.js&#45;&gt;src/components/survayCard/index.js -->
<g id="edge43" class="edge">
<title>src/pages/dashboard/Survay.js&#45;&gt;src/components/survayCard/index.js</title>
<path fill="none" stroke="#000000" stroke-width="2" stroke-opacity="0.200000" d="M304.89,-331.27C311.39,-333.19 317.71,-336.38 322,-341.63 334.3,-356.65 319.42,-412.35 330,-428.63 344.22,-450.51 370.55,-464.38 392.12,-472.58"/>
<polygon fill="#000000" fill-opacity="0.200000" stroke="#000000" stroke-width="2" stroke-opacity="0.200000" points="391.21,-474.48 397.57,-474.53 392.63,-470.53 391.21,-474.48"/>
</g>
<!-- src/pages/dashboard/Survay.js&#45;&gt;src/data/cardsInfo.js -->
<g id="edge44" class="edge">
<title>src/pages/dashboard/Survay.js&#45;&gt;src/data/cardsInfo.js</title>
<path fill="none" stroke="#000000" stroke-width="2" stroke-opacity="0.200000" d="M278.84,-337.99C281.29,-402.49 296.92,-779.35 330,-816.63 343.85,-832.23 366.26,-837.98 386.01,-839.72"/>
<polygon fill="#000000" fill-opacity="0.200000" stroke="#000000" stroke-width="2" stroke-opacity="0.200000" points="385.71,-841.8 391.83,-840.07 385.97,-837.61 385.71,-841.8"/>
</g>
<!-- src/pages/dashboard/Top.js&#45;&gt;src/assets/icons/index.js -->
<g id="edge45" class="edge">
<title>src/pages/dashboard/Top.js&#45;&gt;src/assets/icons/index.js</title>
<path fill="none" stroke="#000000" stroke-width="2" stroke-opacity="0.200000" d="M304.88,-302.6C311.37,-304.82 317.7,-308.27 322,-313.63 341.34,-337.69 311.54,-357.88 330,-382.63 384.06,-455.08 444.1,-409.18 517,-462.63 553.33,-489.26 585.03,-532.39 600.83,-555.95"/>
<polygon fill="#000000" fill-opacity="0.200000" stroke="#000000" stroke-width="2" stroke-opacity="0.200000" points="599.03,-557.03 604.08,-560.88 602.53,-554.72 599.03,-557.03"/>
</g>
<!-- src/pages/dashboard/Top.js&#45;&gt;src/pages/dashboard/_srv.js -->
<g id="edge46" class="edge">
<title>src/pages/dashboard/Top.js&#45;&gt;src/pages/dashboard/_srv.js</title>
<path fill="none" stroke="#000000" stroke-width="2" stroke-opacity="0.200000" d="M304.96,-298.63C329.06,-298.63 364.82,-298.63 391.32,-298.63"/>
<polygon fill="#000000" fill-opacity="0.200000" stroke="#000000" stroke-width="2" stroke-opacity="0.200000" points="391.24,-300.73 397.24,-298.63 391.24,-296.53 391.24,-300.73"/>
</g>
<!-- src/pages/dashboard/TopItem.js -->
<g id="node36" class="node">
<title>src/pages/dashboard/TopItem.js</title>
<g id="a_node36"><a xlink:href="src/pages/dashboard/TopItem.js" xlink:title="TopItem.js">
<path fill="#ffffcc" stroke="black" d="M451.5,-337.63C451.5,-337.63 403.5,-337.63 403.5,-337.63 400.5,-337.63 397.5,-334.63 397.5,-331.63 397.5,-331.63 397.5,-325.63 397.5,-325.63 397.5,-322.63 400.5,-319.63 403.5,-319.63 403.5,-319.63 451.5,-319.63 451.5,-319.63 454.5,-319.63 457.5,-322.63 457.5,-325.63 457.5,-325.63 457.5,-331.63 457.5,-331.63 457.5,-334.63 454.5,-337.63 451.5,-337.63"/>
<text text-anchor="start" x="405.5" y="-326.43" font-family="Helvetica,sans-Serif" font-size="9.00">TopItem.js</text>
</a>
</g>
</g>
<!-- src/pages/dashboard/Top.js&#45;&gt;src/pages/dashboard/TopItem.js -->
<g id="edge47" class="edge">
<title>src/pages/dashboard/Top.js&#45;&gt;src/pages/dashboard/TopItem.js</title>
<path fill="none" stroke="#000000" stroke-width="2" stroke-opacity="0.200000" d="M304.79,-307C312.83,-309.36 321.73,-311.79 330,-313.63 349.2,-317.9 370.82,-321.38 388.72,-323.91"/>
<polygon fill="#000000" fill-opacity="0.200000" stroke="#000000" stroke-width="2" stroke-opacity="0.200000" points="387.95,-325.92 394.18,-324.66 388.52,-321.76 387.95,-325.92"/>
</g>
<!-- src/utils/ajax/index.js&#45;&gt;src/store/auth/authActions.js -->
<g id="edge76" class="edge">
<title>src/utils/ajax/index.js&#45;&gt;src/store/auth/authActions.js</title>
<path fill="none" stroke="#000000" stroke-width="2" stroke-opacity="0.200000" d="M448.96,-1082.09C469.63,-1092.77 500.75,-1112.17 517,-1138.63 534.71,-1167.45 505.92,-1189.87 530,-1213.63 537.24,-1220.77 546.73,-1224.95 556.67,-1227.26"/>
<polygon fill="#000000" fill-opacity="0.200000" stroke="#000000" stroke-width="2" stroke-opacity="0.200000" points="566.02,-1230.59 572.24,-1229.28 566.56,-1226.43 566.02,-1230.59"/>
<polyline fill="none" stroke="#000000" stroke-width="2" stroke-opacity="0.200000" points="565.29,-1228.38 562.32,-1228"/>
<ellipse fill="none" stroke="#000000" stroke-width="2" stroke-opacity="0.200000" cx="558.95" cy="-1227.56" rx="2.4" ry="2.4"/>
</g>
<!-- src/utils/ajax/index.js&#45;&gt;src/store/index.js -->
<g id="edge75" class="edge">
<title>src/utils/ajax/index.js&#45;&gt;src/store/index.js</title>
<path fill="none" stroke="#000000" stroke-width="2" stroke-opacity="0.200000" d="M440.37,-1081.98C458.71,-1096.07 495.43,-1122.85 530,-1139.63 544.8,-1146.81 561.98,-1152.81 576.74,-1157.32"/>
<polygon fill="#000000" fill-opacity="0.200000" stroke="#000000" stroke-width="2" stroke-opacity="0.200000" points="575.87,-1159.25 582.22,-1158.95 577.06,-1155.23 575.87,-1159.25"/>
</g>
<!-- src/utils/ajax/index.js&#45;&gt;src/store/ui/uiSlice.js -->
<g id="edge77" class="edge">
<title>src/utils/ajax/index.js&#45;&gt;src/store/ui/uiSlice.js</title>
<path fill="none" stroke="#000000" stroke-width="2" stroke-opacity="0.200000" d="M454.82,-1076.46C515.89,-1085.6 665.44,-1109.6 711,-1131.63 721.08,-1136.5 730.78,-1144.31 738.32,-1151.31"/>
<polygon fill="#000000" fill-opacity="0.200000" stroke="#000000" stroke-width="2" stroke-opacity="0.200000" points="736.65,-1152.62 742.41,-1155.3 739.58,-1149.61 736.65,-1152.62"/>
</g>
<!-- src/utils/ajax/routesWithoutMainLoaderHandler.js -->
<g id="node44" class="node">
<title>src/utils/ajax/routesWithoutMainLoaderHandler.js</title>
<g id="a_node44"><a xlink:href="src/utils/ajax/routesWithoutMainLoaderHandler.js" xlink:title="routesWithoutMainLoaderHandler.js">
<path fill="#ffffcc" stroke="black" d="M689,-1081.63C689,-1081.63 536,-1081.63 536,-1081.63 533,-1081.63 530,-1078.63 530,-1075.63 530,-1075.63 530,-1069.63 530,-1069.63 530,-1066.63 533,-1063.63 536,-1063.63 536,-1063.63 689,-1063.63 689,-1063.63 692,-1063.63 695,-1066.63 695,-1069.63 695,-1069.63 695,-1075.63 695,-1075.63 695,-1078.63 692,-1081.63 689,-1081.63"/>
<text text-anchor="start" x="538" y="-1070.43" font-family="Helvetica,sans-Serif" font-size="9.00">routesWithoutMainLoaderHandler.js</text>
</a>
</g>
</g>
<!-- src/utils/ajax/index.js&#45;&gt;src/utils/ajax/routesWithoutMainLoaderHandler.js -->
<g id="edge78" class="edge">
<title>src/utils/ajax/index.js&#45;&gt;src/utils/ajax/routesWithoutMainLoaderHandler.js</title>
<path fill="none" stroke="#000000" stroke-width="2" stroke-opacity="0.200000" d="M454.72,-1072.63C472.32,-1072.63 496.65,-1072.63 520.9,-1072.63"/>
<polygon fill="#000000" fill-opacity="0.200000" stroke="#000000" stroke-width="2" stroke-opacity="0.200000" points="520.79,-1074.73 526.79,-1072.63 520.79,-1070.53 520.79,-1074.73"/>
</g>
<!-- src/pages/login&#45;register/Hero.js&#45;&gt;src/assets/icons/index.js -->
<g id="edge52" class="edge">
<title>src/pages/login&#45;register/Hero.js&#45;&gt;src/assets/icons/index.js</title>
<path fill="none" stroke="#000000" stroke-width="2" stroke-opacity="0.200000" d="M304.7,-152.24C311.36,-154.45 317.81,-157.99 322,-163.63 335.46,-181.75 315.2,-349.59 330,-366.63 385.39,-430.4 448.45,-351.26 517,-400.63 571.06,-439.56 597.67,-519.36 607.22,-554.89"/>
<polygon fill="#000000" fill-opacity="0.200000" stroke="#000000" stroke-width="2" stroke-opacity="0.200000" points="605.1,-555.07 608.63,-560.36 609.17,-554.02 605.1,-555.07"/>
</g>
<!-- src/pages/login&#45;register/Hero.js&#45;&gt;src/assets/images/hero&#45;pattern.png -->
<g id="edge53" class="edge">
<title>src/pages/login&#45;register/Hero.js&#45;&gt;src/assets/images/hero&#45;pattern.png</title>
<path fill="none" stroke="#000000" stroke-width="2" stroke-opacity="0.200000" d="M304.71,-152.23C311.37,-154.44 317.82,-157.98 322,-163.63 336.82,-183.65 315.68,-367.25 330,-387.63 381.48,-460.89 463.63,-390.72 517,-462.63 536.68,-489.14 508.8,-585.32 530,-610.63 537.88,-620.03 549.31,-625.64 561.14,-628.92"/>
<polygon fill="#000000" fill-opacity="0.200000" stroke="#000000" stroke-width="2" stroke-opacity="0.200000" points="560.51,-630.93 566.83,-630.24 561.46,-626.84 560.51,-630.93"/>
</g>
<!-- src/pages/login&#45;register/Login.js&#45;&gt;src/store/auth/authActions.js -->
<g id="edge57" class="edge">
<title>src/pages/login&#45;register/Login.js&#45;&gt;src/store/auth/authActions.js</title>
<path fill="none" stroke="#000000" stroke-width="2" stroke-opacity="0.200000" d="M294.04,-218.04C304.06,-225.08 316.25,-235.69 322,-248.63 332.13,-271.42 314.57,-1127.02 330,-1146.63 383,-1213.97 447.27,-1143.81 517,-1193.63 525.63,-1199.79 521.11,-1207.85 530,-1213.63 540.63,-1220.54 553.66,-1224.22 566.15,-1226.09"/>
<polygon fill="#000000" fill-opacity="0.200000" stroke="#000000" stroke-width="2" stroke-opacity="0.200000" points="565.9,-1228.17 572.1,-1226.79 566.39,-1224 565.9,-1228.17"/>
</g>
<!-- src/pages/login&#45;register/Login.js&#45;&gt;src/assets/icons/index.js -->
<g id="edge54" class="edge">
<title>src/pages/login&#45;register/Login.js&#45;&gt;src/assets/icons/index.js</title>
<path fill="none" stroke="#000000" stroke-width="2" stroke-opacity="0.200000" d="M304.93,-204.69C311.43,-202.47 317.73,-199.01 322,-193.63 332.96,-179.8 316.91,-126.46 330,-114.63 345.41,-100.7 500.89,-101.5 517,-114.63 587.17,-171.8 606.79,-476.8 610.69,-554.57"/>
<polygon fill="#000000" fill-opacity="0.200000" stroke="#000000" stroke-width="2" stroke-opacity="0.200000" points="608.58,-554.35 610.96,-560.24 612.77,-554.15 608.58,-554.35"/>
</g>
<!-- src/pages/login&#45;register/Login.js&#45;&gt;src/components/formInput/index.js -->
<g id="edge55" class="edge">
<title>src/pages/login&#45;register/Login.js&#45;&gt;src/components/formInput/index.js</title>
<path fill="none" stroke="#000000" stroke-width="2" stroke-opacity="0.200000" d="M293.96,-218.08C303.94,-225.13 316.12,-235.75 322,-248.63 334.56,-276.13 310.8,-497.27 330,-520.63 344.61,-538.4 370.33,-543.6 391.54,-544.52"/>
<polygon fill="#000000" fill-opacity="0.200000" stroke="#000000" stroke-width="2" stroke-opacity="0.200000" points="391.25,-546.61 397.29,-544.62 391.33,-542.41 391.25,-546.61"/>
</g>
<!-- src/pages/login&#45;register/Login.js&#45;&gt;src/hooks/useUsernameValidation.js -->
<g id="edge56" class="edge">
<title>src/pages/login&#45;register/Login.js&#45;&gt;src/hooks/useUsernameValidation.js</title>
<path fill="none" stroke="#000000" stroke-width="2" stroke-opacity="0.200000" d="M294.01,-218.06C304.01,-225.1 316.19,-235.71 322,-248.63 332.3,-271.53 316.59,-679.4 330,-700.63 340.75,-717.64 359.49,-728.83 377.62,-736.08"/>
<polygon fill="#000000" fill-opacity="0.200000" stroke="#000000" stroke-width="2" stroke-opacity="0.200000" points="376.68,-737.98 383.04,-738.1 378.14,-734.04 376.68,-737.98"/>
</g>
<!-- src/pages/login&#45;register/Login.js&#45;&gt;src/store/ui/uiSlice.js -->
<g id="edge58" class="edge">
<title>src/pages/login&#45;register/Login.js&#45;&gt;src/store/ui/uiSlice.js</title>
<path fill="none" stroke="#000000" stroke-width="2" stroke-opacity="0.200000" d="M304.98,-204.74C311.48,-202.52 317.78,-199.05 322,-193.63 334.76,-177.27 314.72,-114.65 330,-100.63 360.62,-72.53 482.3,-77.76 517,-100.63 699.54,-220.92 659.7,-340.12 711,-552.63 739.37,-670.14 750.4,-1059.62 752.58,-1148.47"/>
<polygon fill="#000000" fill-opacity="0.200000" stroke="#000000" stroke-width="2" stroke-opacity="0.200000" points="750.48,-1148.4 752.72,-1154.35 754.68,-1148.3 750.48,-1148.4"/>
</g>
<!-- src/pages/login&#45;register/Register.js&#45;&gt;src/store/auth/authActions.js -->
<g id="edge62" class="edge">
<title>src/pages/login&#45;register/Register.js&#45;&gt;src/store/auth/authActions.js</title>
<path fill="none" stroke="#000000" stroke-width="2" stroke-opacity="0.200000" d="M308.85,-183.69C314,-185.91 318.73,-189.09 322,-193.63 336.88,-214.3 313.74,-1091.02 330,-1110.63 384.07,-1175.86 457.12,-1087.69 517,-1147.63 538.13,-1168.78 508.48,-1192.87 530,-1213.63 539.73,-1223.01 553.36,-1227.24 566.69,-1228.85"/>
<polygon fill="#000000" fill-opacity="0.200000" stroke="#000000" stroke-width="2" stroke-opacity="0.200000" points="566.19,-1230.91 572.34,-1229.31 566.53,-1226.73 566.19,-1230.91"/>
</g>
<!-- src/pages/login&#45;register/Register.js&#45;&gt;src/assets/icons/index.js -->
<g id="edge59" class="edge">
<title>src/pages/login&#45;register/Register.js&#45;&gt;src/assets/icons/index.js</title>
<path fill="none" stroke="#000000" stroke-width="2" stroke-opacity="0.200000" d="M308.88,-173.06C313.9,-170.88 318.57,-167.84 322,-163.63 339.8,-141.73 308.82,-119.29 330,-100.63 361.18,-73.16 484.86,-74.29 517,-100.63 589.21,-159.81 607.36,-475.26 610.81,-554.54"/>
<polygon fill="#000000" fill-opacity="0.200000" stroke="#000000" stroke-width="2" stroke-opacity="0.200000" points="608.7,-554.44 611.05,-560.35 612.9,-554.27 608.7,-554.44"/>
</g>
<!-- src/pages/login&#45;register/Register.js&#45;&gt;src/components/formInput/index.js -->
<g id="edge60" class="edge">
<title>src/pages/login&#45;register/Register.js&#45;&gt;src/components/formInput/index.js</title>
<path fill="none" stroke="#000000" stroke-width="2" stroke-opacity="0.200000" d="M308.79,-183.73C313.95,-185.95 318.7,-189.11 322,-193.63 343.46,-222.96 306.99,-492.49 330,-520.63 344.56,-538.43 370.29,-543.63 391.51,-544.54"/>
<polygon fill="#000000" fill-opacity="0.200000" stroke="#000000" stroke-width="2" stroke-opacity="0.200000" points="391.23,-546.64 397.26,-544.64 391.3,-542.44 391.23,-546.64"/>
</g>
<!-- src/pages/login&#45;register/Register.js&#45;&gt;src/hooks/useUsernameValidation.js -->
<g id="edge61" class="edge">
<title>src/pages/login&#45;register/Register.js&#45;&gt;src/hooks/useUsernameValidation.js</title>
<path fill="none" stroke="#000000" stroke-width="2" stroke-opacity="0.200000" d="M308.82,-183.71C313.98,-185.93 318.72,-189.1 322,-193.63 338.53,-216.44 314.98,-676.8 330,-700.63 340.73,-717.65 359.47,-728.84 377.6,-736.09"/>
<polygon fill="#000000" fill-opacity="0.200000" stroke="#000000" stroke-width="2" stroke-opacity="0.200000" points="376.66,-737.99 383.02,-738.1 378.13,-734.05 376.66,-737.99"/>
</g>
<!-- src/pages/login&#45;register/Register.js&#45;&gt;src/store/ui/uiSlice.js -->
<g id="edge63" class="edge">
<title>src/pages/login&#45;register/Register.js&#45;&gt;src/store/ui/uiSlice.js</title>
<path fill="none" stroke="#000000" stroke-width="2" stroke-opacity="0.200000" d="M309,-173.16C314.01,-170.96 318.65,-167.9 322,-163.63 333.98,-148.35 315.66,-89.71 330,-76.63 455.51,37.87 598.21,19.43 711,-107.63 746.97,-148.15 752.31,-1011.06 752.93,-1148.3"/>
<polygon fill="#000000" fill-opacity="0.200000" stroke="#000000" stroke-width="2" stroke-opacity="0.200000" points="750.83,-1148.2 752.95,-1154.19 755.03,-1148.18 750.83,-1148.2"/>
</g>
<!-- src/pages/login&#45;register/_srv.js -->
<g id="node41" class="node">
<title>src/pages/login&#45;register/_srv.js</title>
<g id="a_node41"><a xlink:href="src/pages/login-register/_srv.js" xlink:title="_srv.js">
<path fill="#ffffcc" stroke="black" d="M448.5,-202.63C448.5,-202.63 406.5,-202.63 406.5,-202.63 403.5,-202.63 400.5,-199.63 400.5,-196.63 400.5,-196.63 400.5,-190.63 400.5,-190.63 400.5,-187.63 403.5,-184.63 406.5,-184.63 406.5,-184.63 448.5,-184.63 448.5,-184.63 451.5,-184.63 454.5,-187.63 454.5,-190.63 454.5,-190.63 454.5,-196.63 454.5,-196.63 454.5,-199.63 451.5,-202.63 448.5,-202.63"/>
<text text-anchor="start" x="413.5" y="-191.43" font-family="Helvetica,sans-Serif" font-size="9.00">_srv.js</text>
</a>
</g>
</g>
<!-- src/pages/login&#45;register/Register.js&#45;&gt;src/pages/login&#45;register/_srv.js -->
<g id="edge64" class="edge">
<title>src/pages/login&#45;register/Register.js&#45;&gt;src/pages/login&#45;register/_srv.js</title>
<path fill="none" stroke="#000000" stroke-width="2" stroke-opacity="0.200000" d="M308.81,-181.7C332.76,-184.13 366.22,-187.52 391.35,-190.07"/>
<polygon fill="#000000" fill-opacity="0.200000" stroke="#000000" stroke-width="2" stroke-opacity="0.200000" points="391,-192.14 397.18,-190.66 391.43,-187.96 391,-192.14"/>
</g>
<!-- src/pages/login&#45;register/_srv.js&#45;&gt;src/utils/ajax/index.js -->
<g id="edge65" class="edge">
<title>src/pages/login&#45;register/_srv.js&#45;&gt;src/utils/ajax/index.js</title>
<path fill="none" stroke="#000000" stroke-width="2" stroke-opacity="0.200000" d="M400.4,-199.37C373.73,-206.79 335.65,-222.75 326,-254.63 322.78,-265.25 322.78,-1043.01 326,-1053.63 333.55,-1078.57 365.25,-1081.31 391.24,-1079.02"/>
<polygon fill="#000000" fill-opacity="0.200000" stroke="#000000" stroke-width="2" stroke-opacity="0.200000" points="391.41,-1081.12 397.14,-1078.37 390.95,-1076.94 391.41,-1081.12"/>
</g>
<!-- src/store/auth/_srv.js&#45;&gt;src/utils/ajax/index.js -->
<g id="edge69" class="edge">
<title>src/store/auth/_srv.js&#45;&gt;src/utils/ajax/index.js</title>
<path fill="none" stroke="#000000" stroke-width="2" stroke-opacity="0.200000" d="M732.18,-1217.18C727.11,-1213.91 722.21,-1209.75 719,-1204.63 703.76,-1180.35 731.03,-1161.14 711,-1140.63 682.59,-1111.53 569.24,-1124.32 530,-1113.63 507.74,-1107.56 483.77,-1098.03 464.72,-1089.69"/>
<polygon fill="#000000" fill-opacity="0.200000" stroke="#000000" stroke-width="2" stroke-opacity="0.200000" points="456.95,-1083.86 450.62,-1083.3 455.22,-1087.69 456.95,-1083.86"/>
<polyline fill="none" stroke="#000000" stroke-width="2" stroke-opacity="0.200000" points="457,-1086.19 459.73,-1087.43"/>
<ellipse fill="none" stroke="#000000" stroke-width="2" stroke-opacity="0.200000" cx="462.83" cy="-1088.83" rx="2.4" ry="2.4"/>
</g>
<!-- src/utils/ajax/routesWithoutMainLoaderHandler.js&#45;&gt;src/data/routesWithoutMainLoader.js -->
<g id="edge79" class="edge">
<title>src/utils/ajax/routesWithoutMainLoaderHandler.js&#45;&gt;src/data/routesWithoutMainLoader.js</title>
<path fill="none" stroke="#000000" stroke-width="2" stroke-opacity="0.200000" d="M601.61,-1063.23C571.63,-1034.72 481.56,-949.08 444.6,-913.93"/>
<polygon fill="#000000" fill-opacity="0.200000" stroke="#000000" stroke-width="2" stroke-opacity="0.200000" points="446.33,-912.68 440.53,-910.07 443.43,-915.72 446.33,-912.68"/>
</g>
<!-- src/utils/ajax/routesWithoutMainLoaderHandler.js&#45;&gt;src/store/index.js -->
<g id="edge80" class="edge">
<title>src/utils/ajax/routesWithoutMainLoaderHandler.js&#45;&gt;src/store/index.js</title>
<path fill="none" stroke="#000000" stroke-width="2" stroke-opacity="0.200000" d="M612.5,-1081.81C612.5,-1104.04 612.5,-1126.27 612.5,-1148.5"/>
<polygon fill="#000000" fill-opacity="0.200000" stroke="#000000" stroke-width="2" stroke-opacity="0.200000" points="610.4,-1148.32 612.5,-1154.32 614.6,-1148.32 610.4,-1148.32"/>
</g>
<!-- src/utils/ajax/routesWithoutMainLoaderHandler.js&#45;&gt;src/store/ui/uiSlice.js -->
<g id="edge81" class="edge">
<title>src/utils/ajax/routesWithoutMainLoaderHandler.js&#45;&gt;src/store/ui/uiSlice.js</title>
<path fill="none" stroke="#000000" stroke-width="2" stroke-opacity="0.200000" d="M655.09,-1082.1C673.48,-1087.7 694.61,-1096.2 711,-1108.63 725.46,-1119.6 737.09,-1136.92 744.41,-1149.78"/>
<polygon fill="#000000" fill-opacity="0.200000" stroke="#000000" stroke-width="2" stroke-opacity="0.200000" points="742.44,-1150.55 747.15,-1154.82 746.13,-1148.54 742.44,-1150.55"/>
</g>
</g>
</svg>
